# Blender v2.79 (sub 0) OBJ File: ''
# www.blender.org
mtllib banana.mtl
o banana
v -0.063127 0.030503 0.010994
v -0.063326 0.030813 0.010991
v -0.063578 0.029981 0.010280
v -0.062560 0.030373 0.010646
v -0.062747 0.029618 0.010059
v -0.063256 0.028420 0.009873
v -0.063140 0.029238 0.011142
v -0.062680 0.030946 0.011718
v -0.062575 0.031073 0.011502
v -0.062052 0.031033 0.011160
v -0.062655 0.023949 0.011667
v -0.062885 0.026609 0.009412
v -0.062109 0.021589 0.009722
v -0.062752 0.026799 0.011830
v -0.061082 0.024902 0.008782
v -0.061915 0.027260 0.009421
v -0.062840 0.027888 0.010951
v -0.062145 0.028312 0.012532
v -0.062810 0.028719 0.011935
v -0.062705 0.030108 0.011833
v -0.062274 0.029306 0.012355
v -0.061540 0.029577 0.010346
v -0.061833 0.031332 0.011976
v -0.061764 0.030414 0.012683
v -0.061861 0.019203 0.011075
v -0.060905 0.021999 0.013079
v -0.061367 0.027109 0.013237
v -0.061116 0.024616 0.013184
v -0.061063 0.017408 0.009160
v -0.060131 0.019506 0.008533
v -0.061269 0.031201 0.011714
v -0.060996 0.030315 0.010970
v -0.061040 0.013984 0.010868
v -0.059415 0.017428 0.013265
v -0.060108 0.019592 0.013192
v -0.061208 0.030951 0.012753
v -0.060732 0.030238 0.013192
v -0.061508 0.028915 0.013018
v -0.060673 0.031474 0.012316
v -0.061146 0.031431 0.012434
v -0.059773 0.028526 0.013703
v -0.059495 0.026577 0.013789
v -0.059315 0.024723 0.013877
v -0.058181 0.021475 0.008489
v -0.057434 0.025825 0.009897
v -0.059773 0.029271 0.010646
v -0.059643 0.012429 0.008180
v -0.058147 0.014783 0.007872
v -0.060474 0.009875 0.011222
v -0.060504 0.008896 0.009286
v -0.059073 0.012074 0.012651
v -0.059225 0.014594 0.012935
v -0.059032 0.022607 0.013828
v -0.058599 0.020185 0.013698
v -0.059931 0.031302 0.013094
v -0.060673 0.031422 0.012815
v -0.060615 0.031540 0.012699
v -0.059830 0.030117 0.013359
v -0.060550 0.031410 0.012490
v -0.060047 0.030922 0.011899
v -0.059386 0.031556 0.012850
v -0.060018 0.003495 0.006886
v -0.060534 -0.001179 0.009915
v -0.060530 0.005080 0.010534
v -0.059888 0.002210 0.012383
v -0.058756 -0.001901 0.005238
v -0.059078 -0.001001 0.013583
v -0.058578 -0.004214 0.013012
v -0.058917 -0.006459 0.009420
v -0.059133 0.007375 0.013166
v -0.058515 0.007807 0.006488
v -0.057284 0.017669 0.008315
v -0.057027 0.004098 0.004460
v -0.058179 0.030182 0.011720
v -0.057859 0.030982 0.012660
v -0.055924 0.004843 0.014950
v -0.058954 0.031380 0.012954
v -0.056750 0.010770 0.007031
v -0.057928 0.028451 0.011092
v -0.058775 0.027448 0.013700
v -0.058422 0.028705 0.013348
v -0.059208 0.029434 0.013411
v -0.057818 0.018704 0.013601
v -0.056932 0.017316 0.013524
v -0.058071 0.015763 0.013284
v -0.057631 0.026291 0.013620
v -0.057327 0.022893 0.013371
v -0.055169 0.010212 0.014038
v -0.056883 -0.002843 0.015617
v -0.054161 0.001575 0.016683
v -0.056054 0.014366 0.013375
v -0.058659 0.030293 0.013085
v -0.056958 -0.006981 0.004989
v -0.056295 -0.008909 0.012889
v -0.055714 -0.011439 0.009075
v -0.057288 0.028929 0.012715
v -0.053074 0.000889 0.001761
v -0.053827 -0.003744 0.001624
v -0.056888 0.020935 0.013323
v -0.056603 0.019444 0.013314
v -0.055007 -0.006291 0.016458
v -0.055719 0.007205 0.005542
v -0.056825 0.022623 0.010467
v -0.056411 0.019436 0.010073
v -0.055346 0.013192 0.008229
v -0.056959 0.026222 0.012056
v -0.056723 0.024104 0.012469
v -0.056502 0.020736 0.012571
v -0.055531 0.015726 0.009674
v -0.052826 0.005488 0.003923
v -0.054440 -0.010947 0.004893
v -0.053904 -0.007814 0.002599
v -0.052839 -0.003458 0.018022
v -0.056229 0.018185 0.012925
v -0.055812 0.016803 0.012472
v -0.052959 0.008643 0.006163
v -0.056221 0.019050 0.012371
v -0.053704 -0.012488 0.012705
v -0.052091 -0.010341 0.016639
v -0.056051 0.017937 0.011126
v -0.054435 0.013034 0.011992
v -0.052693 0.005777 0.015651
v -0.056038 0.017988 0.012454
v -0.051914 -0.014482 0.005406
v -0.051947 -0.015382 0.009868
v -0.051619 0.009677 0.009316
v -0.051522 0.009376 0.012744
v -0.051387 -0.006602 0.018323
v -0.051253 -0.011351 0.002532
v -0.049118 0.001457 0.016783
v -0.050147 -0.006235 0.000820
v -0.050467 -0.014706 0.014292
v -0.049445 -0.001293 0.001075
v -0.048935 0.002889 0.002700
v -0.049017 0.006833 0.005799
v -0.048339 -0.003824 0.018860
v -0.048488 0.005858 0.014916
v -0.047900 -0.008559 0.019056
v -0.047560 -0.012378 0.017915
v -0.048233 -0.018399 0.007139
v -0.048313 -0.015102 0.003063
v -0.047701 -0.018015 0.012607
v -0.047984 0.007440 0.010724
v -0.046749 -0.010911 0.000614
v -0.045970 -0.015857 0.017057
v -0.045062 -0.003664 0.000739
v -0.045361 -0.007595 0.000133
v -0.044715 0.000348 0.002194
v -0.045883 0.003120 0.015875
v -0.045097 -0.001008 0.017945
v -0.044049 0.004073 0.004959
v -0.044120 0.005081 0.009470
v -0.044540 0.004694 0.013016
v -0.045045 -0.005768 0.019324
v -0.044414 -0.018138 0.003484
v -0.043252 -0.014844 0.000898
v -0.044416 -0.020854 0.011353
v -0.043587 -0.021059 0.007006
v -0.043493 -0.019366 0.015344
v -0.043432 -0.010047 0.019516
v -0.043041 -0.013828 0.019253
v -0.041679 -0.011115 0.000003
v -0.042176 -0.016759 0.018207
v -0.042672 0.000866 0.016568
v -0.041612 -0.003407 0.018313
v -0.041643 -0.006636 0.000247
v -0.040735 -0.002128 0.001738
v -0.040559 -0.007481 0.019442
v -0.039983 0.001739 0.004859
v -0.039845 0.002069 0.012789
v -0.040342 -0.023420 0.009951
v -0.040234 -0.022492 0.013443
v -0.041233 -0.020368 0.003974
v -0.039284 -0.017869 0.001191
v -0.039382 0.002281 0.009167
v -0.039224 -0.022703 0.005317
v -0.038429 -0.020585 0.017588
v -0.040039 -0.012026 0.020006
v -0.037156 -0.014806 0.000000
v -0.038486 -0.017012 0.019352
v -0.039129 -0.001493 0.016976
v -0.037790 -0.009548 0.000116
v -0.037040 -0.005428 0.001248
v -0.036904 -0.005226 0.018361
v -0.036615 -0.020926 0.002160
v -0.036447 -0.024951 0.011393
v -0.036650 -0.024863 0.006934
v -0.035334 -0.001989 0.003395
v -0.036046 -0.009605 0.019562
v -0.034849 -0.024484 0.014807
v -0.035057 -0.000299 0.012225
v -0.035618 -0.001761 0.016116
v -0.035662 -0.014901 0.019963
v -0.035163 0.000037 0.008667
v -0.033604 -0.018699 0.000556
v -0.034138 -0.023980 0.004289
v -0.034427 -0.019529 0.019377
v -0.032737 -0.023365 0.017492
v -0.033300 -0.012471 0.000061
v -0.030829 -0.016522 0.000237
v -0.032249 -0.009013 0.000806
v -0.032277 -0.008251 0.019227
v -0.032308 -0.004928 0.017500
v -0.031208 -0.022047 0.001906
v -0.033134 -0.026144 0.007833
v -0.032646 -0.004903 0.002371
v -0.031986 -0.026379 0.012587
v -0.032039 -0.012182 0.020360
v -0.032095 -0.016351 0.020527
v -0.031007 -0.002574 0.014210
v -0.031797 -0.001820 0.007199
v -0.030057 -0.003379 0.004266
v -0.030315 -0.002377 0.010818
v -0.030208 -0.025931 0.015559
v -0.029213 -0.019750 0.020242
v -0.029570 -0.025892 0.004847
v -0.028527 -0.019734 0.000347
v -0.028008 -0.012117 0.000521
v -0.027234 -0.028463 0.009698
v -0.027056 -0.006843 0.002737
v -0.028692 -0.024205 0.018258
v -0.028817 -0.007354 0.018416
v -0.028177 -0.010525 0.019827
v -0.026922 -0.005304 0.016585
v -0.028147 -0.014690 0.020976
v -0.027872 -0.003543 0.007389
v -0.026989 -0.027590 0.013870
v -0.025488 -0.016312 0.000223
v -0.025228 -0.023929 0.001918
v -0.026037 -0.004106 0.013342
v -0.024550 -0.004990 0.005366
v -0.024346 -0.004377 0.009373
v -0.025468 -0.026122 0.017773
v -0.024197 -0.027935 0.005566
v -0.025127 -0.022673 0.020062
v -0.024310 -0.018246 0.020800
v -0.024444 -0.008474 0.018629
v -0.023487 -0.020694 0.000534
v -0.022941 -0.009445 0.001950
v -0.023391 -0.012829 0.000652
v -0.022498 -0.013005 0.020521
v -0.022404 -0.005951 0.015935
v -0.022178 -0.029730 0.011670
v -0.020352 -0.007021 0.004362
v -0.021553 -0.028097 0.015428
v -0.021359 -0.016600 0.000280
v -0.020419 -0.005358 0.011918
v -0.021388 -0.025170 0.019347
v -0.020884 -0.026889 0.003444
v -0.020862 -0.023913 0.001242
v -0.021342 -0.021718 0.021051
v -0.019548 -0.009481 0.018936
v -0.019696 -0.005767 0.008347
v -0.019392 -0.017647 0.021635
v -0.018469 -0.029402 0.006470
v -0.018724 -0.012693 0.001251
v -0.018194 -0.021906 0.000380
v -0.017182 -0.013663 0.020682
v -0.017127 -0.009530 0.002821
v -0.016253 -0.006895 0.015479
v -0.017761 -0.029712 0.014396
v -0.015755 -0.030955 0.010797
v -0.016645 -0.027464 0.018274
v -0.016216 -0.015778 0.000602
v -0.017768 -0.022820 0.021005
v -0.016879 -0.025257 0.001679
v -0.015326 -0.006947 0.007243
v -0.016502 -0.027772 0.003764
v -0.015156 -0.006590 0.011085
v -0.014614 -0.010407 0.019153
v -0.013586 -0.012656 0.001849
v -0.015240 -0.017970 0.021715
v -0.013525 -0.029636 0.005993
v -0.012637 -0.022698 0.000790
v -0.014048 -0.019004 0.000508
v -0.013330 -0.024271 0.020807
v -0.013713 -0.030159 0.014555
v -0.012588 -0.009213 0.003602
v -0.011675 -0.014386 0.020844
v -0.012748 -0.027088 0.002950
v -0.010194 -0.027815 0.018884
v -0.010315 -0.007305 0.012899
v -0.010788 -0.008508 0.017084
v -0.010019 -0.015035 0.001125
v -0.010474 -0.030986 0.008114
v -0.010665 -0.031291 0.011975
v -0.010132 -0.007611 0.008108
v -0.011137 -0.019337 0.021839
v -0.009484 -0.011765 0.019666
v -0.009319 -0.010638 0.003127
v -0.008794 -0.028821 0.004601
v -0.008950 -0.030524 0.014589
v -0.008562 -0.020063 0.000632
v -0.008470 -0.024149 0.021132
v -0.007330 -0.025037 0.001713
v -0.006883 -0.017082 0.021594
v -0.006368 -0.013820 0.020707
v -0.005903 -0.008259 0.015592
v -0.005523 -0.010448 0.018859
v -0.006138 -0.031556 0.009534
v -0.005075 -0.031261 0.012828
v -0.007208 -0.020831 0.021793
v -0.004859 -0.030297 0.006259
v -0.005835 -0.012359 0.002362
v -0.004389 -0.016318 0.001002
v -0.005587 -0.007610 0.009602
v -0.004757 -0.007667 0.012664
v -0.005357 -0.029528 0.016757
v -0.005305 -0.026786 0.019885
v -0.005006 -0.009334 0.004686
v -0.003262 -0.020617 0.000831
v -0.004735 -0.028341 0.003950
v -0.004171 -0.023910 0.021367
v -0.002292 -0.025307 0.001808
v -0.002678 -0.020471 0.021861
v -0.001980 -0.016753 0.021529
v -0.000580 -0.030864 0.007507
v -0.000985 -0.013439 0.020567
v -0.000949 -0.009633 0.017899
v -0.001265 -0.007923 0.014286
v -0.001613 -0.012668 0.002331
v -0.000084 -0.010382 0.003516
v -0.000981 -0.007661 0.010251
v -0.000088 -0.008662 0.005658
v 0.000121 -0.016622 0.001001
v -0.001177 -0.028933 0.017740
v -0.000412 -0.030765 0.013417
v -0.000218 -0.025461 0.020670
v -0.000782 -0.028679 0.004382
v 0.001839 -0.020759 0.000962
v 0.001964 -0.020815 0.022000
v 0.002299 -0.016303 0.021596
v 0.003010 -0.025049 0.001723
v 0.003429 -0.013312 0.001970
v 0.003955 -0.007559 0.011397
v 0.003772 -0.008637 0.007122
v 0.003661 -0.012495 0.020232
v 0.003005 -0.028633 0.004814
v 0.003680 -0.030597 0.007912
v 0.003973 -0.008289 0.015851
v 0.003733 -0.027941 0.018584
v 0.003057 -0.030004 0.015731
v 0.004545 -0.024453 0.020866
v 0.004882 -0.030559 0.012830
v 0.004414 -0.010952 0.003331
v 0.005309 -0.016824 0.001066
v 0.007438 -0.020491 0.000929
v 0.006844 -0.020871 0.021797
v 0.007082 -0.015903 0.021495
v 0.006978 -0.025140 0.002392
v 0.007550 -0.028693 0.005522
v 0.007026 -0.029247 0.016442
v 0.008221 -0.013607 0.001750
v 0.007508 -0.011583 0.019793
v 0.007188 -0.030679 0.010276
v 0.007373 -0.026204 0.019400
v 0.008860 -0.007604 0.007351
v 0.009683 -0.010657 0.003110
v 0.007794 -0.007408 0.013653
v 0.009258 -0.007981 0.016252
v 0.009532 -0.007238 0.010446
v 0.007129 -0.023547 0.020589
v 0.009080 -0.029993 0.013523
v 0.010110 -0.016385 0.001156
v 0.010510 -0.018954 0.021784
v 0.011107 -0.024158 0.020613
v 0.011028 -0.028556 0.016498
v 0.011853 -0.026818 0.003951
v 0.011721 -0.022735 0.001526
v 0.011198 -0.014371 0.021273
v 0.010786 -0.029294 0.007408
v 0.011748 -0.007012 0.012527
v 0.011486 -0.019353 0.001051
v 0.011976 -0.009665 0.018931
v 0.014078 -0.012863 0.001975
v 0.013751 -0.007141 0.008491
v 0.013763 -0.008555 0.004375
v 0.013182 -0.029673 0.011519
v 0.013356 -0.007410 0.015554
v 0.014483 -0.017160 0.021858
v 0.014670 -0.022481 0.021051
v 0.015393 -0.028622 0.007875
v 0.015855 -0.017241 0.001169
v 0.015365 -0.012424 0.020659
v 0.014867 -0.025992 0.018790
v 0.014911 -0.028943 0.014271
v 0.015759 -0.006434 0.012006
v 0.017069 -0.024121 0.002347
v 0.015675 -0.021047 0.001368
v 0.016162 -0.008327 0.018340
v 0.017173 -0.026832 0.004966
v 0.017530 -0.029005 0.012028
v 0.017076 -0.006733 0.014737
v 0.018149 -0.010303 0.002908
v 0.019676 -0.014542 0.001613
v 0.017022 -0.006993 0.006012
v 0.019650 -0.006110 0.008424
v 0.017728 -0.019494 0.021879
v 0.018407 -0.015100 0.021469
v 0.018726 -0.023700 0.020260
v 0.018272 -0.027811 0.015958
v 0.020674 -0.028079 0.009585
v 0.019930 -0.010066 0.019657
v 0.020527 -0.005962 0.011701
v 0.019456 -0.019744 0.001178
v 0.020605 -0.006680 0.015503
v 0.021510 -0.007844 0.003969
v 0.023317 -0.025676 0.005703
v 0.022996 -0.023399 0.002923
v 0.020491 -0.027847 0.013757
v 0.021573 -0.019423 0.021540
v 0.023110 -0.010953 0.002292
v 0.022372 -0.024572 0.019233
v 0.022679 -0.013569 0.021178
v 0.023378 -0.018188 0.001373
v 0.024337 -0.005132 0.008954
v 0.025185 -0.005656 0.005607
v 0.024457 -0.014024 0.001374
v 0.022513 -0.008020 0.017741
v 0.025253 -0.009046 0.019462
v 0.025542 -0.004796 0.012077
v 0.024409 -0.027024 0.013418
v 0.025739 -0.005889 0.015888
v 0.026034 -0.026608 0.010144
v 0.025692 -0.008129 0.003146
v 0.026052 -0.021426 0.020543
v 0.025376 -0.016968 0.021715
v 0.027332 -0.025240 0.016949
v 0.028387 -0.010299 0.001906
v 0.027405 -0.013035 0.021124
v 0.028557 -0.024242 0.005291
v 0.026319 -0.020109 0.001652
v 0.027466 -0.022462 0.003155
v 0.030555 -0.025295 0.009039
v 0.026820 -0.017129 0.001192
v 0.029924 -0.025894 0.012637
v 0.030146 -0.013797 0.001196
v 0.029719 -0.004502 0.005795
v 0.029780 -0.003914 0.008872
v 0.029804 -0.007195 0.003087
v 0.029798 -0.005904 0.017142
v 0.030754 -0.009793 0.020072
v 0.029383 -0.016695 0.021448
v 0.030455 -0.003926 0.012629
v 0.030568 -0.022190 0.019203
v 0.030196 -0.018100 0.001512
v 0.031060 -0.024669 0.015527
v 0.031431 -0.021033 0.002952
v 0.034108 -0.009549 0.001595
v 0.032065 -0.013423 0.021065
v 0.034323 -0.022729 0.005699
v 0.033702 -0.017883 0.020727
v 0.034079 -0.003413 0.006481
v 0.034839 -0.005279 0.003354
v 0.033786 -0.002984 0.009404
v 0.034901 -0.003691 0.015181
v 0.034701 -0.007069 0.018788
v 0.034486 -0.014647 0.001006
v 0.034650 -0.024370 0.009870
v 0.035208 -0.023939 0.013882
v 0.034742 -0.019109 0.001700
v 0.036606 -0.002546 0.011532
v 0.034833 -0.021762 0.017817
v 0.035735 -0.010979 0.020481
v 0.037103 -0.014518 0.020783
v 0.038545 -0.018520 0.019344
v 0.039449 -0.011836 0.000744
v 0.039000 -0.007927 0.001641
v 0.038282 -0.002267 0.008079
v 0.039680 -0.002985 0.004408
v 0.038499 -0.017151 0.001276
v 0.038733 -0.022150 0.006351
v 0.037732 -0.020474 0.003263
v 0.039529 -0.022775 0.011244
v 0.038975 -0.004832 0.017754
v 0.039086 -0.007884 0.019282
v 0.040016 -0.021666 0.015314
v 0.039520 -0.002508 0.013814
v 0.040414 -0.011963 0.020160
v 0.040490 -0.001867 0.010753
v 0.041539 -0.014955 0.020037
v 0.041257 -0.019845 0.003573
v 0.043157 -0.001575 0.008067
v 0.043269 -0.018008 0.018285
v 0.042658 -0.015888 0.001140
v 0.042939 -0.021359 0.007304
v 0.042703 -0.005453 0.017859
v 0.043291 -0.002774 0.015539
v 0.043970 -0.021579 0.012328
v 0.043468 -0.008595 0.001174
v 0.043575 -0.005341 0.002142
v 0.044268 -0.012369 0.000808
v 0.043530 -0.008251 0.019045
v 0.045340 -0.002782 0.003863
v 0.044211 -0.001555 0.011694
v 0.045790 -0.019857 0.015109
v 0.044757 -0.011767 0.019515
v 0.045073 -0.018106 0.004050
v 0.047214 -0.013850 0.018645
v 0.046476 -0.005217 0.017274
v 0.047077 -0.014788 0.001660
v 0.047344 -0.020081 0.007447
v 0.047421 -0.001485 0.008986
v 0.047412 -0.016772 0.017325
v 0.047115 -0.001971 0.013623
v 0.047424 -0.005808 0.002121
v 0.048621 -0.010235 0.001403
v 0.047911 -0.008681 0.018280
v 0.049520 -0.019306 0.012324
v 0.049800 -0.017613 0.004893
v 0.049678 -0.002196 0.005108
v 0.049967 -0.017057 0.015847
v 0.050528 -0.004069 0.015749
v 0.052024 -0.013059 0.002624
v 0.050714 -0.001923 0.009610
v 0.051525 -0.008546 0.016884
v 0.049904 -0.012125 0.017902
v 0.051289 -0.018635 0.007880
v 0.050721 -0.006391 0.002584
v 0.054443 -0.009313 0.003090
v 0.054152 -0.016949 0.009963
v 0.053369 -0.003545 0.004088
v 0.053779 -0.015843 0.006064
v 0.053565 -0.010304 0.016129
v 0.054395 -0.014260 0.014618
v 0.053734 -0.002228 0.011061
v 0.055160 -0.005088 0.014521
v 0.055383 -0.002004 0.007719
v 0.056341 -0.012413 0.004636
v 0.057321 -0.004316 0.004580
v 0.057027 -0.009152 0.014220
v 0.057924 -0.013632 0.008181
v 0.057356 -0.002058 0.009886
v 0.057930 -0.013044 0.012072
v 0.058526 -0.009188 0.004467
v 0.059465 -0.005109 0.012654
v 0.059530 -0.002120 0.008279
v 0.059528 -0.010395 0.005994
v 0.060298 -0.009299 0.012332
v 0.060275 -0.003744 0.005176
v 0.061101 -0.002684 0.010856
v 0.061028 -0.010899 0.009781
v 0.061176 -0.009956 0.007490
v 0.062392 -0.006155 0.006184
v 0.062024 -0.006518 0.011677
v 0.061805 -0.003767 0.011694
v 0.062528 -0.002797 0.007639
v 0.062596 -0.003065 0.009185
v 0.063256 -0.007972 0.010208
v 0.063387 -0.007982 0.007771
v 0.063223 -0.004556 0.010359
v 0.063578 -0.005175 0.008424
vt 0.889328 0.908223
vt 0.890609 0.910137
vt 0.892089 0.904907
vt 0.885769 0.907470
vt 0.886852 0.902733
vt 0.889899 0.895186
vt 0.889267 0.900314
vt 0.886589 0.911039
vt 0.885947 0.911846
vt 0.882671 0.911655
vt 0.885629 0.867308
vt 0.887374 0.883906
vt 0.881948 0.852614
vt 0.886565 0.885112
vt 0.875906 0.873440
vt 0.881381 0.888085
vt 0.887238 0.891910
vt 0.882943 0.894635
vt 0.887144 0.897108
vt 0.886647 0.905802
vt 0.883860 0.900835
vt 0.879307 0.902616
vt 0.881333 0.913548
vt 0.880799 0.907820
vt 0.880125 0.837731
vt 0.874471 0.855317
vt 0.877939 0.887205
vt 0.876087 0.871649
vt 0.874931 0.826599
vt 0.869348 0.839821
vt 0.877796 0.912799
vt 0.875991 0.907289
vt 0.849181 0.564806
vt 0.832981 0.582256
vt 0.869211 0.840362
vt 0.877387 0.911242
vt 0.874327 0.906838
vt 0.879025 0.898482
vt 0.874099 0.914574
vt 0.877054 0.914251
vt 0.868137 0.896247
vt 0.866176 0.884095
vt 0.864840 0.872529
vt 0.857378 0.852354
vt 0.853211 0.879628
vt 0.868226 0.900904
vt 0.843802 0.552897
vt 0.830430 0.564090
vt 0.853589 0.539253
vt 0.855623 0.533476
vt 0.841077 0.549701
vt 0.837213 0.565008
vt 0.862832 0.859330
vt 0.859849 0.844242
vt 0.869443 0.913580
vt 0.874093 0.914246
vt 0.873747 0.914989
vt 0.868675 0.906183
vt 0.873323 0.914183
vt 0.870122 0.911189
vt 0.866064 0.915231
vt 0.862953 0.500377
vt 0.874878 0.473505
vt 0.863004 0.510791
vt 0.864616 0.492472
vt 0.865650 0.465835
vt 0.865867 0.471806
vt 0.868972 0.451715
vt 0.875239 0.438982
vt 0.850337 0.521817
vt 0.845832 0.523221
vt 0.819823 0.579654
vt 0.843989 0.498304
vt 0.858363 0.906781
vt 0.856454 0.911816
vt 0.836006 0.500655
vt 0.863346 0.914180
vt 0.829708 0.537537
vt 0.856594 0.895990
vt 0.861776 0.889623
vt 0.859716 0.897519
vt 0.864712 0.901985
vt 0.854796 0.835072
vt 0.818395 0.576885
vt 0.828124 0.569788
vt 0.854493 0.882517
vt 0.852203 0.861315
vt 0.821342 0.531214
vt 0.856276 0.456676
vt 0.831688 0.477846
vt 0.818754 0.557643
vt 0.861375 0.907417
vt 0.864557 0.432162
vt 0.864258 0.419420
vt 0.865587 0.403245
vt 0.852648 0.899048
vt 0.826515 0.471699
vt 0.839774 0.445518
vt 0.849238 0.849122
vt 0.847287 0.839837
vt 0.851624 0.432577
vt 0.830313 0.514340
vt 0.849037 0.859683
vt 0.846085 0.839807
vt 0.816756 0.549311
vt 0.850282 0.882168
vt 0.848571 0.868953
vt 0.846800 0.847924
vt 0.813060 0.564759
vt 0.816329 0.498634
vt 0.857066 0.403762
vt 0.847934 0.421417
vt 0.833342 0.445350
vt 0.812560 0.580731
vt 0.812695 0.571706
vt 0.811148 0.517684
vt 0.844851 0.837416
vt 0.855597 0.393190
vt 0.841922 0.402925
vt 0.811969 0.578913
vt 0.811625 0.546643
vt 0.814986 0.500105
vt 0.811795 0.579195
vt 0.848709 0.377914
vt 0.850609 0.372616
vt 0.801204 0.521305
vt 0.801197 0.519332
vt 0.830646 0.423870
vt 0.838836 0.395320
vt 0.801865 0.467596
vt 0.822563 0.423712
vt 0.840510 0.373840
vt 0.809023 0.451827
vt 0.798062 0.475781
vt 0.791087 0.499438
vt 0.807227 0.434651
vt 0.789780 0.492622
vt 0.813573 0.405607
vt 0.818778 0.382208
vt 0.834187 0.347609
vt 0.828421 0.367404
vt 0.830289 0.348888
vt 0.783781 0.501099
vt 0.811172 0.389412
vt 0.815894 0.358470
vt 0.787393 0.429400
vt 0.796620 0.406543
vt 0.777730 0.452650
vt 0.779443 0.471377
vt 0.782578 0.445291
vt 0.766711 0.473582
vt 0.765221 0.479722
vt 0.768460 0.478212
vt 0.791280 0.416834
vt 0.810943 0.341930
vt 0.797780 0.359360
vt 0.816091 0.325753
vt 0.811545 0.322960
vt 0.807781 0.332869
vt 0.789769 0.388282
vt 0.794595 0.365012
vt 0.781346 0.378597
vt 0.794994 0.345911
vt 0.764579 0.451871
vt 0.766355 0.424400
vt 0.772649 0.405216
vt 0.758701 0.430361
vt 0.767793 0.398130
vt 0.746903 0.451980
vt 0.745454 0.453681
vt 0.796678 0.302749
vt 0.794276 0.308071
vt 0.796206 0.322622
vt 0.779861 0.333819
vt 0.742293 0.454069
vt 0.788662 0.304902
vt 0.779913 0.316018
vt 0.773300 0.370068
vt 0.761387 0.348040
vt 0.773486 0.337417
vt 0.747932 0.431102
vt 0.755207 0.380574
vt 0.742937 0.403703
vt 0.741743 0.404646
vt 0.769747 0.310549
vt 0.776369 0.286253
vt 0.777414 0.287160
vt 0.726262 0.420965
vt 0.744922 0.376932
vt 0.765965 0.286006
vt 0.721412 0.430510
vt 0.727521 0.422860
vt 0.752662 0.344645
vt 0.721406 0.432707
vt 0.747590 0.318120
vt 0.760773 0.287668
vt 0.754067 0.314733
vt 0.751260 0.288679
vt 0.733991 0.354653
vt 0.726933 0.325836
vt 0.721180 0.373268
vt 0.719900 0.377862
vt 0.713796 0.397718
vt 0.739657 0.293634
vt 0.758888 0.272872
vt 0.715764 0.398508
vt 0.752496 0.269295
vt 0.725926 0.353988
vt 0.734156 0.329253
vt 0.701588 0.409281
vt 0.704865 0.415272
vt 0.697447 0.402689
vt 0.697092 0.409146
vt 0.741049 0.268595
vt 0.723420 0.303547
vt 0.737178 0.267622
vt 0.719297 0.302340
vt 0.701787 0.346742
vt 0.728124 0.247884
vt 0.686128 0.376362
vt 0.728749 0.276011
vt 0.697587 0.376655
vt 0.699781 0.356550
vt 0.682414 0.385283
vt 0.707483 0.331677
vt 0.684740 0.397574
vt 0.725012 0.252618
vt 0.694714 0.316979
vt 0.707584 0.271096
vt 0.674875 0.390743
vt 0.667684 0.382658
vt 0.665308 0.385929
vt 0.713171 0.258483
vt 0.709027 0.245274
vt 0.704607 0.278389
vt 0.691355 0.303224
vt 0.673652 0.361700
vt 0.691086 0.287077
vt 0.666536 0.353067
vt 0.675625 0.333757
vt 0.670637 0.331018
vt 0.656718 0.372871
vt 0.700396 0.230756
vt 0.646522 0.362611
vt 0.693579 0.239306
vt 0.670658 0.307444
vt 0.643769 0.372644
vt 0.687058 0.256436
vt 0.687305 0.245237
vt 0.681544 0.262927
vt 0.680242 0.276915
vt 0.646383 0.346432
vt 0.640236 0.368843
vt 0.660921 0.297480
vt 0.677678 0.225691
vt 0.647557 0.325735
vt 0.661848 0.269832
vt 0.640206 0.317035
vt 0.632055 0.341553
vt 0.621857 0.355601
vt 0.674042 0.222502
vt 0.664446 0.211297
vt 0.663140 0.233784
vt 0.638453 0.302603
vt 0.661038 0.263584
vt 0.660355 0.247378
vt 0.616431 0.353537
vt 0.662872 0.231676
vt 0.614744 0.355342
vt 0.618740 0.331573
vt 0.616872 0.316226
vt 0.636790 0.287695
vt 0.648661 0.214935
vt 0.630236 0.254594
vt 0.631644 0.279274
vt 0.637340 0.246535
vt 0.650772 0.212176
vt 0.604409 0.334852
vt 0.608762 0.302294
vt 0.639208 0.228645
vt 0.625363 0.219475
vt 0.587250 0.341915
vt 0.592346 0.335643
vt 0.600126 0.295296
vt 0.633038 0.201111
vt 0.634756 0.199660
vt 0.586738 0.339744
vt 0.614931 0.271776
vt 0.590743 0.313766
vt 0.587629 0.320166
vt 0.618928 0.210835
vt 0.623081 0.200981
vt 0.600965 0.262575
vt 0.608153 0.238055
vt 0.603041 0.230609
vt 0.585313 0.277162
vt 0.576069 0.295621
vt 0.562768 0.327874
vt 0.564654 0.314111
vt 0.608280 0.189507
vt 0.601389 0.189255
vt 0.594353 0.255436
vt 0.598275 0.194589
vt 0.570128 0.303317
vt 0.569006 0.276988
vt 0.559658 0.331146
vt 0.554821 0.329235
vt 0.599789 0.200111
vt 0.594287 0.216352
vt 0.559463 0.319771
vt 0.570431 0.249237
vt 0.593837 0.206009
vt 0.582087 0.231340
vt 0.573533 0.219462
vt 0.566677 0.249004
vt 0.555476 0.269838
vt 0.573856 0.183107
vt 0.543271 0.287700
vt 0.535855 0.310312
vt 0.534498 0.321096
vt 0.545560 0.293480
vt 0.532116 0.304207
vt 0.532312 0.322119
vt 0.528883 0.314461
vt 0.542713 0.266640
vt 0.573754 0.195740
vt 0.572667 0.183377
vt 0.561470 0.214614
vt 0.570923 0.196511
vt 0.540311 0.238735
vt 0.539670 0.238169
vt 0.529130 0.264419
vt 0.541451 0.210960
vt 0.516732 0.280098
vt 0.502704 0.313381
vt 0.505838 0.307302
vt 0.513805 0.284525
vt 0.548271 0.189613
vt 0.547964 0.176630
vt 0.503981 0.308995
vt 0.542621 0.192357
vt 0.550554 0.181344
vt 0.531179 0.211601
vt 0.540729 0.174584
vt 0.506398 0.292294
vt 0.512180 0.255614
vt 0.506439 0.229733
vt 0.510696 0.228591
vt 0.499875 0.257745
vt 0.517983 0.202905
vt 0.521304 0.180648
vt 0.525470 0.178341
vt 0.488739 0.269268
vt 0.489154 0.282674
vt 0.527221 0.169500
vt 0.517643 0.195814
vt 0.473563 0.303824
vt 0.474442 0.284073
vt 0.479547 0.307012
vt 0.471906 0.300828
vt 0.468869 0.304736
vt 0.514066 0.212106
vt 0.514644 0.170006
vt 0.482745 0.249137
vt 0.485227 0.233072
vt 0.491520 0.200933
vt 0.500317 0.174876
vt 0.492111 0.183670
vt 0.485167 0.208253
vt 0.472446 0.259075
vt 0.503160 0.170943
vt 0.455238 0.301884
vt 0.480162 0.228846
vt 0.458901 0.285641
vt 0.452433 0.262608
vt 0.443549 0.297323
vt 0.446150 0.288873
vt 0.489600 0.164143
vt 0.446410 0.296470
vt 0.458157 0.236238
vt 0.467116 0.204183
vt 0.474439 0.166220
vt 0.450133 0.233160
vt 0.443934 0.262790
vt 0.472591 0.182886
vt 0.477918 0.165223
vt 0.430239 0.297736
vt 0.455929 0.189868
vt 0.458411 0.210822
vt 0.431426 0.285689
vt 0.460441 0.173514
vt 0.462425 0.159893
vt 0.422962 0.293459
vt 0.423327 0.270153
vt 0.422257 0.242009
vt 0.423777 0.292015
vt 0.406446 0.292296
vt 0.443238 0.216189
vt 0.430871 0.241086
vt 0.445255 0.189239
vt 0.455749 0.165601
vt 0.441940 0.159458
vt 0.412266 0.268192
vt 0.400941 0.291518
vt 0.433416 0.211427
vt 0.401831 0.287092
vt 0.398645 0.278441
vt 0.421643 0.168773
vt 0.419246 0.182945
vt 0.442592 0.161185
vt 0.420196 0.209332
vt 0.395001 0.256887
vt 0.425183 0.177141
vt 0.402523 0.242116
vt 0.407099 0.213271
vt 0.376664 0.289251
vt 0.372607 0.284525
vt 0.392786 0.236036
vt 0.393003 0.275498
vt 0.378620 0.264197
vt 0.368850 0.288970
vt 0.417687 0.158668
vt 0.369748 0.282085
vt 0.407218 0.158074
vt 0.374269 0.268827
vt 0.397299 0.188918
vt 0.392889 0.216761
vt 0.396892 0.163765
vt 0.362318 0.250795
vt 0.373349 0.236351
vt 0.387708 0.167394
vt 0.393215 0.196259
vt 0.390832 0.180067
vt 0.377791 0.157336
vt 0.384584 0.213067
vt 0.382686 0.154961
vt 0.358460 0.226619
vt 0.343406 0.282811
vt 0.341926 0.286199
vt 0.347996 0.266603
vt 0.345588 0.274308
vt 0.347254 0.249327
vt 0.368493 0.210796
vt 0.337930 0.284848
vt 0.371836 0.175811
vt 0.366311 0.200888
vt 0.373602 0.160108
vt 0.364504 0.181072
vt 0.326809 0.244431
vt 0.346317 0.225215
vt 0.350484 0.165490
vt 0.345009 0.195540
vt 0.315363 0.281048
vt 0.314372 0.268488
vt 0.316299 0.284155
vt 0.310996 0.277832
vt 0.318579 0.258086
vt 0.334210 0.213337
vt 0.351641 0.155094
vt 0.347504 0.156607
vt 0.341134 0.186267
vt 0.298669 0.281425
vt 0.345614 0.170288
vt 0.319823 0.232829
vt 0.318375 0.209151
vt 0.317357 0.182573
vt 0.299314 0.220687
vt 0.294590 0.244832
vt 0.288149 0.279918
vt 0.281181 0.272988
vt 0.315041 0.190821
vt 0.323112 0.160591
vt 0.325905 0.172474
vt 0.319550 0.155359
vt 0.288881 0.263319
vt 0.293993 0.244925
vt 0.314548 0.161046
vt 0.281228 0.276136
vt 0.293806 0.218109
vt 0.274235 0.278116
vt 0.292771 0.198146
vt 0.303705 0.169548
vt 0.257791 0.274810
vt 0.288241 0.176684
vt 0.287868 0.190469
vt 0.296552 0.157343
vt 0.267843 0.252563
vt 0.259267 0.267409
vt 0.290824 0.154075
vt 0.269233 0.232393
vt 0.262433 0.251580
vt 0.271610 0.208392
vt 0.268213 0.234325
vt 0.247072 0.263486
vt 0.251477 0.272936
vt 0.276721 0.160892
vt 0.267559 0.211054
vt 0.277676 0.172678
vt 0.256864 0.193990
vt 0.244910 0.246825
vt 0.259456 0.188658
vt 0.267888 0.156613
vt 0.232218 0.267270
vt 0.261216 0.176204
vt 0.234959 0.264953
vt 0.240383 0.241507
vt 0.241633 0.212865
vt 0.242922 0.223464
vt 0.253455 0.157115
vt 0.248577 0.166666
vt 0.220113 0.258763
vt 0.246531 0.169669
vt 0.218595 0.245992
vt 0.226703 0.189589
vt 0.213423 0.258428
vt 0.221135 0.217430
vt 0.237566 0.199171
vt 0.241642 0.157762
vt 0.221839 0.231793
vt 0.205196 0.207335
vt 0.221393 0.162384
vt 0.200678 0.243735
vt 0.221522 0.169679
vt 0.212305 0.203087
vt 0.214849 0.177949
vt 0.196005 0.250889
vt 0.192927 0.231152
vt 0.185757 0.249102
vt 0.199760 0.185266
vt 0.178592 0.231657
vt 0.189495 0.203397
vt 0.192636 0.175008
vt 0.174103 0.245043
vt 0.191486 0.178501
vt 0.180631 0.200346
vt 0.167314 0.222874
vt 0.161266 0.240557
vt 0.176947 0.191258
vt 0.170285 0.196333
vt 0.159905 0.229470
vt 0.152975 0.234226
vt 0.168966 0.185417
vt 0.166295 0.190753
vt 0.151858 0.211097
vt 0.154735 0.209629
vt 0.150831 0.226436
vt 0.144684 0.230847
vt 0.144788 0.229125
vt 0.150149 0.198639
vt 0.149383 0.198330
vt 0.143876 0.219049
vt 0.142934 0.214691
vn -0.6211 -0.3922 0.6785
vn 0.0273 0.6448 -0.7638
vn 0.0535 0.6052 -0.7943
vn -0.1605 0.2177 -0.9627
vn -0.8652 0.0673 0.4970
vn -0.9329 -0.2578 0.2515
vn -0.6445 -0.4076 0.6469
vn -0.4718 0.8406 0.2661
vn -0.0012 0.6148 -0.7887
vn -0.1231 0.9459 -0.3002
vn -0.9839 -0.1574 -0.0850
vn -0.9976 -0.0375 0.0578
vn -0.4280 -0.1216 -0.8956
vn -0.1349 0.2145 -0.9674
vn -0.1372 0.2180 -0.9663
vn -0.9978 -0.0339 0.0575
vn -0.9380 -0.2525 0.2374
vn -0.6873 -0.0604 0.7239
vn -0.9977 -0.0331 0.0585
vn -0.6818 0.1048 0.7240
vn -0.8938 0.0997 0.4372
vn -0.6499 0.0511 0.7583
vn -0.9417 -0.2423 0.2334
vn -0.1434 0.2111 -0.9669
vn 0.2291 0.3288 -0.9162
vn 0.2086 0.5681 -0.7960
vn -0.4570 0.5209 0.7210
vn -0.6863 0.1192 0.7175
vn -0.4659 0.8426 0.2701
vn -0.8716 0.0921 0.4815
vn -0.9841 -0.1533 -0.0900
vn -0.7424 -0.2038 0.6382
vn -0.6808 -0.0840 0.7277
vn -0.7039 -0.0645 0.7074
vn -0.6808 -0.0838 0.7277
vn -0.9566 -0.2125 -0.1994
vn -0.5606 -0.0606 -0.8258
vn -0.5296 -0.0186 -0.8480
vn -0.1298 0.9418 -0.3100
vn 0.0501 0.9334 -0.3553
vn 0.1632 0.5248 -0.8355
vn 0.3307 0.6643 -0.6703
vn 0.2150 0.5333 -0.8181
vn -0.9536 -0.1395 -0.2667
vn -0.7149 -0.1396 0.6852
vn -0.7330 -0.2127 0.6461
vn -0.7330 -0.2128 0.6461
vn -0.5523 0.4822 0.6800
vn -0.3848 0.2830 0.8785
vn -0.4207 0.1288 0.8980
vn -0.6846 0.1018 0.7218
vn -0.6338 0.0640 0.7709
vn 0.0123 0.9061 -0.4228
vn -0.1049 0.9927 -0.0596
vn -0.5255 0.5172 0.6756
vn -0.2824 0.0023 0.9593
vn -0.3491 0.0859 0.9332
vn -0.2780 0.0187 0.9604
vn -0.3559 -0.0557 0.9329
vn -0.7069 -0.0442 0.7059
vn -0.6314 0.0446 0.7742
vn -0.0584 0.0358 -0.9977
vn 0.1972 0.3341 -0.9217
vn 0.2193 0.3266 -0.9194
vn 0.2196 0.2661 -0.9386
vn -0.9118 -0.1883 -0.3649
vn -0.4520 -0.0655 -0.8896
vn -0.3340 0.0894 -0.9383
vn -0.9883 -0.1291 0.0807
vn -0.8712 0.0598 -0.4873
vn -0.6882 -0.0323 0.7248
vn -0.7264 -0.1273 0.6753
vn -0.7282 -0.1202 0.6747
vn -0.3552 -0.0658 0.9325
vn -0.3511 -0.0686 0.9338
vn -0.2985 -0.0545 0.9528
vn -0.3378 -0.1106 0.9347
vn -0.2924 0.3030 0.9070
vn -0.3646 0.2986 0.8820
vn -0.1358 0.7268 0.6733
vn -0.4185 0.7319 0.5378
vn -0.5311 0.5157 0.6723
vn -0.1524 0.2031 0.9672
vn -0.3498 0.0826 0.9332
vn -0.1523 0.2034 0.9672
vn 0.6809 0.6981 -0.2213
vn -0.1258 0.9809 -0.1484
vn 0.6041 0.7855 -0.1344
vn 0.2638 0.7533 -0.6025
vn 0.0519 0.8554 -0.5153
vn -0.0863 0.7802 0.6196
vn 0.0825 0.8017 -0.5920
vn -0.9893 0.0150 -0.1454
vn -0.9570 -0.0279 0.2887
vn -0.9343 -0.1155 -0.3373
vn -0.9237 -0.0944 0.3713
vn -0.9059 -0.2067 0.3696
vn -0.9169 -0.2518 -0.3097
vn -0.9113 -0.3051 0.2765
vn -0.9999 0.0103 0.0104
vn -0.9916 -0.0339 -0.1245
vn -0.8577 -0.0632 0.5102
vn -0.9048 0.0686 0.4203
vn -0.7575 0.2070 -0.6191
vn -0.8121 0.0154 -0.5833
vn -0.7700 0.0793 0.6331
vn -0.0553 0.0327 -0.9979
vn 0.0186 0.1462 -0.9891
vn -0.6379 0.0846 -0.7655
vn -0.6409 0.1541 -0.7520
vn 0.1692 0.6137 -0.7712
vn 0.3243 0.6055 -0.7267
vn 0.2009 0.7448 -0.6364
vn 0.2152 0.7064 -0.6743
vn 0.2586 0.6664 -0.6993
vn -0.5172 -0.0538 0.8542
vn -0.6024 0.1415 0.7855
vn 0.0631 0.6176 0.7839
vn 0.1206 0.2262 0.9666
vn -0.2034 0.2925 -0.9344
vn -0.3259 0.0838 -0.9417
vn 0.3683 0.3643 -0.8554
vn 0.3909 0.4409 -0.8080
vn 0.2135 0.3323 -0.9187
vn 0.2299 0.5239 -0.8201
vn 0.0592 0.0527 0.9969
vn 0.2232 0.2047 0.9530
vn 0.2300 0.1650 0.9591
vn 0.1544 0.2138 0.9646
vn 0.3595 0.9297 0.0803
vn -0.2956 -0.0624 0.9533
vn -0.1102 -0.1225 0.9863
vn -0.1068 -0.0749 0.9914
vn -0.1085 -0.1245 0.9863
vn -0.1687 -0.1250 0.9777
vn 0.1996 -0.0537 0.9784
vn 0.0990 0.0569 0.9935
vn 0.2568 0.0119 0.9664
vn -0.2867 0.1080 0.9519
vn -0.3475 0.2042 0.9152
vn -0.7575 -0.2267 0.6122
vn -0.5882 0.1718 0.7903
vn -0.5737 0.1202 0.8102
vn -0.2956 0.0889 0.9512
vn -0.1448 -0.1195 0.9822
vn 0.3206 0.1984 0.9262
vn 0.2003 0.1704 0.9648
vn -0.8860 -0.2961 -0.3567
vn -0.8419 -0.4184 0.3408
vn -0.8118 -0.5012 -0.2997
vn -0.8105 -0.5374 0.2330
vn 0.3758 0.1291 0.9177
vn 0.4441 0.2104 0.8709
vn 0.2569 0.1950 0.9465
vn 0.1866 0.2422 0.9521
vn -0.5376 0.0458 -0.8420
vn -0.6250 -0.1841 -0.7586
vn -0.5590 0.1152 -0.8212
vn 0.2003 0.0324 0.9792
vn 0.2043 0.0440 0.9779
vn 0.2194 -0.0132 0.9755
vn -0.7441 -0.2542 0.6179
vn -0.7473 -0.3777 0.5467
vn -0.2149 0.4009 -0.8906
vn -0.2431 0.3131 -0.9181
vn 0.8627 0.2786 -0.4220
vn 0.8488 0.2234 -0.4791
vn 0.8101 0.0501 -0.5842
vn 0.7753 0.2100 -0.5957
vn 0.7614 0.1760 -0.6239
vn 0.1798 0.0965 -0.9790
vn 0.2812 0.2895 -0.9149
vn 0.9220 0.2898 -0.2566
vn 0.8876 0.2080 -0.4111
vn 0.9188 0.0156 0.3944
vn 0.4360 0.2406 0.8672
vn 0.8119 0.0301 0.5830
vn 0.9072 0.1752 0.3825
vn 0.0940 0.0238 0.9953
vn 0.2610 0.1921 0.9460
vn 0.9611 0.1406 -0.2377
vn 0.7832 0.0703 0.6178
vn 0.8928 0.1898 0.4085
vn 0.2534 0.0330 0.9668
vn 0.7486 0.2439 -0.6165
vn 0.7846 0.3493 -0.5122
vn -0.2478 0.4102 -0.8777
vn -0.2511 0.4228 -0.8707
vn 0.9895 0.0874 -0.1149
vn -0.8073 -0.5050 -0.3053
vn -0.6316 -0.3846 -0.6731
vn -0.6356 -0.1685 -0.7534
vn -0.5180 -0.0740 0.8522
vn -0.4975 0.0986 0.8619
vn 0.9934 0.0625 -0.0967
vn 0.9906 0.1327 -0.0332
vn 0.1906 0.0670 0.9794
vn 0.6694 -0.0303 0.7423
vn 0.7158 0.1788 0.6750
vn -0.1001 -0.0799 0.9918
vn 0.6747 -0.0381 0.7371
vn 0.0059 0.3868 -0.9221
vn 0.0331 0.4276 -0.9034
vn 0.9364 0.1168 0.3310
vn 0.8942 0.1684 0.4149
vn 0.9352 0.1850 0.3019
vn 0.9840 0.1702 -0.0530
vn -0.7750 -0.5746 0.2631
vn -0.6734 -0.4589 0.5796
vn -0.6632 -0.5083 0.5493
vn 0.9729 0.2313 -0.0041
vn 0.9782 0.2024 -0.0471
vn 0.7192 0.1772 0.6718
vn 0.7410 0.2571 0.6204
vn -0.1462 -0.1473 0.9782
vn -0.2621 0.1972 0.9447
vn -0.2889 0.3223 0.9015
vn 0.9369 0.3474 -0.0396
vn 0.9753 0.2206 0.0130
vn 0.9823 0.1868 -0.0167
vn 0.9354 0.1828 0.3026
vn -0.1152 0.5719 -0.8122
vn -0.7555 -0.5832 -0.2987
vn -0.7275 -0.6518 0.2145
vn -0.7005 -0.6985 -0.1460
vn 0.9547 0.1968 -0.2230
vn 0.7007 0.6995 -0.1404
vn 0.6736 0.5681 -0.4728
vn 0.3890 0.4723 0.7910
vn 0.3892 0.4989 0.7743
vn -0.4629 -0.1298 0.8769
vn -0.4577 -0.2921 0.8397
vn 0.7786 0.6267 0.0330
vn -0.5744 -0.4172 -0.7043
vn -0.5568 -0.4947 -0.6673
vn -0.0131 0.2538 0.9672
vn -0.0134 0.2429 0.9700
vn -0.3436 -0.2126 -0.9147
vn -0.3342 -0.2333 -0.9132
vn -0.6382 -0.5350 0.5536
vn -0.6374 -0.7008 0.3203
vn -0.1541 0.0543 -0.9866
vn -0.1647 0.0740 -0.9836
vn -0.0003 0.4254 -0.9050
vn 0.0386 0.3579 -0.9330
vn 0.1897 0.5737 -0.7968
vn 0.3457 0.8381 -0.4219
vn -0.1823 0.0100 0.9832
vn -0.1448 0.3435 0.9279
vn 0.1651 0.6114 -0.7739
vn 0.1270 0.5980 0.7914
vn 0.1534 0.3673 0.9174
vn -0.3654 -0.3242 0.8725
vn -0.4455 -0.5468 0.7089
vn -0.3799 -0.2957 0.8765
vn -0.6869 -0.7114 -0.1485
vn -0.5289 -0.5105 -0.6780
vn -0.4749 -0.6888 -0.5478
vn -0.6398 -0.6984 0.3207
vn -0.5751 -0.8103 0.1128
vn 0.5057 0.8605 0.0612
vn 0.5712 0.7915 -0.2174
vn 0.5945 0.7260 0.3456
vn -0.1935 0.0228 0.9808
vn -0.3634 -0.2241 -0.9043
vn -0.3306 -0.3812 -0.8633
vn -0.5000 -0.6869 0.5274
vn -0.5503 -0.4282 0.7168
vn -0.0450 0.0577 -0.9973
vn -0.1625 -0.0746 -0.9839
vn -0.0960 0.1589 -0.9826
vn 0.0989 0.3500 -0.9315
vn 0.1071 0.3306 -0.9377
vn 0.0622 0.3823 0.9220
vn -0.0492 0.3592 0.9319
vn 0.0185 0.4510 0.8923
vn 0.2076 0.6070 -0.7671
vn 0.4614 0.8636 -0.2032
vn 0.4526 0.8717 -0.1877
vn 0.2362 0.5517 -0.7999
vn 0.4203 0.8310 0.3643
vn 0.4752 0.6572 0.5850
vn -0.1223 0.0298 0.9920
vn 0.0289 0.2785 0.9600
vn -0.4767 -0.6880 -0.5472
vn -0.3489 -0.3724 -0.8600
vn -0.3148 -0.5149 -0.7973
vn -0.6240 -0.7729 0.1150
vn -0.4974 -0.8658 -0.0538
vn -0.4383 -0.7397 -0.5106
vn 0.5509 0.8201 0.1549
vn -0.5511 -0.6465 0.5277
vn -0.5064 -0.7632 0.4014
vn -0.1951 -0.2967 0.9348
vn -0.1002 0.0069 0.9949
vn -0.3723 -0.3790 0.8472
vn -0.3112 -0.0981 0.9452
vn -0.1227 -0.0919 -0.9882
vn -0.1247 -0.1814 -0.9755
vn -0.3592 -0.6017 0.7134
vn -0.3520 -0.4049 0.8439
vn 0.1374 0.4648 0.8747
vn 0.3821 0.7219 0.5769
vn 0.0905 0.2780 0.9563
vn 0.1888 0.4110 0.8919
vn -0.0091 0.1531 -0.9882
vn 0.0988 0.3316 -0.9382
vn 0.1160 0.2906 -0.9498
vn 0.0167 0.0543 -0.9984
vn -0.0106 0.0408 0.9991
vn 0.0843 0.2863 0.9544
vn 0.2886 0.5369 -0.7927
vn 0.2678 0.5731 -0.7745
vn 0.4879 0.8596 0.1517
vn 0.4280 0.7181 0.5487
vn -0.5478 -0.8341 -0.0649
vn -0.5010 -0.7667 0.4014
vn -0.4563 -0.8564 0.2417
vn -0.4396 -0.7393 -0.5100
vn -0.3290 -0.5086 -0.7957
vn -0.3020 -0.5945 -0.7453
vn 0.4915 0.8515 -0.1826
vn 0.5108 0.8519 0.1152
vn 0.4868 0.8557 -0.1756
vn -0.4707 -0.7077 -0.5269
vn -0.4216 -0.8753 -0.2370
vn -0.4453 -0.5504 0.7062
vn -0.4112 -0.7468 0.5226
vn -0.1923 -0.0881 0.9774
vn -0.0763 0.1141 0.9905
vn -0.1425 -0.1737 -0.9744
vn -0.1385 -0.2738 -0.9518
vn -0.2966 -0.3973 0.8685
vn -0.1413 -0.1719 0.9749
vn 0.1684 0.4081 0.8973
vn 0.4202 0.7254 0.5452
vn -0.2944 -0.4268 0.8551
vn 0.0071 0.0544 -0.9985
vn 0.0192 0.0244 -0.9995
vn 0.1308 0.2874 -0.9489
vn 0.1465 0.2371 -0.9604
vn 0.1023 0.2902 0.9515
vn 0.1543 0.4232 0.8928
vn -0.3615 -0.5536 -0.7502
vn -0.3399 -0.6711 -0.6588
vn -0.4317 -0.8684 0.2441
vn -0.5241 -0.8135 -0.2522
vn -0.3653 -0.9309 -0.0017
vn 0.2240 0.5853 -0.7792
vn 0.2568 0.4170 -0.8719
vn 0.0334 0.1268 0.9914
vn 0.1076 0.2824 0.9532
vn -0.4091 -0.7482 0.5224
vn -0.3974 -0.8657 0.3043
vn 0.4509 0.8858 0.1096
vn 0.2083 0.7623 0.6128
vn 0.4464 0.8145 0.3705
vn -0.0943 -0.1583 0.9829
vn 0.0622 0.0798 0.9949
vn 0.4466 0.8779 -0.1727
vn 0.5297 0.7859 -0.3191
vn 0.4749 0.8774 0.0685
vn 0.2442 0.4619 0.8526
vn -0.1457 -0.2689 -0.9521
vn -0.1616 -0.4237 -0.8913
vn -0.3060 -0.6989 -0.6465
vn -0.3061 -0.7768 -0.5503
vn -0.2716 -0.4294 0.8613
vn -0.0998 -0.1511 0.9835
vn -0.3491 -0.7351 0.5812
vn -0.2352 -0.5102 0.8273
vn 0.0022 0.0224 -0.9997
vn -0.0016 -0.1427 -0.9898
vn 0.0308 -0.0248 -0.9992
vn 0.0963 0.2473 -0.9642
vn 0.1046 0.1791 -0.9783
vn -0.0087 0.2628 0.9648
vn 0.1272 0.5057 0.8533
vn 0.1351 0.4581 0.8786
vn -0.1701 -0.6527 -0.7382
vn -0.1353 -0.4522 -0.8816
vn -0.3416 -0.9399 -0.0029
vn -0.1930 -0.8608 -0.4709
vn 0.1679 0.4609 -0.8714
vn 0.1895 0.3653 -0.9114
vn -0.3614 -0.8861 0.2902
vn -0.3117 -0.9498 0.0282
vn -0.1557 0.0633 0.9858
vn -0.0139 0.2762 0.9610
vn -0.2253 -0.1813 0.9573
vn -0.1397 0.0415 0.9893
vn 0.3087 0.8749 0.3733
vn 0.3806 0.6742 0.6330
vn 0.3320 0.8769 -0.3476
vn 0.2725 0.5327 -0.8012
vn 0.2896 0.9057 -0.3095
vn 0.4185 0.9053 0.0728
vn 0.4321 0.8909 0.1399
vn 0.4641 0.8841 -0.0539
vn -0.3272 -0.7527 0.5713
vn -0.3293 -0.8845 0.3304
vn -0.1628 -0.4920 0.8552
vn -0.1689 -0.2236 0.9599
vn -0.3028 -0.8492 -0.4327
vn -0.1793 -0.6447 -0.7431
vn -0.0560 -0.0742 -0.9957
vn -0.1276 -0.4481 -0.8848
vn 0.0725 0.1891 -0.9793
vn 0.0860 0.0091 -0.9963
vn -0.3778 -0.9248 0.0454
vn -0.2397 -0.9009 -0.3618
vn 0.1864 0.3653 -0.9121
vn 0.2466 0.5620 -0.7895
vn -0.2705 -0.7349 0.6219
vn -0.2522 -0.4182 0.8727
vn 0.1944 0.3499 -0.9164
vn 0.0879 0.4602 0.8835
vn 0.0134 0.2777 0.9606
vn 0.1020 0.4217 0.9010
vn 0.1583 0.7723 0.6153
vn 0.1765 0.5598 0.8096
vn -0.1300 0.0414 0.9907
vn 0.0189 0.2659 0.9638
vn -0.0571 -0.1314 0.9897
vn 0.4003 0.8862 -0.2334
vn 0.4028 0.9150 -0.0240
vn -0.2991 -0.9008 0.3147
vn -0.2812 -0.9359 0.2122
vn -0.0013 -0.0352 -0.9994
vn -0.0054 0.0677 -0.9977
vn -0.2023 -0.6479 -0.7344
vn -0.1365 -0.4397 -0.8877
vn 0.3113 0.9429 0.1183
vn 0.3332 0.8513 0.4052
vn 0.3074 0.9370 -0.1658
vn 0.3221 0.6016 -0.7310
vn 0.2900 0.9499 -0.1162
vn 0.3336 0.9395 0.0782
vn -0.3237 -0.7041 0.6321
vn -0.2317 -0.8774 0.4201
vn -0.2961 -0.8956 -0.3319
vn -0.1665 -0.6869 -0.7074
vn -0.2607 -0.4181 0.8702
vn -0.0733 -0.1279 0.9891
vn -0.0655 -0.1524 0.9862
vn 0.0624 0.4164 0.9070
vn 0.1152 0.6003 0.7915
vn -0.1907 -0.5296 0.8265
vn 0.0257 -0.0591 -0.9979
vn -0.0374 -0.3761 -0.9258
vn 0.3112 0.9369 -0.1594
vn 0.0617 0.3771 -0.9241
vn 0.0430 0.0966 -0.9944
vn 0.0801 0.3477 -0.9342
vn -0.0016 0.2658 0.9640
vn 0.0675 0.4089 0.9101
vn 0.0719 0.0284 0.9970
vn 0.1848 0.9045 0.3844
vn 0.1983 0.6359 0.7459
vn -0.3146 -0.9252 0.2120
vn -0.1501 -0.9609 -0.2329
vn 0.1830 0.7130 -0.6769
vn 0.2079 0.5693 -0.7954
vn -0.2010 -0.8886 0.4124
vn -0.2025 -0.8853 0.4186
vn 0.0214 0.1095 -0.9938
vn 0.0091 -0.0667 -0.9977
vn 0.2245 0.9740 0.0294
vn 0.2744 0.9224 0.2716
vn -0.1952 -0.5288 0.8260
vn -0.0443 -0.7996 0.5990
vn -0.2254 -0.6870 -0.6908
vn -0.1437 -0.3230 -0.9354
vn -0.1215 -0.5899 -0.7983
vn -0.2223 -0.1203 0.9675
vn -0.1221 -0.4379 0.8907
vn 0.0233 0.3936 0.9190
vn 0.0965 0.6889 0.7184
vn 0.2504 0.9550 -0.1590
vn 0.3449 0.8776 -0.3330
vn 0.2751 0.9599 -0.0541
vn -0.1797 0.1143 0.9771
vn -0.1592 -0.0651 0.9851
vn -0.2111 -0.9544 -0.2108
vn -0.1155 -0.8074 -0.5786
vn 0.1097 0.3432 -0.9328
vn 0.1210 0.1618 -0.9794
vn -0.0387 -0.0419 -0.9984
vn -0.0933 -0.2858 -0.9537
vn 0.0210 0.3952 0.9183
vn -0.0007 0.2330 0.9725
vn 0.1241 0.6301 -0.7665
vn 0.1425 0.3816 -0.9133
vn 0.1640 0.9610 0.2227
vn 0.1599 0.7113 0.6845
vn -0.2561 -0.8702 0.4209
vn -0.2107 -0.9546 -0.2105
vn -0.1489 -0.9573 0.2478
vn -0.2409 -0.7728 0.5872
vn -0.2040 -0.8204 0.5342
vn 0.0250 0.2252 -0.9740
vn 0.0598 0.0169 -0.9981
vn -0.1237 -0.4378 0.8905
vn -0.0273 -0.1292 0.9912
vn -0.0563 -0.5162 0.8546
vn -0.1116 -0.5906 -0.7992
vn -0.0227 -0.3691 -0.9291
vn 0.1704 0.9315 -0.3213
vn 0.3163 0.7573 -0.5714
vn -0.1212 -0.8089 -0.5753
vn -0.0741 -0.6429 -0.7623
vn 0.2172 0.9738 -0.0674
vn 0.2451 0.9610 0.1279
vn 0.2357 0.9666 -0.1002
vn 0.0351 0.4019 0.9150
vn 0.1103 0.7426 0.6606
vn 0.1031 0.4002 -0.9106
vn 0.1087 0.2885 -0.9513
vn -0.0291 -0.1298 0.9911
vn -0.0006 0.2329 0.9725
vn -0.0931 -0.8216 -0.5625
vn -0.0736 -0.9524 -0.2957
vn 0.0184 -0.3552 -0.9346
vn 0.0070 0.0340 -0.9994
vn 0.0663 -0.0508 -0.9965
vn -0.1346 -0.5263 0.8396
vn -0.0027 -0.1434 0.9897
vn -0.1138 -0.8450 0.5225
vn -0.1161 -0.9570 0.2659
vn 0.0281 0.8580 -0.5128
vn 0.1249 0.4211 -0.8984
vn 0.0022 0.2341 0.9722
vn 0.0267 0.4075 0.9128
vn -0.0490 -0.6417 -0.7654
vn 0.0792 -0.4417 -0.8937
vn -0.0962 -0.8405 0.5332
vn -0.1083 -0.5464 0.8305
vn 0.0006 -0.7668 -0.6418
vn 0.1100 0.9893 0.0961
vn 0.0121 0.7256 0.6881
vn 0.1912 0.9374 0.2911
vn 0.0381 0.3429 -0.9386
vn 0.0744 0.0791 -0.9941
vn -0.1761 -0.9253 -0.3358
vn -0.1255 -0.9545 0.2705
vn -0.0470 -0.9956 -0.0808
vn 0.1422 0.9850 -0.0978
vn 0.1832 0.8905 -0.4164
vn 0.1665 0.9844 -0.0565
vn -0.0856 -0.1674 0.9822
vn 0.0372 0.2008 0.9789
vn 0.0144 0.3999 0.9164
vn 0.0937 0.6412 0.7616
vn 0.0611 0.4387 -0.8966
vn 0.0830 0.4020 -0.9119
vn -0.0607 -0.7577 -0.6498
vn -0.0090 -0.8493 -0.5278
vn -0.0746 -0.9426 0.3254
vn -0.0691 -0.8527 0.5178
vn 0.0086 -0.0729 -0.9973
vn 0.0438 0.1100 -0.9930
vn -0.0611 -0.1783 0.9821
vn -0.0448 -0.5067 0.8609
vn -0.0380 -0.4404 -0.8970
vn 0.0557 -0.6192 -0.7832
vn 0.0859 -0.1913 -0.9778
vn 0.2980 0.8365 -0.4598
vn -0.0454 0.1921 0.9803
vn -0.0219 0.4251 0.9049
vn -0.0031 0.2630 0.9648
vn 0.0367 0.9593 0.2800
vn -0.0418 0.6103 0.7910
vn 0.1233 0.8309 0.5426
vn -0.1030 -0.9912 -0.0833
vn -0.0416 -0.9511 0.3062
vn -0.0087 -0.9957 0.0921
vn -0.0550 -0.1750 0.9830
vn 0.0309 0.0502 0.9983
vn -0.0798 -0.8311 -0.5504
vn -0.0045 -0.9328 -0.3605
vn 0.0046 0.4138 -0.9103
vn 0.0006 0.0977 -0.9952
vn 0.0579 0.3432 -0.9375
vn 0.0204 0.9978 -0.0630
vn 0.0728 0.9716 0.2251
vn 0.0650 0.9979 0.0009
vn -0.0751 -0.8531 0.5163
vn -0.0726 -0.4962 0.8652
vn 0.0234 -0.7519 0.6589
vn -0.0662 0.8478 -0.5261
vn 0.1043 0.9423 -0.3182
vn 0.0206 0.4765 0.8790
vn 0.1131 0.5856 -0.8027
vn 0.0148 -0.2089 -0.9778
vn 0.0428 0.0510 -0.9978
vn 0.0097 -0.9147 0.4040
vn -0.0591 -0.5910 -0.8045
vn -0.0135 -0.7626 -0.6467
vn -0.0438 -0.1792 0.9828
vn -0.0238 -0.4505 0.8925
vn -0.0150 -0.5686 -0.8225
vn 0.0075 -0.2024 -0.9793
vn -0.0194 0.0546 0.9983
vn -0.0037 -0.1407 0.9900
vn -0.0049 0.2633 0.9647
vn 0.0073 0.0875 0.9961
vn 0.1392 -0.9893 0.0438
vn -0.0171 -0.9310 -0.3647
vn -0.0116 0.4827 0.8757
vn 0.0052 0.2773 0.9608
vn -0.0305 0.8287 0.5589
vn 0.0694 0.5723 0.8171
vn -0.0171 0.9813 0.1919
vn 0.0537 0.9044 0.4232
vn 0.0171 0.3304 -0.9437
vn -0.0550 0.6177 -0.7845
vn 0.0260 0.4463 -0.8945
vn 0.0089 0.9998 0.0162
vn -0.0617 0.9395 -0.3369
vn 0.0399 0.9779 -0.2055
vn 0.0025 0.0405 -0.9992
vn 0.0218 0.3272 -0.9447
vn -0.0481 -0.7506 0.6590
vn 0.0457 -0.9128 0.4057
vn 0.0376 -0.9177 0.3955
vn -0.0200 -0.4517 0.8919
vn 0.0533 -0.6525 0.7559
vn 0.1039 -0.9945 0.0137
vn 0.0418 0.9968 0.0676
vn 0.0054 -0.7632 -0.6462
vn 0.0594 -0.8162 -0.5748
vn 0.0172 0.7798 -0.6258
vn 0.0368 -0.5960 -0.8022
vn 0.1002 -0.1840 0.9778
vn 0.0195 -0.2000 -0.9796
vn 0.0262 0.0204 -0.9994
vn -0.0229 0.0931 0.9954
vn -0.0477 -0.2541 0.9660
vn -0.0456 0.2910 0.9556
vn -0.0252 0.0910 0.9955
vn 0.0166 -0.6021 -0.7983
vn -0.0071 -0.1767 -0.9842
vn -0.0044 0.4625 -0.8866
vn -0.0289 0.3071 -0.9512
vn -0.0351 0.9974 0.0623
vn 0.0694 0.9774 -0.1996
vn 0.0371 0.9686 -0.2460
vn -0.0575 0.5735 0.8172
vn -0.0006 0.3374 0.9413
vn 0.0754 -0.8148 -0.5748
vn 0.0611 -0.9980 0.0150
vn 0.1042 -0.8295 -0.5487
vn -0.0660 0.8997 0.4314
vn 0.0932 0.7149 0.6930
vn -0.0011 -0.6447 0.7644
vn -0.0522 -0.9228 0.3818
vn 0.0662 -0.8159 0.5744
vn 0.0207 0.9866 0.1617
vn 0.0938 -0.6502 -0.7539
vn 0.0206 -0.2841 0.9586
vn 0.0843 -0.5593 0.8246
vn 0.0630 -0.9722 0.2254
vn 0.0388 -0.9992 -0.0017
vn 0.0730 0.7778 -0.6242
vn 0.1804 0.8527 -0.4902
vn 0.0266 0.4913 -0.8706
vn 0.0131 0.0150 -0.9998
vn 0.0222 0.2602 -0.9653
vn 0.0026 -0.1742 -0.9847
vn -0.0075 0.0331 -0.9994
vn 0.0425 0.0859 0.9954
vn 0.0369 -0.2733 0.9612
vn -0.0084 0.3399 0.9404
vn 0.0162 0.0599 0.9981
vn 0.1119 -0.6490 -0.7525
vn 0.0738 -0.8349 -0.5455
vn 0.1089 -0.6471 -0.7546
vn 0.1510 -0.3104 -0.9385
vn 0.0521 -0.8150 0.5771
vn 0.1343 -0.9543 0.2669
vn -0.0088 0.5025 -0.8645
vn -0.0302 0.2339 -0.9718
vn -0.0927 0.7216 0.6861
vn 0.0199 0.3648 0.9309
vn -0.0343 -0.9993 0.0162
vn 0.2224 -0.9055 -0.3613
vn 0.0818 -0.5590 0.8251
vn 0.1763 -0.6964 0.6957
vn -0.1834 0.9550 -0.2331
vn -0.0696 0.8461 -0.5284
vn -0.1340 0.7918 -0.5959
vn -0.1330 0.9780 0.1609
vn -0.0757 0.9640 0.2549
vn -0.0942 0.7207 0.6868
vn -0.0534 0.9983 0.0241
vn -0.0744 0.9921 -0.1013
vn -0.0624 0.4433 -0.8942
vn 0.2292 -0.3799 0.8962
vn 0.2293 -0.3801 0.8960
vn 0.0788 -0.9511 0.2986
vn 0.1087 -0.9835 0.1446
vn 0.0145 0.0459 -0.9988
vn -0.0007 0.2085 -0.9780
vn -0.0290 0.0621 0.9977
vn 0.1111 -0.2059 0.9722
vn -0.0694 -0.4164 0.9065
vn 0.1107 -0.6992 0.7063
vn 0.1548 -0.9255 0.3456
vn 0.0131 -0.6597 -0.7514
vn -0.0230 -0.2981 -0.9543
vn 0.0999 -0.5055 -0.8570
vn -0.0889 0.3727 0.9237
vn 0.0130 0.1089 0.9940
vn 0.0513 -0.9229 -0.3816
vn 0.3536 -0.9354 -0.0084
vn 0.1622 -0.8254 -0.5408
vn -0.1000 0.9950 -0.0014
vn -0.0314 0.9723 0.2318
vn 0.1368 -0.6781 0.7221
vn -0.0689 -0.4130 0.9081
vn 0.0177 0.0438 -0.9989
vn 0.0675 -0.1344 -0.9886
vn -0.1888 0.7335 0.6530
vn -0.0199 0.4481 0.8937
vn -0.0193 0.4265 -0.9043
vn 0.0103 0.2156 -0.9764
vn -0.0701 0.9923 -0.1023
vn -0.2129 0.7729 -0.5977
vn -0.0138 0.9456 -0.3249
vn -0.0488 0.9972 -0.0561
vn 0.0253 -0.9940 -0.1066
vn 0.2204 -0.9270 0.3033
vn -0.1048 0.9773 0.1841
vn -0.0229 0.8356 0.5489
vn 0.0194 0.4875 -0.8729
vn -0.0732 0.1214 0.9899
vn -0.0157 -0.2211 0.9751
vn 0.0485 -0.1480 0.9878
vn 0.1747 -0.8254 -0.5369
vn 0.1599 -0.9701 -0.1828
vn 0.0082 0.0393 -0.9992
vn 0.0311 0.1932 -0.9807
vn -0.0819 0.4549 0.8868
vn 0.0310 0.2399 0.9703
vn 0.0205 -0.6833 0.7298
vn 0.0377 -0.9714 0.2343
vn 0.2253 -0.8149 0.5341
vn 0.1467 -0.5296 0.8355
vn -0.1160 0.9750 0.1897
vn -0.1557 0.9818 -0.1086
vn -0.0004 -0.5105 -0.8599
vn 0.0192 -0.1380 -0.9902
vn 0.0771 -0.2707 -0.9596
vn -0.2034 0.8505 0.4851
vn -0.0368 0.4977 0.8666
vn 0.0896 -0.8718 -0.4815
vn 0.1347 -0.6857 -0.7153
vn 0.0535 -0.0545 -0.9971
vn 0.1292 -0.9755 0.1779
vn 0.1697 -0.9695 -0.1767
vn -0.1392 0.9749 0.1739
vn -0.0825 0.9189 0.3858
vn -0.1010 0.4784 -0.8723
vn -0.0106 0.1769 -0.9842
vn 0.0288 0.3015 -0.9530
vn -0.2784 0.9081 -0.3128
vn -0.1724 0.9801 -0.0987
vn -0.1716 0.9707 -0.1682
vn 0.0328 0.6895 -0.7236
vn -0.1165 -0.1529 0.9814
vn -0.0363 0.2516 0.9671
vn 0.0541 0.0846 0.9949
vn 0.0014 -0.5412 0.8409
vn 0.0800 -0.3416 0.9364
vn 0.0075 -0.8373 0.5467
vn 0.1729 -0.7211 0.6709
vn 0.1930 -0.9484 0.2516
vn 0.2232 -0.8853 -0.4080
vn 0.1550 -0.9733 -0.1695
vn -0.0698 0.5017 0.8622
vn 0.0375 0.3285 0.9438
vn -0.0878 0.9847 0.1502
vn -0.0995 0.9949 -0.0183
vn -0.0327 -0.0504 -0.9982
vn 0.0585 0.0808 -0.9950
vn 0.0493 -0.2827 -0.9579
vn -0.0967 0.9190 0.3822
vn 0.1267 0.7586 0.6391
vn -0.2217 0.6256 -0.7480
vn 0.0145 0.9338 -0.3574
vn 0.2119 -0.6747 -0.7070
vn 0.1303 -0.3216 -0.9379
vn 0.1539 -0.7557 -0.6366
vn -0.0552 0.9809 0.1863
vn 0.2158 -0.8892 -0.4035
vn 0.2265 -0.9430 0.2437
vn 0.3293 -0.9419 0.0668
vn 0.0888 -0.3395 0.9364
vn 0.0861 0.0795 0.9931
vn -0.0849 0.2630 -0.9611
vn -0.0511 0.4535 -0.8898
vn 0.0212 -0.7239 0.6896
vn 0.3654 -0.8488 0.3822
vn 0.1648 -0.3820 0.9093
vn -0.0637 0.3551 0.9327
vn 0.0491 0.0525 0.9974
vn 0.0167 0.0827 -0.9964
vn 0.1628 -0.2923 -0.9424
vn -0.2055 0.9786 0.0108
vn -0.2991 0.8404 -0.4520
vn -0.1790 0.9641 -0.1962
vn -0.0759 0.2549 -0.9640
vn -0.0515 0.0136 -0.9986
vn -0.1660 0.7773 0.6068
vn -0.0377 0.3730 0.9270
vn -0.1214 0.7556 0.6437
vn -0.2357 0.9541 0.1850
vn -0.2252 0.9742 -0.0178
vn 0.2103 -0.9756 0.0634
vn 0.2207 -0.8686 0.4437
vn -0.1667 0.9455 0.2797
vn -0.1653 0.7777 0.6065
vn 0.2817 -0.8898 -0.3591
vn 0.2639 -0.9645 0.0082
vn -0.1493 0.4087 -0.9004
vn -0.0936 0.6925 -0.7154
vn 0.0219 -0.4061 0.9136
vn -0.0971 0.0798 0.9921
vn 0.1088 -0.2373 0.9653
vn 0.0646 -0.9111 0.4070
vn 0.2601 -0.6145 0.7448
vn -0.1009 0.2441 -0.9645
vn -0.1145 0.3820 -0.9170
vn -0.0313 0.3700 0.9285
vn -0.0059 0.1516 0.9884
vn 0.1566 -0.7552 -0.6365
vn -0.0907 -0.2779 -0.9563
vn 0.1458 -0.4812 -0.8644
vn 0.1838 -0.7068 -0.6831
vn 0.1933 -0.9297 -0.3134
vn 0.2180 -0.9031 -0.3700
vn -0.0571 0.0151 -0.9983
vn -0.0053 -0.1517 -0.9884
vn 0.1971 -0.9800 -0.0269
vn 0.2307 -0.9319 0.2800
vn -0.0325 0.0338 -0.9989
vn -0.0379 0.1802 -0.9829
vn -0.2330 0.9501 -0.2076
vn -0.2185 0.9756 -0.0206
vn -0.2173 0.9595 -0.1791
vn -0.1643 0.6786 -0.7159
vn -0.1486 0.6989 -0.6997
vn -0.1931 0.7483 0.6347
vn -0.1250 0.7520 0.6472
vn -0.0546 0.3588 0.9318
vn -0.0070 0.6007 0.7994
vn 0.0810 -0.2420 0.9669
vn 0.0581 0.1190 0.9912
vn -0.1977 0.9395 0.2796
vn -0.1780 0.9834 0.0352
vn -0.1153 0.9159 0.3846
vn -0.1026 0.3946 -0.9131
vn 0.2507 -0.9611 -0.1161
vn 0.1079 -0.6623 0.7414
vn 0.2171 -0.3287 0.9191
vn 0.0474 -0.1602 -0.9859
vn 0.2041 -0.4545 -0.8671
vn 0.0736 -0.0721 -0.9947
vn 0.2526 -0.9226 0.2917
vn 0.3295 -0.7617 0.5579
vn 0.2145 -0.6935 -0.6877
vn 0.0990 -0.4046 -0.9091
vn -0.1012 0.3941 -0.9135
vn -0.0746 0.1620 -0.9840
vn 0.0209 0.0992 0.9948
vn 0.0351 0.2755 0.9607
vn 0.2595 -0.8848 -0.3870
vn 0.2315 -0.6999 -0.6757
vn 0.0537 -0.3677 0.9284
vn 0.1603 -0.0160 0.9869
vn -0.2119 0.9607 -0.1794
vn -0.2251 0.6873 -0.6906
vn -0.1260 0.8381 -0.5308
vn -0.2316 0.9718 0.0448
vn -0.2027 0.9658 -0.1619
vn -0.2526 0.8992 0.3573
vn -0.1343 0.5751 0.8070
vn -0.0551 0.7304 0.6808
vn -0.1015 0.3937 -0.9136
vn -0.0581 -0.0737 -0.9956
vn -0.0214 0.1132 -0.9933
vn 0.2415 -0.9632 -0.1180
vn 0.2738 -0.9195 0.2821
vn 0.3352 -0.9406 0.0545
vn -0.0659 -0.4619 -0.8845
vn 0.0069 -0.1534 -0.9881
vn -0.2061 0.9759 0.0723
vn -0.1763 0.9597 0.2187
vn 0.2756 -0.8870 -0.3706
vn 0.2617 -0.7836 0.5635
vn 0.3116 -0.5104 0.8015
vn -0.0179 0.2578 0.9660
vn 0.0206 0.4019 0.9155
vn 0.3334 -0.8112 0.4804
vn 0.1837 -0.7383 -0.6490
vn 0.0428 -0.0598 0.9973
vn 0.0806 0.1157 0.9900
vn 0.1577 -0.5627 0.8114
vn 0.2348 -0.2529 0.9386
vn -0.1120 0.1059 -0.9881
vn -0.1226 0.3958 -0.9101
vn -0.0625 0.2163 -0.9743
vn -0.2018 0.9660 -0.1618
vn -0.1564 0.9877 0.0041
vn -0.2611 0.7996 -0.5407
vn -0.1652 0.9541 -0.2497
vn -0.0304 -0.1554 -0.9874
vn 0.0044 -0.1003 -0.9949
vn 0.1747 -0.9115 -0.3723
vn 0.0118 -0.7419 -0.6704
vn 0.1859 -0.8370 -0.5147
vn -0.0442 0.4926 -0.8691
vn 0.2944 -0.9537 0.0616
vn 0.3500 -0.9203 -0.1745
vn -0.2162 0.7186 0.6609
vn -0.0312 0.3902 0.9202
vn -0.0177 0.4470 0.8943
vn 0.1862 -0.5356 -0.8237
vn 0.2506 -0.8368 0.4867
vn 0.3279 -0.6829 0.6528
vn -0.1818 0.9593 0.2160
vn -0.0735 0.8634 0.4991
vn 0.3683 -0.9072 0.2032
vn 0.0931 0.1204 0.9884
vn 0.1176 0.2454 0.9623
vn -0.1730 0.9849 -0.0042
vn -0.1387 0.9772 0.1606
vn 0.1302 -0.2936 0.9470
vn 0.1679 0.0228 0.9855
vn 0.1682 -0.5342 -0.8284
vn 0.1943 -0.8343 -0.5159
vn -0.1370 0.9610 -0.2403
vn -0.1405 0.9896 -0.0317
vn 0.2243 -0.7268 0.6492
vn 0.2413 -0.3766 0.8944
vn -0.0024 -0.0991 -0.9951
vn 0.1416 -0.5544 -0.8201
vn 0.2171 -0.9632 -0.1583
vn 0.2641 -0.8464 -0.4625
vn 0.0495 0.4485 0.8924
vn -0.1611 0.8597 0.4848
vn 0.0853 0.6416 0.7622
vn 0.1987 -0.9514 0.2355
vn 0.2813 -0.9544 -0.0997
vn -0.0697 0.2155 -0.9740
vn -0.1898 0.4993 -0.8454
vn -0.0573 0.2863 -0.9564
vn 0.0025 -0.0953 -0.9954
vn 0.0243 0.1017 -0.9945
vn 0.0709 0.2319 0.9702
vn 0.0822 0.4094 0.9087
vn -0.0636 0.9500 -0.3058
vn -0.0980 0.6011 -0.7932
vn -0.1241 0.9784 0.1654
vn -0.0642 0.9555 0.2878
vn 0.2528 -0.7354 0.6287
vn 0.2907 -0.8869 0.3591
vn 0.1461 0.0145 0.9892
vn 0.1366 0.1780 0.9745
vn -0.0889 0.9958 0.0203
vn 0.3550 -0.5777 -0.7351
vn 0.4105 -0.7654 -0.4957
vn 0.2870 -0.3493 0.8920
vn 0.2556 -0.1005 0.9616
vn 0.0780 0.6430 0.7619
vn 0.1140 0.4160 0.9022
vn 0.1553 -0.1632 -0.9743
vn 0.2478 -0.6602 -0.7090
vn 0.2801 -0.9548 -0.0994
vn 0.2403 -0.7608 -0.6028
vn -0.0211 0.9998 0.0006
vn 0.0355 0.9653 -0.2587
vn 0.3510 -0.6610 0.6633
vn 0.3138 -0.3731 0.8731
vn -0.0555 0.9555 0.2899
vn 0.1852 0.7181 0.6709
vn 0.0292 0.2841 -0.9584
vn 0.0800 0.1131 -0.9904
vn 0.1027 0.1862 -0.9771
vn 0.1871 0.1941 0.9630
vn 0.1942 0.3471 0.9175
vn 0.0595 0.5285 -0.8468
vn 0.3608 -0.8800 0.3090
vn 0.3790 -0.9251 -0.0220
vn 0.0702 0.9916 0.1085
vn 0.1922 -0.1202 -0.9740
vn 0.3483 0.0190 0.9372
vn 0.1987 -0.6489 -0.7345
vn 0.1866 -0.7901 -0.5839
vn -0.0688 0.9734 -0.2184
vn 0.1545 0.5707 -0.8065
vn 0.3208 -0.6580 0.6813
vn 0.4447 -0.7795 0.4412
vn 0.0407 0.7432 0.6679
vn 0.2372 0.3604 0.9021
vn 0.2343 -0.1339 -0.9629
vn 0.3401 -0.5472 -0.7648
vn 0.1101 0.9877 0.1107
vn 0.3439 0.8831 0.3192
vn 0.4411 -0.3444 0.8288
vn 0.3598 0.0172 0.9329
vn 0.4462 -0.3395 0.8281
vn 0.1279 0.2172 0.9677
vn 0.3447 -0.9387 -0.0045
vn 0.3502 -0.8190 -0.4546
vn 0.1485 0.9844 -0.0939
vn 0.1712 0.2026 -0.9642
vn 0.2100 0.5420 -0.8137
vn 0.3339 0.3008 0.8933
vn 0.2520 0.1556 -0.9551
vn 0.2874 -0.0667 -0.9555
vn 0.5677 -0.7247 0.3906
vn 0.4755 -0.8779 0.0568
vn 0.3091 0.9424 -0.1283
vn -0.0536 0.5051 -0.8614
vn 0.4706 -0.7362 -0.4863
vn 0.4541 -0.5651 -0.6888
vn 0.5368 -0.3188 0.7812
vn 0.4034 0.0766 0.9118
vn 0.4031 -0.2516 0.8799
vn 0.5667 -0.7259 0.3898
vn -0.0620 0.9427 0.3277
vn 0.3054 0.2973 0.9046
vn 0.3133 0.7914 0.5250
vn -0.1180 0.9360 -0.3317
vn 0.0554 0.9940 0.0940
vn 0.2962 0.2162 -0.9303
vn 0.6260 -0.7325 -0.2676
vn 0.4453 0.1367 0.8849
vn 0.4111 -0.5947 -0.6909
vn 0.4373 -0.1726 -0.8826
vn 0.1590 0.1970 -0.9674
vn 0.2254 0.8457 -0.4838
vn 0.5241 -0.2058 0.8264
vn 0.4427 0.1379 0.8860
vn 0.5582 -0.7827 -0.2754
vn 0.5914 -0.6439 -0.4854
vn 0.1545 0.7919 0.5908
vn -0.0299 0.9982 0.0522
vn 0.5418 -0.7397 0.3991
vn 0.6848 -0.7207 0.1078
vn 0.6218 -0.2630 0.7377
vn 0.3156 -0.2617 -0.9121
vn 0.3153 0.1000 -0.9437
vn 0.3956 0.1144 0.9113
vn 0.2695 0.7426 0.6131
vn 0.0975 0.8291 -0.5505
vn 0.0281 0.9996 -0.0006
vn 0.6059 -0.6292 -0.4868
vn 0.5683 -0.4221 -0.7063
vn 0.4575 -0.3460 0.8191
vn 0.5008 0.0330 0.8649
vn 0.1845 0.0685 -0.9804
vn -0.0736 0.8762 -0.4763
vn -0.0933 0.6329 0.7686
vn 0.1288 0.9823 0.1363
vn 0.6220 -0.7743 0.1160
vn 0.6077 -0.6289 -0.4851
vn 0.7072 -0.6688 -0.2294
vn 0.7117 -0.4852 0.5080
vn 0.6075 -0.3791 -0.6980
vn 0.4157 -0.0150 -0.9094
vn 0.3563 -0.0011 0.9344
vn -0.0190 0.6038 0.7969
vn 0.3680 0.0236 0.9295
vn 0.1071 0.8912 -0.4408
vn 0.2844 0.9580 0.0361
vn 0.2489 0.9561 0.1545
vn 0.6680 -0.4238 -0.6117
vn 0.6528 0.2787 -0.7044
vn 0.6341 -0.5603 0.5329
vn 0.6318 -0.2170 0.7441
vn 0.6626 -0.7068 -0.2479
vn 0.7917 -0.6092 0.0453
vn 0.6687 0.6753 0.3112
vn 0.6498 0.6196 0.4403
vn 0.4719 -0.4178 -0.7764
vn 0.6995 0.0513 0.7128
vn 0.7555 -0.0219 0.6548
vn 0.8296 0.1932 -0.5239
vn 0.8726 0.0536 -0.4855
vn 0.9105 0.4122 0.0315
vn 0.9110 0.4110 0.0355
vn 0.9837 0.0014 0.1798
vn 0.9953 -0.0801 0.0542
vn -0.8791 0.0646 0.4723
vn -0.6369 0.0547 0.7690
vn 0.9855 0.1688 -0.0161
vn 0.9353 0.1849 0.3017
vn -0.9392 -0.2430 0.2426
usemtl None
s off
f 1/1/1 2/2/1 3/3/1
f 3/3/2 2/2/2 4/4/2
f 5/5/3 3/3/3 4/4/3
f 3/3/4 5/5/4 6/6/4
f 1/1/5 3/3/5 7/7/5
f 7/7/6 3/3/6 6/6/6
f 1/1/7 8/8/7 2/2/7
f 2/2/8 8/8/8 9/9/8
f 10/10/9 4/4/9 2/2/9
f 10/10/10 2/2/10 9/9/10
f 11/11/11 12/12/11 13/13/11
f 14/14/12 12/12/12 11/11/12
f 13/13/13 12/12/13 15/15/13
f 15/15/14 12/12/14 16/16/14
f 16/16/15 12/12/15 6/6/15
f 17/17/16 12/12/16 14/14/16
f 6/6/17 12/12/17 17/17/17
f 18/18/18 19/19/18 14/14/18
f 19/19/19 17/17/19 14/14/19
f 20/20/20 19/19/20 21/21/20
f 7/7/21 19/19/21 20/20/21
f 21/21/22 19/19/22 18/18/22
f 7/7/23 17/17/23 19/19/23
f 16/16/24 6/6/24 5/5/24
f 16/16/25 5/5/25 22/22/25
f 22/22/26 5/5/26 4/4/26
f 23/23/27 8/8/27 24/24/27
f 8/8/28 20/20/28 24/24/28
f 9/9/29 8/8/29 23/23/29
f 1/1/30 20/20/30 8/8/30
f 25/25/31 11/11/31 13/13/31
f 26/26/32 11/11/32 25/25/32
f 27/27/33 11/11/33 28/28/33
f 27/27/34 14/14/34 11/11/34
f 28/28/35 11/11/35 26/26/35
f 25/25/36 13/13/36 29/29/36
f 30/30/37 13/13/37 15/15/37
f 29/29/38 13/13/38 30/30/38
f 10/10/39 9/9/39 23/23/39
f 10/10/40 23/23/40 31/31/40
f 22/22/41 4/4/41 10/10/41
f 32/32/42 10/10/42 31/31/42
f 32/32/43 22/22/43 10/10/43
f 33/33/44 25/25/44 29/29/44
f 34/34/45 25/25/45 33/33/45
f 26/26/46 25/25/46 35/35/46
f 35/35/47 25/25/47 34/34/47
f 23/23/48 24/24/48 36/36/48
f 36/36/49 24/24/49 37/37/49
f 24/24/50 38/38/50 37/37/50
f 24/24/51 20/20/51 21/21/51
f 24/24/52 21/21/52 38/38/52
f 31/31/53 23/23/53 39/39/53
f 39/39/54 23/23/54 40/40/54
f 23/23/55 36/36/55 40/40/55
f 41/41/56 27/27/56 42/42/56
f 38/38/57 27/27/57 41/41/57
f 42/42/58 27/27/58 43/43/58
f 43/43/59 27/27/59 28/28/59
f 27/27/60 18/18/60 14/14/60
f 38/38/61 18/18/61 27/27/61
f 30/30/62 15/15/62 44/44/62
f 45/45/63 15/15/63 46/46/63
f 15/15/64 16/16/64 46/46/64
f 44/44/65 15/15/65 45/45/65
f 33/33/66 29/29/66 47/47/66
f 48/48/67 29/29/67 30/30/67
f 47/47/68 29/29/68 48/48/68
f 49/49/69 33/33/69 50/50/69
f 50/50/70 33/33/70 47/47/70
f 51/51/71 33/33/71 49/49/71
f 33/33/72 52/52/72 34/34/72
f 52/52/73 33/33/73 51/51/73
f 43/43/74 28/28/74 26/26/74
f 43/43/75 26/26/75 53/53/75
f 54/54/76 26/26/76 35/35/76
f 53/53/77 26/26/77 54/54/77
f 55/55/78 56/56/78 37/37/78
f 56/56/79 36/36/79 37/37/79
f 57/57/80 56/56/80 55/55/80
f 57/57/81 40/40/81 56/56/81
f 40/40/82 36/36/82 56/56/82
f 55/55/83 37/37/83 58/58/83
f 37/37/84 38/38/84 41/41/84
f 58/58/85 37/37/85 41/41/85
f 57/57/86 59/59/86 39/39/86
f 39/39/87 40/40/87 57/57/87
f 60/60/88 39/39/88 59/59/88
f 39/39/89 60/60/89 31/31/89
f 59/59/90 57/57/90 61/61/90
f 61/61/91 57/57/91 55/55/91
f 60/60/92 59/59/92 61/61/92
f 62/62/93 63/63/93 64/64/93
f 64/64/94 63/63/94 65/65/94
f 66/66/95 63/63/95 62/62/95
f 65/65/96 63/63/96 67/67/96
f 67/67/97 63/63/97 68/68/97
f 69/69/98 63/63/98 66/66/98
f 63/63/99 69/69/99 68/68/99
f 50/50/100 64/64/100 49/49/100
f 62/62/101 64/64/101 50/50/101
f 49/49/102 64/64/102 70/70/102
f 70/70/103 64/64/103 65/65/103
f 50/50/104 71/71/104 62/62/104
f 71/71/105 50/50/105 47/47/105
f 51/51/106 49/49/106 70/70/106
f 72/72/107 30/30/107 44/44/107
f 48/48/108 30/30/108 72/72/108
f 62/62/109 73/73/109 66/66/109
f 73/73/110 62/62/110 71/71/110
f 46/46/111 60/60/111 74/74/111
f 46/46/112 32/32/112 60/60/112
f 60/60/113 61/61/113 75/75/113
f 74/74/114 60/60/114 75/75/114
f 32/32/115 31/31/115 60/60/115
f 70/70/116 65/65/116 76/76/116
f 76/76/117 65/65/117 67/67/117
f 61/61/118 55/55/118 77/77/118
f 77/77/119 55/55/119 58/58/119
f 47/47/120 78/78/120 71/71/120
f 78/78/121 47/47/121 48/48/121
f 79/79/122 46/46/122 74/74/122
f 45/45/123 46/46/123 79/79/123
f 16/16/124 22/22/124 46/46/124
f 46/46/125 22/22/125 32/32/125
f 41/41/126 42/42/126 80/80/126
f 41/41/127 80/80/127 81/81/127
f 41/41/128 81/81/128 82/82/128
f 82/82/129 58/58/129 41/41/129
f 77/77/130 75/75/130 61/61/130
f 54/54/131 35/35/131 34/34/131
f 54/54/132 34/34/132 83/83/132
f 84/84/133 34/34/133 85/85/133
f 83/83/134 34/34/134 84/84/134
f 34/34/135 52/52/135 85/85/135
f 86/86/136 43/43/136 87/87/136
f 42/42/137 43/43/137 86/86/137
f 43/43/138 53/53/138 87/87/138
f 51/51/139 70/70/139 88/88/139
f 88/88/140 70/70/140 76/76/140
f 89/89/141 67/67/141 68/68/141
f 90/90/142 67/67/142 89/89/142
f 76/76/143 67/67/143 90/90/143
f 91/91/144 51/51/144 88/88/144
f 52/52/145 51/51/145 91/91/145
f 92/92/146 75/75/146 77/77/146
f 92/92/147 77/77/147 58/58/147
f 93/93/148 69/69/148 66/66/148
f 68/68/149 69/69/149 94/94/149
f 69/69/150 93/93/150 95/95/150
f 94/94/151 69/69/151 95/95/151
f 75/75/152 92/92/152 96/96/152
f 92/92/153 81/81/153 96/96/153
f 82/82/154 81/81/154 92/92/154
f 92/92/155 58/58/155 82/82/155
f 97/97/156 66/66/156 73/73/156
f 93/93/157 66/66/157 98/98/157
f 98/98/158 66/66/158 97/97/158
f 99/99/159 54/54/159 100/100/159
f 100/100/160 54/54/160 83/83/160
f 53/53/161 54/54/161 99/99/161
f 89/89/162 68/68/162 101/101/162
f 101/101/163 68/68/163 94/94/163
f 71/71/164 102/102/164 73/73/164
f 102/102/165 71/71/165 78/78/165
f 74/74/166 96/96/166 79/79/166
f 96/96/167 74/74/167 75/75/167
f 103/103/168 44/44/168 45/45/168
f 104/104/169 72/72/169 44/44/169
f 103/103/170 104/104/170 44/44/170
f 105/105/171 48/48/171 72/72/171
f 105/105/172 78/78/172 48/48/172
f 79/79/173 106/106/173 45/45/173
f 106/106/174 79/79/174 96/96/174
f 86/86/175 106/106/175 96/96/175
f 81/81/176 86/86/176 96/96/176
f 86/86/177 87/87/177 107/107/177
f 106/106/178 86/86/178 107/107/178
f 80/80/179 42/42/179 86/86/179
f 80/80/180 86/86/180 81/81/180
f 103/103/181 45/45/181 106/106/181
f 107/107/182 87/87/182 108/108/182
f 87/87/183 99/99/183 108/108/183
f 53/53/184 99/99/184 87/87/184
f 109/109/185 72/72/185 104/104/185
f 105/105/186 72/72/186 109/109/186
f 110/110/187 73/73/187 102/102/187
f 97/97/188 73/73/188 110/110/188
f 106/106/189 107/107/189 103/103/189
f 95/95/190 93/93/190 111/111/190
f 111/111/191 93/93/191 112/112/191
f 112/112/192 93/93/192 98/98/192
f 113/113/193 89/89/193 101/101/193
f 90/90/194 89/89/194 113/113/194
f 108/108/195 103/103/195 107/107/195
f 104/104/196 103/103/196 108/108/196
f 100/100/197 83/83/197 84/84/197
f 100/100/198 84/84/198 114/114/198
f 115/115/199 84/84/199 91/91/199
f 84/84/200 85/85/200 91/91/200
f 114/114/201 84/84/201 115/115/201
f 102/102/202 78/78/202 116/116/202
f 116/116/203 78/78/203 105/105/203
f 108/108/204 100/100/204 117/117/204
f 108/108/205 99/99/205 100/100/205
f 100/100/206 114/114/206 117/117/206
f 108/108/207 117/117/207 104/104/207
f 118/118/208 94/94/208 95/95/208
f 101/101/209 94/94/209 119/119/209
f 119/119/210 94/94/210 118/118/210
f 109/109/211 104/104/211 120/120/211
f 104/104/212 117/117/212 120/120/212
f 91/91/213 121/121/213 115/115/213
f 121/121/214 91/91/214 88/88/214
f 85/85/215 52/52/215 91/91/215
f 88/88/216 76/76/216 122/122/216
f 122/122/217 76/76/217 90/90/217
f 115/115/218 121/121/218 109/109/218
f 109/109/219 120/120/219 115/115/219
f 123/123/220 115/115/220 120/120/220
f 123/123/221 114/114/221 115/115/221
f 110/110/222 102/102/222 116/116/222
f 124/124/223 95/95/223 111/111/223
f 118/118/224 95/95/224 125/125/224
f 125/125/225 95/95/225 124/124/225
f 109/109/226 121/121/226 105/105/226
f 126/126/227 105/105/227 121/121/227
f 105/105/228 126/126/228 116/116/228
f 121/121/229 88/88/229 127/127/229
f 127/127/230 88/88/230 122/122/230
f 113/113/231 101/101/231 128/128/231
f 101/101/232 119/119/232 128/128/232
f 121/121/233 127/127/233 126/126/233
f 129/129/234 111/111/234 112/112/234
f 124/124/235 111/111/235 129/129/235
f 130/130/236 90/90/236 113/113/236
f 122/122/237 90/90/237 130/130/237
f 131/131/238 112/112/238 98/98/238
f 129/129/239 112/112/239 131/131/239
f 119/119/240 118/118/240 132/132/240
f 132/132/241 118/118/241 125/125/241
f 133/133/242 98/98/242 97/97/242
f 131/131/243 98/98/243 133/133/243
f 134/134/244 97/97/244 110/110/244
f 133/133/245 97/97/245 134/134/245
f 110/110/246 116/116/246 135/135/246
f 135/135/247 116/116/247 126/126/247
f 136/136/248 113/113/248 128/128/248
f 130/130/249 113/113/249 136/136/249
f 134/134/250 110/110/250 135/135/250
f 127/127/251 122/122/251 137/137/251
f 137/137/252 122/122/252 130/130/252
f 128/128/253 119/119/253 138/138/253
f 139/139/254 119/119/254 132/132/254
f 138/138/255 119/119/255 139/139/255
f 125/125/256 124/124/256 140/140/256
f 141/141/257 124/124/257 129/129/257
f 140/140/258 124/124/258 141/141/258
f 132/132/259 125/125/259 142/142/259
f 142/142/260 125/125/260 140/140/260
f 143/143/261 126/126/261 127/127/261
f 135/135/262 126/126/262 143/143/262
f 143/143/263 127/127/263 137/137/263
f 136/136/264 128/128/264 138/138/264
f 144/144/265 129/129/265 131/131/265
f 141/141/266 129/129/266 144/144/266
f 145/145/267 132/132/267 142/142/267
f 139/139/268 132/132/268 145/145/268
f 146/146/269 131/131/269 133/133/269
f 144/144/270 131/131/270 147/147/270
f 147/147/271 131/131/271 146/146/271
f 148/148/272 133/133/272 134/134/272
f 146/146/273 133/133/273 148/148/273
f 137/137/274 130/130/274 149/149/274
f 150/150/275 130/130/275 136/136/275
f 149/149/276 130/130/276 150/150/276
f 134/134/277 135/135/277 151/151/277
f 152/152/278 135/135/278 143/143/278
f 151/151/279 135/135/279 152/152/279
f 148/148/280 134/134/280 151/151/280
f 143/143/281 137/137/281 153/153/281
f 153/153/282 137/137/282 149/149/282
f 154/154/283 136/136/283 138/138/283
f 150/150/284 136/136/284 154/154/284
f 155/155/285 140/140/285 141/141/285
f 156/156/286 141/141/286 144/144/286
f 155/155/287 141/141/287 156/156/287
f 142/142/288 140/140/288 157/157/288
f 157/157/289 140/140/289 158/158/289
f 158/158/290 140/140/290 155/155/290
f 152/152/291 143/143/291 153/153/291
f 159/159/292 145/145/292 142/142/292
f 159/159/293 142/142/293 157/157/293
f 160/160/294 138/138/294 139/139/294
f 154/154/295 138/138/295 160/160/295
f 161/161/296 139/139/296 145/145/296
f 160/160/297 139/139/297 161/161/297
f 162/162/298 144/144/298 147/147/298
f 156/156/299 144/144/299 162/162/299
f 163/163/300 145/145/300 159/159/300
f 161/161/301 145/145/301 163/163/301
f 164/164/302 149/149/302 150/150/302
f 153/153/303 149/149/303 164/164/303
f 165/165/304 150/150/304 154/154/304
f 164/164/305 150/150/305 165/165/305
f 147/147/306 146/146/306 166/166/306
f 167/167/307 146/146/307 148/148/307
f 166/166/308 146/146/308 167/167/308
f 162/162/309 147/147/309 166/166/309
f 168/168/310 154/154/310 160/160/310
f 165/165/311 154/154/311 168/168/311
f 169/169/312 148/148/312 151/151/312
f 167/167/313 148/148/313 169/169/313
f 152/152/314 153/153/314 170/170/314
f 170/170/315 153/153/315 164/164/315
f 157/157/316 158/158/316 171/171/316
f 157/157/317 172/172/317 159/159/317
f 157/157/318 171/171/318 172/172/318
f 158/158/319 155/155/319 173/173/319
f 174/174/320 155/155/320 156/156/320
f 173/173/321 155/155/321 174/174/321
f 151/151/322 152/152/322 175/175/322
f 175/175/323 152/152/323 170/170/323
f 169/169/324 151/151/324 175/175/324
f 176/176/325 158/158/325 173/173/325
f 158/158/326 176/176/326 171/171/326
f 177/177/327 163/163/327 159/159/327
f 177/177/328 159/159/328 172/172/328
f 178/178/329 160/160/329 161/161/329
f 168/168/330 160/160/330 178/178/330
f 179/179/331 156/156/331 162/162/331
f 174/174/332 156/156/332 179/179/332
f 161/161/333 163/163/333 180/180/333
f 161/161/334 180/180/334 178/178/334
f 181/181/335 164/164/335 165/165/335
f 170/170/336 164/164/336 181/181/336
f 177/177/337 180/180/337 163/163/337
f 182/182/338 162/162/338 166/166/338
f 179/179/339 162/162/339 182/182/339
f 183/183/340 166/166/340 167/167/340
f 182/182/341 166/166/341 183/183/341
f 184/184/342 165/165/342 168/168/342
f 181/181/343 165/165/343 184/184/343
f 185/185/344 173/173/344 174/174/344
f 176/176/345 173/173/345 185/185/345
f 172/172/346 171/171/346 186/186/346
f 187/187/347 171/171/347 176/176/347
f 186/186/348 171/171/348 187/187/348
f 188/188/349 167/167/349 169/169/349
f 183/183/350 167/167/350 188/188/350
f 189/189/351 168/168/351 178/178/351
f 184/184/352 168/168/352 189/189/352
f 177/177/353 172/172/353 190/190/353
f 190/190/354 172/172/354 186/186/354
f 175/175/355 170/170/355 191/191/355
f 170/170/356 181/181/356 192/192/356
f 191/191/357 170/170/357 192/192/357
f 193/193/358 178/178/358 180/180/358
f 193/193/359 189/189/359 178/178/359
f 194/194/360 169/169/360 175/175/360
f 188/188/361 169/169/361 194/194/361
f 194/194/362 175/175/362 191/191/362
f 192/192/363 181/181/363 184/184/363
f 195/195/364 174/174/364 179/179/364
f 185/185/365 174/174/365 195/195/365
f 196/196/366 176/176/366 185/185/366
f 187/187/367 176/176/367 196/196/367
f 197/197/368 180/180/368 177/177/368
f 197/197/369 193/193/369 180/180/369
f 177/177/370 190/190/370 198/198/370
f 198/198/371 197/197/371 177/177/371
f 199/199/372 179/179/372 182/182/372
f 200/200/373 195/195/373 179/179/373
f 200/200/374 179/179/374 199/199/374
f 201/201/375 182/182/375 183/183/375
f 199/199/376 182/182/376 201/201/376
f 184/184/377 189/189/377 202/202/377
f 192/192/378 184/184/378 203/203/378
f 203/203/379 184/184/379 202/202/379
f 196/196/380 185/185/380 204/204/380
f 204/204/381 185/185/381 195/195/381
f 186/186/382 187/187/382 205/205/382
f 205/205/383 187/187/383 196/196/383
f 206/206/384 183/183/384 188/188/384
f 201/201/385 183/183/385 206/206/385
f 190/190/386 186/186/386 207/207/386
f 207/207/387 186/186/387 205/205/387
f 208/208/388 189/189/388 193/193/388
f 202/202/389 189/189/389 208/208/389
f 209/209/390 193/193/390 197/197/390
f 208/208/391 193/193/391 209/209/391
f 191/191/392 192/192/392 210/210/392
f 210/210/393 192/192/393 203/203/393
f 211/211/394 188/188/394 194/194/394
f 206/206/395 188/188/395 212/212/395
f 212/212/396 188/188/396 211/211/396
f 194/194/397 191/191/397 213/213/397
f 213/213/398 191/191/398 210/210/398
f 211/211/399 194/194/399 213/213/399
f 190/190/400 214/214/400 198/198/400
f 207/207/401 214/214/401 190/190/401
f 198/198/402 215/215/402 197/197/402
f 209/209/403 197/197/403 215/215/403
f 205/205/404 196/196/404 216/216/404
f 216/216/405 196/196/405 204/204/405
f 217/217/406 195/195/406 200/200/406
f 204/204/407 195/195/407 217/217/407
f 218/218/408 199/199/408 201/201/408
f 200/200/409 199/199/409 218/218/409
f 219/219/410 207/207/410 205/205/410
f 219/219/411 205/205/411 216/216/411
f 201/201/412 206/206/412 220/220/412
f 220/220/413 206/206/413 212/212/413
f 221/221/414 198/198/414 214/214/414
f 215/215/415 198/198/415 221/221/415
f 218/218/416 201/201/416 220/220/416
f 203/203/417 202/202/417 222/222/417
f 223/223/418 202/202/418 208/208/418
f 222/222/419 202/202/419 223/223/419
f 210/210/420 203/203/420 224/224/420
f 224/224/421 203/203/421 222/222/421
f 225/225/422 208/208/422 209/209/422
f 223/223/423 208/208/423 225/225/423
f 225/225/424 209/209/424 215/215/424
f 212/212/425 211/211/425 226/226/425
f 226/226/426 211/211/426 213/213/426
f 214/214/427 207/207/427 227/227/427
f 227/227/428 207/207/428 219/219/428
f 217/217/429 200/200/429 228/228/429
f 228/228/430 200/200/430 218/218/430
f 216/216/431 204/204/431 229/229/431
f 229/229/432 204/204/432 217/217/432
f 213/213/433 210/210/433 230/230/433
f 230/230/434 210/210/434 224/224/434
f 231/231/435 212/212/435 226/226/435
f 220/220/436 212/212/436 231/231/436
f 232/232/437 226/226/437 213/213/437
f 232/232/438 213/213/438 230/230/438
f 221/221/439 214/214/439 233/233/439
f 233/233/440 214/214/440 227/227/440
f 219/219/441 216/216/441 234/234/441
f 234/234/442 216/216/442 229/229/442
f 215/215/443 221/221/443 235/235/443
f 225/225/444 215/215/444 236/236/444
f 236/236/445 215/215/445 235/235/445
f 222/222/446 223/223/446 237/237/446
f 224/224/447 222/222/447 237/237/447
f 221/221/448 233/233/448 235/235/448
f 238/238/449 217/217/449 228/228/449
f 229/229/450 217/217/450 238/238/450
f 232/232/451 231/231/451 226/226/451
f 239/239/452 218/218/452 220/220/452
f 228/228/453 218/218/453 240/240/453
f 240/240/454 218/218/454 239/239/454
f 223/223/455 225/225/455 241/241/455
f 241/241/456 237/237/456 223/223/456
f 241/241/457 225/225/457 236/236/457
f 230/230/458 224/224/458 242/242/458
f 242/242/459 224/224/459 237/237/459
f 227/227/460 219/219/460 243/243/460
f 219/219/461 234/234/461 243/243/461
f 244/244/462 220/220/462 231/231/462
f 239/239/463 220/220/463 244/244/463
f 233/233/464 227/227/464 245/245/464
f 245/245/465 227/227/465 243/243/465
f 246/246/466 228/228/466 240/240/466
f 238/238/467 228/228/467 246/246/467
f 232/232/468 230/230/468 247/247/468
f 247/247/469 230/230/469 242/242/469
f 248/248/470 235/235/470 233/233/470
f 248/248/471 233/233/471 245/245/471
f 234/234/472 229/229/472 249/249/472
f 250/250/473 229/229/473 238/238/473
f 249/249/474 229/229/474 250/250/474
f 235/235/475 251/251/475 236/236/475
f 251/251/476 235/235/476 248/248/476
f 252/252/477 237/237/477 241/241/477
f 242/242/478 237/237/478 252/252/478
f 253/253/479 231/231/479 232/232/479
f 244/244/480 231/231/480 253/253/480
f 253/253/481 232/232/481 247/247/481
f 254/254/482 241/241/482 236/236/482
f 236/236/483 251/251/483 254/254/483
f 243/243/484 234/234/484 255/255/484
f 255/255/485 234/234/485 249/249/485
f 256/256/486 240/240/486 239/239/486
f 246/246/487 240/240/487 256/256/487
f 257/257/488 238/238/488 246/246/488
f 250/250/489 238/238/489 257/257/489
f 258/258/490 252/252/490 241/241/490
f 254/254/491 258/258/491 241/241/491
f 239/239/492 244/244/492 259/259/492
f 256/256/493 239/239/493 259/259/493
f 247/247/494 242/242/494 260/260/494
f 260/260/495 242/242/495 252/252/495
f 245/245/496 243/243/496 261/261/496
f 262/262/497 243/243/497 255/255/497
f 261/261/498 243/243/498 262/262/498
f 248/248/499 245/245/499 263/263/499
f 263/263/500 245/245/500 261/261/500
f 264/264/501 246/246/501 256/256/501
f 257/257/502 246/246/502 264/264/502
f 251/251/503 248/248/503 265/265/503
f 254/254/504 251/251/504 265/265/504
f 263/263/505 265/265/505 248/248/505
f 249/249/506 250/250/506 266/266/506
f 266/266/507 250/250/507 257/257/507
f 267/267/508 244/244/508 253/253/508
f 259/259/509 244/244/509 267/267/509
f 255/255/510 249/249/510 268/268/510
f 268/268/511 249/249/511 266/266/511
f 253/253/512 247/247/512 269/269/512
f 269/269/513 247/247/513 260/260/513
f 267/267/514 253/253/514 269/269/514
f 270/270/515 252/252/515 258/258/515
f 260/260/516 252/252/516 270/270/516
f 256/256/517 259/259/517 271/271/517
f 264/264/518 256/256/518 271/271/518
f 272/272/519 254/254/519 265/265/519
f 258/258/520 254/254/520 272/272/520
f 273/273/521 255/255/521 268/268/521
f 262/262/522 255/255/522 273/273/522
f 266/266/523 257/257/523 274/274/523
f 275/275/524 257/257/524 264/264/524
f 274/274/525 257/257/525 275/275/525
f 276/276/526 265/265/526 263/263/526
f 272/272/527 265/265/527 276/276/527
f 263/263/528 261/261/528 277/277/528
f 277/277/529 261/261/529 262/262/529
f 259/259/530 267/267/530 278/278/530
f 271/271/531 259/259/531 278/278/531
f 279/279/532 258/258/532 272/272/532
f 270/270/533 258/258/533 279/279/533
f 268/268/534 266/266/534 280/280/534
f 280/280/535 266/266/535 274/274/535
f 281/281/536 263/263/536 277/277/536
f 276/276/537 263/263/537 281/281/537
f 273/273/538 268/268/538 280/280/538
f 269/269/539 260/260/539 282/282/539
f 283/283/540 260/260/540 270/270/540
f 282/282/541 260/260/541 283/283/541
f 284/284/542 264/264/542 271/271/542
f 275/275/543 264/264/543 284/284/543
f 285/285/544 262/262/544 273/273/544
f 277/277/545 262/262/545 286/286/545
f 286/286/546 262/262/546 285/285/546
f 287/287/547 267/267/547 269/269/547
f 278/278/548 267/267/548 287/287/548
f 287/287/549 269/269/549 282/282/549
f 288/288/550 272/272/550 276/276/550
f 279/279/551 272/272/551 288/288/551
f 289/289/552 270/270/552 279/279/552
f 283/283/553 270/270/553 289/289/553
f 271/271/554 278/278/554 290/290/554
f 284/284/555 271/271/555 290/290/555
f 273/273/556 280/280/556 291/291/556
f 285/285/557 273/273/557 291/291/557
f 292/292/558 277/277/558 286/286/558
f 281/281/559 277/277/559 292/292/559
f 274/274/560 275/275/560 293/293/560
f 293/293/561 275/275/561 284/284/561
f 288/288/562 276/276/562 294/294/562
f 294/294/563 276/276/563 281/281/563
f 295/295/564 280/280/564 274/274/564
f 291/291/565 280/280/565 295/295/565
f 295/295/566 274/274/566 293/293/566
f 290/290/567 278/278/567 287/287/567
f 296/296/568 279/279/568 288/288/568
f 289/289/569 279/279/569 297/297/569
f 297/297/570 279/279/570 296/296/570
f 298/298/571 282/282/571 283/283/571
f 283/283/572 289/289/572 299/299/572
f 283/283/573 299/299/573 298/298/573
f 286/286/574 285/285/574 300/300/574
f 292/292/575 286/286/575 301/301/575
f 301/301/576 286/286/576 300/300/576
f 302/302/577 288/288/577 294/294/577
f 296/296/578 288/288/578 302/302/578
f 285/285/579 291/291/579 303/303/579
f 300/300/580 285/285/580 303/303/580
f 304/304/581 284/284/581 290/290/581
f 293/293/582 284/284/582 305/305/582
f 305/305/583 284/284/583 304/304/583
f 287/287/584 282/282/584 306/306/584
f 298/298/585 307/307/585 282/282/585
f 307/307/586 306/306/586 282/282/586
f 308/308/587 281/281/587 292/292/587
f 294/294/588 281/281/588 309/309/588
f 309/309/589 281/281/589 308/308/589
f 290/290/590 287/287/590 310/310/590
f 310/310/591 287/287/591 306/306/591
f 299/299/592 289/289/592 297/297/592
f 304/304/593 290/290/593 310/310/593
f 311/311/594 295/295/594 293/293/594
f 311/311/595 293/293/595 305/305/595
f 308/308/596 292/292/596 301/301/596
f 312/312/597 291/291/597 295/295/597
f 303/303/598 291/291/598 312/312/598
f 302/302/599 294/294/599 313/313/599
f 313/313/600 294/294/600 309/309/600
f 312/312/601 295/295/601 314/314/601
f 314/314/602 295/295/602 311/311/602
f 296/296/603 302/302/603 315/315/603
f 315/315/604 302/302/604 313/313/604
f 297/297/605 296/296/605 316/316/605
f 316/316/606 296/296/606 315/315/606
f 301/301/607 300/300/607 317/317/607
f 317/317/608 300/300/608 303/303/608
f 299/299/609 297/297/609 318/318/609
f 318/318/610 297/297/610 316/316/610
f 299/299/611 319/319/611 298/298/611
f 299/299/612 318/318/612 319/319/612
f 320/320/613 307/307/613 298/298/613
f 298/298/614 319/319/614 320/320/614
f 305/305/615 304/304/615 321/321/615
f 322/322/616 304/304/616 310/310/616
f 321/321/617 304/304/617 322/322/617
f 323/323/618 306/306/618 307/307/618
f 310/310/619 306/306/619 324/324/619
f 324/324/620 306/306/620 323/323/620
f 311/311/621 305/305/621 325/325/621
f 325/325/622 305/305/622 321/321/622
f 309/309/623 308/308/623 326/326/623
f 327/327/624 308/308/624 301/301/624
f 326/326/625 308/308/625 327/327/625
f 328/328/626 313/313/626 309/309/626
f 328/328/627 309/309/627 326/326/627
f 327/327/628 301/301/628 317/317/628
f 323/323/629 307/307/629 320/320/629
f 329/329/630 303/303/630 312/312/630
f 317/317/631 303/303/631 329/329/631
f 322/322/632 310/310/632 324/324/632
f 329/329/633 312/312/633 314/314/633
f 315/315/634 313/313/634 328/328/634
f 330/330/635 314/314/635 311/311/635
f 330/330/636 311/311/636 325/325/636
f 331/331/637 316/316/637 315/315/637
f 331/331/638 315/315/638 328/328/638
f 318/318/639 316/316/639 332/332/639
f 332/332/640 316/316/640 331/331/640
f 329/329/641 314/314/641 333/333/641
f 333/333/642 314/314/642 330/330/642
f 334/334/643 321/321/643 322/322/643
f 325/325/644 321/321/644 334/334/644
f 335/335/645 323/323/645 320/320/645
f 324/324/646 323/323/646 336/336/646
f 336/336/647 323/323/647 335/335/647
f 319/319/648 318/318/648 337/337/648
f 337/337/649 318/318/649 332/332/649
f 338/338/650 317/317/650 329/329/650
f 327/327/651 317/317/651 339/339/651
f 339/339/652 317/317/652 338/338/652
f 320/320/653 319/319/653 340/340/653
f 340/340/654 319/319/654 337/337/654
f 328/328/655 326/326/655 341/341/655
f 342/342/656 326/326/656 327/327/656
f 341/341/657 326/326/657 342/342/657
f 335/335/658 320/320/658 340/340/658
f 338/338/659 329/329/659 333/333/659
f 331/331/660 328/328/660 343/343/660
f 343/343/661 328/328/661 341/341/661
f 342/342/662 327/327/662 344/344/662
f 344/344/663 327/327/663 339/339/663
f 345/345/664 322/322/664 324/324/664
f 345/345/665 324/324/665 336/336/665
f 334/334/666 322/322/666 345/345/666
f 330/330/667 325/325/667 346/346/667
f 346/346/668 325/325/668 334/334/668
f 333/333/669 330/330/669 347/347/669
f 347/347/670 330/330/670 346/346/670
f 332/332/671 331/331/671 348/348/671
f 348/348/672 331/331/672 343/343/672
f 349/349/673 337/337/673 332/332/673
f 349/349/674 332/332/674 348/348/674
f 350/350/675 338/338/675 333/333/675
f 339/339/676 338/338/676 351/351/676
f 351/351/677 338/338/677 350/350/677
f 350/350/678 333/333/678 347/347/678
f 352/352/679 341/341/679 342/342/679
f 352/352/680 342/342/680 344/344/680
f 353/353/681 334/334/681 345/345/681
f 346/346/682 334/334/682 353/353/682
f 340/340/683 337/337/683 354/354/683
f 354/354/684 337/337/684 349/349/684
f 344/344/685 339/339/685 355/355/685
f 355/355/686 339/339/686 351/351/686
f 343/343/687 341/341/687 356/356/687
f 356/356/688 341/341/688 352/352/688
f 357/357/689 336/336/689 335/335/689
f 345/345/690 336/336/690 358/358/690
f 358/358/691 336/336/691 357/357/691
f 335/335/692 340/340/692 359/359/692
f 360/360/693 359/359/693 340/340/693
f 360/360/694 340/340/694 354/354/694
f 361/361/695 335/335/695 359/359/695
f 357/357/696 335/335/696 361/361/696
f 353/353/697 345/345/697 358/358/697
f 348/348/698 343/343/698 362/362/698
f 362/362/699 343/343/699 356/356/699
f 352/352/700 344/344/700 363/363/700
f 363/363/701 344/344/701 355/355/701
f 347/347/702 346/346/702 364/364/702
f 364/364/703 346/346/703 353/353/703
f 349/349/704 348/348/704 365/365/704
f 365/365/705 348/348/705 366/366/705
f 366/366/706 348/348/706 362/362/706
f 367/367/707 356/356/707 352/352/707
f 367/367/708 352/352/708 363/363/708
f 351/351/709 350/350/709 368/368/709
f 369/369/710 350/350/710 347/347/710
f 368/368/711 350/350/711 369/369/711
f 370/370/712 354/354/712 349/349/712
f 370/370/713 349/349/713 365/365/713
f 371/371/714 355/355/714 351/351/714
f 363/363/715 355/355/715 371/371/715
f 371/371/716 351/351/716 368/368/716
f 361/361/717 359/359/717 372/372/717
f 372/372/718 359/359/718 360/360/718
f 366/366/719 356/356/719 367/367/719
f 366/366/720 362/362/720 356/356/720
f 373/373/721 347/347/721 364/364/721
f 369/369/722 347/347/722 373/373/722
f 360/360/723 354/354/723 374/374/723
f 374/374/724 354/354/724 370/370/724
f 375/375/725 353/353/725 358/358/725
f 364/364/726 353/353/726 375/375/726
f 376/376/727 357/357/727 361/361/727
f 358/358/728 357/357/728 377/377/728
f 377/377/729 357/357/729 376/376/729
f 376/376/730 361/361/730 372/372/730
f 378/378/731 363/363/731 371/371/731
f 367/367/732 363/363/732 378/378/732
f 372/372/733 360/360/733 379/379/733
f 379/379/734 360/360/734 374/374/734
f 375/375/735 358/358/735 377/377/735
f 370/370/736 365/365/736 380/380/736
f 381/381/737 365/365/737 366/366/737
f 380/380/738 365/365/738 381/381/738
f 371/371/739 368/368/739 382/382/739
f 382/382/740 378/378/740 371/371/740
f 373/373/741 364/364/741 383/383/741
f 383/383/742 364/364/742 375/375/742
f 384/384/743 374/374/743 370/370/743
f 384/384/744 370/370/744 380/380/744
f 385/385/745 366/366/745 367/367/745
f 386/386/746 367/367/746 378/378/746
f 385/385/747 367/367/747 386/386/747
f 381/381/748 366/366/748 385/385/748
f 387/387/749 372/372/749 379/379/749
f 376/376/750 372/372/750 387/387/750
f 368/368/751 369/369/751 388/388/751
f 389/389/752 369/369/752 373/373/752
f 388/388/753 369/369/753 389/389/753
f 379/379/754 374/374/754 390/390/754
f 390/390/755 374/374/755 384/384/755
f 368/368/756 391/391/756 382/382/756
f 368/368/757 388/388/757 391/391/757
f 389/389/758 373/373/758 383/383/758
f 386/386/759 378/378/759 392/392/759
f 392/392/760 378/378/760 382/382/760
f 387/387/761 379/379/761 393/393/761
f 393/393/762 379/379/762 390/390/762
f 394/394/763 375/375/763 377/377/763
f 383/383/764 375/375/764 395/395/764
f 395/395/765 375/375/765 394/394/765
f 377/377/766 376/376/766 396/396/766
f 397/397/767 376/376/767 387/387/767
f 396/396/768 376/376/768 397/397/768
f 394/394/769 377/377/769 396/396/769
f 398/398/770 380/380/770 381/381/770
f 384/384/771 380/380/771 399/399/771
f 399/399/772 380/380/772 398/398/772
f 400/400/773 381/381/773 385/385/773
f 398/398/774 381/381/774 400/400/774
f 401/401/775 385/385/775 386/386/775
f 385/385/776 401/401/776 400/400/776
f 401/401/777 386/386/777 392/392/777
f 402/402/778 382/382/778 391/391/778
f 392/392/779 382/382/779 402/402/779
f 403/403/780 390/390/780 384/384/780
f 403/403/781 384/384/781 399/399/781
f 404/404/782 387/387/782 393/393/782
f 397/397/783 387/387/783 404/404/783
f 389/389/784 383/383/784 405/405/784
f 405/405/785 383/383/785 395/395/785
f 405/405/786 388/388/786 389/389/786
f 406/406/787 393/393/787 390/390/787
f 406/406/788 390/390/788 403/403/788
f 394/394/789 396/396/789 407/407/789
f 407/407/790 396/396/790 397/397/790
f 391/391/791 388/388/791 408/408/791
f 409/409/792 388/388/792 405/405/792
f 408/408/793 388/388/793 409/409/793
f 404/404/794 393/393/794 406/406/794
f 402/402/795 391/391/795 408/408/795
f 401/401/796 392/392/796 410/410/796
f 410/410/797 392/392/797 402/402/797
f 411/411/798 398/398/798 400/400/798
f 399/399/799 398/398/799 411/411/799
f 395/395/800 394/394/800 412/412/800
f 412/412/801 394/394/801 407/407/801
f 400/400/802 401/401/802 413/413/802
f 413/413/803 401/401/803 410/410/803
f 411/411/804 400/400/804 413/413/804
f 403/403/805 399/399/805 414/414/805
f 414/414/806 399/399/806 411/411/806
f 415/415/807 405/405/807 395/395/807
f 409/409/808 405/405/808 415/415/808
f 416/416/809 397/397/809 404/404/809
f 417/417/810 407/407/810 397/397/810
f 417/417/811 397/397/811 416/416/811
f 418/418/812 395/395/812 412/412/812
f 415/415/813 395/395/813 418/418/813
f 406/406/814 403/403/814 419/419/814
f 420/420/815 403/403/815 414/414/815
f 419/419/816 403/403/816 420/420/816
f 404/404/817 406/406/817 421/421/817
f 416/416/818 404/404/818 421/421/818
f 422/422/819 410/410/819 402/402/819
f 413/413/820 410/410/820 422/422/820
f 421/421/821 406/406/821 423/423/821
f 423/423/822 406/406/822 419/419/822
f 424/424/823 402/402/823 408/408/823
f 422/422/824 402/402/824 424/424/824
f 425/425/825 412/412/825 407/407/825
f 407/407/826 417/417/826 425/425/826
f 426/426/827 411/411/827 413/413/827
f 414/414/828 411/411/828 427/427/828
f 427/427/829 411/411/829 426/426/829
f 428/428/830 413/413/830 422/422/830
f 426/426/831 413/413/831 428/428/831
f 418/418/832 412/412/832 429/429/832
f 429/429/833 412/412/833 425/425/833
f 420/420/834 414/414/834 430/430/834
f 430/430/835 414/414/835 427/427/835
f 431/431/836 408/408/836 409/409/836
f 432/432/837 409/409/837 415/415/837
f 409/409/838 432/432/838 433/433/838
f 431/431/839 409/409/839 433/433/839
f 424/424/840 408/408/840 434/434/840
f 434/434/841 408/408/841 431/431/841
f 435/435/842 415/415/842 418/418/842
f 432/432/843 415/415/843 435/435/843
f 436/436/844 422/422/844 424/424/844
f 428/428/845 422/422/845 436/436/845
f 435/435/846 418/418/846 437/437/846
f 437/437/847 418/418/847 429/429/847
f 417/417/848 416/416/848 438/438/848
f 439/439/849 416/416/849 421/421/849
f 438/438/850 416/416/850 439/439/850
f 425/425/851 417/417/851 440/440/851
f 440/440/852 417/417/852 438/438/852
f 423/423/853 420/420/853 441/441/853
f 423/423/854 419/419/854 420/420/854
f 420/420/855 430/430/855 442/442/855
f 441/441/856 420/420/856 442/442/856
f 443/443/857 427/427/857 426/426/857
f 430/430/858 427/427/858 443/443/858
f 444/444/859 421/421/859 423/423/859
f 439/439/860 421/421/860 444/444/860
f 444/444/861 423/423/861 441/441/861
f 429/429/862 425/425/862 440/440/862
f 436/436/863 424/424/863 434/434/863
f 445/445/864 426/426/864 428/428/864
f 443/443/865 426/426/865 445/445/865
f 446/446/866 432/432/866 435/435/866
f 433/433/867 432/432/867 446/446/867
f 446/446/868 435/435/868 437/437/868
f 447/447/869 428/428/869 436/436/869
f 445/445/870 428/428/870 447/447/870
f 431/431/871 433/433/871 448/448/871
f 448/448/872 433/433/872 446/446/872
f 449/449/873 429/429/873 440/440/873
f 437/437/874 429/429/874 449/449/874
f 450/450/875 430/430/875 443/443/875
f 442/442/876 430/430/876 450/450/876
f 451/451/877 434/434/877 431/431/877
f 451/451/878 431/431/878 448/448/878
f 452/452/879 443/443/879 445/445/879
f 450/450/880 443/443/880 452/452/880
f 453/453/881 438/438/881 439/439/881
f 440/440/882 438/438/882 454/454/882
f 454/454/883 438/438/883 453/453/883
f 455/455/884 439/439/884 444/444/884
f 453/453/885 439/439/885 455/455/885
f 444/444/886 441/441/886 456/456/886
f 457/457/887 441/441/887 442/442/887
f 456/456/888 441/441/888 457/457/888
f 449/449/889 440/440/889 454/454/889
f 446/446/890 437/437/890 458/458/890
f 458/458/891 437/437/891 449/449/891
f 459/459/892 436/436/892 434/434/892
f 447/447/893 436/436/893 460/460/893
f 460/460/894 436/436/894 459/459/894
f 448/448/895 446/446/895 461/461/895
f 461/461/896 446/446/896 458/458/896
f 462/462/897 455/455/897 444/444/897
f 462/462/898 444/444/898 456/456/898
f 459/459/899 434/434/899 451/451/899
f 463/463/900 445/445/900 447/447/900
f 452/452/901 445/445/901 463/463/901
f 464/464/902 442/442/902 450/450/902
f 457/457/903 442/442/903 464/464/903
f 447/447/904 460/460/904 463/463/904
f 451/451/905 448/448/905 461/461/905
f 465/465/906 450/450/906 452/452/906
f 464/464/907 450/450/907 465/465/907
f 466/466/908 452/452/908 463/463/908
f 466/466/909 465/465/909 452/452/909
f 458/458/910 449/449/910 467/467/910
f 468/468/911 449/449/911 454/454/911
f 467/467/912 449/449/912 468/468/912
f 453/453/913 455/455/913 469/469/913
f 469/469/914 455/455/914 462/462/914
f 454/454/915 453/453/915 470/470/915
f 470/470/916 453/453/916 469/469/916
f 461/461/917 458/458/917 471/471/917
f 471/471/918 458/458/918 467/467/918
f 459/459/919 451/451/919 472/472/919
f 473/473/920 451/451/920 461/461/920
f 472/472/921 451/451/921 473/473/921
f 468/468/922 454/454/922 470/470/922
f 460/460/923 459/459/923 474/474/923
f 474/474/924 459/459/924 472/472/924
f 456/456/925 457/457/925 475/475/925
f 476/476/926 457/457/926 464/464/926
f 475/475/927 457/457/927 476/476/927
f 473/473/928 461/461/928 471/471/928
f 477/477/929 463/463/929 460/460/929
f 466/466/930 463/463/930 477/477/930
f 462/462/931 456/456/931 478/478/931
f 478/478/932 456/456/932 475/475/932
f 477/477/933 460/460/933 474/474/933
f 479/479/934 464/464/934 465/465/934
f 476/476/935 464/464/935 479/479/935
f 469/469/936 462/462/936 480/480/936
f 480/480/937 462/462/937 478/478/937
f 481/481/938 465/465/938 466/466/938
f 479/479/939 465/465/939 481/481/939
f 473/473/940 471/471/940 482/482/940
f 482/482/941 472/472/941 473/473/941
f 470/470/942 469/469/942 483/483/942
f 483/483/943 469/469/943 480/480/943
f 484/484/944 466/466/944 477/477/944
f 481/481/945 466/466/945 484/484/945
f 485/485/946 471/471/946 467/467/946
f 482/482/947 471/471/947 485/485/947
f 474/474/948 472/472/948 486/486/948
f 486/486/949 472/472/949 482/482/949
f 487/487/950 475/475/950 476/476/950
f 488/488/951 478/478/951 475/475/951
f 488/488/952 475/475/952 487/487/952
f 477/477/953 474/474/953 489/489/953
f 489/489/954 474/474/954 486/486/954
f 467/467/955 468/468/955 490/490/955
f 491/491/956 468/468/956 470/470/956
f 490/490/957 468/468/957 491/491/957
f 485/485/958 467/467/958 492/492/958
f 492/492/959 467/467/959 490/490/959
f 493/493/960 476/476/960 479/479/960
f 487/487/961 476/476/961 493/493/961
f 470/470/962 483/483/962 494/494/962
f 491/491/963 470/470/963 494/494/963
f 495/495/964 480/480/964 478/478/964
f 495/495/965 478/478/965 488/488/965
f 484/484/966 477/477/966 496/496/966
f 496/496/967 477/477/967 489/489/967
f 497/497/968 479/479/968 481/481/968
f 493/493/969 479/479/969 497/497/969
f 483/483/970 480/480/970 495/495/970
f 498/498/971 482/482/971 485/485/971
f 486/486/972 482/482/972 498/498/972
f 481/481/973 484/484/973 499/499/973
f 497/497/974 481/481/974 499/499/974
f 488/488/975 487/487/975 500/500/975
f 500/500/976 487/487/976 493/493/976
f 501/501/977 485/485/977 492/492/977
f 498/498/978 485/485/978 501/501/978
f 489/489/979 486/486/979 502/502/979
f 502/502/980 486/486/980 498/498/980
f 503/503/981 483/483/981 495/495/981
f 494/494/982 483/483/982 503/503/982
f 504/504/983 484/484/983 496/496/983
f 499/499/984 484/484/984 504/504/984
f 495/495/985 488/488/985 505/505/985
f 505/505/986 488/488/986 500/500/986
f 506/506/987 490/490/987 491/491/987
f 492/492/988 490/490/988 507/507/988
f 507/507/989 490/490/989 506/506/989
f 508/508/990 493/493/990 497/497/990
f 500/500/991 493/493/991 508/508/991
f 506/506/992 491/491/992 494/494/992
f 496/496/993 489/489/993 509/509/993
f 509/509/994 489/489/994 502/502/994
f 503/503/995 495/495/995 505/505/995
f 501/501/996 492/492/996 507/507/996
f 508/508/997 497/497/997 499/499/997
f 510/510/998 498/498/998 501/501/998
f 502/502/999 498/498/999 510/510/999
f 494/494/1000 503/503/1000 511/511/1000
f 506/506/1001 494/494/1001 511/511/1001
f 504/504/1002 496/496/1002 512/512/1002
f 509/509/1003 512/512/1003 496/496/1003
f 505/505/1004 500/500/1004 513/513/1004
f 513/513/1005 500/500/1005 508/508/1005
f 514/514/1006 501/501/1006 507/507/1006
f 510/510/1007 501/501/1007 514/514/1007
f 503/503/1008 505/505/1008 515/515/1008
f 515/515/1009 505/505/1009 513/513/1009
f 512/512/1010 499/499/1010 504/504/1010
f 499/499/1011 516/516/1011 508/508/1011
f 517/517/1012 499/499/1012 512/512/1012
f 517/517/1013 516/516/1013 499/499/1013
f 509/509/1014 502/502/1014 518/518/1014
f 518/518/1015 502/502/1015 510/510/1015
f 511/511/1016 503/503/1016 515/515/1016
f 507/507/1017 506/506/1017 519/519/1017
f 519/519/1018 506/506/1018 511/511/1018
f 513/513/1019 508/508/1019 516/516/1019
f 507/507/1020 519/519/1020 520/520/1020
f 514/514/1021 507/507/1021 520/520/1021
f 512/512/1022 509/509/1022 521/521/1022
f 521/521/1023 509/509/1023 518/518/1023
f 522/522/1024 511/511/1024 515/515/1024
f 519/519/1025 511/511/1025 522/522/1025
f 518/518/1026 510/510/1026 523/523/1026
f 523/523/1027 510/510/1027 514/514/1027
f 512/512/1028 524/524/1028 517/517/1028
f 516/516/1029 517/517/1029 524/524/1029
f 525/525/1030 524/524/1030 512/512/1030
f 521/521/1031 525/525/1031 512/512/1031
f 526/526/1032 515/515/1032 513/513/1032
f 527/527/1033 513/513/1033 516/516/1033
f 526/526/1034 513/513/1034 527/527/1034
f 528/528/1035 522/522/1035 515/515/1035
f 528/528/1036 515/515/1036 526/526/1036
f 520/520/1037 519/519/1037 522/522/1037
f 521/521/1038 518/518/1038 523/523/1038
f 527/527/1039 516/516/1039 524/524/1039
f 523/523/1040 514/514/1040 529/529/1040
f 529/529/1041 514/514/1041 520/520/1041
f 520/520/1042 522/522/1042 530/530/1042
f 530/530/1043 522/522/1043 528/528/1043
f 531/531/1044 524/524/1044 525/525/1044
f 527/527/1045 524/524/1045 531/531/1045
f 521/521/1046 523/523/1046 532/532/1046
f 532/532/1047 523/523/1047 529/529/1047
f 533/533/1048 526/526/1048 527/527/1048
f 528/528/1049 526/526/1049 533/533/1049
f 534/534/1050 525/525/1050 521/521/1050
f 534/534/1051 521/521/1051 532/532/1051
f 531/531/1052 525/525/1052 534/534/1052
f 529/529/1053 520/520/1053 535/535/1053
f 535/535/1054 520/520/1054 530/530/1054
f 531/531/1055 536/536/1055 527/527/1055
f 533/533/1056 527/527/1056 536/536/1056
f 537/537/1057 530/530/1057 528/528/1057
f 537/537/1058 528/528/1058 533/533/1058
f 532/532/1059 529/529/1059 538/538/1059
f 535/535/1060 538/538/1060 529/529/1060
f 539/539/1061 531/531/1061 534/534/1061
f 539/539/1062 536/536/1062 531/531/1062
f 535/535/1063 530/530/1063 540/540/1063
f 540/540/1064 530/530/1064 537/537/1064
f 541/541/1065 533/533/1065 536/536/1065
f 537/537/1066 533/533/1066 541/541/1066
f 534/534/1067 532/532/1067 542/542/1067
f 538/538/1068 543/543/1068 532/532/1068
f 542/542/1069 532/532/1069 543/543/1069
f 534/534/1070 542/542/1070 539/539/1070
f 544/544/1071 538/538/1071 535/535/1071
f 535/535/1072 540/540/1072 544/544/1072
f 545/545/1073 536/536/1073 539/539/1073
f 541/541/1074 536/536/1074 546/546/1074
f 546/546/1075 536/536/1075 545/545/1075
f 547/547/1076 540/540/1076 537/537/1076
f 548/548/1077 537/537/1077 541/541/1077
f 547/547/1078 537/537/1078 548/548/1078
f 544/544/1079 543/543/1079 538/538/1079
f 544/544/1080 540/540/1080 547/547/1080
f 549/549/1081 539/539/1081 542/542/1081
f 545/545/1082 539/539/1082 549/549/1082
f 550/550/1083 542/542/1083 543/543/1083
f 549/549/1084 542/542/1084 550/550/1084
f 551/551/1085 541/541/1085 546/546/1085
f 548/548/1086 541/541/1086 551/551/1086
f 550/550/1087 543/543/1087 544/544/1087
f 551/551/1088 546/546/1088 545/545/1088
f 551/551/1089 545/545/1089 549/549/1089
f 552/552/1090 544/544/1090 547/547/1090
f 550/550/1091 544/544/1091 552/552/1091
f 552/552/1092 547/547/1092 548/548/1092
f 552/552/1093 548/548/1093 551/551/1093
f 549/549/1094 552/552/1094 551/551/1094
f 550/550/1095 552/552/1095 549/549/1095
f 1/1/1096 7/7/1096 20/20/1096
f 21/21/1097 18/18/1097 38/38/1097
f 117/117/1098 123/123/1098 120/120/1098
f 117/117/1099 114/114/1099 123/123/1099
f 7/7/1100 6/6/1100 17/17/1100
