# Blender v2.79 (sub 0) OBJ File: 'mug.blend'
# www.blender.org
o mug_Cylinder.002
v 0.000000 -0.008323 0.000000
v 0.000000 0.005390 0.003624
v 0.000000 -0.008323 0.003624
v 0.003549 0.004922 0.003624
v 0.006856 0.003553 0.003624
v 0.009696 0.001373 0.003624
v 0.011876 -0.001467 0.003624
v 0.013245 -0.004774 0.003624
v 0.013713 -0.008323 0.003624
v 0.013245 -0.011872 0.003624
v 0.011876 -0.015179 0.003624
v 0.009696 -0.018019 0.003624
v 0.006856 -0.020198 0.003624
v 0.003549 -0.021568 0.003624
v 0.000000 -0.022036 0.003624
v -0.003549 -0.021568 0.003624
v -0.006856 -0.020198 0.003624
v -0.009696 -0.018019 0.003624
v -0.011876 -0.015179 0.003624
v -0.013245 -0.011872 0.003624
v -0.013713 -0.008323 0.003624
v -0.013245 -0.004774 0.003624
v -0.011876 -0.001467 0.003624
v -0.009696 0.001373 0.003624
v -0.006856 0.003553 0.003624
v -0.003549 0.004922 0.003624
v 0.000000 0.008897 0.040812
v 0.000000 0.007698 0.042000
v 0.000000 0.008546 0.041652
v 0.004147 0.007152 0.042000
v 0.004457 0.008310 0.040812
v 0.004366 0.007971 0.041652
v 0.008011 0.005552 0.042000
v 0.008610 0.006590 0.040812
v 0.008434 0.006286 0.041652
v 0.011329 0.003006 0.042000
v 0.012176 0.003853 0.040812
v 0.011928 0.003605 0.041652
v 0.013875 -0.000312 0.042000
v 0.014913 0.000287 0.040812
v 0.014609 0.000112 0.041652
v 0.015475 -0.004176 0.042000
v 0.016633 -0.003866 0.040812
v 0.016294 -0.003957 0.041652
v 0.016021 -0.008323 0.042000
v 0.017220 -0.008323 0.040812
v 0.016869 -0.008323 0.041652
v 0.015475 -0.012470 0.042000
v 0.016633 -0.012780 0.040812
v 0.016294 -0.012689 0.041652
v 0.013875 -0.016334 0.042000
v 0.014913 -0.016933 0.040812
v 0.014609 -0.016757 0.041652
v 0.011329 -0.019652 0.042000
v 0.012176 -0.020499 0.040812
v 0.011928 -0.020251 0.041652
v 0.008011 -0.022198 0.042000
v 0.008610 -0.023236 0.040812
v 0.008434 -0.022932 0.041652
v 0.004147 -0.023798 0.042000
v 0.004457 -0.024956 0.040812
v 0.004366 -0.024617 0.041652
v 0.000000 -0.024344 0.042000
v 0.000000 -0.025543 0.040812
v 0.000000 -0.025192 0.041652
v -0.004147 -0.023798 0.042000
v -0.004457 -0.024956 0.040812
v -0.004366 -0.024617 0.041652
v -0.008011 -0.022198 0.042000
v -0.008610 -0.023236 0.040812
v -0.008434 -0.022932 0.041652
v -0.011329 -0.019652 0.042000
v -0.012176 -0.020499 0.040812
v -0.011928 -0.020251 0.041652
v -0.013875 -0.016334 0.042000
v -0.014913 -0.016933 0.040812
v -0.014609 -0.016757 0.041652
v -0.015475 -0.012470 0.042000
v -0.016633 -0.012780 0.040812
v -0.016294 -0.012689 0.041652
v -0.016021 -0.008323 0.042000
v -0.017220 -0.008323 0.040812
v -0.016869 -0.008323 0.041652
v -0.015475 -0.004176 0.042000
v -0.016633 -0.003866 0.040812
v -0.016294 -0.003957 0.041652
v -0.013875 -0.000312 0.042000
v -0.014913 0.000287 0.040812
v -0.014609 0.000112 0.041652
v -0.011329 0.003006 0.042000
v -0.012176 0.003853 0.040812
v -0.011928 0.003605 0.041652
v -0.008011 0.005552 0.042000
v -0.008610 0.006590 0.040812
v -0.008434 0.006286 0.041652
v -0.004147 0.007152 0.042000
v -0.004457 0.008310 0.040812
v -0.004366 0.007971 0.041652
v 0.000000 0.006588 0.042000
v 0.000000 0.005390 0.040812
v 0.000000 0.005740 0.041652
v 0.003549 0.004922 0.040812
v 0.003859 0.006080 0.042000
v 0.003640 0.005262 0.041652
v 0.006856 0.003553 0.040812
v 0.007455 0.004590 0.042000
v 0.007032 0.003856 0.041652
v 0.009696 0.001373 0.040812
v 0.010544 0.002221 0.042000
v 0.009944 0.001621 0.041652
v 0.011876 -0.001467 0.040812
v 0.012913 -0.000868 0.042000
v 0.012179 -0.001291 0.041652
v 0.013245 -0.004774 0.040812
v 0.014403 -0.004464 0.042000
v 0.013584 -0.004683 0.041652
v 0.013713 -0.008323 0.040812
v 0.014911 -0.008323 0.042000
v 0.014063 -0.008323 0.041652
v 0.013245 -0.011872 0.040812
v 0.014403 -0.012182 0.042000
v 0.013584 -0.011963 0.041652
v 0.011876 -0.015179 0.040812
v 0.012913 -0.015778 0.042000
v 0.012179 -0.015355 0.041652
v 0.009696 -0.018019 0.040812
v 0.010544 -0.018867 0.042000
v 0.009944 -0.018267 0.041652
v 0.006856 -0.020198 0.040812
v 0.007455 -0.021236 0.042000
v 0.007032 -0.020502 0.041652
v 0.003549 -0.021568 0.040812
v 0.003859 -0.022726 0.042000
v 0.003640 -0.021907 0.041652
v 0.000000 -0.022036 0.040812
v 0.000000 -0.023234 0.042000
v 0.000000 -0.022386 0.041652
v -0.003549 -0.021568 0.040812
v -0.003859 -0.022726 0.042000
v -0.003640 -0.021907 0.041652
v -0.006856 -0.020198 0.040812
v -0.007455 -0.021236 0.042000
v -0.007032 -0.020502 0.041652
v -0.009696 -0.018019 0.040812
v -0.010544 -0.018867 0.042000
v -0.009944 -0.018267 0.041652
v -0.011876 -0.015179 0.040812
v -0.012913 -0.015778 0.042000
v -0.012179 -0.015355 0.041652
v -0.013245 -0.011872 0.040812
v -0.014403 -0.012182 0.042000
v -0.013584 -0.011963 0.041652
v -0.013713 -0.008323 0.040812
v -0.014911 -0.008323 0.042000
v -0.014063 -0.008323 0.041652
v -0.013245 -0.004774 0.040812
v -0.014403 -0.004464 0.042000
v -0.013584 -0.004683 0.041652
v -0.011876 -0.001467 0.040812
v -0.012913 -0.000868 0.042000
v -0.012179 -0.001291 0.041652
v -0.009696 0.001373 0.040812
v -0.010544 0.002221 0.042000
v -0.009944 0.001621 0.041652
v -0.006856 0.003553 0.040812
v -0.007455 0.004590 0.042000
v -0.007032 0.003856 0.041652
v -0.003549 0.004922 0.040812
v -0.003859 0.006080 0.042000
v -0.003640 0.005262 0.041652
v 0.000000 0.008250 0.000000
v 0.000000 0.008897 0.000641
v 0.000000 0.008708 0.000188
v 0.004457 0.008310 0.000641
v 0.004289 0.007686 0.000000
v 0.004408 0.008127 0.000188
v 0.008610 0.006590 0.000641
v 0.008287 0.006030 0.000000
v 0.008516 0.006426 0.000188
v 0.012176 0.003853 0.000641
v 0.011719 0.003396 0.000000
v 0.012042 0.003719 0.000188
v 0.014913 0.000287 0.000641
v 0.014353 -0.000036 0.000000
v 0.014749 0.000193 0.000188
v 0.016633 -0.003866 0.000641
v 0.016009 -0.004033 0.000000
v 0.016450 -0.003915 0.000188
v 0.017220 -0.008323 0.000641
v 0.016573 -0.008323 0.000000
v 0.017031 -0.008323 0.000188
v 0.016633 -0.012780 0.000641
v 0.016009 -0.012612 0.000000
v 0.016450 -0.012731 0.000188
v 0.014913 -0.016933 0.000641
v 0.014353 -0.016610 0.000000
v 0.014749 -0.016838 0.000188
v 0.012176 -0.020499 0.000641
v 0.011719 -0.020042 0.000000
v 0.012042 -0.020365 0.000188
v 0.008610 -0.023236 0.000641
v 0.008287 -0.022676 0.000000
v 0.008516 -0.023072 0.000188
v 0.004457 -0.024956 0.000641
v 0.004289 -0.024332 0.000000
v 0.004408 -0.024773 0.000188
v 0.000000 -0.025543 0.000641
v 0.000000 -0.024896 0.000000
v 0.000000 -0.025354 0.000188
v -0.004457 -0.024956 0.000641
v -0.004289 -0.024332 0.000000
v -0.004408 -0.024773 0.000188
v -0.008610 -0.023236 0.000641
v -0.008287 -0.022676 0.000000
v -0.008515 -0.023072 0.000188
v -0.012176 -0.020499 0.000641
v -0.011719 -0.020042 0.000000
v -0.012042 -0.020365 0.000188
v -0.014913 -0.016933 0.000641
v -0.014353 -0.016610 0.000000
v -0.014749 -0.016838 0.000188
v -0.016633 -0.012780 0.000641
v -0.016009 -0.012612 0.000000
v -0.016450 -0.012731 0.000188
v -0.017220 -0.008323 0.000641
v -0.016573 -0.008323 0.000000
v -0.017031 -0.008323 0.000188
v -0.016633 -0.003866 0.000641
v -0.016009 -0.004033 0.000000
v -0.016450 -0.003915 0.000188
v -0.014913 0.000287 0.000641
v -0.014353 -0.000036 0.000000
v -0.014749 0.000192 0.000188
v -0.012176 0.003853 0.000641
v -0.011719 0.003396 0.000000
v -0.012043 0.003719 0.000188
v -0.008610 0.006590 0.000641
v -0.008287 0.006030 0.000000
v -0.008516 0.006426 0.000188
v -0.004457 0.008310 0.000641
v -0.004289 0.007686 0.000000
v -0.004408 0.008127 0.000188
v -0.001523 0.007858 0.034394
v -0.002313 0.007858 0.033723
v -0.002125 0.007858 0.034205
v 0.002313 0.007858 0.033723
v 0.001523 0.007858 0.034394
v 0.002125 0.007858 0.034205
v -0.001512 0.025543 0.024961
v -0.002299 0.024885 0.024910
v -0.002115 0.025361 0.024947
v -0.002299 0.015370 0.034425
v -0.001512 0.015421 0.035083
v -0.002115 0.015407 0.034901
v -0.002300 0.024406 0.027913
v -0.001512 0.025048 0.028122
v -0.002119 0.024868 0.028064
v -0.002300 0.023071 0.030533
v -0.001512 0.023618 0.030930
v -0.002119 0.023464 0.030818
v -0.002300 0.020993 0.032611
v -0.001512 0.021390 0.033158
v -0.002119 0.021278 0.033004
v -0.002300 0.018373 0.033946
v -0.001512 0.018582 0.034588
v -0.002119 0.018523 0.034408
v 0.001512 0.015421 0.035083
v 0.002299 0.015370 0.034425
v 0.002115 0.015407 0.034901
v 0.002299 0.024885 0.024910
v 0.001512 0.025543 0.024961
v 0.002115 0.025361 0.024947
v 0.001512 0.018582 0.034588
v 0.002300 0.018373 0.033946
v 0.002119 0.018523 0.034408
v 0.001512 0.021390 0.033158
v 0.002300 0.020993 0.032611
v 0.002119 0.021278 0.033004
v 0.001512 0.023618 0.030930
v 0.002300 0.023071 0.030533
v 0.002119 0.023464 0.030818
v 0.001512 0.025048 0.028122
v 0.002300 0.024406 0.027913
v 0.002119 0.024868 0.028064
v -0.001525 0.007858 0.007803
v -0.002314 0.007858 0.008478
v -0.002129 0.007858 0.007993
v 0.001525 0.007858 0.007803
v 0.002314 0.007858 0.008478
v 0.002129 0.007858 0.007993
v -0.001512 0.025541 0.021000
v -0.002298 0.024891 0.021000
v -0.002110 0.025364 0.021000
v 0.002298 0.024891 0.021000
v 0.001512 0.025541 0.021000
v 0.002110 0.025364 0.021000
v -0.002299 0.024885 0.017090
v -0.001512 0.025543 0.017039
v -0.002115 0.025361 0.017053
v -0.001512 0.015421 0.006917
v -0.002299 0.015370 0.007575
v -0.002115 0.015407 0.007099
v -0.001512 0.025048 0.013878
v -0.002300 0.024406 0.014087
v -0.002119 0.024868 0.013936
v -0.001512 0.023618 0.011070
v -0.002300 0.023071 0.011467
v -0.002119 0.023464 0.011182
v -0.001512 0.021390 0.008842
v -0.002300 0.020993 0.009389
v -0.002119 0.021278 0.008996
v -0.001512 0.018582 0.007412
v -0.002300 0.018373 0.008054
v -0.002119 0.018523 0.007592
v 0.002299 0.015370 0.007575
v 0.001512 0.015421 0.006917
v 0.002115 0.015407 0.007099
v 0.001512 0.025543 0.017039
v 0.002299 0.024885 0.017090
v 0.002115 0.025361 0.017053
v 0.002300 0.018373 0.008054
v 0.001512 0.018582 0.007412
v 0.002119 0.018523 0.007592
v 0.002300 0.020993 0.009389
v 0.001512 0.021390 0.008842
v 0.002119 0.021278 0.008996
v 0.002300 0.023071 0.011467
v 0.001512 0.023618 0.011070
v 0.002119 0.023464 0.011182
v 0.002300 0.024406 0.014087
v 0.001512 0.025048 0.013878
v 0.002119 0.024868 0.013936
v 0.001524 0.007858 0.029477
v 0.002298 0.007858 0.030350
v 0.002093 0.007858 0.029757
v -0.001523 0.007858 0.029477
v -0.002298 0.007858 0.030352
v -0.002093 0.007858 0.029758
v -0.002298 0.023254 0.021000
v -0.001513 0.022617 0.021000
v -0.002112 0.022792 0.021000
v 0.001513 0.022617 0.021000
v 0.002298 0.023251 0.021000
v 0.002113 0.022791 0.021000
v 0.002295 0.022873 0.027415
v 0.001509 0.022268 0.027213
v 0.002097 0.022425 0.027266
v 0.001512 0.022628 0.024726
v 0.002297 0.023257 0.024780
v 0.002106 0.022797 0.024741
v -0.002297 0.023259 0.024780
v -0.001512 0.022628 0.024726
v -0.002106 0.022797 0.024741
v -0.001509 0.022268 0.027213
v -0.002295 0.022875 0.027415
v -0.002096 0.022425 0.027266
v 0.002295 0.021768 0.029586
v 0.001509 0.021251 0.029211
v 0.002097 0.021386 0.029308
v -0.001509 0.021251 0.029211
v -0.002295 0.021770 0.029587
v -0.002097 0.021386 0.029308
v 0.002295 0.020046 0.031308
v 0.001509 0.019670 0.030791
v 0.002097 0.019768 0.030926
v -0.001509 0.019670 0.030791
v -0.002295 0.020047 0.031310
v -0.002097 0.019768 0.030926
v 0.002295 0.017874 0.032413
v 0.001509 0.017673 0.031808
v 0.002097 0.017726 0.031965
v -0.001509 0.017673 0.031808
v -0.002295 0.017875 0.032415
v -0.002096 0.017726 0.031965
v 0.002297 0.015240 0.032798
v 0.001512 0.015186 0.032168
v 0.002106 0.015201 0.032337
v -0.001512 0.015186 0.032168
v -0.002297 0.015240 0.032800
v -0.002106 0.015201 0.032337
v 0.002298 0.007858 0.011563
v 0.001523 0.007858 0.012415
v 0.002094 0.007858 0.012145
v -0.001523 0.007858 0.012415
v -0.002298 0.007858 0.011561
v -0.002093 0.007858 0.012144
v 0.001509 0.022268 0.014787
v 0.002295 0.022873 0.014585
v 0.002097 0.022425 0.014734
v 0.002297 0.023257 0.017220
v 0.001512 0.022628 0.017274
v 0.002106 0.022797 0.017259
v -0.001512 0.022628 0.017274
v -0.002297 0.023259 0.017220
v -0.002106 0.022797 0.017259
v -0.002295 0.022875 0.014585
v -0.001509 0.022268 0.014787
v -0.002096 0.022425 0.014734
v 0.001509 0.021251 0.012789
v 0.002295 0.021768 0.012414
v 0.002097 0.021386 0.012692
v -0.002295 0.021770 0.012413
v -0.001509 0.021251 0.012789
v -0.002097 0.021386 0.012692
v 0.001509 0.019670 0.011209
v 0.002295 0.020046 0.010692
v 0.002097 0.019768 0.011074
v -0.002295 0.020047 0.010690
v -0.001509 0.019670 0.011209
v -0.002097 0.019768 0.011074
v 0.001509 0.017673 0.010192
v 0.002295 0.017874 0.009586
v 0.002097 0.017726 0.010035
v -0.002295 0.017875 0.009585
v -0.001509 0.017673 0.010192
v -0.002096 0.017726 0.010035
v 0.001512 0.015186 0.009832
v 0.002297 0.015240 0.009202
v 0.002106 0.015201 0.009663
v -0.002297 0.015240 0.009200
v -0.001512 0.015186 0.009832
v -0.002106 0.015201 0.009663
v -0.002300 0.010911 0.034422
v -0.001513 0.010962 0.035085
v -0.002119 0.010946 0.034899
v 0.002300 0.010911 0.034422
v 0.001513 0.010962 0.035085
v 0.002119 0.010946 0.034899
v -0.001515 0.010685 0.032128
v -0.002293 0.010861 0.032771
v -0.002098 0.010738 0.032297
v 0.001516 0.010685 0.032128
v 0.002293 0.010861 0.032769
v 0.002098 0.010737 0.032297
v -0.001514 0.010980 0.006913
v -0.002301 0.010916 0.007581
v -0.002122 0.010961 0.007102
v 0.001514 0.010980 0.006913
v 0.002301 0.010916 0.007581
v 0.002122 0.010961 0.007102
v -0.002293 0.010861 0.009228
v -0.001515 0.010690 0.009870
v -0.002098 0.010742 0.009701
v 0.002293 0.010861 0.009230
v 0.001515 0.010690 0.009870
v 0.002098 0.010742 0.009702
vn -0.2539 0.9477 -0.1935
vn -0.2539 0.9477 0.1935
vn 0.0000 0.9811 0.1935
vn 0.0000 0.9811 -0.1935
vn 0.0000 0.0000 -1.0000
vn -0.1478 0.1478 -0.9779
vn -0.1045 0.1810 -0.9779
vn 0.2539 0.9477 0.1935
vn 0.2539 0.9477 -0.1935
vn 0.4905 0.8496 0.1935
vn 0.4905 0.8496 -0.1935
vn -0.2090 0.0000 -0.9779
vn -0.2019 0.0541 -0.9779
vn 0.1045 0.1810 0.9779
vn 0.0541 0.2019 0.9779
vn -0.0461 -0.1719 0.9840
vn -0.0890 -0.1541 0.9840
vn 0.6937 0.6937 0.1935
vn 0.6937 0.6937 -0.1935
vn -0.1478 -0.1478 -0.9779
vn -0.1810 -0.1045 -0.9779
vn 0.1478 0.1478 0.9779
vn -0.1258 -0.1258 0.9840
vn 0.8496 0.4905 0.1935
vn 0.8496 0.4905 -0.1935
vn -0.0541 -0.2019 0.9779
vn 0.0000 -0.2090 0.9779
vn 0.0000 0.1780 0.9840
vn 0.0461 0.1719 0.9840
vn 0.1810 0.1045 0.9779
vn -0.1541 -0.0890 0.9840
vn 0.9477 0.2539 0.1935
vn 0.9477 0.2539 -0.1935
vn 0.1045 -0.1810 0.9779
vn 0.1478 -0.1478 0.9779
vn -0.1258 0.1258 0.9840
vn -0.0890 0.1541 0.9840
vn 0.2019 0.0541 0.9779
vn -0.1719 -0.0461 0.9840
vn 0.9811 0.0000 0.1935
vn 0.9811 0.0000 -0.1935
vn 0.2019 -0.0541 0.9779
vn 0.2090 0.0000 0.9779
vn -0.1780 0.0000 0.9840
vn -0.1719 0.0461 0.9840
vn 0.9477 -0.2539 0.1935
vn 0.9477 -0.2539 -0.1935
vn 0.1810 0.1045 -0.9779
vn 0.2019 0.0541 -0.9779
vn 0.1810 -0.1045 -0.9779
vn 0.1478 -0.1478 -0.9779
vn 0.8496 -0.4905 0.1935
vn 0.8496 -0.4905 -0.1935
vn 0.0541 0.2019 -0.9779
vn 0.1045 0.1810 -0.9779
vn 0.1810 -0.1045 0.9779
vn -0.1541 0.0890 0.9840
vn 0.6937 -0.6937 0.1935
vn 0.6937 -0.6937 -0.1935
vn -0.0541 0.2019 -0.9779
vn 0.4905 -0.8496 0.1935
vn 0.4905 -0.8496 -0.1935
vn -0.1810 0.1045 -0.9779
vn 0.0541 -0.2019 -0.9779
vn 0.0000 -0.2090 -0.9779
vn 0.2539 -0.9477 0.1935
vn 0.2539 -0.9477 -0.1935
vn -0.2019 -0.0541 -0.9779
vn 0.0541 -0.2019 0.9779
vn -0.0461 0.1719 0.9840
vn 0.0000 -0.9811 0.1935
vn 0.0000 -0.9811 -0.1935
vn -0.0541 -0.2019 -0.9779
vn -0.1045 -0.1810 -0.9779
vn -0.2539 -0.9477 0.1935
vn -0.2539 -0.9477 -0.1935
vn 0.1045 -0.1810 -0.9779
vn -0.4905 -0.8496 0.1935
vn -0.4905 -0.8496 -0.1935
vn 0.2019 -0.0541 -0.9779
vn -0.1045 -0.1810 0.9779
vn 0.0890 0.1541 0.9840
vn -0.6937 -0.6937 0.1935
vn -0.6937 -0.6937 -0.1935
vn 0.2090 0.0000 -0.9779
vn -0.1810 -0.1045 0.9779
vn -0.1478 -0.1478 0.9779
vn 0.1258 0.1258 0.9840
vn 0.1541 0.0890 0.9840
vn -0.8496 -0.4905 0.1935
vn -0.8496 -0.4905 -0.1935
vn 0.0000 0.2090 0.9779
vn -0.0541 0.2019 0.9779
vn 0.0461 -0.1719 0.9840
vn 0.0000 -0.1780 0.9840
vn -0.2019 -0.0541 0.9779
vn 0.1719 0.0461 0.9840
vn -0.9477 -0.2539 0.1935
vn -0.9477 -0.2539 -0.1935
vn -0.2090 0.0000 0.9779
vn 0.1780 0.0000 0.9840
vn -0.9811 0.0000 0.1935
vn -0.9811 0.0000 -0.1935
vn -0.2019 0.0541 0.9779
vn 0.1719 -0.0461 0.9840
vn -0.9477 0.2539 0.1935
vn -0.9477 0.2539 -0.1935
vn -0.1810 0.1045 0.9779
vn 0.1541 -0.0890 0.9840
vn -0.8496 0.4905 0.1935
vn -0.8496 0.4905 -0.1935
vn -0.1478 0.1478 0.9779
vn 0.1258 -0.1258 0.9840
vn -0.6937 0.6937 0.1935
vn -0.6937 0.6937 -0.1935
vn -0.1045 0.1810 0.9779
vn 0.0890 -0.1541 0.9840
vn -0.4905 0.8496 0.1935
vn -0.4905 0.8496 -0.1935
vn -0.2536 -0.9464 0.1998
vn 0.0000 -0.9798 0.1998
vn 0.0000 -0.7342 0.6789
vn -0.1900 -0.7092 0.6789
vn 0.0000 0.2090 -0.9779
vn 0.1478 0.1478 -0.9779
vn 0.2536 0.9464 0.1998
vn 0.0000 0.9798 0.1998
vn 0.0000 0.7342 0.6789
vn 0.1900 0.7092 0.6789
vn -0.6928 0.6928 0.1998
vn -0.8485 0.4899 0.1998
vn -0.6359 0.3671 0.6789
vn -0.5192 0.5192 0.6789
vn 0.8485 -0.4899 0.1998
vn 0.9464 -0.2536 0.1998
vn 0.7092 -0.1900 0.6789
vn 0.6359 -0.3671 0.6789
vn -0.9464 -0.2536 0.1998
vn -0.8485 -0.4899 0.1998
vn -0.6359 -0.3671 0.6789
vn -0.7092 -0.1900 0.6789
vn 0.8485 0.4899 0.1998
vn 0.6928 0.6928 0.1998
vn 0.5192 0.5192 0.6789
vn 0.6359 0.3671 0.6789
vn -0.2536 0.9464 0.1998
vn -0.1900 0.7092 0.6789
vn 0.2536 -0.9464 0.1998
vn 0.4899 -0.8485 0.1998
vn 0.3671 -0.6359 0.6789
vn 0.1900 -0.7092 0.6789
vn -0.9464 0.2536 0.1998
vn -0.7092 0.1900 0.6789
vn 0.9798 0.0000 0.1998
vn 0.7342 0.0000 0.6789
vn -0.6928 -0.6928 0.1998
vn -0.5192 -0.5192 0.6789
vn 0.4899 0.8485 0.1998
vn 0.3671 0.6359 0.6789
vn -0.4899 0.8485 0.1998
vn -0.3671 0.6359 0.6789
vn 0.6928 -0.6928 0.1998
vn 0.5192 -0.5192 0.6789
vn -0.9798 0.0000 0.1998
vn -0.7342 0.0000 0.6789
vn 0.9464 0.2536 0.1998
vn 0.7092 0.1900 0.6789
vn -0.4899 -0.8485 0.1998
vn -0.3671 -0.6359 0.6789
vn 0.0000 0.0000 1.0000
vn 0.0000 0.7203 0.6937
vn 0.1864 0.6957 0.6937
vn 0.3601 0.6238 0.6937
vn 0.5093 0.5093 0.6937
vn 0.6238 0.3601 0.6937
vn 0.6957 0.1864 0.6937
vn 0.7203 0.0000 0.6937
vn 0.6957 -0.1864 0.6937
vn 0.6238 -0.3601 0.6937
vn 0.5093 -0.5093 0.6937
vn 0.3601 -0.6238 0.6937
vn 0.1864 -0.6957 0.6937
vn 0.0000 -0.7203 0.6937
vn -0.1864 -0.6957 0.6937
vn -0.3601 -0.6238 0.6937
vn -0.5093 -0.5093 0.6937
vn -0.6238 -0.3601 0.6937
vn -0.6957 -0.1864 0.6937
vn -0.7203 0.0000 0.6937
vn -0.6957 0.1864 0.6937
vn -0.6238 0.3601 0.6937
vn -0.5093 0.5093 0.6937
vn -0.3601 0.6238 0.6937
vn -0.1864 0.6957 0.6937
vn 0.0000 -0.6882 0.7255
vn -0.1781 -0.6648 0.7255
vn -0.3441 -0.5960 0.7255
vn -0.4866 -0.4866 0.7255
vn -0.5960 -0.3441 0.7255
vn -0.6648 -0.1781 0.7255
vn -0.6882 0.0000 0.7255
vn -0.6648 0.1781 0.7255
vn -0.5960 0.3441 0.7255
vn -0.4866 0.4866 0.7255
vn -0.3441 0.5960 0.7255
vn -0.1781 0.6648 0.7255
vn 0.0000 0.6882 0.7255
vn 0.1781 0.6648 0.7255
vn 0.3441 0.5960 0.7255
vn 0.4866 0.4866 0.7255
vn 0.5960 0.3441 0.7255
vn 0.6648 0.1781 0.7255
vn 0.6882 0.0000 0.7255
vn 0.6648 -0.1781 0.7255
vn 0.5960 -0.3441 0.7255
vn 0.4866 -0.4866 0.7255
vn 0.3441 -0.5960 0.7255
vn 0.1781 -0.6648 0.7255
vn 0.1864 0.6957 -0.6937
vn 0.0000 0.7203 -0.6937
vn 0.3601 0.6238 -0.6937
vn 0.5093 0.5093 -0.6937
vn 0.6238 0.3601 -0.6937
vn 0.6957 0.1864 -0.6937
vn 0.7203 0.0000 -0.6937
vn 0.6957 -0.1864 -0.6937
vn 0.6238 -0.3601 -0.6937
vn 0.5093 -0.5093 -0.6937
vn 0.3601 -0.6238 -0.6937
vn 0.1864 -0.6957 -0.6937
vn 0.0000 -0.7203 -0.6937
vn -0.1864 -0.6957 -0.6937
vn -0.3601 -0.6238 -0.6937
vn -0.5093 -0.5093 -0.6937
vn -0.6238 -0.3601 -0.6937
vn -0.6957 -0.1864 -0.6937
vn -0.7203 0.0000 -0.6937
vn -0.6957 0.1864 -0.6937
vn -0.6238 0.3601 -0.6937
vn -0.5093 0.5093 -0.6937
vn -0.3601 0.6238 -0.6937
vn -0.1864 0.6957 -0.6937
vn 0.9873 -0.0316 0.1558
vn 0.9365 0.2263 -0.2680
vn 0.9869 0.0385 -0.1568
vn 0.9807 -0.0226 0.1941
vn -0.9809 0.0597 0.1849
vn -0.9841 -0.0538 -0.1691
vn -0.9822 -0.0130 -0.1871
vn -0.9820 0.0147 0.1883
vn -0.9826 0.1857 0.0000
vn -0.9812 -0.1929 0.0000
vn -0.9825 -0.1859 -0.0129
vn -0.9815 0.1907 0.0146
vn -0.9809 0.1849 0.0597
vn -0.9841 -0.1691 -0.0538
vn -0.9838 -0.1451 -0.1054
vn -0.9812 0.1562 0.1134
vn -0.9838 -0.1054 -0.1451
vn -0.9812 0.1134 0.1562
vn 0.1468 0.0770 0.9861
vn -0.1468 0.0770 0.9861
vn -0.1455 -0.1062 0.9836
vn 0.1455 -0.1062 0.9836
vn 0.9802 -0.0302 -0.1954
vn 0.9866 0.0386 0.1584
vn 0.9385 0.2178 0.2678
vn 0.9884 -0.0388 -0.1467
vn -0.9815 0.1907 -0.0146
vn -0.9825 -0.1859 0.0129
vn -0.9809 0.1849 -0.0597
vn -0.9841 -0.1691 0.0538
vn -0.9812 0.1562 -0.1134
vn -0.9838 -0.1451 0.1054
vn -0.9812 0.1134 -0.1562
vn -0.9838 -0.1054 0.1451
vn -0.9809 0.0597 -0.1849
vn -0.9841 -0.0538 0.1691
vn 0.1472 0.0772 -0.9861
vn 0.1452 -0.1337 -0.9803
vn -0.1452 -0.1337 -0.9803
vn -0.1472 0.0772 -0.9861
vn -0.1399 -0.9901 0.0000
vn -0.1397 -0.9877 0.0698
vn 0.1394 -0.9878 0.0698
vn 0.1395 -0.9902 0.0000
vn 0.1394 -0.9878 -0.0698
vn 0.1398 -0.9438 -0.2995
vn -0.1401 -0.9438 -0.2994
vn -0.1397 -0.9877 -0.0698
vn 0.1391 -0.8012 -0.5819
vn -0.1395 -0.8012 -0.5819
vn 0.1391 -0.5819 -0.8012
vn -0.1395 -0.5819 -0.8012
vn 0.1398 -0.2995 -0.9438
vn -0.1402 -0.2994 -0.9437
vn 0.1393 -0.0667 -0.9880
vn -0.1396 -0.0667 -0.9879
vn 0.1446 0.3836 -0.9121
vn -0.1450 0.3836 -0.9120
vn -0.1401 -0.9438 0.2994
vn 0.1398 -0.9438 0.2995
vn -0.1395 -0.8012 0.5819
vn 0.1391 -0.8012 0.5819
vn -0.1395 -0.5819 0.8012
vn 0.1391 -0.5819 0.8012
vn -0.1401 -0.2994 0.9437
vn 0.1398 -0.2995 0.9438
vn -0.1396 -0.0670 0.9879
vn 0.1392 -0.0670 0.9880
vn -0.1444 0.3729 0.9165
vn 0.1440 0.3729 0.9166
vn -0.9884 -0.0388 -0.1467
vn -0.9387 0.2175 0.2674
vn -0.9867 0.0385 0.1581
vn -0.9802 -0.0302 -0.1954
vn 0.9812 0.1562 0.1135
vn 0.9837 -0.1454 -0.1056
vn 0.9840 -0.1694 -0.0539
vn 0.9809 0.1849 0.0597
vn 0.9821 0.0148 -0.1877
vn 0.9821 -0.0130 0.1876
vn 0.9812 0.1135 -0.1562
vn 0.9837 -0.1056 0.1454
vn 0.9840 -0.0539 0.1694
vn 0.9809 0.0597 -0.1849
vn 0.1485 0.5813 0.8000
vn -0.1485 0.5813 0.8000
vn -0.1478 0.3049 0.9408
vn 0.1478 0.3049 0.9408
vn 0.1478 0.3049 -0.9408
vn -0.1478 0.3049 -0.9408
vn -0.9821 0.0148 -0.1877
vn -0.9822 -0.0130 0.1873
vn 0.9812 0.1135 0.1562
vn 0.9837 -0.1056 -0.1454
vn 0.9826 0.1857 0.0000
vn 0.9811 -0.1932 0.0000
vn 0.9824 -0.1862 0.0130
vn 0.9815 0.1907 -0.0146
vn 0.9820 0.0147 0.1884
vn 0.9822 -0.0130 -0.1874
vn 0.9840 -0.0539 -0.1694
vn 0.9809 0.0597 0.1849
vn 0.1478 0.9408 -0.3049
vn 0.1485 0.8000 -0.5813
vn -0.1485 0.8000 -0.5813
vn -0.1478 0.9408 -0.3049
vn -0.9807 -0.0226 0.1941
vn -0.9869 0.0384 -0.1565
vn -0.9366 0.2260 -0.2676
vn -0.9873 -0.0316 0.1558
vn 0.1123 0.6749 -0.7293
vn -0.1126 0.6749 -0.7292
vn -0.1448 0.9894 0.0000
vn 0.1448 0.9894 0.0000
vn 0.1456 0.9864 -0.0767
vn -0.1456 0.9864 -0.0767
vn 0.1485 0.5813 -0.8000
vn -0.1485 0.5813 -0.8000
vn 0.9815 0.1907 0.0146
vn 0.9824 -0.1862 -0.0130
vn 0.9809 0.1849 -0.0597
vn 0.9840 -0.1694 0.0539
vn 0.9837 -0.1454 0.1056
vn 0.9812 0.1562 -0.1135
vn -0.1456 0.9864 0.0767
vn 0.1456 0.9864 0.0767
vn -0.1484 -0.2151 0.9652
vn 0.1484 -0.2151 0.9652
vn 0.1485 0.8000 0.5813
vn -0.1485 0.8000 0.5813
vn -0.1478 0.9408 0.3049
vn 0.1478 0.9408 0.3049
vn -0.1134 0.6594 0.7432
vn 0.1131 0.6594 0.7432
vn 0.1475 -0.2713 -0.9511
vn -0.1475 -0.2713 -0.9511
vn 0.6697 0.7404 0.0575
vn 0.6653 0.7103 0.2300
vn -0.6653 0.7103 0.2300
vn -0.6697 0.7404 0.0575
vn 0.6664 0.6031 0.4382
vn -0.6664 0.6031 0.4382
vn 0.6664 0.4382 0.6031
vn -0.6664 0.4382 0.6031
vn 0.6653 0.2300 0.7103
vn -0.6653 0.2300 0.7103
vn 0.6718 0.0577 0.7385
vn -0.6718 0.0577 0.7385
vn -0.6767 0.7362 0.0000
vn -0.6652 -0.0813 0.7422
vn 0.7048 -0.1535 0.6926
vn 0.6652 -0.0813 0.7422
vn 0.6767 0.7362 0.0000
vn 0.6697 0.7404 -0.0575
vn 0.6653 0.7103 -0.2300
vn -0.6653 0.7103 -0.2300
vn -0.6697 0.7404 -0.0575
vn 0.6664 0.6031 -0.4382
vn -0.6664 0.6031 -0.4382
vn 0.6664 0.4382 -0.6031
vn -0.6664 0.4382 -0.6031
vn 0.6653 0.2300 -0.7103
vn -0.6653 0.2300 -0.7103
vn 0.6724 0.0579 -0.7378
vn -0.6724 0.0579 -0.7378
vn -0.6623 -0.1034 -0.7421
vn 0.7106 -0.1924 -0.6768
vn 0.6623 -0.1034 -0.7421
vn 0.6762 -0.7349 -0.0517
vn 0.6870 -0.6926 -0.2197
vn -0.6876 -0.6921 -0.2195
vn -0.6767 -0.7344 -0.0517
vn 0.6854 -0.5892 -0.4279
vn -0.6859 -0.5888 -0.4276
vn 0.6854 -0.4279 -0.5892
vn -0.6859 -0.4276 -0.5888
vn 0.6870 -0.2197 -0.6926
vn -0.6876 -0.2195 -0.6921
vn 0.6761 -0.0500 -0.7350
vn -0.6767 -0.0500 -0.7345
vn -0.6685 -0.7437 0.0000
vn -0.6990 0.2732 -0.6608
vn 0.4884 0.5826 -0.6496
vn 0.6985 0.2735 -0.6613
vn 0.6680 -0.7442 0.0000
vn 0.6762 -0.7349 0.0517
vn 0.6870 -0.6926 0.2197
vn -0.6876 -0.6921 0.2195
vn -0.6767 -0.7344 0.0517
vn 0.6854 -0.5892 0.4279
vn -0.6859 -0.5888 0.4276
vn 0.6854 -0.4279 0.5892
vn -0.6859 -0.4276 0.5888
vn 0.6870 -0.2197 0.6926
vn -0.6876 -0.2195 0.6921
vn 0.6760 -0.0501 0.7352
vn -0.6765 -0.0501 0.7347
vn -0.6982 0.2655 0.6648
vn 0.4946 0.5670 0.6587
vn 0.6977 0.2658 0.6653
vn -0.7048 -0.1535 0.6926
vn -0.4891 0.5823 -0.6494
vn -0.7106 -0.1924 -0.6768
vn -0.4952 0.5667 0.6584
s 1
f 240//1 97//2 27//3 172//4
f 1//5 235//6 238//7
f 172//4 27//3 31//8 174//9
f 174//9 31//8 34//10 177//11
f 1//5 226//12 229//13
f 33//14 30//15 103//16 106//17
f 177//11 34//10 37//18 180//19
f 1//5 217//20 220//21
f 36//22 33//14 106//17 109//23
f 180//19 37//18 40//24 183//25
f 66//26 63//27 136//28 139//29
f 39//30 36//22 109//23 112//31
f 183//25 40//24 43//32 186//33
f 57//34 54//35 127//36 130//37
f 42//38 39//30 112//31 115//39
f 186//33 43//32 46//40 189//41
f 48//42 45//43 118//44 121//45
f 45//43 42//38 115//39 118//44
f 189//41 46//40 49//46 192//47
f 1//5 184//48 187//49
f 1//5 196//50 199//51
f 192//47 49//46 52//52 195//53
f 1//5 175//54 178//55
f 51//56 48//42 121//45 124//57
f 195//53 52//52 55//58 198//59
f 1//5 238//7 241//60
f 54//35 51//56 124//57 127//36
f 198//59 55//58 58//61 201//62
f 1//5 229//13 232//63
f 1//5 205//64 208//65
f 201//62 58//61 61//66 204//67
f 1//5 220//21 223//68
f 60//69 57//34 130//37 133//70
f 204//67 61//66 64//71 207//72
f 1//5 211//73 214//74
f 63//27 60//69 133//70 136//28
f 207//72 64//71 67//75 210//76
f 1//5 202//77 205//64
f 1//5 214//74 217//20
f 210//76 67//75 70//78 213//79
f 1//5 193//80 196//50
f 69//81 66//26 139//29 142//82
f 213//79 70//78 73//83 216//84
f 1//5 187//49 190//85
f 75//86 72//87 145//88 148//89
f 216//84 73//83 76//90 219//91
f 28//92 96//93 169//94 99//95
f 78//96 75//86 148//89 151//97
f 219//91 76//90 79//98 222//99
f 81//100 78//96 151//97 154//101
f 222//99 79//98 82//102 225//103
f 1//5 232//63 235//6
f 84//104 81//100 154//101 157//105
f 225//103 82//102 85//106 228//107
f 1//5 223//68 226//12
f 87//108 84//104 157//105 160//109
f 228//107 85//106 88//110 231//111
f 72//87 69//81 142//82 145//88
f 90//112 87//108 160//109 163//113
f 231//111 88//110 91//114 234//115
f 1//5 208//65 211//73
f 93//116 90//112 163//113 166//117
f 234//115 91//114 94//118 237//119
f 1//5 199//51 202//77
f 96//93 93//116 166//117 169//94
f 237//119 94//118 97//2 240//1
f 1//5 190//85 193//80
f 102//120 100//121 2//122 4//123
f 1//5 171//124 175//54
f 1//5 181//125 184//48
f 1//5 178//55 181//125
f 138//126 135//127 15//128 16//129
f 126//130 123//131 11//132 12//133
f 159//134 156//135 22//136 23//137
f 114//138 111//139 7//140 8//141
f 147//142 144//143 18//144 19//145
f 135//127 132//146 14//147 15//128
f 168//148 165//149 25//150 26//151
f 123//131 120//152 10//153 11//132
f 156//135 153//154 21//155 22//136
f 111//139 108//156 6//157 7//140
f 144//143 141//158 17//159 18//144
f 132//146 129//160 13//161 14//147
f 165//149 162//162 24//163 25//150
f 120//152 117//164 9//165 10//153
f 153//154 150//166 20//167 21//155
f 108//156 105//168 5//169 6//157
f 141//158 138//126 16//129 17//159
f 129//160 126//130 12//133 13//161
f 162//162 159//134 23//137 24//163
f 117//164 114//138 8//141 9//165
f 105//168 102//120 4//123 5//169
f 150//166 147//142 19//145 20//167
f 100//121 168//148 26//151 2//122
f 3//170 4//123 2//122
f 3//170 5//169 4//123
f 3//170 6//157 5//169
f 3//170 7//140 6//157
f 3//170 8//141 7//140
f 3//170 9//165 8//141
f 3//170 10//153 9//165
f 3//170 11//132 10//153
f 3//170 12//133 11//132
f 3//170 13//161 12//133
f 3//170 14//147 13//161
f 3//170 15//128 14//147
f 3//170 16//129 15//128
f 3//170 17//159 16//129
f 3//170 18//144 17//159
f 3//170 19//145 18//144
f 3//170 20//167 19//145
f 3//170 21//155 20//167
f 3//170 22//136 21//155
f 3//170 23//137 22//136
f 3//170 24//163 23//137
f 3//170 25//150 24//163
f 3//170 26//151 25//150
f 3//170 2//122 26//151
f 31//8 27//3 29//171 32//172
f 32//172 29//171 28//92 30//15
f 34//10 31//8 32//172 35//173
f 35//173 32//172 30//15 33//14
f 37//18 34//10 35//173 38//174
f 38//174 35//173 33//14 36//22
f 40//24 37//18 38//174 41//175
f 41//175 38//174 36//22 39//30
f 43//32 40//24 41//175 44//176
f 44//176 41//175 39//30 42//38
f 46//40 43//32 44//176 47//177
f 47//177 44//176 42//38 45//43
f 49//46 46//40 47//177 50//178
f 50//178 47//177 45//43 48//42
f 52//52 49//46 50//178 53//179
f 53//179 50//178 48//42 51//56
f 55//58 52//52 53//179 56//180
f 56//180 53//179 51//56 54//35
f 58//61 55//58 56//180 59//181
f 59//181 56//180 54//35 57//34
f 61//66 58//61 59//181 62//182
f 62//182 59//181 57//34 60//69
f 64//71 61//66 62//182 65//183
f 65//183 62//182 60//69 63//27
f 67//75 64//71 65//183 68//184
f 68//184 65//183 63//27 66//26
f 70//78 67//75 68//184 71//185
f 71//185 68//184 66//26 69//81
f 73//83 70//78 71//185 74//186
f 74//186 71//185 69//81 72//87
f 76//90 73//83 74//186 77//187
f 77//187 74//186 72//87 75//86
f 79//98 76//90 77//187 80//188
f 80//188 77//187 75//86 78//96
f 82//102 79//98 80//188 83//189
f 83//189 80//188 78//96 81//100
f 85//106 82//102 83//189 86//190
f 86//190 83//189 81//100 84//104
f 88//110 85//106 86//190 89//191
f 89//191 86//190 84//104 87//108
f 91//114 88//110 89//191 92//192
f 92//192 89//191 87//108 90//112
f 94//118 91//114 92//192 95//193
f 95//193 92//192 90//112 93//116
f 97//2 94//118 95//193 98//194
f 98//194 95//193 93//116 96//93
f 27//3 97//2 98//194 29//171
f 29//171 98//194 96//93 28//92
f 103//16 99//95 101//195 104//196
f 104//196 101//195 100//121 102//120
f 106//17 103//16 104//196 107//197
f 107//197 104//196 102//120 105//168
f 109//23 106//17 107//197 110//198
f 110//198 107//197 105//168 108//156
f 112//31 109//23 110//198 113//199
f 113//199 110//198 108//156 111//139
f 115//39 112//31 113//199 116//200
f 116//200 113//199 111//139 114//138
f 118//44 115//39 116//200 119//201
f 119//201 116//200 114//138 117//164
f 121//45 118//44 119//201 122//202
f 122//202 119//201 117//164 120//152
f 124//57 121//45 122//202 125//203
f 125//203 122//202 120//152 123//131
f 127//36 124//57 125//203 128//204
f 128//204 125//203 123//131 126//130
f 130//37 127//36 128//204 131//205
f 131//205 128//204 126//130 129//160
f 133//70 130//37 131//205 134//206
f 134//206 131//205 129//160 132//146
f 136//28 133//70 134//206 137//207
f 137//207 134//206 132//146 135//127
f 139//29 136//28 137//207 140//208
f 140//208 137//207 135//127 138//126
f 142//82 139//29 140//208 143//209
f 143//209 140//208 138//126 141//158
f 145//88 142//82 143//209 146//210
f 146//210 143//209 141//158 144//143
f 148//89 145//88 146//210 149//211
f 149//211 146//210 144//143 147//142
f 151//97 148//89 149//211 152//212
f 152//212 149//211 147//142 150//166
f 154//101 151//97 152//212 155//213
f 155//213 152//212 150//166 153//154
f 157//105 154//101 155//213 158//214
f 158//214 155//213 153//154 156//135
f 160//109 157//105 158//214 161//215
f 161//215 158//214 156//135 159//134
f 163//113 160//109 161//215 164//216
f 164//216 161//215 159//134 162//162
f 166//117 163//113 164//216 167//217
f 167//217 164//216 162//162 165//149
f 169//94 166//117 167//217 170//218
f 170//218 167//217 165//149 168//148
f 99//95 169//94 170//218 101//195
f 101//195 170//218 168//148 100//121
f 30//15 28//92 99//95 103//16
f 172//4 174//9 176//219 173//220
f 173//220 176//219 175//54 171//124
f 174//9 177//11 179//221 176//219
f 176//219 179//221 178//55 175//54
f 177//11 180//19 182//222 179//221
f 179//221 182//222 181//125 178//55
f 180//19 183//25 185//223 182//222
f 182//222 185//223 184//48 181//125
f 183//25 186//33 188//224 185//223
f 185//223 188//224 187//49 184//48
f 186//33 189//41 191//225 188//224
f 188//224 191//225 190//85 187//49
f 189//41 192//47 194//226 191//225
f 191//225 194//226 193//80 190//85
f 192//47 195//53 197//227 194//226
f 194//226 197//227 196//50 193//80
f 195//53 198//59 200//228 197//227
f 197//227 200//228 199//51 196//50
f 198//59 201//62 203//229 200//228
f 200//228 203//229 202//77 199//51
f 201//62 204//67 206//230 203//229
f 203//229 206//230 205//64 202//77
f 204//67 207//72 209//231 206//230
f 206//230 209//231 208//65 205//64
f 207//72 210//76 212//232 209//231
f 209//231 212//232 211//73 208//65
f 210//76 213//79 215//233 212//232
f 212//232 215//233 214//74 211//73
f 213//79 216//84 218//234 215//233
f 215//233 218//234 217//20 214//74
f 216//84 219//91 221//235 218//234
f 218//234 221//235 220//21 217//20
f 219//91 222//99 224//236 221//235
f 221//235 224//236 223//68 220//21
f 222//99 225//103 227//237 224//236
f 224//236 227//237 226//12 223//68
f 225//103 228//107 230//238 227//237
f 227//237 230//238 229//13 226//12
f 228//107 231//111 233//239 230//238
f 230//238 233//239 232//63 229//13
f 231//111 234//115 236//240 233//239
f 233//239 236//240 235//6 232//63
f 234//115 237//119 239//241 236//240
f 236//240 239//241 238//7 235//6
f 237//119 240//1 242//242 239//241
f 239//241 242//242 241//60 238//7
f 240//1 172//4 173//220 242//242
f 242//242 173//220 171//124 241//60
f 1//5 241//60 171//124
f 246//243 334//244 433//245 426//246
f 264//247 373//248 379//249 252//250
f 292//251 339//252 351//253 250//254
f 255//255 355//256 361//257 258//258
f 258//258 361//257 367//259 261//260
f 261//260 367//259 373//248 264//247
f 267//261 253//262 424//263 427//264
f 439//265 444//266 381//267 289//268
f 297//269 394//270 339//252 292//251
f 304//271 396//272 394//270 297//269
f 307//273 402//274 396//272 304//271
f 310//275 408//276 402//274 307//273
f 313//277 414//278 408//276 310//275
f 316//279 438//280 435//281 300//282
f 340//283 393//284 391//285 342//286
f 348//287 346//288 354//289 352//290
f 346//288 358//291 360//292 354//289
f 358//291 364//293 366//294 360//292
f 364//293 370//295 372//296 366//294
f 370//295 376//297 378//298 372//296
f 376//297 432//299 429//300 378//298
f 391//285 393//284 397//301 387//302
f 340//283 342//286 348//287 352//290
f 387//302 397//301 403//303 399//304
f 399//304 403//303 409//305 405//306
f 405//306 409//305 415//307 411//308
f 411//308 415//307 421//309 417//310
f 417//310 421//309 442//311 445//312
f 286//313 385//314 441//315 436//316
f 280//317 357//318 345//319 283//320
f 315//321 418//322 444//266 439//265
f 324//323 406//324 412//325 321//326
f 276//327 262//328 265//329 273//330
f 322//331 316//279 300//282 312//332
f 301//333 420//334 414//278 313//277
f 277//335 363//336 357//318 280//317
f 294//337 343//338 390//339 319//340
f 268//341 375//342 369//343 274//344
f 331//345 328//346 306//347 303//348
f 423//349 430//350 337//351 244//352
f 432//299 333//353 336//354 429//300
f 291//355 295//356 318//357 298//358
f 328//346 325//359 309//360 306//347
f 426//246 433//245 375//342 268//341
f 318//357 331//345 303//348 298//358
f 270//361 349//362 343//338 294//337
f 273//330 265//329 253//262 267//261
f 330//363 388//364 400//365 327//366
f 291//355 249//367 271//368 295//356
f 325//359 322//331 312//332 309//360
f 250//254 351//253 355//256 255//255
f 427//264 424//263 243//369 247//370
f 327//366 400//365 406//324 324//323
f 283//320 345//319 349//362 270//361
f 279//371 259//372 262//328 276//327
f 321//326 412//325 418//322 315//321
f 274//344 369//343 363//336 277//335
f 271//368 249//367 256//373 282//374
f 282//374 256//373 259//372 279//371
f 445//312 442//311 384//375 382//376
f 252//250 379//249 430//350 423//349
f 319//340 390//339 388//364 330//363
f 438//280 288//377 285//378 435//281
f 436//316 441//315 420//334 301//333
f 283//320 270//361 272//379 284//380
f 284//380 272//379 271//368 282//374
f 250//254 255//255 257//381 251//382
f 251//382 257//381 256//373 249//367
f 280//317 283//320 284//380 281//383
f 281//383 284//380 282//374 279//371
f 255//255 258//258 260//384 257//381
f 257//381 260//384 259//372 256//373
f 277//335 280//317 281//383 278//385
f 278//385 281//383 279//371 276//327
f 258//258 261//260 263//386 260//384
f 260//384 263//386 262//328 259//372
f 274//344 277//335 278//385 275//387
f 275//387 278//385 276//327 273//330
f 261//260 264//247 266//388 263//386
f 263//386 266//388 265//329 262//328
f 268//341 274//344 275//387 269//389
f 269//389 275//387 273//330 267//261
f 264//247 252//250 254//390 266//388
f 266//388 254//390 253//262 265//329
f 249//367 291//355 293//391 251//382
f 251//382 293//391 292//251 250//254
f 424//263 253//262 254//390 425//392
f 425//392 254//390 252//250 423//349
f 427//264 247//370 248//393 428//394
f 428//394 248//393 246//243 426//246
f 295//356 271//368 272//379 296//395
f 296//395 272//379 270//361 294//337
f 331//345 318//357 320//396 332//397
f 332//397 320//396 319//340 330//363
f 298//358 303//348 305//398 299//399
f 299//399 305//398 304//271 297//269
f 328//346 331//345 332//397 329//400
f 329//400 332//397 330//363 327//366
f 303//348 306//347 308//401 305//398
f 305//398 308//401 307//273 304//271
f 325//359 328//346 329//400 326//402
f 326//402 329//400 327//366 324//323
f 306//347 309//360 311//403 308//401
f 308//401 311//403 310//275 307//273
f 322//331 325//359 326//402 323//404
f 323//404 326//402 324//323 321//326
f 309//360 312//332 314//405 311//403
f 311//403 314//405 313//277 310//275
f 316//279 322//331 323//404 317//406
f 317//406 323//404 321//326 315//321
f 312//332 300//282 302//407 314//405
f 314//405 302//407 301//333 313//277
f 297//269 292//251 293//391 299//399
f 299//399 293//391 291//355 298//358
f 436//316 301//333 302//407 437//408
f 437//408 302//407 300//282 435//281
f 439//265 289//268 290//409 440//410
f 440//410 290//409 288//377 438//280
f 294//337 319//340 320//396 296//395
f 296//395 320//396 318//357 295//356
f 346//288 348//287 350//411 347//412
f 347//412 350//411 349//362 345//319
f 352//290 354//289 356//413 353//414
f 353//414 356//413 355//256 351//253
f 358//291 346//288 347//412 359//415
f 359//415 347//412 345//319 357//318
f 354//289 360//292 362//416 356//413
f 356//413 362//416 361//257 355//256
f 364//293 358//291 359//415 365//417
f 365//417 359//415 357//318 363//336
f 360//292 366//294 368//418 362//416
f 362//416 368//418 367//259 361//257
f 370//295 364//293 365//417 371//419
f 371//419 365//417 363//336 369//343
f 366//294 372//296 374//420 368//418
f 368//418 374//420 373//248 367//259
f 376//297 370//295 371//419 377//421
f 377//421 371//419 369//343 375//342
f 372//296 378//298 380//422 374//420
f 374//420 380//422 379//249 373//248
f 351//253 339//252 341//423 353//414
f 353//414 341//423 340//283 352//290
f 430//350 379//249 380//422 431//424
f 431//424 380//422 378//298 429//300
f 433//245 334//244 335//425 434//426
f 434//426 335//425 333//353 432//299
f 343//338 349//362 350//411 344//427
f 344//427 350//411 348//287 342//286
f 388//364 390//339 392//428 389//429
f 389//429 392//428 391//285 387//302
f 394//270 396//272 398//430 395//431
f 395//431 398//430 397//301 393//284
f 400//365 388//364 389//429 401//432
f 401//432 389//429 387//302 399//304
f 396//272 402//274 404//433 398//430
f 398//430 404//433 403//303 397//301
f 406//324 400//365 401//432 407//434
f 407//434 401//432 399//304 405//306
f 402//274 408//276 410//435 404//433
f 404//433 410//435 409//305 403//303
f 412//325 406//324 407//434 413//436
f 413//436 407//434 405//306 411//308
f 408//276 414//278 416//437 410//435
f 410//435 416//437 415//307 409//305
f 418//322 412//325 413//436 419//438
f 419//438 413//436 411//308 417//310
f 414//278 420//334 422//439 416//437
f 416//437 422//439 421//309 415//307
f 393//284 340//283 341//423 395//431
f 395//431 341//423 339//252 394//270
f 442//311 421//309 422//439 443//440
f 443//440 422//439 420//334 441//315
f 445//312 382//376 383//441 446//442
f 446//442 383//441 381//267 444//266
f 342//286 391//285 392//428 344//427
f 344//427 392//428 390//339 343//338
f 243//369 424//263 425//392 245//443
f 245//443 425//392 423//349 244//352
f 267//261 427//264 428//394 269//389
f 269//389 428//394 426//246 268//341
f 337//351 430//350 431//424 338//444
f 338//444 431//424 429//300 336//354
f 375//342 433//245 434//426 377//421
f 377//421 434//426 432//299 376//297
f 286//313 436//316 437//408 287//445
f 287//445 437//408 435//281 285//378
f 315//321 439//265 440//410 317//406
f 317//406 440//410 438//280 316//279
f 384//375 442//311 443//440 386//446
f 386//446 443//440 441//315 385//314
f 417//310 445//312 446//442 419//438
f 419//438 446//442 444//266 418//322
