v -0.006772 0.012099 0.031794
v -0.006488 0.016339 0.031030
v -0.006224 0.019917 0.028943
v -0.008125 0.019439 0.028918
v -0.006020 0.022289 0.025851
v -0.005902 0.022205 0.018615
v -0.008386 0.021580 0.018581
v -0.006006 0.019763 0.015572
v -0.007907 0.019285 0.015547
v -0.006203 0.016138 0.013561
v -0.006463 0.011881 0.012885
v -0.009045 0.014599 0.031009
v -0.010949 0.016701 0.028903
v -0.012193 0.018086 0.025798
v -0.012588 0.018544 0.022167
v -0.012075 0.018003 0.018562
v -0.010730 0.016547 0.015532
v -0.008760 0.014398 0.013539
v -0.012776 0.009153 0.028960
v -0.012496 0.007143 0.028988
v -0.014580 0.008224 0.025873
v -0.014214 0.005598 0.025909
v -0.015173 0.007869 0.022248
v -0.014776 0.005026 0.022287
v -0.014462 0.008141 0.018637
v -0.014096 0.005515 0.018673
v -0.012558 0.008999 0.015589
v -0.012277 0.006989 0.015617
v -0.009086 0.008637 0.031077
v -0.011024 0.005685 0.029029
v -0.012292 0.003693 0.025962
v -0.012695 0.002964 0.022345
v -0.012174 0.003610 0.018726
v -0.010806 0.005531 0.015658
v -0.008801 0.008436 0.013607
v -0.007032 0.007842 0.031119
v -0.007229 0.004217 0.029107
v -0.007333 0.001775 0.026065
v -0.007328 0.000888 0.022456
v -0.007215 0.001692 0.018829
v -0.007011 0.004063 0.015737
v -0.006747 0.007641 0.013650
v -0.010064 0.012699 0.031014
v -0.012832 0.013192 0.028913
v -0.014654 0.013502 0.025811
v -0.015252 0.013581 0.022181
v -0.014536 0.013418 0.018575
v -0.012614 0.013038 0.015542
v -0.009779 0.012498 0.013544
v 0.004365 0.010602 0.031641
v 0.006281 0.007333 0.031017
v 0.007870 0.008653 0.031027
v 0.007927 0.004546 0.029102
v 0.010863 0.006985 0.029122
v 0.009054 0.002665 0.026188
v 0.012890 0.005851 0.026214
v 0.009490 0.001976 0.022718
v 0.013642 0.005425 0.022746
v 0.009168 0.002584 0.019221
v 0.013004 0.005771 0.019247
v 0.008137 0.004398 0.016229
v 0.011073 0.006836 0.016249
v 0.006555 0.007139 0.014198
v 0.008144 0.008459 0.014209
v 0.004663 0.010392 0.013437
v 0.007839 0.010839 0.031002
v 0.010807 0.011024 0.029074
v 0.012816 0.011129 0.026152
v 0.013562 0.011137 0.022679
v 0.012930 0.011049 0.019185
v 0.011017 0.010876 0.016202
v 0.008114 0.010645 0.014183
v 0.006042 0.003664 0.029081
v 0.006591 0.001512 0.026161
v 0.006824 0.000728 0.022689
v 0.006705 0.001432 0.019194
v 0.006252 0.003515 0.016209
v 0.002225 0.003156 0.016147
v 0.003356 0.006467 0.014154
v 0.007633 0.011925 0.030986
v 0.010426 0.013030 0.029045
v 0.012318 0.013750 0.026113
v 0.013023 0.013974 0.022638
v 0.012432 0.013669 0.019147
v 0.010636 0.012882 0.016172
v 0.007907 0.011731 0.014167
v 0.007156 0.012945 0.030966
v 0.009544 0.014915 0.029009
v 0.011166 0.016213 0.026066
v 0.011776 0.016640 0.022587
v 0.011280 0.016132 0.019100
v 0.009754 0.014767 0.016136
v 0.007430 0.012751 0.014148
v 0.005672 0.014527 0.030924
v 0.006803 0.017839 0.028930
v 0.007585 0.020033 0.025964
v 0.007699 0.019953 0.018997
v 0.007013 0.017691 0.016058
v 0.005947 0.014334 0.014105
v 0.002048 0.016071 0.031383
v 0.001741 0.011721 0.032166
v 0.002332 0.019742 0.029246
v 0.002550 0.022175 0.026079
v 0.002671 0.022090 0.018668
v 0.002555 0.019585 0.015553
v 0.002340 0.015865 0.013492
v 0.002057 0.011498 0.012801
v 0.001750 0.007148 0.013583
v 0.000156 0.016394 0.031514
v 0.000371 0.011955 0.032319
v -0.000064 0.023464 0.022315
v 0.000453 0.016184 0.013293
v 0.000693 0.011728 0.012598
v 0.001021 0.001147 0.026364
v 0.001067 0.003543 0.015587
v -0.001609 0.016370 0.031580
v -0.002486 0.011916 0.032376
v -0.005404 0.011727 0.032084
v -0.000840 0.020129 0.029389
v -0.000298 0.022620 0.026135
v -0.000173 0.022532 0.018509
v -0.000611 0.019967 0.015298
v -0.001309 0.016158 0.013170
v -0.002161 0.011687 0.012449
v -0.005087 0.011503 0.012649
v -0.004474 0.001070 0.026315
v -0.003807 0.003473 0.015436
v -0.004846 0.007120 0.013444
v -0.003038 0.007232 0.013244
v 0.004421 0.000514 0.022652
v 0.002861 0.000947 0.024927
v 0.001037 0.001010 0.025808
v -0.001821 0.001016 0.025968
v -0.003491 0.000921 0.025664
v -0.004504 0.000815 0.025274
v -0.006348 0.000899 0.023578
v -0.006911 0.000774 0.022464
v -0.007034 0.000898 0.022085
v -0.007110 0.001476 0.019649
v -0.006740 0.001574 0.018806
v -0.005234 0.002639 0.016965
v -0.003951 0.002811 0.016301
v -0.002858 0.003011 0.016084
v -0.000405 0.003077 0.016120
v 0.001083 0.003037 0.016246
v 0.001988 0.002695 0.016734
v 0.003578 0.001784 0.018221
v 0.004129 0.001260 0.019020
v 0.004546 0.000695 0.021886
v 0.005465 -0.001146 0.026524
v 0.002847 -0.001173 0.027769
v -0.001238 -0.001350 0.027976
v -0.005053 -0.001812 0.026961
v -0.007680 -0.001814 0.024522
v -0.002771 0.001421 0.013826
v 0.002857 0.001714 0.014089
v 0.004168 0.001286 0.014794
v 0.013987 -0.011659 0.023881
v 0.010887 -0.009868 0.029237
v 0.006897 -0.008730 0.031395
v 0.000514 -0.007132 0.031961
v -0.005649 -0.006077 0.030543
v -0.009841 -0.004830 0.026760
v -0.001352 -0.001893 0.009244
v 0.014315 -0.011307 0.022106
v 0.014529 -0.014743 0.023984
v 0.010841 -0.013119 0.029855
v 0.006294 -0.012321 0.032182
v -0.000914 -0.011296 0.032714
v -0.007790 -0.010845 0.031059
v -0.012488 -0.009961 0.026816
v -0.014002 -0.010065 0.024000
v -0.006069 -0.005908 0.008165
v -0.003246 -0.005787 0.007564
v 0.008905 -0.008308 0.009008
v 0.014875 -0.014320 0.022026
v 0.014496 -0.017725 0.023689
v 0.010544 -0.016441 0.029593
v -0.001530 -0.015756 0.032347
v -0.008493 -0.015981 0.030586
v -0.013270 -0.015558 0.026227
v -0.014752 -0.015817 0.023354
v -0.015062 -0.015484 0.022374
v -0.015228 -0.013975 0.016080
v -0.014273 -0.013760 0.013894
v -0.010291 -0.011168 0.009117
v -0.006967 -0.010863 0.007384
v -0.004123 -0.010464 0.006807
v 0.006063 -0.010827 0.007174
v 0.008369 -0.011808 0.008423
v 0.012397 -0.014339 0.012245
v 0.013774 -0.015756 0.014302
v 0.014827 -0.017267 0.021707
v 0.014362 -0.020631 0.023308
v -0.001585 -0.018668 0.031924
v -0.013266 -0.018468 0.025835
v -0.014741 -0.018725 0.022976
v -0.015050 -0.018394 0.022001
v -0.015214 -0.016892 0.015738
v -0.014264 -0.016678 0.013563
v -0.010301 -0.014100 0.008809
v -0.006993 -0.013798 0.007085
v -0.004163 -0.013402 0.006511
v 0.005972 -0.013765 0.006876
v 0.014691 -0.020176 0.021336
v -0.015123 -0.019791 0.015453
v -0.014197 -0.019536 0.013341
v -0.010448 -0.016828 0.008733
v -0.007236 -0.016363 0.007075
v -0.004502 -0.015831 0.006533
v 0.014089 -0.021425 0.021095
v -0.014363 -0.020988 0.015439
v -0.013481 -0.020748 0.013429
v -0.009906 -0.018183 0.009043
v -0.006848 -0.017752 0.007463
v -0.004244 -0.017255 0.006947
v -0.001819 -0.023037 0.029556
v -0.013590 -0.022169 0.015462
v -0.012767 -0.021941 0.013585
v -0.009437 -0.019527 0.009490
v -0.006582 -0.019108 0.008015
v -0.004152 -0.018630 0.007535
v -0.011485 -0.024173 0.015475
v -0.010745 -0.023923 0.013790
v -0.007860 -0.021569 0.010120
v -0.005307 -0.021033 0.008811
v -0.003146 -0.020467 0.008394
v -0.006863 -0.022304 0.010645
v -0.004510 -0.021794 0.009439
v -0.002519 -0.021258 0.009056
v -0.004744 -0.022592 0.010661
v -0.003055 -0.022194 0.010332
v -0.010058 -0.024282 0.013953
v -0.008294 -0.023784 0.012708
v -0.006769 -0.023038 0.011456
v -0.005505 -0.023124 0.011357
v -0.004732 -0.022714 0.010819
v -0.004404 -0.022721 0.010830
v -0.003060 -0.022422 0.010532
v -0.002344 -0.022587 0.010657
v -0.000150 -0.022706 0.010858
v -0.003237 -0.025205 0.026625
v -0.011126 -0.025061 0.018195
v -0.011922 -0.023994 0.016284
v -0.011486 -0.024199 0.015714
v -0.011469 -0.024185 0.015497
v -0.011463 -0.024184 0.015475
v -0.010472 -0.024306 0.014373
v 0.003441 -0.026376 0.017876
v -0.009917 -0.024506 0.014585
v -0.006642 -0.024526 0.013274
v -0.001518 -0.026878 0.019989
v -0.004458 -0.023711 0.011913
v 0.002795 -0.025632 0.015282
v 0.000316 -0.026413 0.017099
v -0.004010 -0.026485 0.016688
v -0.000685 -0.023253 0.011300
v -0.002217 -0.025906 0.025104
v 0.000388 -0.025370 0.014278
v -0.004394 -0.025616 0.014430
v -0.002214 -0.026597 0.017471
v -0.003421 -0.026818 0.018466
v -0.003987 -0.027024 0.019843
v -0.001966 -0.024397 0.012632
v -0.002060 -0.026053 0.015443
v 0.003756 0.008733 0.031324
v 0.003191 0.009289 0.031574
v 0.001659 0.010463 0.031967
v 0.000681 0.010644 0.032078
v -0.001433 0.010697 0.032135
v -0.002774 0.010409 0.032133
v -0.004424 0.009695 0.031880
v -0.005224 0.008740 0.031619
v -0.005544 0.007437 0.031339
v -0.005556 0.006705 0.030941
v -0.005168 0.004501 0.029759
v -0.004827 0.003780 0.029423
v -0.004515 0.003366 0.029025
v -0.004149 0.002976 0.028701
v -0.002100 0.002124 0.027615
v -0.000923 0.002104 0.027580
v 0.000949 0.002168 0.027629
v 0.001541 0.002276 0.027754
v 0.003200 0.002840 0.028279
v 0.003934 0.003475 0.029049
v 0.004589 0.005134 0.030009
v 0.004482 0.006955 0.030992
v 0.004289 0.008108 0.031201
v 0.003139 0.008949 0.032031
v 0.001619 0.010135 0.032383
v -0.001459 0.010386 0.032534
v -0.002795 0.010105 0.032536
v -0.004440 0.009395 0.032300
v -0.005240 0.008440 0.032065
v -0.005564 0.007137 0.031823
v -0.005197 0.004168 0.030337
v -0.004860 0.003439 0.030025
v -0.004186 0.002615 0.029332
v -0.002146 0.001727 0.028283
v 0.000888 0.001758 0.028306
v 0.003130 0.002435 0.028940
v 0.003860 0.003087 0.029690
v 0.004518 0.004763 0.030600
v 0.004416 0.006604 0.031524
v 0.004228 0.007758 0.031698
v 0.001335 0.008214 0.033956
v 0.000422 0.009040 0.033792
v -0.001513 0.009327 0.033697
v -0.002370 0.009211 0.033721
v -0.003437 0.008795 0.033709
v -0.003981 0.008211 0.033793
v -0.004241 0.007408 0.033982
v -0.004116 0.005296 0.033915
v -0.003930 0.004783 0.033938
v -0.003528 0.004104 0.033779
v -0.002259 0.003249 0.033483
v -0.000342 0.003171 0.033602
v 0.001093 0.003653 0.033875
v 0.001569 0.004201 0.034165
v 0.002043 0.005383 0.034276
v 0.002044 0.006688 0.034324
v 0.001975 0.007405 0.034116
v 0.000314 0.007731 0.034922
v -0.000300 0.008278 0.034874
v -0.001587 0.008454 0.034843
v -0.002154 0.008367 0.034857
v -0.002858 0.008082 0.034829
v -0.003213 0.007685 0.034850
v -0.003376 0.007141 0.034924
v -0.003273 0.005753 0.034742
v -0.002873 0.004981 0.034571
v -0.002026 0.004448 0.034311
v -0.000753 0.004409 0.034372
v 0.000196 0.004724 0.034574
v 0.000509 0.005071 0.034797
v 0.000812 0.005849 0.034944
v 0.000801 0.006708 0.035061
v 0.000747 0.007193 0.034971
v -0.001319 0.005594 0.035196
v 0.009329 0.019250 0.022517
v 0.007786 0.020308 0.020501
v 0.005401 0.021231 0.019999
v 0.004597 0.021605 0.020071
v 0.002670 0.022602 0.020750
v 0.002069 0.022901 0.021550
v 0.001959 0.023120 0.022352
v 0.002014 0.022915 0.023198
v 0.002596 0.022494 0.024639
v 0.003823 0.021842 0.025222
v 0.006638 0.020624 0.025238
v 0.007650 0.020186 0.025242
v 0.009449 0.018734 0.023782
v 0.010397 0.019875 0.022557
v 0.008934 0.020956 0.020381
v 0.006062 0.022399 0.019701
v 0.005172 0.022878 0.019786
v 0.003048 0.024137 0.020566
v 0.002385 0.024513 0.021479
v 0.002276 0.024766 0.022393
v 0.002325 0.024526 0.023355
v 0.002960 0.024003 0.024995
v 0.004312 0.023176 0.025654
v 0.008553 0.021039 0.025666
v 0.010500 0.019274 0.023996
v 0.010852 0.025892 0.022703
v 0.009323 0.026047 0.020800
v 0.006560 0.025929 0.020177
v 0.005687 0.025924 0.020238
v 0.003549 0.026015 0.020879
v 0.002880 0.026047 0.021656
v 0.002681 0.026216 0.022438
v 0.002806 0.026080 0.023275
v 0.003484 0.025990 0.024702
v 0.004841 0.025943 0.025292
v 0.008936 0.026086 0.025355
v 0.011161 0.025517 0.023961
v 0.009822 0.027102 0.022705
v 0.008609 0.027274 0.021190
v 0.006407 0.027262 0.020695
v 0.005712 0.027285 0.020744
v 0.004014 0.027418 0.021256
v 0.003483 0.027462 0.021875
v 0.003330 0.027602 0.022498
v 0.003425 0.027488 0.023164
v 0.003963 0.027393 0.024300
v 0.005042 0.027314 0.024769
v 0.008304 0.027308 0.024818
v 0.010058 0.026792 0.023706
v 0.008845 0.028308 0.022731
v 0.008054 0.028354 0.021747
v 0.006631 0.028234 0.021426
v 0.006181 0.028213 0.021457
v 0.005076 0.028216 0.021787
v 0.004730 0.028220 0.022188
v 0.004691 0.028238 0.023024
v 0.005042 0.028207 0.023761
v 0.005743 0.028212 0.024065
v 0.007852 0.028372 0.024099
v 0.009012 0.028123 0.023381
v 0.005952 0.028912 0.022687
v -0.003677 0.022904 0.023779
v -0.004193 0.023201 0.022250
v -0.004973 0.023001 0.021619
v -0.005906 0.022816 0.021102
v -0.007507 0.022330 0.020743
v -0.008505 0.022055 0.020632
v -0.010189 0.020810 0.021973
v -0.010209 0.020851 0.022179
v -0.009966 0.020534 0.024566
v -0.009690 0.020757 0.024757
v -0.008518 0.021775 0.025279
v -0.006403 0.022307 0.025307
v -0.005999 0.022441 0.025163
v -0.003693 0.022805 0.024227
v -0.003343 0.024167 0.023800
v -0.004025 0.024457 0.021993
v -0.006008 0.023753 0.020648
v -0.008967 0.022460 0.020120
v -0.010739 0.020715 0.021725
v -0.010765 0.020757 0.021972
v -0.010424 0.020372 0.024703
v -0.008855 0.022069 0.025647
v -0.006440 0.023024 0.025653
v -0.003339 0.024042 0.024331
v -0.004289 0.026794 0.023617
v -0.004988 0.027087 0.021772
v -0.007011 0.026356 0.020399
v -0.010026 0.025017 0.019861
v -0.011824 0.023222 0.021501
v -0.011498 0.022872 0.024542
v -0.009905 0.024615 0.025507
v -0.007444 0.025605 0.025512
v -0.004283 0.026666 0.024160
v -0.004858 0.028109 0.023398
v -0.005403 0.028448 0.021723
v -0.007286 0.028093 0.020460
v -0.010155 0.027363 0.019937
v -0.012051 0.026076 0.021401
v -0.011866 0.025761 0.024145
v -0.010200 0.027075 0.025021
v -0.007868 0.027572 0.025059
v -0.004881 0.028003 0.023888
v -0.005843 0.029740 0.021695
v -0.007469 0.029361 0.020604
v -0.009936 0.028616 0.020159
v -0.011526 0.027418 0.021435
v -0.011340 0.027143 0.023820
v -0.009941 0.028347 0.024578
v -0.007934 0.028870 0.024603
v -0.005362 0.029366 0.023574
v -0.008532 0.029655 0.022192
v -0.009346 0.029371 0.021641
v -0.010560 0.028847 0.021424
v -0.011290 0.028136 0.022081
v -0.011162 0.027995 0.023301
v -0.010516 0.028687 0.023688
v -0.009525 0.029073 0.023691
v -0.008252 0.029484 0.023150
v -0.011045 0.028833 0.022768
v 0.006390 -0.000566 0.022390
v 0.006518 -0.001256 0.024658
v 0.007513 -0.003236 0.025728
v 0.009432 -0.005728 0.025790
v 0.011213 -0.007505 0.024065
v 0.011706 -0.007808 0.023245
v 0.012209 -0.008047 0.022133
v 0.009850 -0.000037 0.020295
v 0.008760 0.000573 0.022367
v 0.008770 -0.000220 0.025130
v 0.009675 -0.002415 0.026242
v 0.011067 -0.004719 0.026466
v 0.011494 -0.005229 0.026259
v 0.013190 -0.007263 0.024377
v 0.014158 -0.007916 0.022296
v 0.013395 -0.000438 0.017071
v 0.012524 0.000503 0.018366
v 0.010273 0.001125 0.021803
v 0.010064 0.001019 0.022398
v 0.014571 0.000098 0.017002
v 0.013524 0.000974 0.018317
v 0.011026 0.001367 0.021823
v 0.010805 0.001235 0.022436
v 0.014095 0.001277 0.018814
v 0.011747 0.001581 0.022048
v 0.011542 0.001454 0.022615
v 0.011813 0.000358 0.026647
v -0.009066 -0.002965 0.024408
v -0.008109 -0.001932 0.023650
v -0.007933 -0.000938 0.022611
v -0.014446 -0.008673 0.016772
v -0.014268 -0.009366 0.019881
v -0.014173 -0.009208 0.020717
v -0.013477 -0.008673 0.022980
v -0.012967 -0.008081 0.024086
v -0.011762 -0.006932 0.025306
v -0.010606 -0.004800 0.025381
v -0.010198 -0.004367 0.025228
v -0.009496 -0.000944 0.023676
v -0.009266 -0.000118 0.022821
v -0.016019 -0.006908 0.017002
v -0.015947 -0.007635 0.020136
v -0.015114 -0.007019 0.023101
v -0.014574 -0.006486 0.024156
v -0.013328 -0.005469 0.025312
v -0.012072 -0.003509 0.025368
v -0.012708 -0.000477 0.023321
v -0.012469 0.000209 0.022589
v -0.012504 0.001096 0.019685
v -0.014475 -0.000937 0.016321
v -0.016666 -0.003309 0.016350
v -0.017417 -0.004040 0.016605
v -0.018665 -0.005168 0.017697
v -0.018624 -0.005784 0.020370
v -0.017855 -0.005305 0.022890
v -0.017356 -0.004881 0.023783
v -0.016227 -0.004089 0.024757
v -0.015040 -0.002499 0.024789
v -0.015618 0.000899 0.023413
v -0.015375 0.001624 0.022607
v -0.015403 0.002365 0.020004
v -0.015296 0.001900 0.018384
v -0.016516 0.001138 0.017217
v -0.017302 0.000501 0.016859
v -0.019407 -0.001673 0.016894
v -0.020126 -0.002341 0.017136
v -0.021317 -0.003370 0.018164
v -0.021284 -0.003945 0.020669
v -0.020546 -0.003511 0.023027
v -0.020067 -0.003125 0.023862
v -0.018990 -0.002407 0.024771
v -0.017843 -0.000943 0.024796
v -0.017959 0.003118 0.023514
v -0.017747 0.003697 0.022890
v -0.017770 0.004450 0.020423
v -0.017669 0.004029 0.018954
v -0.018770 0.003331 0.017894
v -0.019479 0.002749 0.017569
v -0.021376 0.000766 0.017599
v -0.022024 0.000156 0.017817
v -0.023099 -0.000784 0.018749
v -0.023068 -0.001306 0.021020
v -0.022403 -0.000909 0.023159
v -0.021971 -0.000556 0.023917
v -0.020999 0.000101 0.024742
v -0.019967 0.001435 0.024767
v -0.019200 0.004432 0.023328
v -0.018942 0.004876 0.022790
v -0.018889 0.005495 0.020691
v -0.018907 0.005121 0.019446
v -0.019962 0.004719 0.018576
v -0.020656 0.004352 0.018320
v -0.022563 0.003018 0.018401
v -0.024229 0.002021 0.019425
v -0.024240 0.001592 0.021355
v -0.023575 0.001821 0.023153
v -0.022204 0.002434 0.024458
v -0.021124 0.003371 0.024446
v -0.019805 0.005321 0.022956
v -0.019514 0.005565 0.022524
v -0.019381 0.005987 0.020889
v -0.019546 0.005718 0.019935
v -0.020451 0.005722 0.019306
v -0.021063 0.005652 0.019137
v -0.021433 0.005554 0.019108
v -0.022807 0.005228 0.019287
v -0.023369 0.005120 0.019473
v -0.024248 0.004983 0.020152
v -0.024304 0.004685 0.021651
v -0.023693 0.004670 0.023014
v -0.023293 0.004712 0.023483
v -0.022485 0.004731 0.023965
v -0.021444 0.005103 0.023903
v -0.020281 0.006022 0.022565
v -0.020058 0.006167 0.022252
v -0.019945 0.006449 0.021084
v -0.020098 0.006271 0.020407
v -0.020744 0.006355 0.019969
v -0.021185 0.006361 0.019857
v -0.022455 0.006222 0.019985
v -0.022860 0.006199 0.020125
v -0.023485 0.006184 0.020619
v -0.023534 0.005983 0.021689
v -0.023088 0.005920 0.022653
v -0.022217 0.005855 0.023317
v -0.021448 0.006022 0.023259
v -0.022763 0.007328 0.021590
v 0.015164 -0.000409 0.016609
v 0.014968 0.000591 0.017758
v 0.014728 0.001273 0.019089
v 0.014426 0.001442 0.020677
v 0.014068 0.001573 0.022550
v 0.013806 0.001203 0.023861
v 0.013289 0.000481 0.026446
v 0.012932 -0.001676 0.028018
v 0.012860 -0.003651 0.028170
v 0.013548 -0.006145 0.027302
v 0.014145 -0.007338 0.025616
v 0.014444 -0.007790 0.024634
v 0.014930 -0.008211 0.022735
v 0.015027 -0.008243 0.022308
v 0.015144 -0.008095 0.021612
v 0.017077 -0.000383 0.016914
v 0.016887 0.000651 0.018106
v 0.016649 0.001356 0.019485
v 0.015973 0.001664 0.023069
v 0.015158 0.000531 0.027098
v 0.014764 -0.001701 0.028719
v 0.014666 -0.003744 0.028871
v 0.015347 -0.006331 0.027964
v 0.016252 -0.008035 0.025197
v 0.016847 -0.008505 0.022788
v 0.017409 -0.007551 0.019255
v 0.017500 -0.006455 0.017832
v 0.017342 -0.003204 0.015649
v 0.017206 -0.002571 0.015821
v 0.019867 -0.001498 0.017188
v 0.019695 -0.000403 0.018461
v 0.019464 0.000342 0.019931
v 0.018763 0.000663 0.023739
v 0.017878 -0.000544 0.028011
v 0.017405 -0.002913 0.029719
v 0.017248 -0.005080 0.029867
v 0.017901 -0.007837 0.028885
v 0.018810 -0.009652 0.025935
v 0.019424 -0.010150 0.023373
v 0.020037 -0.009130 0.019626
v 0.020159 -0.007959 0.018123
v 0.020071 -0.004490 0.015827
v 0.021773 -0.003382 0.018179
v 0.021724 -0.002445 0.019312
v 0.021595 -0.001810 0.020611
v 0.021039 -0.001553 0.023944
v 0.020199 -0.002617 0.027652
v 0.019601 -0.004669 0.029096
v 0.019284 -0.006539 0.029183
v 0.019614 -0.008967 0.028265
v 0.020231 -0.010555 0.025648
v 0.020705 -0.010985 0.023399
v 0.021297 -0.010071 0.020148
v 0.021491 -0.009034 0.018860
v 0.021691 -0.005968 0.016930
v 0.023117 -0.005481 0.019324
v 0.023214 -0.004785 0.020245
v 0.023210 -0.004320 0.021288
v 0.022843 -0.004160 0.023926
v 0.022085 -0.004999 0.026820
v 0.021364 -0.006560 0.027900
v 0.020872 -0.007972 0.027913
v 0.020798 -0.009866 0.027110
v 0.021043 -0.011090 0.024993
v 0.021333 -0.011410 0.023204
v 0.021883 -0.010670 0.020667
v 0.022159 -0.009848 0.019684
v 0.022700 -0.007432 0.018261
v 0.023907 -0.007796 0.020434
v 0.024114 -0.007395 0.021102
v 0.024211 -0.007134 0.021848
v 0.024025 -0.007088 0.023696
v 0.023388 -0.007649 0.025688
v 0.022620 -0.008610 0.026386
v 0.022023 -0.009462 0.026344
v 0.021605 -0.010675 0.025704
v 0.021513 -0.011436 0.024172
v 0.021627 -0.011616 0.022908
v 0.022109 -0.011100 0.021166
v 0.022439 -0.010554 0.020513
v 0.023245 -0.008970 0.019618
v 0.023967 -0.009073 0.020966
v 0.024161 -0.008805 0.021477
v 0.024262 -0.008635 0.022044
v 0.024139 -0.008625 0.023441
v 0.023626 -0.009034 0.024937
v 0.022971 -0.009703 0.025450
v 0.022448 -0.010288 0.025406
v 0.022025 -0.011146 0.024901
v 0.021879 -0.011674 0.023731
v 0.021941 -0.011791 0.022772
v 0.022335 -0.011408 0.021465
v 0.022626 -0.011013 0.020980
v 0.023363 -0.009877 0.020332
v 0.024304 -0.010116 0.022906
v 0.010452 -0.018775 0.029265
v 0.008414 -0.017577 0.030431
v 0.005820 -0.017041 0.031757
v 0.003314 -0.017868 0.031773
v 0.002640 -0.018855 0.031665
v 0.001616 -0.020250 0.031065
v 0.001219 -0.022558 0.029814
v 0.012393 -0.021374 0.029781
v 0.011708 -0.020673 0.031328
v 0.009523 -0.019470 0.032967
v 0.006719 -0.018954 0.034586
v 0.003734 -0.019633 0.034449
v 0.002873 -0.020616 0.034076
v 0.001580 -0.021877 0.033057
v 0.000906 -0.024025 0.031067
v 0.001070 -0.024882 0.029157
v 0.012976 -0.026078 0.029785
v 0.013525 -0.025044 0.029928
v 0.013436 -0.022652 0.031822
v 0.012605 -0.021556 0.033165
v 0.010150 -0.020108 0.034463
v 0.007129 -0.019424 0.035963
v 0.004098 -0.020494 0.036074
v 0.003323 -0.021690 0.036015
v 0.002144 -0.023413 0.035401
v 0.001736 -0.026247 0.034079
v 0.002051 -0.027672 0.032429
v 0.002854 -0.028761 0.031188
v 0.004168 -0.029467 0.029328
v 0.005001 -0.029715 0.028267
v 0.006987 -0.029587 0.027238
v 0.007583 -0.029488 0.027171
v 0.008155 -0.029381 0.027234
v 0.010122 -0.028715 0.027924
v 0.010686 -0.028432 0.028258
v 0.012624 -0.026623 0.029280
v 0.013091 -0.026379 0.031059
v 0.013606 -0.025416 0.031199
v 0.013530 -0.023197 0.032984
v 0.012758 -0.022181 0.034246
v 0.010469 -0.020832 0.035469
v 0.007651 -0.020196 0.036874
v 0.004819 -0.021187 0.036971
v 0.004092 -0.022301 0.036907
v 0.002987 -0.023902 0.036321
v 0.002598 -0.026537 0.035067
v 0.002887 -0.027856 0.033516
v 0.003635 -0.028866 0.032350
v 0.004859 -0.029515 0.030608
v 0.005636 -0.029740 0.029616
v 0.007490 -0.029619 0.028656
v 0.008047 -0.029528 0.028594
v 0.008581 -0.029430 0.028654
v 0.010419 -0.028819 0.029302
v 0.010946 -0.028559 0.029616
v 0.012761 -0.026883 0.030583
v 0.013974 -0.026559 0.032329
v 0.014583 -0.025586 0.032622
v 0.014626 -0.023490 0.034862
v 0.013852 -0.022556 0.036367
v 0.011468 -0.021175 0.037890
v 0.008472 -0.020551 0.039503
v 0.005369 -0.021458 0.039473
v 0.004524 -0.022593 0.039241
v 0.003244 -0.024144 0.038381
v 0.002676 -0.026736 0.036646
v 0.002914 -0.027921 0.034790
v 0.003661 -0.028861 0.033389
v 0.004943 -0.029357 0.031425
v 0.005767 -0.029491 0.030328
v 0.007769 -0.029322 0.029311
v 0.008373 -0.029247 0.029256
v 0.008953 -0.029183 0.029331
v 0.010963 -0.028736 0.030103
v 0.011544 -0.028537 0.030473
v 0.011756 -0.028400 0.030655
v 0.013591 -0.027004 0.031747
v 0.013637 -0.026984 0.032888
v 0.014191 -0.026114 0.033165
v 0.014242 -0.024258 0.035214
v 0.013550 -0.023434 0.036583
v 0.011409 -0.022199 0.037976
v 0.008713 -0.021643 0.039439
v 0.005912 -0.022443 0.039400
v 0.005144 -0.023457 0.039175
v 0.003982 -0.024837 0.038378
v 0.003456 -0.027144 0.036778
v 0.003664 -0.028186 0.035089
v 0.004332 -0.029017 0.033813
v 0.005484 -0.029443 0.032036
v 0.006225 -0.029552 0.031046
v 0.008030 -0.029396 0.030131
v 0.008575 -0.029332 0.030082
v 0.009097 -0.029278 0.030150
v 0.010912 -0.028897 0.030852
v 0.011437 -0.028726 0.031188
v 0.011628 -0.028606 0.031354
v 0.013289 -0.027374 0.032357
v 0.013040 -0.025618 0.034590
v 0.013088 -0.024365 0.036048
v 0.012613 -0.023812 0.037015
v 0.011133 -0.022963 0.038007
v 0.009262 -0.022585 0.039035
v 0.007308 -0.023122 0.038995
v 0.006767 -0.023817 0.038820
v 0.005950 -0.024754 0.038242
v 0.005568 -0.026326 0.037088
v 0.005704 -0.027022 0.035894
v 0.006163 -0.027581 0.034992
v 0.006961 -0.027854 0.033749
v 0.007476 -0.027917 0.033058
v 0.009476 -0.027729 0.032439
v 0.011240 -0.027301 0.033287
v 0.012404 -0.026474 0.034006
v 0.009457 -0.026629 0.035232
v -0.003928 -0.018743 0.031332
v -0.004938 -0.017364 0.031275
v -0.006946 -0.016238 0.030934
v -0.008266 -0.016069 0.030630
v -0.008494 -0.016054 0.030576
v -0.009453 -0.015896 0.029710
v -0.011293 -0.016943 0.027867
v -0.012067 -0.018574 0.026929
v -0.003867 -0.023337 0.028894
v -0.003621 -0.021921 0.029722
v -0.003264 -0.019950 0.030849
v -0.004340 -0.019158 0.033118
v -0.005363 -0.017741 0.033022
v -0.007411 -0.016583 0.032648
v -0.008995 -0.016393 0.032282
v -0.009977 -0.016250 0.031398
v -0.011849 -0.017313 0.029581
v -0.012688 -0.019055 0.028642
v -0.012720 -0.020086 0.028029
v -0.004324 -0.023933 0.030763
v -0.003672 -0.020413 0.032658
v -0.004617 -0.019260 0.035423
v -0.005586 -0.017774 0.034827
v -0.007688 -0.016540 0.034088
v -0.009383 -0.016317 0.033708
v -0.010477 -0.016399 0.032805
v -0.012691 -0.017935 0.031460
v -0.013804 -0.019930 0.031212
v -0.013972 -0.021183 0.030991
v -0.014258 -0.023502 0.031411
v -0.013390 -0.025779 0.031206
v -0.011740 -0.027887 0.031008
v -0.010409 -0.028764 0.031114
v -0.008518 -0.029108 0.031631
v -0.007370 -0.027924 0.033244
v -0.005190 -0.024897 0.034879
v -0.004050 -0.020754 0.035415
v -0.005042 -0.019152 0.036810
v -0.005998 -0.017687 0.036230
v -0.008069 -0.016471 0.035507
v -0.009737 -0.016252 0.035132
v -0.010814 -0.016330 0.034242
v -0.012992 -0.017839 0.032909
v -0.014085 -0.019804 0.032655
v -0.014249 -0.021036 0.032431
v -0.014527 -0.023322 0.032834
v -0.013670 -0.025562 0.032621
v -0.012042 -0.027635 0.032418
v -0.010731 -0.028497 0.032519
v -0.008869 -0.028836 0.033028
v -0.007741 -0.027677 0.034622
v -0.005599 -0.024701 0.036247
v -0.004482 -0.020622 0.036796
v -0.005119 -0.018554 0.039295
v -0.006210 -0.016917 0.038850
v -0.008508 -0.015570 0.038190
v -0.010334 -0.015338 0.037777
v -0.011496 -0.015336 0.036774
v -0.013792 -0.016860 0.035068
v -0.014908 -0.018993 0.034491
v -0.015037 -0.020304 0.034071
v -0.015262 -0.022849 0.034179
v -0.014235 -0.025219 0.033652
v -0.012373 -0.027380 0.033177
v -0.010908 -0.028283 0.033195
v -0.008868 -0.028656 0.033741
v -0.007707 -0.027585 0.035659
v -0.005507 -0.024512 0.037890
v -0.004451 -0.020127 0.039085
v -0.005884 -0.019454 0.039715
v -0.006880 -0.017967 0.039346
v -0.008969 -0.016744 0.038771
v -0.010623 -0.016536 0.038395
v -0.011670 -0.016517 0.037485
v -0.013740 -0.017873 0.035895
v -0.014737 -0.019799 0.035320
v -0.014844 -0.020978 0.034909
v -0.015033 -0.023288 0.034949
v -0.014087 -0.025416 0.034421
v -0.012385 -0.027353 0.033947
v -0.011052 -0.028162 0.033948
v -0.009202 -0.028501 0.034441
v -0.008163 -0.027567 0.036207
v -0.006195 -0.024821 0.038306
v -0.005268 -0.020869 0.039491
v -0.006993 -0.020116 0.040000
v -0.007820 -0.018901 0.039756
v -0.009533 -0.017904 0.039327
v -0.010881 -0.017737 0.039020
v -0.011732 -0.017694 0.038272
v -0.013392 -0.018752 0.036908
v -0.014179 -0.020306 0.036351
v -0.014251 -0.021250 0.035966
v -0.014379 -0.023133 0.035898
v -0.013581 -0.024833 0.035384
v -0.012169 -0.026370 0.034926
v -0.011074 -0.027015 0.034900
v -0.009565 -0.027291 0.035299
v -0.008739 -0.026595 0.036784
v -0.007178 -0.024428 0.038622
v -0.006474 -0.021252 0.039761
v -0.008122 -0.020890 0.039489
v -0.008717 -0.020012 0.039305
v -0.009953 -0.019292 0.038989
v -0.010928 -0.019171 0.038768
v -0.011541 -0.019144 0.038229
v -0.012746 -0.019915 0.037252
v -0.013318 -0.021040 0.036861
v -0.013372 -0.021724 0.036590
v -0.013468 -0.023085 0.036555
v -0.012895 -0.024319 0.036195
v -0.011879 -0.025435 0.035874
v -0.011088 -0.025903 0.035859
v -0.009999 -0.026103 0.036147
v -0.009399 -0.025591 0.037214
v -0.008265 -0.024015 0.038524
v -0.007749 -0.021713 0.039324
v -0.010834 -0.020617 0.038543
v -0.003364 -0.013201 0.006563
v -0.001221 -0.010939 0.006875
v 0.001641 -0.011183 0.006964
v 0.002203 -0.011799 0.006924
v 0.003031 -0.013660 0.006770
v 0.003229 -0.015151 0.006854
v 0.003203 -0.015696 0.006861
v 0.003187 -0.016020 0.006951
v 0.002813 -0.017156 0.007243
v 0.002045 -0.018108 0.007630
v 0.001689 -0.018516 0.007784
v -0.002810 -0.017235 0.007007
v -0.002873 -0.017027 0.006947
v -0.003234 -0.015809 0.006587
v -0.003535 -0.014659 0.006557
v -0.003904 -0.012408 0.005456
v -0.001379 -0.009731 0.005496
v 0.001981 -0.010010 0.005677
v 0.002640 -0.010734 0.005734
v 0.003606 -0.012928 0.005856
v 0.003797 -0.015286 0.006281
v 0.003776 -0.015649 0.006436
v 0.003328 -0.016926 0.006948
v 0.001993 -0.018422 0.007774
v -0.001509 -0.019069 0.007940
v -0.002473 -0.018524 0.007545
v -0.003276 -0.017039 0.006608
v -0.003762 -0.015443 0.005892
v -0.004111 -0.014107 0.005673
v -0.003381 -0.011790 0.002985
v -0.001252 -0.009748 0.003962
v 0.001589 -0.009971 0.003887
v 0.002147 -0.010527 0.003633
v 0.002969 -0.012208 0.002854
v 0.003148 -0.014142 0.002265
v 0.002777 -0.015639 0.002154
v 0.001681 -0.017104 0.002243
v -0.001267 -0.017712 0.002229
v -0.002094 -0.017168 0.002170
v -0.002806 -0.015705 0.002059
v -0.003243 -0.014238 0.002146
v -0.003546 -0.013155 0.002504
v -0.002650 -0.010997 0.002149
v -0.001100 -0.009732 0.003171
v 0.000953 -0.009856 0.003035
v 0.001354 -0.010196 0.002748
v 0.001938 -0.011226 0.001885
v 0.002063 -0.012472 0.001119
v 0.001796 -0.013502 0.000775
v 0.001009 -0.014550 0.000588
v -0.001121 -0.014991 0.000512
v -0.001722 -0.014605 0.000583
v -0.002242 -0.013566 0.000781
v -0.002559 -0.012557 0.001116
v -0.002775 -0.011866 0.001567
v -0.002099 -0.010578 0.001631
v -0.000985 -0.009700 0.002396
v 0.000487 -0.009783 0.002290
v 0.000774 -0.010018 0.002074
v 0.001193 -0.010732 0.001424
v 0.001280 -0.011603 0.000839
v 0.001089 -0.012332 0.000563
v 0.000524 -0.013078 0.000402
v -0.001004 -0.013394 0.000340
v -0.001435 -0.013120 0.000403
v -0.001808 -0.012381 0.000576
v -0.002036 -0.011667 0.000845
v -0.002190 -0.011185 0.001190
v -0.000511 -0.011624 0.000000
v -0.003563 -0.026062 0.024880
v -0.003876 -0.025514 0.026139
v -0.003943 -0.025334 0.026446
v -0.004513 -0.024189 0.027887
v -0.005267 -0.025138 0.028236
v -0.005762 -0.025897 0.028494
v -0.006197 -0.026503 0.028496
v -0.008195 -0.027511 0.028049
v -0.004418 -0.027019 0.020168
v -0.004090 -0.026990 0.021308
v -0.003459 -0.026948 0.022151
v -0.003470 -0.026662 0.023078
v -0.003495 -0.026534 0.023558
v -0.004102 -0.026467 0.023709
v -0.004765 -0.025615 0.026008
v -0.006735 -0.026392 0.027590
v -0.004342 -0.026884 0.021889
v -0.005985 -0.026456 0.023507
v 0.001011 -0.026560 0.018381
v 0.002931 -0.026464 0.018589
v 0.001687 -0.026586 0.019447
v 0.002854 -0.026469 0.019918
v 0.009099 -0.027338 0.026440
v 0.008041 -0.027745 0.026148
v 0.007276 -0.028056 0.025966
v 0.007044 -0.028015 0.025899
v 0.006845 -0.027941 0.025855
v 0.003289 -0.026449 0.020010
v 0.003298 -0.026461 0.019717
v 0.003467 -0.026423 0.018799
v 0.003482 -0.026375 0.017932
v 0.003492 -0.026366 0.017884
v 0.003555 -0.026343 0.017846
v 0.007317 -0.025731 0.020684
v 0.005805 -0.026137 0.020734
v 0.007440 -0.025937 0.023643
v 0.008275 -0.025454 0.020121
v 0.004283 -0.026342 0.019918
v 0.004483 -0.026138 0.018067
v 0.006242 -0.025942 0.019476
v 0.008428 -0.026378 0.025310
v 0.006190 -0.026070 0.022228
v 0.006999 -0.027462 0.025571
v 0.007657 -0.025658 0.022036
v 0.008614 -0.025374 0.022495
v 0.008504 -0.025417 0.021002
v 0.009535 -0.025544 0.025426
v 0.008841 -0.025347 0.024012
v -0.004528 -0.026411 0.016540
v -0.005234 -0.026714 0.017588
v -0.005319 -0.026903 0.018371
v -0.005407 -0.026931 0.018626
v -0.005699 -0.026937 0.019584
v -0.006245 -0.026785 0.021428
v -0.006505 -0.026554 0.022820
v -0.006341 -0.026448 0.023441
v -0.006563 -0.026346 0.023873
v -0.006891 -0.026105 0.025114
v -0.007179 -0.026163 0.026087
v -0.007654 -0.026372 0.026858
v -0.009005 -0.027002 0.027407
v -0.009007 -0.027006 0.027403
v -0.010592 -0.026627 0.027720
v -0.011110 -0.025088 0.018263
v -0.011112 -0.025076 0.018212
v -0.011083 -0.025083 0.018177
v -0.010090 -0.025284 0.016769
v -0.009585 -0.025399 0.016468
v -0.008503 -0.025423 0.015564
v -0.006826 -0.025598 0.015142
v -0.005344 -0.025941 0.015444
v -0.004526 -0.026344 0.016348
v -0.006299 -0.026359 0.016816
v -0.008637 -0.026465 0.019894
v -0.005933 -0.026845 0.018448
v -0.008130 -0.025920 0.016566
v -0.009984 -0.025579 0.017821
v -0.006567 -0.026850 0.019707
v -0.007451 -0.026642 0.021590
v -0.010599 -0.025607 0.020159
v -0.007524 -0.026327 0.023522
v -0.009040 -0.026267 0.026351
v -0.007696 -0.026519 0.018223
v -0.009189 -0.026185 0.021869
v -0.005801 0.001159 0.015198
v -0.004289 0.001306 0.014332
v -0.003769 0.001171 0.013862
v -0.003414 0.000715 0.013047
v -0.003459 -0.000800 0.011012
v -0.002582 -0.001824 0.009563
v -0.003944 -0.003489 0.008850
v -0.005545 -0.004376 0.008875
v -0.006245 -0.004904 0.008853
v -0.007224 -0.003589 0.010661
v -0.005119 -0.000182 0.013004
v -0.004289 -0.002292 0.009945
v -0.016950 -0.004350 0.016516
v -0.016318 -0.003698 0.016253
v -0.016200 -0.003561 0.016204
v -0.015652 -0.003496 0.016103
v -0.013584 -0.002735 0.015716
v -0.012843 -0.002415 0.015576
v -0.009201 -0.002796 0.013213
v -0.008413 -0.003920 0.011223
v -0.008101 -0.004288 0.010490
v -0.008111 -0.004964 0.009762
v -0.008145 -0.005259 0.009568
v -0.008234 -0.005887 0.009338
v -0.009016 -0.007248 0.009390
v -0.010216 -0.008998 0.009786
v -0.011818 -0.009705 0.011668
v -0.013517 -0.008814 0.014545
v -0.013836 -0.008308 0.015657
v -0.014065 -0.007833 0.016040
v -0.014526 -0.007483 0.016381
v -0.015676 -0.006224 0.016610
v -0.014711 -0.004670 0.015945
v -0.012661 -0.005193 0.014609
v -0.010529 -0.007377 0.010728
v -0.010097 -0.004146 0.012594
v -0.012198 -0.008089 0.012643
v -0.008897 -0.005295 0.010299
v -0.011022 -0.005966 0.012011
v -0.012386 0.000846 0.018689
v -0.009675 0.001001 0.019550
v -0.008356 -0.000141 0.021206
v -0.007984 -0.000630 0.021827
v -0.007981 0.000127 0.020697
v -0.007873 0.000418 0.019921
v -0.007562 0.000602 0.019369
v -0.007429 0.000688 0.018998
v -0.007230 0.000756 0.018500
v -0.007153 0.000751 0.018114
v -0.006668 0.000796 0.016558
v -0.006315 0.000897 0.015811
v -0.006206 0.000721 0.015266
v -0.005659 -0.000190 0.013492
v -0.005713 -0.000375 0.013295
v -0.007827 -0.002301 0.012675
v -0.011097 -0.002785 0.014552
v -0.011792 -0.002478 0.015166
v -0.012113 -0.002211 0.015398
v -0.013156 -0.001578 0.015863
v -0.013550 -0.001046 0.016184
v -0.014156 -0.000725 0.016413
v -0.014404 0.000186 0.016980
v -0.014215 0.000706 0.017497
v -0.013812 0.001249 0.018190
v -0.012936 -0.000109 0.017071
v -0.007279 -0.000763 0.014225
v -0.012052 -0.001679 0.015602
v -0.010526 0.000290 0.018205
v -0.006946 0.000525 0.016279
v -0.009817 -0.002144 0.014245
v -0.008256 0.000504 0.018801
v -0.009693 -0.000510 0.016414
v 0.015937 -0.005484 0.017186
v 0.016497 -0.006362 0.017720
v 0.016562 -0.006772 0.018189
v 0.016532 -0.007295 0.018914
v 0.015355 -0.007484 0.020088
v 0.014759 -0.007705 0.020973
v 0.013981 -0.007605 0.021417
v 0.012520 -0.007672 0.021523
v 0.012293 -0.007910 0.021432
v 0.012670 -0.008740 0.020332
v 0.005946 0.000154 0.018401
v 0.007001 -0.000556 0.020621
v 0.006995 -0.000649 0.021131
v 0.007961 -0.000495 0.020777
v 0.009710 -0.000163 0.020218
v 0.009828 -0.000152 0.020132
v 0.011320 -0.000375 0.018715
v 0.009735 -0.004165 0.010907
v 0.010055 -0.005443 0.010780
v 0.012468 -0.008567 0.019277
v 0.012824 -0.009272 0.018800
v 0.013714 -0.010919 0.018327
v 0.014118 -0.011810 0.017989
v 0.014158 -0.012795 0.016542
v 0.013835 -0.013913 0.014580
v 0.013192 -0.013265 0.013499
v 0.012585 -0.012719 0.012644
v 0.011825 -0.011187 0.012006
v 0.013780 -0.012881 0.014958
v 0.013834 -0.011852 0.016500
v 0.012867 -0.011454 0.014038
v 0.012894 -0.009949 0.016645
v 0.012380 -0.000593 0.017906
v 0.012723 -0.000689 0.017578
v 0.013086 -0.000765 0.017233
v 0.013321 -0.000701 0.017095
v 0.013441 -0.000715 0.017019
v 0.013597 -0.000827 0.016902
v 0.013946 -0.001162 0.016620
v 0.015443 -0.001415 0.016118
v 0.015556 -0.001943 0.015976
v 0.012031 -0.004068 0.012104
v 0.010766 -0.004017 0.011378
v 0.009858 -0.004083 0.010975
v 0.009841 -0.004092 0.010964
v 0.009805 -0.004036 0.010994
v 0.014067 -0.001876 0.016158
v 0.011491 -0.003324 0.012037
v 0.013009 -0.002426 0.014691
v 0.012833 -0.002876 0.013582
v 0.013154 -0.001269 0.016850
v 0.012282 -0.003317 0.012614
v 0.012956 -0.002077 0.015924
v 0.013068 -0.003256 0.013420
v 0.013308 -0.003179 0.014035
v 0.013435 -0.002880 0.014524
v 0.013555 -0.002633 0.015108
v 0.014076 -0.001951 0.016106
v 0.014196 -0.001955 0.016132
v 0.015171 -0.001971 0.016037
v 0.016264 -0.003205 0.015616
v 0.015870 -0.005453 0.017220
v 0.015887 -0.005481 0.017229
v 0.014038 -0.006765 0.020339
v 0.013591 -0.007036 0.020680
v 0.012728 -0.007256 0.020932
v 0.012152 -0.007432 0.020854
v 0.012159 -0.007521 0.020274
v 0.012234 -0.007859 0.019701
v 0.012294 -0.008019 0.019109
v 0.012349 -0.008181 0.018917
v 0.012505 -0.008415 0.018072
v 0.012553 -0.008536 0.017288
v 0.012592 -0.008937 0.016216
v 0.012517 -0.009734 0.014942
v 0.012164 -0.010081 0.013099
v 0.011822 -0.010256 0.012244
v 0.011437 -0.010206 0.011707
v 0.010799 -0.010055 0.011012
v 0.010095 -0.008856 0.010377
v 0.009958 -0.008404 0.010307
v 0.010132 -0.007753 0.010645
v 0.010285 -0.006853 0.010893
v 0.010740 -0.006165 0.011381
v 0.011631 -0.005032 0.012051
v 0.011790 -0.004606 0.012080
v 0.012069 -0.004299 0.012186
v 0.012400 -0.004040 0.012399
v 0.012691 -0.003683 0.013018
v 0.013137 -0.004578 0.015270
v 0.014814 -0.002658 0.015917
v 0.014443 -0.005282 0.017995
v 0.012477 -0.006191 0.015200
v 0.011878 -0.007988 0.013179
v 0.010734 -0.008975 0.011136
v 0.013776 -0.003791 0.015556
v 0.012476 -0.008233 0.017465
v 0.012055 -0.004718 0.012398
v 0.011692 -0.009267 0.012438
v 0.011071 -0.007625 0.011805
v 0.012352 -0.008129 0.014764
v 0.011797 -0.006541 0.012898
v 0.002756 -0.004464 0.008505
v 0.004227 -0.003637 0.009113
v 0.009198 -0.004197 0.010640
v 0.009228 -0.004626 0.010417
v 0.009469 -0.005461 0.010297
v 0.009438 -0.005943 0.010173
v 0.009303 -0.007012 0.009862
v 0.008857 -0.007729 0.009113
v 0.008458 -0.007912 0.008774
v 0.006371 -0.008501 0.007669
v 0.004750 -0.007196 0.007570
v 0.003636 -0.006493 0.007706
v 0.003048 -0.005347 0.008138
v 0.004177 -0.004954 0.008392
v 0.006732 -0.007109 0.008044
v 0.005732 -0.003538 0.009460
v 0.008590 -0.003939 0.010608
v 0.008247 -0.006891 0.008908
v 0.005371 -0.006215 0.007975
v 0.005103 -0.003992 0.008947
v 0.008656 -0.005738 0.009717
v 0.007033 -0.006126 0.008436
v 0.006135 -0.004772 0.008818
v -0.009535 -0.025863 0.023072
v -0.009468 -0.025807 0.023716
v -0.009466 -0.025895 0.025334
v -0.009387 -0.025975 0.026146
v -0.009408 -0.026009 0.026363
v -0.010715 -0.025876 0.027340
v -0.011727 -0.025335 0.027932
v -0.012808 -0.022835 0.028138
v -0.012960 -0.022143 0.028015
v -0.012728 -0.021133 0.027614
v -0.012599 -0.020460 0.027522
v -0.012478 -0.020048 0.027345
v -0.012868 -0.019225 0.025957
v -0.013211 -0.019161 0.025541
v -0.014282 -0.019704 0.023662
v -0.014659 -0.019976 0.022857
v -0.014868 -0.020028 0.022379
v -0.014961 -0.020256 0.021755
v -0.014847 -0.021094 0.020477
v -0.014702 -0.021385 0.019780
v -0.014278 -0.021941 0.019191
v -0.013974 -0.022348 0.019032
v -0.013480 -0.022990 0.019125
v -0.012851 -0.023690 0.019122
v -0.012241 -0.024357 0.019445
v -0.011813 -0.024877 0.019753
v -0.011155 -0.025261 0.020434
v -0.010887 -0.025397 0.020744
v -0.010146 -0.025637 0.022158
v -0.010932 -0.025250 0.026897
v -0.012672 -0.023136 0.023464
v -0.010116 -0.025422 0.024979
v -0.012570 -0.021274 0.026591
v -0.010445 -0.025243 0.023375
v -0.011516 -0.024036 0.025360
v -0.011729 -0.024715 0.021096
v -0.014372 -0.021369 0.021998
v -0.012225 -0.023374 0.027356
v -0.012823 -0.023800 0.019991
v -0.013630 -0.020611 0.024283
v -0.013283 -0.023200 0.021522
v -0.014108 -0.022241 0.020088
v 0.011930 -0.021323 0.028936
v 0.012043 -0.022012 0.028517
v 0.012473 -0.023931 0.028423
v 0.012388 -0.024494 0.028215
v 0.012034 -0.025063 0.027842
v 0.011779 -0.025166 0.027615
v 0.011022 -0.025752 0.027157
v 0.010028 -0.025304 0.026145
v 0.009701 -0.025360 0.025448
v 0.009674 -0.025351 0.025341
v 0.009660 -0.025296 0.025085
v 0.009258 -0.025187 0.023988
v 0.009417 -0.025082 0.023451
v 0.009324 -0.025125 0.022802
v 0.009768 -0.025103 0.021275
v 0.013776 -0.021892 0.021078
v 0.013851 -0.021736 0.021593
v 0.013680 -0.021390 0.023126
v 0.013541 -0.020855 0.024008
v 0.012685 -0.020882 0.025033
v 0.011415 -0.020285 0.027229
v 0.011464 -0.020692 0.027908
v 0.011805 -0.021670 0.026539
v 0.011915 -0.023198 0.023690
v 0.011865 -0.024054 0.027473
v 0.010140 -0.024825 0.024639
v 0.012605 -0.021719 0.024579
v 0.010359 -0.024635 0.022476
v 0.011222 -0.023688 0.025536
v 0.004697 -0.029021 0.027884
v 0.003943 -0.028639 0.028551
v 0.003410 -0.028100 0.028764
v 0.002558 -0.027331 0.029404
v 0.001286 -0.025003 0.029000
v 0.001166 -0.024929 0.029053
v 0.001162 -0.024767 0.029032
v 0.001243 -0.023427 0.028776
v 0.001101 -0.023312 0.028738
v -0.000779 -0.024277 0.027829
v -0.001386 -0.024953 0.027017
v -0.001500 -0.025088 0.026793
v -0.001602 -0.025595 0.025684
v -0.001730 -0.025713 0.025433
v -0.001929 -0.025898 0.025037
v -0.001823 -0.026035 0.024603
v -0.002352 -0.026659 0.022897
v -0.002166 -0.026721 0.022476
v -0.001251 -0.026754 0.020886
v -0.001141 -0.026809 0.020346
v -0.000379 -0.026729 0.020166
v 0.000694 -0.026647 0.019864
v 0.001661 -0.026540 0.019887
v 0.002558 -0.026452 0.020170
v 0.002821 -0.026426 0.020315
v 0.003100 -0.026407 0.020407
v 0.003360 -0.026384 0.020504
v 0.003762 -0.026329 0.020706
v 0.004350 -0.026261 0.021076
v 0.004730 -0.026214 0.021472
v 0.005279 -0.026160 0.022051
v 0.005739 -0.026140 0.022491
v 0.006024 -0.026125 0.022666
v 0.006843 -0.026193 0.023769
v 0.006692 -0.027386 0.025468
v 0.006806 -0.027471 0.025570
v 0.006626 -0.027755 0.025784
v 0.006399 -0.028017 0.026078
v 0.005806 -0.028289 0.026604
v 0.004945 -0.029106 0.027704
v 0.002529 -0.026576 0.028492
v -0.000819 -0.025000 0.026806
v 0.000090 -0.026518 0.021143
v 0.003478 -0.026428 0.024658
v 0.003671 -0.027818 0.027965
v -0.000833 -0.026439 0.022369
v 0.001764 -0.026457 0.020523
v 0.004050 -0.026265 0.022642
v 0.000627 -0.025835 0.025083
v 0.005452 -0.026489 0.023901
v 0.005404 -0.027388 0.025787
v 0.002929 -0.026461 0.026722
v -0.001260 -0.026292 0.023460
v 0.003415 -0.026329 0.020983
v 0.002025 -0.026252 0.022245
v -0.000905 -0.025763 0.025156
v 0.000816 -0.025338 0.026293
v 0.000512 -0.026113 0.023610
v 0.001720 -0.026046 0.025021
v 0.004628 -0.028178 0.027236
v 0.002316 -0.026204 0.023696
v 0.002605 0.001569 0.013883
v 0.003050 0.001544 0.013982
v 0.004200 0.001249 0.014781
v 0.004250 0.001218 0.014842
v 0.005406 0.000455 0.016135
v 0.005870 0.000401 0.017256
v 0.006126 0.000057 0.018221
v 0.006503 -0.000252 0.018916
v 0.006506 -0.000299 0.019302
v 0.006971 -0.000445 0.019616
v 0.007435 -0.000542 0.020258
v 0.008089 -0.000522 0.020413
v 0.009067 -0.000433 0.020008
v 0.009554 -0.000391 0.019979
v 0.010039 -0.000471 0.019587
v 0.011233 -0.000446 0.018732
v 0.011301 -0.000447 0.018690
v 0.011339 -0.000485 0.018634
v 0.011713 -0.000641 0.018271
v 0.012003 -0.000734 0.018045
v 0.012261 -0.000826 0.017795
v 0.012429 -0.000934 0.017594
v 0.012479 -0.001025 0.017483
v 0.012486 -0.001210 0.017296
v 0.012469 -0.001575 0.016770
v 0.012637 -0.002035 0.016009
v 0.012667 -0.002104 0.015842
v 0.012708 -0.002348 0.014903
v 0.012604 -0.002392 0.014665
v 0.012359 -0.002602 0.013873
v 0.012174 -0.002705 0.013489
v 0.011762 -0.002902 0.012855
v 0.011412 -0.003164 0.012180
v 0.011173 -0.003198 0.012040
v 0.010563 -0.003653 0.011491
v 0.009934 -0.003815 0.011168
v 0.009697 -0.003896 0.011058
v 0.009614 -0.003896 0.011033
v 0.009445 -0.003884 0.010979
v 0.009026 -0.003880 0.010806
v 0.008591 -0.003896 0.010640
v 0.008564 -0.003881 0.010636
v 0.008341 -0.003784 0.010575
v 0.007005 -0.003679 0.009966
v 0.006394 -0.003317 0.009908
v 0.005835 -0.003188 0.009800
v 0.005014 -0.002852 0.010004
v 0.004084 -0.001663 0.010765
v 0.002508 0.001047 0.013330
v 0.002370 0.001438 0.013696
v 0.003063 0.000225 0.012616
v 0.003896 -0.000081 0.012680
v 0.008803 -0.001681 0.015293
v 0.007854 -0.000551 0.019803
v 0.005954 -0.002994 0.009991
v 0.003290 -0.000265 0.012109
v 0.003200 0.000853 0.013428
v 0.004133 0.000753 0.014084
v 0.004870 -0.001466 0.011157
v 0.009392 -0.002271 0.012778
v 0.006315 -0.000766 0.013965
v 0.007597 -0.000908 0.017210
v 0.010054 -0.001699 0.017297
v 0.010754 -0.002169 0.015006
v 0.003907 -0.000811 0.011650
v 0.005201 -0.002217 0.010516
v 0.010885 -0.002713 0.012695
v 0.010232 -0.003102 0.011854
v 0.009212 -0.003524 0.011140
v 0.009018 -0.001821 0.014179
v 0.006128 -0.001744 0.011361
v 0.004985 0.000340 0.014585
v 0.005166 -0.000345 0.013316
v 0.007676 -0.001288 0.014717
v 0.008485 -0.000707 0.019028
v 0.006769 -0.000321 0.018101
v 0.006189 -0.000033 0.016796
v 0.008203 -0.001382 0.016173
v 0.011788 -0.001261 0.017486
v 0.010506 -0.000842 0.018627
v 0.008974 -0.001416 0.017467
v 0.009348 -0.001797 0.016294
v 0.012037 -0.002103 0.015689
v 0.010496 -0.001992 0.016198
v 0.011637 -0.002458 0.013949
v 0.009767 -0.001975 0.015135
v 0.010245 -0.002179 0.013972
v 0.007529 -0.003026 0.010728
v 0.007731 -0.001913 0.012253
v 0.006235 -0.002744 0.010329
v 0.006313 -0.001110 0.012732
v 0.005498 0.000189 0.015608
v 0.005086 -0.000905 0.012083
v 0.006879 -0.000401 0.019178
v 0.006319 -0.000503 0.015304
v 0.008240 -0.001681 0.013412
v 0.007273 -0.001331 0.013375
v 0.007202 -0.000908 0.016053
v 0.001794 -0.021006 0.009297
v 0.002297 -0.020102 0.008610
v 0.002666 -0.019016 0.008004
v 0.003013 -0.018304 0.007689
v 0.003251 -0.017444 0.007351
v 0.003306 -0.017201 0.007267
v 0.003576 -0.016230 0.006991
v 0.003763 -0.016011 0.006944
v 0.003804 -0.015713 0.006887
v 0.003919 -0.015345 0.006866
v 0.004413 -0.014769 0.006857
v 0.005725 -0.013942 0.006869
v 0.005969 -0.013870 0.006885
v 0.006403 -0.014205 0.007096
v 0.008407 -0.014105 0.008227
v 0.010118 -0.015546 0.009601
v 0.011693 -0.016096 0.011041
v 0.012416 -0.015755 0.011975
v 0.013140 -0.016700 0.012978
v 0.013696 -0.017112 0.014095
v 0.014207 -0.018122 0.016122
v 0.014516 -0.018349 0.018612
v 0.014427 -0.020124 0.019749
v 0.013931 -0.021449 0.020257
v 0.013671 -0.021947 0.020578
v 0.013556 -0.022124 0.020693
v 0.013306 -0.022385 0.020862
v 0.013074 -0.022577 0.021069
v 0.012736 -0.022831 0.021332
v 0.012215 -0.023301 0.021517
v 0.011544 -0.023910 0.021176
v 0.010424 -0.024741 0.020959
v 0.010012 -0.024995 0.020892
v 0.009647 -0.025137 0.020478
v 0.008874 -0.025349 0.020268
v 0.008348 -0.025446 0.020046
v 0.008271 -0.025464 0.019985
v 0.007694 -0.025621 0.019640
v 0.007281 -0.025713 0.019311
v 0.006790 -0.025790 0.018746
v 0.005826 -0.025864 0.017775
v 0.004867 -0.025883 0.017183
v 0.003078 -0.025592 0.015324
v 0.002946 -0.025560 0.015167
v 0.002930 -0.025461 0.014932
v 0.001791 -0.024791 0.013521
v 0.001495 -0.023863 0.012269
v 0.000967 -0.023272 0.011587
v 0.000861 -0.023075 0.011363
v 0.000781 -0.022845 0.011105
v 0.000711 -0.022569 0.010823
v 0.000928 -0.021603 0.010019
v 0.001446 -0.021401 0.009729
v 0.001538 -0.022917 0.011169
v 0.007646 -0.018046 0.008330
v 0.012726 -0.022715 0.017646
v 0.003750 -0.024273 0.012782
v 0.002020 -0.021795 0.010022
v 0.011403 -0.017494 0.010804
v 0.005991 -0.020859 0.009300
v 0.005490 -0.015454 0.007126
v 0.004768 -0.017719 0.007593
v 0.008203 -0.015858 0.008183
v 0.011057 -0.024243 0.019098
v 0.013710 -0.020283 0.015205
v 0.013022 -0.022602 0.020441
v 0.013833 -0.021209 0.018778
v 0.003869 -0.025450 0.015150
v 0.009529 -0.018195 0.009460
v 0.012364 -0.016861 0.011799
v 0.010359 -0.022161 0.013176
v 0.004178 -0.022888 0.010941
v 0.004396 -0.019569 0.008350
v 0.003892 -0.021215 0.009424
v 0.006781 -0.019646 0.008715
v 0.008629 -0.025355 0.019217
v 0.014093 -0.019714 0.016819
v 0.013196 -0.021457 0.015971
v 0.013751 -0.019184 0.014699
v 0.011553 -0.020696 0.012606
v 0.011810 -0.021863 0.014240
v 0.007955 -0.024626 0.014681
v 0.008181 -0.021758 0.011148
v 0.008338 -0.019436 0.009227
v 0.012616 -0.018643 0.012535
v 0.010859 -0.019505 0.011035
v 0.011580 -0.023261 0.016155
v 0.013008 -0.020454 0.014089
v 0.006267 -0.024494 0.013599
v 0.006072 -0.025490 0.016177
v 0.008345 -0.025103 0.016452
v 0.009232 -0.023622 0.014092
v 0.009868 -0.021180 0.011663
v 0.007557 -0.020762 0.009814
v 0.006166 -0.022227 0.010635
v 0.010666 -0.022981 0.014514
v 0.005545 -0.023629 0.011954
v 0.010242 -0.024519 0.017009
v 0.007836 -0.023838 0.013354
v 0.008735 -0.022668 0.012526
v 0.008967 -0.024472 0.015105
v 0.009176 -0.020193 0.010291
v 0.007122 -0.023266 0.012207
v 0.009948 -0.024101 0.015460
f 3 4 2
f 8 9 7
f 8 7 6
f 10 9 8
f 14 13 4
f 7 16 15
f 9 17 16
f 9 16 7
f 21 22 20
f 21 20 19
f 23 24 22
f 23 22 21
f 25 26 23
f 26 24 23
f 27 28 25
f 28 26 25
f 20 30 29
f 22 31 30
f 22 30 20
f 24 32 31
f 24 31 22
f 26 33 24
f 33 32 24
f 28 34 26
f 34 33 26
f 35 34 28
f 1 29 36
f 30 37 36
f 30 36 29
f 31 38 37
f 31 37 30
f 32 39 38
f 32 38 31
f 33 40 32
f 40 39 32
f 34 41 33
f 41 40 33
f 35 42 34
f 42 41 34
f 42 35 11
f 45 21 19
f 45 19 44
f 46 23 21
f 46 21 45
f 47 25 46
f 25 23 46
f 48 27 47
f 27 25 47
f 1 12 43
f 13 44 12
f 44 43 12
f 14 45 13
f 45 44 13
f 15 46 14
f 46 45 14
f 16 47 46
f 16 46 15
f 17 48 47
f 17 47 16
f 18 49 48
f 18 48 17
f 49 18 11
f 50 51 52
f 53 54 52
f 53 52 51
f 55 56 54
f 55 54 53
f 57 58 56
f 57 56 55
f 59 60 57
f 60 58 57
f 61 62 59
f 62 60 59
f 63 64 61
f 64 62 61
f 64 63 65
f 50 52 66
f 54 67 52
f 67 66 52
f 56 68 54
f 68 67 54
f 58 69 56
f 69 68 56
f 60 70 69
f 60 69 58
f 62 71 70
f 62 70 60
f 64 72 71
f 64 71 62
f 72 64 65
f 74 55 73
f 55 53 73
f 75 57 74
f 57 55 74
f 76 59 57
f 76 57 75
f 77 61 59
f 77 59 76
f 78 77 76
f 79 77 78
f 50 66 80
f 67 81 80
f 67 80 66
f 68 82 81
f 68 81 67
f 69 83 82
f 69 82 68
f 70 84 69
f 84 83 69
f 71 85 70
f 85 84 70
f 72 86 71
f 86 85 71
f 86 72 65
f 50 80 87
f 81 88 87
f 81 87 80
f 82 89 88
f 82 88 81
f 83 90 89
f 83 89 82
f 84 91 83
f 91 90 83
f 85 92 84
f 92 91 84
f 86 93 85
f 93 92 85
f 93 86 65
f 50 87 94
f 88 95 94
f 88 94 87
f 89 96 95
f 89 95 88
f 90 96 89
f 91 97 90
f 92 98 91
f 98 97 91
f 93 99 92
f 99 98 92
f 99 93 65
f 94 100 101
f 94 101 50
f 95 102 100
f 95 100 94
f 96 103 102
f 96 102 95
f 98 105 97
f 105 104 97
f 99 106 98
f 106 105 98
f 65 107 99
f 107 106 99
f 107 65 108
f 65 79 108
f 100 109 110
f 100 110 101
f 102 109 100
f 106 112 105
f 107 113 106
f 113 112 106
f 128 129 127
f 125 124 129
f 125 129 128
f 36 118 1
f 42 128 41
f 11 125 42
f 125 128 42
f 129 115 127
f 109 116 110
f 116 117 110
f 119 116 109
f 112 123 122
f 113 124 123
f 113 123 112
f 1 2 12
f 4 13 2
f 13 12 2
f 10 17 9
f 18 10 11
f 10 18 17
f 1 43 29
f 19 20 29
f 44 19 29
f 44 29 43
f 35 27 48
f 35 28 27
f 35 49 11
f 49 35 48
f 73 53 51
f 63 61 77
f 79 63 77
f 63 79 65
f 108 79 78
f 108 78 115
f 129 108 115
f 113 107 108
f 124 113 108
f 124 108 129
f 39 126 38
f 128 127 41
f 41 127 40
f 116 2 117
f 2 118 117
f 2 1 118
f 119 3 116
f 3 2 116
f 120 5 119
f 5 3 119
f 122 6 121
f 122 8 6
f 123 8 122
f 123 10 8
f 124 10 123
f 124 125 10
f 125 11 10
f 102 119 109
f 103 119 102
f 103 120 119
f 105 122 104
f 112 122 105
f 122 121 104
f 75 74 114
f 134 126 135
f 137 39 138
f 142 127 143
f 130 131 150
f 151 150 131
f 131 132 151
f 152 151 132
f 132 133 152
f 133 134 152
f 153 152 134
f 134 135 153
f 154 153 135
f 135 136 154
f 136 137 154
f 142 143 155
f 143 144 155
f 156 155 144
f 144 145 156
f 145 146 156
f 157 156 146
f 146 147 157
f 150 151 160
f 160 159 150
f 151 152 161
f 161 160 151
f 152 153 162
f 162 161 152
f 153 154 163
f 163 162 153
f 165 158 176
f 166 176 158
f 158 159 167
f 167 166 158
f 159 160 168
f 168 167 159
f 160 161 168
f 169 168 161
f 161 162 169
f 170 169 162
f 162 163 170
f 171 170 163
f 176 166 193
f 177 193 166
f 166 167 178
f 178 177 166
f 169 170 179
f 180 179 170
f 170 171 180
f 171 172 181
f 182 181 172
f 183 182 172
f 173 174 188
f 188 187 173
f 189 188 174
f 190 189 175
f 193 192 176
f 193 177 205
f 194 205 177
f 181 182 196
f 197 196 182
f 182 183 198
f 198 197 182
f 183 184 199
f 199 198 183
f 184 185 199
f 200 199 185
f 185 186 201
f 201 200 185
f 186 187 202
f 202 201 186
f 187 188 203
f 203 202 187
f 189 190 204
f 205 194 211
f 198 199 206
f 199 200 207
f 207 206 199
f 200 201 208
f 208 207 200
f 201 202 209
f 209 208 201
f 202 203 210
f 210 209 202
f 206 207 212
f 213 212 207
f 207 208 214
f 214 213 207
f 208 209 214
f 215 214 209
f 209 210 216
f 216 215 209
f 212 213 218
f 219 218 213
f 213 214 220
f 220 219 213
f 214 215 221
f 221 220 214
f 215 216 222
f 222 221 215
f 218 219 223
f 224 223 219
f 219 220 225
f 225 224 219
f 220 221 225
f 226 225 221
f 221 222 226
f 227 226 222
f 225 226 228
f 229 228 226
f 226 227 229
f 230 229 227
f 228 229 231
f 229 230 232
f 232 231 229
f 130 75 131
f 114 132 131
f 75 114 131
f 132 114 133
f 126 134 133
f 114 126 133
f 135 126 136
f 39 137 136
f 126 39 136
f 138 39 139
f 40 140 139
f 39 40 139
f 140 40 141
f 127 142 141
f 40 127 141
f 143 127 144
f 115 145 144
f 127 115 144
f 78 146 145
f 145 115 78
f 146 78 147
f 76 148 147
f 78 76 147
f 75 130 149
f 148 76 149
f 76 75 149
f 184 183 172
f 234 228 235
f 236 231 237
f 237 231 238
f 239 232 240
f 240 232 241
f 245 223 246
f 246 223 247
f 248 250 247
f 247 250 246
f 246 250 245
f 236 251 235
f 250 234 251
f 235 251 234
f 239 253 238
f 238 253 237
f 237 253 236
f 251 236 253
f 254 249 255
f 257 240 241
f 255 259 254
f 253 260 251
f 261 255 252
f 252 262 261
f 262 256 261
f 252 263 262
f 264 260 253
f 257 264 240
f 240 264 239
f 253 239 264
f 264 265 260
f 261 256 265
f 260 265 256
f 265 264 259
f 261 265 255
f 259 255 265
f 225 228 234
f 228 231 236
f 235 228 236
f 232 239 238
f 238 231 232
f 241 232 230
f 223 245 244
f 218 223 244
f 224 248 247
f 247 223 224
f 248 224 233
f 234 250 233
f 233 224 234
f 224 225 234
f 233 250 248
f 266 50 267
f 270 117 271
f 272 118 273
f 281 114 282
f 282 114 283
f 285 73 286
f 288 266 305
f 289 305 266
f 266 267 289
f 290 289 267
f 267 268 290
f 268 269 290
f 291 290 269
f 269 270 291
f 270 271 291
f 292 291 271
f 271 272 292
f 293 292 272
f 272 273 293
f 294 293 273
f 273 274 294
f 295 294 274
f 274 275 295
f 296 295 275
f 275 276 296
f 276 277 296
f 297 296 277
f 277 278 297
f 298 297 278
f 278 279 298
f 299 298 279
f 279 280 299
f 280 281 299
f 300 299 281
f 281 282 300
f 282 283 300
f 301 300 283
f 283 284 301
f 284 285 301
f 302 301 285
f 303 302 285
f 285 286 303
f 304 303 286
f 286 287 304
f 287 288 304
f 305 304 288
f 305 289 322
f 306 322 289
f 289 290 306
f 307 306 290
f 290 291 307
f 308 307 291
f 291 292 308
f 309 308 292
f 292 293 310
f 310 309 292
f 293 294 311
f 311 310 293
f 294 295 312
f 312 311 294
f 295 296 313
f 313 312 295
f 296 297 314
f 314 313 296
f 297 298 315
f 315 314 297
f 298 299 316
f 316 315 298
f 299 300 317
f 317 316 299
f 300 301 317
f 318 317 301
f 301 302 318
f 319 318 302
f 302 303 319
f 320 319 303
f 303 304 320
f 321 320 304
f 304 305 321
f 322 321 305
f 322 306 338
f 323 338 306
f 306 307 323
f 324 323 307
f 307 308 324
f 325 324 308
f 308 309 325
f 326 325 309
f 309 310 327
f 327 326 309
f 310 311 327
f 328 327 311
f 311 312 328
f 329 328 312
f 312 313 330
f 330 329 312
f 314 315 331
f 315 316 332
f 332 331 315
f 316 317 333
f 333 332 316
f 317 318 334
f 334 333 317
f 318 319 334
f 335 334 319
f 319 320 335
f 336 335 320
f 320 321 336
f 337 336 321
f 321 322 338
f 338 337 321
f 338 323 339
f 323 324 339
f 324 325 339
f 325 326 339
f 326 327 339
f 327 328 339
f 328 329 339
f 329 330 339
f 331 332 339
f 332 333 339
f 333 334 339
f 334 335 339
f 335 336 339
f 336 337 339
f 337 338 339
f 50 101 268
f 267 50 268
f 101 110 269
f 268 101 269
f 110 117 270
f 269 110 270
f 118 272 271
f 271 117 118
f 36 274 273
f 273 118 36
f 36 37 275
f 274 36 275
f 37 277 276
f 275 37 276
f 37 38 278
f 277 37 278
f 38 126 279
f 278 38 279
f 279 126 280
f 114 281 280
f 126 114 280
f 114 74 284
f 283 114 284
f 73 285 284
f 284 74 73
f 51 287 286
f 286 73 51
f 287 51 288
f 50 266 288
f 51 50 288
f 313 314 330
f 331 330 314
f 330 331 339
f 343 104 344
f 348 103 349
f 352 340 364
f 353 364 340
f 354 353 340
f 341 342 355
f 356 355 342
f 342 343 356
f 343 344 356
f 357 356 344
f 344 345 357
f 358 357 345
f 345 346 358
f 359 358 346
f 360 359 346
f 346 347 360
f 361 360 347
f 347 348 361
f 362 361 348
f 348 349 362
f 349 350 362
f 363 362 350
f 350 351 363
f 351 352 363
f 364 363 352
f 364 353 376
f 365 376 353
f 353 354 365
f 366 365 354
f 355 356 367
f 368 367 356
f 356 357 368
f 369 368 357
f 357 358 369
f 370 369 358
f 358 359 370
f 371 370 359
f 359 360 372
f 372 371 359
f 360 361 373
f 373 372 360
f 361 362 374
f 374 373 361
f 362 363 375
f 375 374 362
f 363 364 376
f 376 375 363
f 376 365 388
f 377 388 365
f 365 366 377
f 378 377 366
f 367 368 379
f 380 379 368
f 368 369 381
f 381 380 368
f 369 370 382
f 382 381 369
f 370 371 382
f 383 382 371
f 371 372 384
f 384 383 371
f 372 373 385
f 385 384 372
f 373 374 385
f 386 385 374
f 374 375 387
f 387 386 374
f 375 376 388
f 388 387 375
f 388 377 399
f 389 399 377
f 377 378 389
f 390 389 378
f 379 380 392
f 392 391 379
f 380 381 393
f 393 392 380
f 381 382 394
f 394 393 381
f 382 383 394
f 384 385 395
f 396 395 385
f 385 386 396
f 397 396 386
f 386 387 397
f 398 397 387
f 387 388 399
f 399 398 387
f 399 389 400
f 389 390 400
f 391 392 400
f 392 393 400
f 393 394 400
f 395 396 400
f 396 397 400
f 397 398 400
f 398 399 400
f 340 90 97
f 341 97 342
f 104 343 342
f 97 104 342
f 121 345 344
f 344 104 121
f 111 346 345
f 345 121 111
f 111 120 347
f 346 111 347
f 120 103 348
f 347 120 348
f 349 103 96
f 350 349 96
f 96 351 350
f 351 96 352
f 90 340 352
f 96 90 352
f 340 341 354
f 341 340 97
f 355 354 341
f 354 355 366
f 367 366 355
f 366 367 378
f 379 378 367
f 378 379 391
f 391 390 378
f 390 391 400
f 383 384 394
f 395 394 384
f 394 395 400
f 404 6 405
f 412 5 413
f 414 401 424
f 415 424 401
f 401 402 415
f 416 415 402
f 402 403 416
f 417 416 403
f 403 404 417
f 404 405 417
f 418 417 405
f 405 406 418
f 406 407 418
f 419 418 407
f 420 419 407
f 407 408 420
f 421 420 408
f 410 411 422
f 423 422 411
f 411 412 423
f 412 413 423
f 413 414 423
f 424 423 414
f 424 415 433
f 425 433 415
f 415 416 425
f 426 425 416
f 416 417 426
f 427 426 417
f 417 418 428
f 428 427 417
f 418 419 429
f 429 428 418
f 419 420 429
f 420 421 430
f 422 423 432
f 432 431 422
f 423 424 433
f 433 432 423
f 433 425 442
f 434 442 425
f 425 426 434
f 435 434 426
f 426 427 436
f 436 435 426
f 427 428 437
f 437 436 427
f 428 429 438
f 438 437 428
f 431 432 440
f 441 440 432
f 432 433 441
f 442 441 433
f 442 434 450
f 435 436 443
f 444 443 436
f 436 437 445
f 445 444 436
f 437 438 446
f 446 445 437
f 440 441 448
f 449 448 441
f 441 442 449
f 450 449 442
f 443 444 451
f 452 451 444
f 444 445 452
f 453 452 445
f 445 446 453
f 454 453 446
f 448 449 457
f 457 456 448
f 449 450 458
f 458 457 449
f 451 452 459
f 452 453 459
f 453 454 459
f 456 457 459
f 457 458 459
f 111 402 401
f 401 120 111
f 121 403 402
f 402 111 121
f 6 404 403
f 403 121 6
f 7 406 405
f 405 6 7
f 406 7 407
f 15 408 407
f 7 15 407
f 410 409 14
f 413 5 414
f 120 401 414
f 5 120 414
f 408 409 421
f 408 15 409
f 409 15 14
f 5 411 3
f 411 5 412
f 411 4 3
f 411 14 4
f 14 411 410
f 409 410 421
f 422 421 410
f 430 429 420
f 429 430 439
f 421 422 430
f 431 430 422
f 439 438 429
f 438 439 447
f 430 431 439
f 440 439 431
f 434 435 450
f 443 450 435
f 447 446 438
f 446 447 455
f 439 440 447
f 448 447 440
f 447 448 456
f 450 443 458
f 451 458 443
f 458 451 459
f 455 454 446
f 454 455 459
f 456 455 447
f 455 456 459
f 461 462 469
f 470 469 462
f 472 471 463
f 463 464 472
f 473 472 464
f 464 465 473
f 465 466 473
f 474 473 466
f 467 468 477
f 477 476 467
f 478 477 468
f 475 476 480
f 480 479 475
f 476 477 481
f 481 480 476
f 477 478 482
f 482 481 477
f 480 481 484
f 484 483 480
f 481 482 485
f 485 484 481
f 486 485 482
f 149 130 460
f 130 150 461
f 460 130 461
f 461 150 462
f 463 159 464
f 158 465 464
f 159 158 464
f 158 165 466
f 465 158 466
f 462 463 470
f 463 462 150
f 471 470 463
f 150 159 463
f 460 461 468
f 469 468 461
f 468 469 478
f 478 486 482
f 486 478 469
f 469 470 486
f 487 154 488
f 487 488 498
f 490 491 501
f 491 492 501
f 502 501 492
f 492 493 502
f 493 494 502
f 503 502 494
f 504 503 494
f 494 495 504
f 495 496 504
f 505 504 496
f 496 497 505
f 498 499 507
f 507 506 498
f 501 502 514
f 514 513 501
f 502 503 515
f 515 514 502
f 503 504 516
f 516 515 503
f 504 505 517
f 517 516 504
f 506 507 518
f 520 519 508
f 521 520 508
f 523 522 509
f 510 511 524
f 525 524 511
f 513 514 528
f 528 527 513
f 514 515 529
f 529 528 514
f 515 516 530
f 530 529 515
f 516 517 531
f 531 530 516
f 520 521 535
f 535 534 520
f 521 522 535
f 536 535 522
f 522 523 536
f 537 536 523
f 524 525 539
f 539 538 524
f 527 528 541
f 542 541 528
f 528 529 542
f 543 542 529
f 529 530 544
f 544 543 529
f 530 531 544
f 545 544 531
f 532 533 546
f 547 546 533
f 534 535 549
f 549 548 534
f 535 536 549
f 550 549 536
f 536 537 551
f 551 550 536
f 541 542 554
f 555 554 542
f 542 543 555
f 543 544 556
f 544 545 556
f 557 556 545
f 546 547 558
f 559 558 547
f 548 549 561
f 561 560 548
f 549 550 562
f 562 561 549
f 550 551 563
f 563 562 550
f 564 563 551
f 566 565 552
f 554 555 568
f 569 568 555
f 571 570 556
f 556 557 571
f 572 571 557
f 558 559 573
f 574 573 559
f 560 561 576
f 576 575 560
f 561 562 576
f 577 576 562
f 562 563 578
f 578 577 562
f 564 565 579
f 565 566 580
f 580 579 565
f 568 569 582
f 583 582 569
f 569 570 583
f 571 572 584
f 585 584 572
f 573 574 586
f 575 576 586
f 576 577 586
f 577 578 586
f 579 580 586
f 582 583 586
f 584 585 586
f 137 138 489
f 490 184 491
f 172 492 491
f 184 172 491
f 172 494 493
f 492 172 493
f 171 495 494
f 494 172 171
f 163 496 495
f 495 171 163
f 496 163 497
f 487 497 163
f 163 154 487
f 488 489 498
f 488 154 489
f 154 137 489
f 499 498 489
f 490 185 184
f 501 500 490
f 500 501 513
f 497 487 505
f 498 505 487
f 505 498 506
f 507 508 519
f 512 511 500
f 511 512 525
f 513 512 500
f 512 513 527
f 506 517 505
f 517 506 518
f 519 518 507
f 518 519 533
f 533 532 518
f 509 510 523
f 524 523 510
f 523 524 538
f 526 525 512
f 525 526 539
f 527 526 512
f 526 527 541
f 518 531 517
f 531 518 532
f 519 520 533
f 534 533 520
f 538 537 523
f 537 538 552
f 540 539 526
f 541 540 526
f 540 541 554
f 532 545 531
f 533 534 547
f 548 547 534
f 552 551 537
f 551 552 565
f 565 564 551
f 538 539 552
f 539 540 552
f 553 552 540
f 554 553 540
f 553 554 568
f 556 555 543
f 555 556 570
f 570 569 555
f 545 532 557
f 546 557 532
f 547 548 559
f 560 559 548
f 567 566 552
f 552 553 567
f 568 567 553
f 567 568 582
f 557 546 572
f 558 572 546
f 559 560 574
f 575 574 560
f 574 575 586
f 563 564 578
f 579 578 564
f 578 579 586
f 566 567 581
f 581 580 566
f 580 581 586
f 582 581 567
f 581 582 586
f 570 571 583
f 584 583 571
f 583 584 586
f 572 558 585
f 573 585 558
f 585 573 586
f 588 483 589
f 589 483 590
f 592 486 593
f 593 486 594
f 597 473 598
f 599 474 600
f 600 474 601
f 480 483 588
f 590 483 484
f 484 485 591
f 485 486 592
f 591 485 592
f 594 486 470
f 472 473 597
f 596 472 597
f 474 599 598
f 598 473 474
f 479 480 588
f 587 479 588
f 484 591 590
f 596 471 472
f 595 471 596
f 595 470 471
f 470 595 594
f 587 588 602
f 603 602 588
f 588 589 603
f 604 603 589
f 589 590 604
f 605 604 590
f 590 591 605
f 591 592 605
f 606 605 592
f 592 593 606
f 593 594 606
f 607 606 594
f 594 595 607
f 608 607 595
f 595 596 608
f 609 608 596
f 596 597 609
f 610 609 597
f 597 598 610
f 598 599 610
f 611 610 599
f 599 600 611
f 600 601 611
f 612 611 601
f 615 602 616
f 602 603 617
f 617 616 602
f 603 604 618
f 618 617 603
f 604 605 619
f 619 618 604
f 605 606 619
f 620 619 606
f 606 607 620
f 621 620 607
f 607 608 621
f 622 621 608
f 608 609 622
f 623 622 609
f 609 610 623
f 624 623 610
f 610 611 624
f 625 624 611
f 611 612 626
f 626 625 611
f 612 613 627
f 627 626 612
f 613 614 628
f 628 627 613
f 616 617 630
f 630 629 616
f 617 618 631
f 631 630 617
f 618 619 632
f 632 631 618
f 619 620 632
f 633 632 620
f 620 621 633
f 634 633 621
f 621 622 634
f 635 634 622
f 622 623 635
f 636 635 623
f 623 624 636
f 637 636 624
f 624 625 637
f 638 637 625
f 625 626 639
f 639 638 625
f 626 627 640
f 640 639 626
f 627 628 641
f 641 640 627
f 629 630 643
f 643 642 629
f 630 631 644
f 644 643 630
f 631 632 645
f 645 644 631
f 632 633 646
f 646 645 632
f 633 634 646
f 647 646 634
f 634 635 647
f 648 647 635
f 635 636 648
f 649 648 636
f 636 637 649
f 650 649 637
f 637 638 650
f 651 650 638
f 638 639 652
f 652 651 638
f 639 640 653
f 653 652 639
f 640 641 654
f 654 653 640
f 642 643 656
f 656 655 642
f 643 644 657
f 657 656 643
f 644 645 658
f 658 657 644
f 645 646 659
f 659 658 645
f 646 647 659
f 660 659 647
f 647 648 660
f 661 660 648
f 648 649 661
f 662 661 649
f 649 650 662
f 663 662 650
f 650 651 663
f 664 663 651
f 651 652 665
f 665 664 651
f 652 653 666
f 666 665 652
f 653 654 667
f 667 666 653
f 655 656 669
f 669 668 655
f 656 657 670
f 670 669 656
f 657 658 671
f 671 670 657
f 658 659 672
f 672 671 658
f 659 660 672
f 673 672 660
f 660 661 673
f 674 673 661
f 661 662 674
f 675 674 662
f 662 663 675
f 676 675 663
f 663 664 676
f 677 676 664
f 664 665 678
f 678 677 664
f 665 666 679
f 679 678 665
f 666 667 680
f 680 679 666
f 668 669 681
f 669 670 681
f 670 671 681
f 671 672 681
f 672 673 681
f 673 674 681
f 674 675 681
f 675 676 681
f 676 677 681
f 677 678 681
f 678 679 681
f 679 680 681
f 616 628 615
f 628 616 629
f 614 615 628
f 629 641 628
f 641 629 642
f 642 654 641
f 654 642 655
f 655 667 654
f 667 655 668
f 668 680 667
f 680 668 681
f 682 178 683
f 686 195 687
f 691 690 682
f 682 683 691
f 684 685 693
f 685 686 693
f 694 693 686
f 686 687 694
f 695 694 687
f 697 696 688
f 700 699 689
f 689 690 700
f 701 700 690
f 690 691 702
f 702 701 690
f 691 692 702
f 703 702 692
f 693 694 704
f 705 704 694
f 694 695 706
f 706 705 694
f 695 696 707
f 707 706 695
f 696 697 708
f 708 707 696
f 709 708 697
f 717 698 737
f 718 737 698
f 698 699 719
f 719 718 698
f 699 700 719
f 720 719 700
f 700 701 720
f 721 720 701
f 701 702 722
f 722 721 701
f 702 703 723
f 723 722 702
f 704 705 724
f 725 724 705
f 705 706 726
f 726 725 705
f 706 707 727
f 727 726 706
f 707 708 728
f 728 727 707
f 708 709 729
f 729 728 708
f 709 710 730
f 730 729 709
f 710 711 731
f 731 730 710
f 712 713 732
f 733 732 713
f 713 714 733
f 734 733 714
f 714 715 734
f 735 734 715
f 715 716 735
f 736 735 716
f 737 718 758
f 738 758 718
f 718 719 738
f 739 738 719
f 719 720 739
f 740 739 720
f 720 721 740
f 741 740 721
f 721 722 741
f 742 741 722
f 722 723 742
f 743 742 723
f 724 725 745
f 745 744 724
f 725 726 746
f 746 745 725
f 726 727 747
f 747 746 726
f 727 728 748
f 748 747 727
f 728 729 749
f 749 748 728
f 729 730 750
f 750 749 729
f 730 731 751
f 751 750 730
f 732 733 752
f 753 752 733
f 733 734 753
f 754 753 734
f 734 735 754
f 755 754 735
f 735 736 755
f 756 755 736
f 758 757 737
f 758 738 779
f 759 779 738
f 738 739 760
f 760 759 738
f 739 740 761
f 761 760 739
f 740 741 762
f 762 761 740
f 741 742 763
f 763 762 741
f 742 743 764
f 764 763 742
f 744 745 765
f 766 765 745
f 745 746 766
f 767 766 746
f 746 747 767
f 768 767 747
f 747 748 768
f 769 768 748
f 748 749 769
f 770 769 749
f 749 750 771
f 771 770 749
f 750 751 772
f 772 771 750
f 752 753 773
f 774 773 753
f 753 754 774
f 775 774 754
f 754 755 775
f 776 775 755
f 755 756 776
f 777 776 756
f 756 757 777
f 778 777 757
f 757 758 779
f 779 778 757
f 779 759 795
f 760 761 780
f 781 780 761
f 761 762 781
f 782 781 762
f 762 763 782
f 783 782 763
f 763 764 784
f 784 783 763
f 765 766 786
f 786 785 765
f 766 767 787
f 787 786 766
f 767 768 788
f 788 787 767
f 768 769 789
f 789 788 768
f 769 770 790
f 790 789 769
f 770 771 791
f 791 790 770
f 771 772 792
f 792 791 771
f 775 776 793
f 778 779 794
f 795 794 779
f 780 781 796
f 781 782 796
f 782 783 796
f 783 784 796
f 785 786 796
f 786 787 796
f 787 788 796
f 788 789 796
f 789 790 796
f 790 791 796
f 791 792 796
f 794 795 796
f 195 686 685
f 687 195 217
f 682 177 178
f 682 194 177
f 690 689 682
f 683 684 691
f 692 691 684
f 167 168 684
f 168 169 684
f 684 178 167
f 683 178 684
f 179 684 169
f 684 179 195
f 684 195 685
f 687 688 695
f 688 687 217
f 696 695 688
f 693 692 684
f 692 693 704
f 704 703 692
f 703 704 724
f 711 712 732
f 724 723 703
f 723 724 744
f 732 731 711
f 731 732 752
f 716 717 736
f 737 736 717
f 736 737 757
f 757 756 736
f 744 743 723
f 743 744 765
f 752 751 731
f 751 752 773
f 765 764 743
f 764 765 785
f 773 772 751
f 759 760 795
f 780 795 760
f 795 780 796
f 785 784 764
f 784 785 796
f 772 773 792
f 793 792 773
f 773 774 793
f 774 775 793
f 792 793 796
f 794 793 776
f 793 794 796
f 776 777 794
f 777 778 794
f 797 195 798
f 800 180 801
f 807 797 817
f 808 817 797
f 809 808 797
f 797 798 809
f 810 809 798
f 798 799 810
f 799 800 810
f 811 810 800
f 800 801 811
f 812 811 801
f 814 813 803
f 803 804 814
f 815 814 804
f 817 808 833
f 818 833 808
f 808 809 819
f 819 818 808
f 809 810 820
f 820 819 809
f 810 811 820
f 821 820 811
f 811 812 822
f 822 821 811
f 813 814 823
f 824 823 814
f 814 815 824
f 825 824 815
f 832 831 816
f 833 818 849
f 834 849 818
f 818 819 835
f 835 834 818
f 819 820 836
f 836 835 819
f 820 821 836
f 837 836 821
f 821 822 838
f 838 837 821
f 823 824 840
f 840 839 823
f 824 825 841
f 841 840 824
f 825 826 841
f 842 841 826
f 826 827 843
f 843 842 826
f 827 828 844
f 844 843 827
f 828 829 845
f 845 844 828
f 829 830 846
f 846 845 829
f 830 831 846
f 847 846 831
f 831 832 847
f 848 847 832
f 849 834 865
f 850 865 834
f 834 835 851
f 851 850 834
f 835 836 852
f 852 851 835
f 836 837 852
f 853 852 837
f 839 840 856
f 856 855 839
f 840 841 857
f 857 856 840
f 841 842 858
f 858 857 841
f 842 843 859
f 859 858 842
f 843 844 860
f 860 859 843
f 844 845 861
f 861 860 844
f 845 846 861
f 862 861 846
f 846 847 862
f 863 862 847
f 847 848 863
f 864 863 848
f 865 850 866
f 866 881 865
f 850 851 867
f 867 866 850
f 851 852 868
f 868 867 851
f 852 853 868
f 869 868 853
f 870 869 853
f 855 856 871
f 872 871 856
f 856 857 872
f 873 872 857
f 857 858 873
f 874 873 858
f 858 859 874
f 875 874 859
f 859 860 876
f 876 875 859
f 860 861 877
f 877 876 860
f 861 862 878
f 878 877 861
f 862 863 878
f 879 878 863
f 863 864 880
f 880 879 863
f 881 866 897
f 882 897 866
f 866 867 883
f 883 882 866
f 867 868 883
f 884 883 868
f 868 869 884
f 885 884 869
f 871 872 887
f 888 887 872
f 872 873 889
f 889 888 872
f 873 874 889
f 890 889 874
f 874 875 891
f 891 890 874
f 875 876 892
f 892 891 875
f 876 877 893
f 893 892 876
f 877 878 894
f 894 893 877
f 878 879 894
f 895 894 879
f 879 880 895
f 896 895 880
f 897 882 898
f 898 913 897
f 882 883 899
f 899 898 882
f 883 884 899
f 900 899 884
f 884 885 900
f 901 900 885
f 902 901 885
f 887 888 903
f 904 903 888
f 888 889 904
f 905 904 889
f 889 890 905
f 906 905 890
f 890 891 907
f 907 906 890
f 891 892 908
f 908 907 891
f 892 893 909
f 909 908 892
f 893 894 910
f 910 909 893
f 894 895 910
f 911 910 895
f 895 896 911
f 912 911 896
f 913 898 914
f 898 899 914
f 899 900 914
f 900 901 914
f 901 902 914
f 903 904 914
f 904 905 914
f 905 906 914
f 906 907 914
f 907 908 914
f 908 909 914
f 909 910 914
f 910 911 914
f 911 912 914
f 798 195 179
f 180 800 799
f 799 798 179
f 179 180 799
f 171 181 802
f 181 196 804
f 803 181 804
f 806 217 807
f 195 797 807
f 217 195 807
f 802 180 171
f 801 180 802
f 802 803 813
f 802 181 803
f 805 217 806
f 801 802 812
f 813 812 802
f 812 813 823
f 805 806 816
f 806 807 816
f 817 816 807
f 823 822 812
f 822 823 839
f 816 817 832
f 833 832 817
f 839 838 822
f 838 839 855
f 855 854 838
f 832 833 848
f 849 848 833
f 837 838 854
f 854 853 837
f 853 854 870
f 848 849 864
f 865 864 849
f 864 865 881
f 854 855 870
f 871 870 855
f 870 871 887
f 887 886 870
f 881 880 864
f 880 881 897
f 869 870 886
f 886 885 869
f 885 886 902
f 897 896 880
f 896 897 913
f 886 887 902
f 903 902 887
f 902 903 914
f 913 912 896
f 912 913 914
f 926 216 927
f 915 916 930
f 931 930 916
f 932 931 916
f 916 917 932
f 933 932 917
f 917 918 933
f 934 933 918
f 918 919 934
f 935 934 919
f 919 920 935
f 936 935 920
f 920 921 936
f 921 922 936
f 937 936 922
f 922 923 937
f 938 937 923
f 923 924 938
f 924 925 938
f 939 938 925
f 926 927 941
f 927 928 941
f 942 941 928
f 928 929 942
f 943 942 929
f 943 930 956
f 944 956 930
f 930 931 944
f 945 944 931
f 931 932 946
f 946 945 931
f 932 933 947
f 947 946 932
f 933 934 948
f 948 947 933
f 934 935 949
f 949 948 934
f 936 937 950
f 937 938 951
f 951 950 937
f 938 939 952
f 952 951 938
f 939 940 952
f 953 952 940
f 940 941 953
f 954 953 941
f 941 942 954
f 955 954 942
f 942 943 955
f 956 955 943
f 956 944 969
f 957 969 944
f 944 945 957
f 958 957 945
f 945 946 959
f 959 958 945
f 946 947 960
f 960 959 946
f 947 948 961
f 961 960 947
f 948 949 962
f 962 961 948
f 950 951 964
f 964 963 950
f 951 952 965
f 965 964 951
f 952 953 965
f 966 965 953
f 953 954 966
f 967 966 954
f 954 955 967
f 968 967 955
f 955 956 968
f 969 968 956
f 969 957 982
f 970 982 957
f 957 958 970
f 971 970 958
f 958 959 972
f 972 971 958
f 959 960 973
f 973 972 959
f 960 961 974
f 974 973 960
f 961 962 975
f 975 974 961
f 963 964 977
f 977 976 963
f 964 965 978
f 978 977 964
f 965 966 978
f 979 978 966
f 966 967 979
f 980 979 967
f 967 968 980
f 981 980 968
f 968 969 981
f 982 981 969
f 982 970 983
f 970 971 983
f 971 972 983
f 972 973 983
f 973 974 983
f 974 975 983
f 976 977 983
f 977 978 983
f 978 979 983
f 979 980 983
f 980 981 983
f 981 982 983
f 915 203 188
f 916 915 188
f 188 189 916
f 917 916 189
f 189 918 917
f 189 204 919
f 918 189 919
f 216 210 928
f 927 216 928
f 928 210 929
f 210 203 929
f 203 915 929
f 929 915 943
f 930 943 915
f 222 216 926
f 941 940 926
f 939 925 227
f 940 222 926
f 227 222 940
f 940 939 227
f 935 936 949
f 950 949 936
f 949 950 963
f 963 962 949
f 962 963 976
f 976 975 962
f 975 976 983
f 985 242 986
f 987 805 988
f 992 263 993
f 995 996 997
f 984 997 996
f 985 998 984
f 997 984 998
f 998 985 986
f 989 999 988
f 988 999 987
f 998 987 999
f 994 995 1000
f 997 1000 995
f 993 1000 992
f 998 1001 997
f 1000 997 1001
f 258 242 985
f 984 258 985
f 816 989 988
f 988 805 816
f 831 830 990
f 830 829 991
f 993 263 252
f 258 984 996
f 995 258 996
f 987 217 805
f 986 987 998
f 986 242 987
f 242 217 987
f 990 999 989
f 989 816 990
f 816 831 990
f 990 991 999
f 990 830 991
f 994 1000 993
f 252 994 993
f 1003 1004 1002
f 1003 1005 1004
f 252 255 1002
f 249 1003 1002
f 1002 255 249
f 1008 713 1009
f 1011 1005 1012
f 1014 249 1015
f 1015 249 1016
f 1013 1021 1012
f 1012 1021 1011
f 1016 1022 1015
f 1015 1022 1014
f 1021 1013 1022
f 1022 1023 1021
f 1018 1021 1023
f 1018 1023 1017
f 1006 1007 1024
f 1025 1018 1017
f 1009 1010 1026
f 1026 1019 1024
f 1009 1026 1008
f 1024 1007 1026
f 1017 1027 1025
f 1027 1019 1025
f 1028 1019 1027
f 1029 1017 1020
f 1017 1029 1027
f 1028 1027 1029
f 1024 1031 1030
f 1028 1031 1019
f 1031 1024 1019
f 714 1007 1006
f 1006 715 714
f 712 1010 1009
f 1009 713 712
f 1003 1013 1012
f 1012 1005 1003
f 1016 249 254
f 716 715 1006
f 1024 1030 1006
f 1008 714 713
f 1007 714 1008
f 1008 1026 1007
f 1014 1022 1013
f 1013 1003 1014
f 1003 249 1014
f 1032 256 1033
f 1036 1000 1037
f 1038 1001 1039
f 1039 1001 1040
f 1042 999 1043
f 1043 999 1044
f 1047 243 1048
f 1048 243 1049
f 1051 250 1052
f 1032 1054 1055
f 1053 1054 1056
f 1033 1056 1032
f 1054 1032 1056
f 1035 1058 1034
f 1034 1058 1033
f 1056 1033 1058
f 1059 1051 1052
f 1056 1059 1053
f 1052 1053 1059
f 1049 1060 1048
f 1048 1060 1047
f 1059 1060 1051
f 1050 1051 1060
f 1061 1036 1037
f 1038 1062 1037
f 1037 1062 1061
f 1057 1061 1062
f 1057 1063 1060
f 1060 1063 1047
f 1039 1064 1038
f 1062 1038 1064
f 1064 1039 1040
f 1040 1041 1064
f 1065 1044 1045
f 1044 1065 1043
f 1042 1043 1065
f 1064 1041 1065
f 1042 1065 1041
f 1066 1060 1059
f 1058 1066 1056
f 1059 1056 1066
f 1066 1058 1061
f 1061 1057 1066
f 1060 1066 1057
f 1063 1057 1067
f 1062 1067 1057
f 1067 1062 1064
f 262 1034 1033
f 1033 256 262
f 262 263 1035
f 1034 262 1035
f 992 1000 1036
f 1000 1001 1038
f 1037 1000 1038
f 1001 998 1041
f 1040 1001 1041
f 998 999 1042
f 1041 998 1042
f 991 1045 1044
f 1044 999 991
f 1045 991 829
f 1049 243 244
f 250 1051 1050
f 1050 245 250
f 251 1053 1052
f 1052 250 251
f 260 1054 1053
f 1053 251 260
f 1054 260 1055
f 256 1032 1055
f 260 256 1055
f 263 992 1036
f 1058 1036 1061
f 1035 263 1036
f 1036 1058 1035
f 1046 829 828
f 1045 1046 1065
f 1045 829 1046
f 1050 1060 1049
f 244 1050 1049
f 1050 244 245
f 1068 142 1069
f 1070 155 1071
f 1075 173 1076
f 1077 1075 1076
f 1071 1078 1070
f 1069 1070 1078
f 1069 1078 1068
f 1071 1072 1078
f 1079 1073 1074
f 1077 1079 1075
f 1074 1075 1079
f 1079 1077 1078
f 1078 1072 1079
f 1073 1079 1072
f 141 142 1068
f 155 1070 1069
f 1069 142 155
f 1071 155 164
f 1072 1071 164
f 164 1073 1072
f 164 174 1074
f 1073 164 1074
f 174 173 1075
f 1074 174 1075
f 1081 510 1082
f 1082 510 1083
f 1087 1077 1088
f 1090 173 1091
f 1096 490 1097
f 1097 490 1098
f 1080 1081 1099
f 1097 1098 1100
f 1098 1099 1100
f 1083 1100 1082
f 1082 1100 1081
f 1099 1081 1100
f 1085 1101 1084
f 1100 1084 1101
f 1095 1096 1101
f 1096 1097 1101
f 1100 1101 1097
f 1102 1092 1093
f 1087 1103 1086
f 1101 1104 1095
f 1091 1092 1105
f 1102 1105 1092
f 1091 1105 1090
f 1089 1090 1105
f 1089 1105 1088
f 1103 1087 1105
f 1088 1105 1087
f 1105 1106 1103
f 1104 1101 1106
f 1103 1106 1101
f 1104 1106 1102
f 1106 1105 1102
f 510 1081 1080
f 1080 511 510
f 1083 510 509
f 1077 1087 1086
f 1077 1076 1089
f 1088 1077 1089
f 1076 173 1090
f 1089 1076 1090
f 173 187 1092
f 1091 173 1092
f 187 186 1093
f 1092 187 1093
f 1094 186 185
f 490 1096 1095
f 1095 185 490
f 500 1099 1098
f 1098 490 500
f 1084 1100 1083
f 509 1084 1083
f 1094 1102 1093
f 1093 186 1094
f 1102 1094 1104
f 1104 1094 1095
f 1095 1094 185
f 1099 500 1080
f 500 511 1080
f 1108 499 1109
f 1112 139 1113
f 1113 139 1114
f 1115 140 1116
f 1116 140 1117
f 1118 1068 1119
f 1120 1078 1121
f 1123 1101 1124
f 1127 509 1128
f 1108 1109 1111
f 1109 1110 1111
f 1108 1111 1112
f 1130 1132 1129
f 1129 1132 1128
f 1127 1128 1132
f 1121 1133 1120
f 1119 1120 1133
f 1134 1123 1124
f 1124 1125 1134
f 1126 1127 1134
f 1132 1134 1127
f 1132 1107 1135
f 1136 1116 1117
f 1133 1136 1119
f 1118 1119 1136
f 1134 1137 1123
f 1133 1122 1137
f 1115 1116 1138
f 1136 1138 1116
f 1115 1138 1114
f 1114 1138 1113
f 1113 1138 1112
f 1108 1112 1138
f 1134 1139 1137
f 1136 1133 1139
f 1137 1139 1133
f 1139 1134 1132
f 1136 1139 1138
f 1132 1135 1139
f 1138 1139 1135
f 507 499 1108
f 499 489 1110
f 1109 499 1110
f 138 1111 1110
f 1110 489 138
f 139 1112 1111
f 1111 138 139
f 140 1115 1114
f 1114 139 140
f 1117 140 141
f 1068 1078 1120
f 1119 1068 1120
f 1122 1077 1086
f 1085 1125 1124
f 1124 1101 1085
f 1085 1084 1126
f 1084 509 1127
f 1126 1084 1127
f 509 522 1129
f 1128 509 1129
f 522 521 1130
f 1129 522 1130
f 508 1107 1131
f 521 508 1131
f 508 507 1108
f 1135 1108 1138
f 1107 508 1108
f 1108 1135 1107
f 1117 1118 1136
f 141 1118 1117
f 1118 141 1068
f 1122 1133 1121
f 1121 1078 1122
f 1078 1077 1122
f 1086 1137 1122
f 1123 1103 1101
f 1103 1123 1086
f 1123 1137 1086
f 1125 1126 1134
f 1125 1085 1126
f 1130 1131 1132
f 1130 521 1131
f 1107 1132 1131
f 1141 613 1142
f 1144 601 1145
f 1147 466 1148
f 1140 1141 1144
f 1141 1142 1144
f 1142 1143 1144
f 1140 1144 1145
f 613 1141 1140
f 1140 614 613
f 612 601 1144
f 1143 612 1144
f 601 474 1146
f 1145 601 1146
f 474 466 1147
f 1146 474 1147
f 466 165 1149
f 1148 466 1149
f 1140 1145 1146
f 1142 613 1143
f 613 612 1143
f 1154 467 1155
f 1151 1152 1153
f 149 460 1152
f 1151 149 1152
f 468 1153 1152
f 1152 460 468
f 467 476 1156
f 1155 467 1156
f 1153 468 1154
f 468 467 1154
f 1159 1149 1160
f 1161 165 1162
f 1165 191 1166
f 1165 1168 1164
f 1168 1163 1164
f 1169 1161 1162
f 1162 1163 1169
f 1168 1169 1163
f 1168 1170 1169
f 1166 1167 1170
f 1166 1170 1165
f 1168 1165 1170
f 1161 1171 1160
f 1171 1161 1169
f 1169 1170 1171
f 1149 165 1161
f 1160 1149 1161
f 176 1163 1162
f 1162 165 176
f 192 1164 1163
f 1163 176 192
f 192 191 1165
f 1164 192 1165
f 191 190 1167
f 1166 191 1167
f 1173 475 1174
f 1174 475 1175
f 1175 475 1176
f 1176 475 1177
f 1177 475 1178
f 1183 1157 1184
f 1184 1157 1185
f 1183 1184 1185
f 1181 1182 1187
f 1176 1177 1190
f 1186 1190 1178
f 1177 1178 1190
f 1176 1190 1175
f 1175 1190 1174
f 1187 1191 1181
f 1186 1192 1190
f 476 475 1173
f 1172 476 1173
f 1178 475 479
f 587 602 1179
f 615 1180 1179
f 1179 602 615
f 1158 1157 1183
f 1182 1158 1183
f 1179 479 587
f 479 1179 1178
f 1178 1179 1186
f 1193 1189 1194
f 1195 1188 1196
f 1197 1186 1198
f 1201 1140 1202
f 1206 1148 1207
f 1209 1159 1210
f 1212 1171 1213
f 1214 1170 1215
f 1216 1167 1217
f 1219 175 1220
f 1223 1158 1224
f 1227 1191 1228
f 1201 1202 1203
f 1194 1229 1193
f 1207 1229 1206
f 1230 1196 1197
f 1199 1230 1198
f 1197 1198 1230
f 1205 1231 1204
f 1200 1231 1230
f 1227 1228 1232
f 1229 1232 1228
f 1209 1232 1208
f 1229 1207 1232
f 1208 1232 1207
f 1221 1234 1220
f 1217 1218 1234
f 1218 1219 1234
f 1220 1234 1219
f 1195 1196 1235
f 1230 1235 1196
f 1229 1194 1235
f 1195 1235 1194
f 1235 1230 1231
f 1213 1236 1212
f 1212 1236 1211
f 1232 1209 1236
f 1210 1236 1209
f 1237 1224 1225
f 1225 1226 1237
f 1232 1237 1227
f 1234 1238 1217
f 1216 1217 1238
f 1216 1238 1215
f 1233 1214 1238
f 1215 1238 1214
f 1222 1239 1221
f 1234 1221 1239
f 1234 1239 1238
f 1233 1238 1239
f 1239 1222 1223
f 1236 1240 1232
f 1233 1240 1214
f 1236 1213 1240
f 1241 1233 1239
f 1237 1241 1224
f 1239 1223 1241
f 1224 1241 1223
f 1233 1241 1240
f 1240 1241 1232
f 1237 1232 1241
f 1188 1195 1194
f 1194 1189 1188
f 1179 1199 1198
f 1198 1186 1179
f 1199 1179 1180
f 1200 614 1140
f 1202 1140 1203
f 1140 1146 1203
f 1146 1147 1205
f 1204 1146 1205
f 1147 1148 1206
f 1149 1208 1207
f 1207 1148 1149
f 1159 1209 1208
f 1208 1149 1159
f 1160 1171 1212
f 1211 1160 1212
f 1171 1170 1214
f 1167 1216 1215
f 1215 1170 1167
f 1167 190 1218
f 1217 1167 1218
f 190 175 1219
f 1218 190 1219
f 1158 1223 1222
f 1182 1225 1224
f 1224 1158 1182
f 1181 1226 1225
f 1225 1182 1181
f 1181 1191 1227
f 1196 1192 1197
f 1196 1188 1192
f 1186 1197 1192
f 1199 1180 1230
f 1200 615 614
f 1180 615 1200
f 1200 1230 1180
f 1203 1146 1204
f 1204 1231 1203
f 1205 1206 1231
f 1205 1147 1206
f 1229 1235 1206
f 1231 1206 1235
f 1211 1236 1210
f 1210 1159 1211
f 1211 1159 1160
f 1214 1240 1213
f 1213 1171 1214
f 1226 1227 1237
f 1226 1181 1227
f 1193 1229 1228
f 1228 1191 1193
f 1191 1189 1193
f 1242 164 1243
f 1244 1157 1245
f 1246 1158 1247
f 1249 175 1250
f 1243 1255 1242
f 1253 1254 1255
f 1242 1255 1254
f 1252 1256 1251
f 1256 1250 1251
f 1245 1258 1244
f 1259 1248 1249
f 1256 1259 1250
f 1249 1250 1259
f 1260 1256 1252
f 1255 1260 1253
f 1252 1253 1260
f 1257 1261 1243
f 1261 1255 1243
f 1259 1262 1248
f 1247 1262 1246
f 1258 1245 1262
f 1246 1262 1245
f 1260 1263 1256
f 1263 1259 1256
f 1259 1263 1262
f 1263 1264 1262
f 1261 1257 1264
f 1264 1263 1260
f 1261 1264 1255
f 1260 1255 1264
f 1158 1246 1245
f 1245 1157 1158
f 1247 1158 1222
f 1221 1220 1248
f 1220 175 1249
f 1248 1220 1249
f 175 189 1251
f 1250 175 1251
f 1251 189 1252
f 1253 1252 189
f 189 174 1253
f 1253 174 1254
f 1242 1254 174
f 174 164 1242
f 1200 1201 1231
f 1140 1201 1200
f 1203 1231 1201
f 1222 1221 1248
f 1247 1248 1262
f 1222 1248 1247
f 1267 1065 1268
f 1268 1065 1269
f 1274 815 1275
f 1275 815 1276
f 1277 196 1278
f 1279 197 1280
f 1280 197 1281
f 1284 212 1285
f 1286 218 1287
f 1291 1063 1292
f 1268 1269 1294
f 1270 1294 1269
f 1296 1266 1267
f 1267 1268 1296
f 1294 1296 1268
f 1297 1274 1275
f 1275 1276 1297
f 1274 1297 1273
f 1265 1266 1298
f 1296 1298 1266
f 1295 1299 1297
f 1299 1295 1298
f 1294 1299 1296
f 1298 1296 1299
f 1295 1300 1298
f 1290 1291 1300
f 1291 1292 1300
f 1292 1293 1300
f 1298 1300 1293
f 1282 1301 1281
f 1280 1281 1301
f 1282 1283 1301
f 1302 1297 1299
f 1299 1294 1302
f 1294 1271 1302
f 1297 1302 1273
f 1303 1287 1288
f 1288 1289 1303
f 1304 1278 1279
f 1279 1280 1304
f 1301 1304 1280
f 1297 1277 1304
f 1278 1304 1277
f 1297 1304 1295
f 1301 1295 1304
f 1301 1305 1295
f 1305 1300 1295
f 1300 1305 1303
f 1306 1303 1305
f 1305 1301 1306
f 1283 1306 1301
f 1285 1286 1306
f 1286 1287 1306
f 1303 1306 1287
f 1285 1306 1284
f 1283 1284 1306
f 1064 1266 1265
f 1265 1067 1064
f 1064 1065 1267
f 1266 1064 1267
f 1046 1270 1269
f 1269 1065 1046
f 1272 827 826
f 815 1274 1273
f 1273 825 815
f 1276 815 804
f 196 197 1279
f 1278 196 1279
f 198 1282 1281
f 1281 197 198
f 198 206 1283
f 1282 198 1283
f 206 212 1284
f 1283 206 1284
f 212 218 1286
f 1285 212 1286
f 244 1288 1287
f 1287 218 244
f 243 1289 1288
f 1288 244 243
f 1063 1291 1290
f 1290 1047 1063
f 1067 1293 1292
f 1292 1063 1067
f 1271 828 827
f 1046 828 1271
f 1270 1271 1294
f 1270 1046 1271
f 1271 827 1272
f 1302 1271 1272
f 1272 1273 1302
f 826 1273 1272
f 1273 826 825
f 1276 804 1297
f 804 1277 1297
f 196 1277 804
f 1289 1290 1303
f 1289 243 1290
f 1290 243 1047
f 1300 1303 1290
f 1265 1298 1293
f 1293 1067 1265
f 1307 689 1308
f 1309 699 1310
f 1315 1030 1316
f 1316 1030 1317
f 1318 1031 1319
f 1322 211 1323
f 1324 194 1325
f 1308 1328 1307
f 1328 1308 1329
f 1328 1329 1327
f 1326 1327 1329
f 1310 1311 1331
f 1311 1312 1331
f 1310 1331 1309
f 1309 1331 1308
f 1329 1308 1331
f 1332 1316 1317
f 1317 1318 1332
f 1318 1319 1332
f 1316 1332 1315
f 1315 1332 1314
f 1326 1333 1325
f 1330 1324 1333
f 1325 1333 1324
f 1333 1326 1329
f 1320 1334 1319
f 1330 1332 1334
f 1319 1334 1332
f 1335 1329 1331
f 1332 1335 1314
f 1335 1332 1330
f 1330 1333 1335
f 1329 1335 1333
f 689 699 1309
f 1308 689 1309
f 698 1311 1310
f 1310 699 698
f 717 1312 1311
f 1311 698 717
f 717 716 1313
f 1312 717 1313
f 1313 716 1006
f 1030 1315 1314
f 1314 1006 1030
f 1031 1318 1317
f 1317 1030 1031
f 1028 1320 1319
f 1319 1031 1028
f 194 1324 1323
f 1323 211 194
f 1325 194 1326
f 1327 1326 194
f 1307 1328 682
f 689 1307 682
f 1327 682 1328
f 682 1327 194
f 1006 1314 1313
f 1314 1331 1312
f 1312 1313 1314
f 1331 1314 1335
f 1321 1028 1029
f 1334 1320 1321
f 1320 1028 1321
f 1337 710 1338
f 1341 697 1342
f 1344 217 1345
f 1346 242 1347
f 1348 258 1349
f 1349 258 1350
f 1350 258 1351
f 1354 252 1355
f 1355 252 1356
f 1357 1004 1358
f 1359 1005 1360
f 1360 1005 1361
f 1363 1021 1364
f 1366 1025 1367
f 1367 1025 1368
f 1373 712 1374
f 1340 1341 1342
f 1340 1342 1343
f 1370 1371 1372
f 1343 1376 1340
f 1340 1376 1339
f 1338 1339 1376
f 1348 1377 1347
f 1344 1345 1377
f 1345 1346 1377
f 1347 1377 1346
f 1356 1378 1355
f 1354 1355 1378
f 1380 1336 1337
f 1337 1338 1380
f 1376 1380 1338
f 1353 1354 1381
f 1378 1381 1354
f 1360 1382 1359
f 1359 1382 1358
f 1358 1382 1357
f 1365 1366 1383
f 1366 1367 1383
f 1385 1369 1370
f 1385 1379 1383
f 1369 1385 1368
f 1383 1367 1385
f 1368 1385 1367
f 1386 1379 1385
f 1372 1373 1386
f 1374 1386 1373
f 1385 1370 1386
f 1372 1386 1370
f 1387 1376 1343
f 1387 1379 1386
f 1376 1387 1380
f 1388 1351 1352
f 1381 1388 1353
f 1352 1353 1388
f 1382 1360 1389
f 1361 1389 1360
f 1389 1361 1362
f 1362 1363 1389
f 1363 1364 1389
f 1383 1389 1365
f 1364 1365 1389
f 1390 1378 1382
f 1383 1390 1389
f 1382 1389 1390
f 1348 1391 1377
f 1391 1348 1349
f 1349 1350 1391
f 1350 1351 1391
f 1351 1388 1391
f 1392 1344 1377
f 1384 1392 1391
f 1377 1391 1392
f 1344 1392 1343
f 1343 1392 1387
f 1393 1378 1390
f 1378 1393 1381
f 1381 1393 1388
f 1388 1393 1391
f 1384 1391 1393
f 1394 1379 1387
f 1387 1392 1394
f 1384 1394 1392
f 1394 1384 1393
f 1395 1336 1380
f 1386 1395 1387
f 1380 1387 1395
f 1386 1374 1395
f 1396 1379 1394
f 1394 1393 1396
f 1390 1396 1393
f 1379 1396 1383
f 1396 1390 1383
f 711 710 1337
f 1336 711 1337
f 709 1339 1338
f 1338 710 709
f 1339 709 697
f 1340 1339 697
f 697 1341 1340
f 697 688 1343
f 1342 697 1343
f 688 217 1344
f 1343 688 1344
f 217 242 1346
f 1345 217 1346
f 242 258 1348
f 1347 242 1348
f 995 1352 1351
f 1351 258 995
f 994 1353 1352
f 1352 995 994
f 994 252 1354
f 1353 994 1354
f 1356 252 1002
f 1002 1004 1357
f 1004 1005 1359
f 1358 1004 1359
f 1011 1362 1361
f 1361 1005 1011
f 1011 1021 1363
f 1362 1011 1363
f 1018 1365 1364
f 1364 1021 1018
f 1018 1025 1366
f 1365 1018 1366
f 1019 1369 1368
f 1368 1025 1019
f 1026 1370 1369
f 1369 1019 1026
f 1010 1372 1371
f 1371 1026 1010
f 1010 712 1373
f 1372 1010 1373
f 711 1336 1375
f 1357 1378 1356
f 1002 1357 1356
f 1378 1357 1382
f 1370 1026 1371
f 1375 1395 1374
f 1374 712 1375
f 712 711 1375
f 1375 1336 1395
f 1400 157 1401
f 1403 1150 1404
f 1406 1151 1407
f 1410 1155 1411
f 1413 1156 1414
f 1416 1172 1417
f 1420 1190 1421
f 1422 1192 1423
f 1424 1188 1425
f 1426 1189 1427
f 1429 1187 1430
f 1432 1185 1433
f 1433 1185 1434
f 1437 1258 1438
f 1438 1258 1439
f 1441 1257 1442
f 1397 1445 1446
f 1409 1450 1408
f 1408 1450 1407
f 1406 1407 1450
f 1442 1451 1441
f 1448 1452 1447
f 1453 1448 1447
f 1447 1445 1453
f 1448 1453 1454
f 1453 1398 1454
f 1444 1461 1455
f 1452 1448 1461
f 1443 1444 1462
f 1455 1462 1444
f 1463 1428 1429
f 1429 1430 1463
f 1464 1456 1463
f 1463 1430 1464
f 1431 1464 1430
f 1437 1465 1436
f 1456 1464 1465
f 1436 1465 1435
f 1435 1465 1434
f 1434 1465 1433
f 1433 1465 1432
f 1465 1437 1438
f 1462 1455 1467
f 1454 1399 1468
f 1457 1469 1468
f 1448 1454 1469
f 1468 1469 1454
f 1470 1449 1466
f 1409 1471 1450
f 1472 1403 1404
f 1458 1472 1471
f 1458 1473 1472
f 1474 1449 1470
f 1417 1418 1475
f 1418 1419 1475
f 1420 1475 1419
f 1417 1475 1416
f 1416 1475 1415
f 1475 1420 1421
f 1411 1476 1410
f 1471 1410 1476
f 1459 1476 1475
f 1413 1476 1412
f 1413 1414 1476
f 1414 1415 1476
f 1475 1476 1415
f 1477 1458 1471
f 1471 1476 1477
f 1459 1477 1476
f 1458 1477 1474
f 1459 1478 1477
f 1477 1478 1474
f 1449 1474 1478
f 1422 1479 1421
f 1475 1421 1479
f 1479 1422 1423
f 1423 1424 1479
f 1424 1425 1479
f 1460 1480 1479
f 1479 1480 1475
f 1459 1475 1480
f 1459 1480 1478
f 1463 1481 1428
f 1427 1428 1481
f 1427 1481 1426
f 1460 1479 1481
f 1426 1481 1425
f 1479 1425 1481
f 1482 1449 1478
f 1478 1480 1482
f 1460 1482 1480
f 1449 1482 1466
f 1463 1483 1481
f 1483 1460 1481
f 1466 1482 1483
f 1460 1483 1482
f 1463 1456 1483
f 1466 1483 1456
f 1439 1484 1438
f 1465 1438 1484
f 1467 1485 1484
f 1456 1465 1485
f 1484 1485 1465
f 1486 1467 1484
f 1484 1440 1486
f 1440 1441 1486
f 1451 1486 1441
f 1467 1486 1462
f 1467 1487 1485
f 1457 1487 1469
f 1488 1401 1473
f 1401 1488 1400
f 1488 1468 1400
f 1489 1469 1487
f 1487 1467 1489
f 1455 1489 1467
f 1469 1489 1448
f 1455 1461 1489
f 1448 1489 1461
f 1471 1472 1490
f 1472 1404 1490
f 1471 1490 1450
f 1450 1490 1406
f 1405 1406 1490
f 1457 1491 1470
f 1473 1491 1488
f 1457 1468 1491
f 1488 1491 1468
f 1466 1492 1470
f 1485 1492 1456
f 1492 1466 1456
f 1470 1493 1457
f 1493 1487 1457
f 1493 1470 1492
f 1487 1493 1485
f 1492 1485 1493
f 1458 1494 1473
f 1494 1491 1473
f 1494 1458 1474
f 1474 1470 1494
f 1491 1494 1470
f 1398 156 157
f 1401 157 147
f 148 149 1405
f 1151 1406 1405
f 1405 149 1151
f 1153 1408 1407
f 1407 1151 1153
f 1153 1154 1409
f 1408 1153 1409
f 1154 1155 1410
f 1156 476 1415
f 1414 1156 1415
f 1172 1416 1415
f 1415 476 1172
f 1172 1173 1418
f 1417 1172 1418
f 1173 1174 1419
f 1418 1173 1419
f 1174 1190 1420
f 1419 1174 1420
f 1192 1422 1421
f 1421 1190 1192
f 1192 1188 1424
f 1423 1192 1424
f 1188 1189 1426
f 1425 1188 1426
f 1191 1428 1427
f 1427 1189 1191
f 1191 1187 1429
f 1428 1191 1429
f 1182 1431 1430
f 1430 1187 1182
f 1183 1185 1432
f 1157 1435 1434
f 1434 1185 1157
f 1244 1436 1435
f 1435 1157 1244
f 1258 1437 1436
f 1436 1244 1258
f 1439 1258 1262
f 1257 1441 1440
f 1440 1264 1257
f 1243 164 1444
f 1443 1243 1444
f 1445 164 155
f 155 156 1397
f 1446 1445 155
f 1397 1446 155
f 1397 1398 1445
f 1397 156 1398
f 1398 1453 1445
f 157 1399 1398
f 1399 1454 1398
f 1400 1468 1399
f 1399 157 1400
f 1401 1402 1473
f 147 1402 1401
f 1405 1490 1404
f 1404 1150 1405
f 1150 148 1405
f 1409 1410 1471
f 1409 1154 1410
f 1476 1411 1412
f 1411 1155 1412
f 1155 1156 1412
f 1412 1156 1413
f 1464 1431 1432
f 1431 1182 1432
f 1182 1183 1432
f 1464 1432 1465
f 1484 1439 1440
f 1262 1440 1439
f 1440 1262 1264
f 1443 1451 1442
f 1442 1257 1443
f 1257 1243 1443
f 1451 1443 1486
f 1462 1486 1443
f 1461 1444 1452
f 1444 164 1452
f 1452 1445 1447
f 164 1445 1452
f 1496 227 1497
f 1499 923 1500
f 1501 922 1502
f 1504 920 1505
f 1506 204 1507
f 1507 204 1508
f 1513 192 1514
f 1518 211 1519
f 1520 1322 1521
f 1526 1321 1527
f 1527 1321 1528
f 1530 1020 1531
f 1533 1023 1534
f 1537 254 1538
f 1538 254 1539
f 1540 259 1541
f 1544 241 1545
f 1541 1542 1548
f 1542 1543 1548
f 1543 1544 1548
f 1544 1545 1548
f 1539 1540 1551
f 1548 1551 1541
f 1540 1541 1551
f 1495 1552 1547
f 1547 1552 1546
f 1511 1553 1510
f 1508 1555 1507
f 1507 1555 1506
f 1505 1506 1555
f 1505 1555 1504
f 1504 1555 1503
f 1503 1555 1502
f 1549 1556 1555
f 1499 1500 1556
f 1500 1501 1556
f 1555 1556 1502
f 1501 1502 1556
f 1499 1556 1498
f 1557 1549 1555
f 1509 1557 1508
f 1555 1508 1557
f 1557 1509 1510
f 1526 1527 1558
f 1528 1558 1527
f 1526 1558 1525
f 1560 1522 1523
f 1550 1560 1558
f 1523 1524 1560
f 1558 1560 1525
f 1524 1525 1560
f 1522 1560 1521
f 1521 1560 1520
f 1520 1560 1519
f 1519 1560 1518
f 1550 1561 1560
f 1560 1561 1518
f 1538 1562 1537
f 1538 1539 1562
f 1551 1562 1539
f 1563 1549 1557
f 1557 1510 1563
f 1553 1563 1510
f 1513 1564 1512
f 1553 1511 1564
f 1512 1564 1511
f 1566 1551 1548
f 1548 1552 1566
f 1497 1567 1496
f 1556 1567 1498
f 1554 1568 1567
f 1567 1568 1496
f 1552 1495 1568
f 1552 1568 1566
f 1549 1569 1556
f 1556 1569 1567
f 1554 1567 1569
f 1534 1570 1533
f 1533 1570 1532
f 1532 1570 1531
f 1531 1570 1530
f 1530 1570 1529
f 1558 1528 1570
f 1529 1570 1528
f 1516 1571 1515
f 1550 1572 1561
f 1561 1572 1571
f 1559 1571 1572
f 1573 1514 1515
f 1559 1573 1571
f 1515 1571 1573
f 1575 1565 1574
f 1563 1578 1549
f 1578 1569 1549
f 1513 1514 1579
f 1573 1579 1514
f 1513 1579 1564
f 1564 1579 1553
f 1580 1563 1553
f 1574 1580 1579
f 1553 1579 1580
f 1558 1581 1550
f 1550 1581 1572
f 1575 1572 1581
f 1582 1573 1559
f 1575 1582 1572
f 1559 1572 1582
f 1573 1582 1579
f 1579 1582 1574
f 1575 1574 1582
f 1551 1583 1562
f 1584 1536 1562
f 1576 1584 1583
f 1562 1583 1584
f 1576 1585 1584
f 1570 1534 1585
f 1584 1585 1535
f 1534 1535 1585
f 1587 1574 1565
f 1574 1587 1580
f 1588 1569 1578
f 1569 1588 1554
f 1577 1589 1588
f 1554 1588 1589
f 1554 1589 1568
f 1566 1568 1589
f 1565 1590 1586
f 1581 1590 1575
f 1590 1565 1575
f 1591 1566 1589
f 1566 1591 1551
f 1591 1583 1551
f 1558 1592 1581
f 1585 1592 1570
f 1592 1558 1570
f 1583 1593 1576
f 1593 1586 1576
f 1586 1594 1565
f 1565 1594 1587
f 1577 1587 1594
f 1594 1586 1593
f 1586 1595 1576
f 1595 1585 1576
f 1578 1596 1588
f 1587 1577 1596
f 1588 1596 1577
f 1587 1596 1580
f 1580 1596 1563
f 1578 1563 1596
f 1597 1594 1593
f 1593 1583 1597
f 1591 1597 1583
f 1597 1591 1589
f 1594 1597 1577
f 1589 1577 1597
f 1581 1598 1590
f 1595 1586 1598
f 1590 1598 1586
f 1598 1581 1592
f 1592 1585 1598
f 1595 1598 1585
f 1497 227 925
f 923 1499 1498
f 1498 924 923
f 923 922 1501
f 1500 923 1501
f 921 1503 1502
f 1502 922 921
f 920 1504 1503
f 1503 921 920
f 1505 920 919
f 190 1509 1508
f 1508 204 190
f 190 191 1510
f 1509 190 1510
f 191 1512 1511
f 1510 191 1511
f 192 1513 1512
f 1512 191 192
f 1514 192 1515
f 1516 1515 192
f 192 193 1516
f 1322 1520 1519
f 1519 211 1322
f 1322 1323 1522
f 1521 1322 1522
f 1323 1324 1523
f 1522 1323 1523
f 1330 1524 1523
f 1523 1324 1330
f 1334 1525 1524
f 1524 1330 1334
f 1334 1321 1526
f 1525 1334 1526
f 1029 1529 1528
f 1528 1321 1029
f 1020 1530 1529
f 1529 1029 1020
f 1020 1017 1532
f 1531 1020 1532
f 1017 1023 1533
f 1532 1017 1533
f 1023 1022 1535
f 1534 1023 1535
f 1022 1016 1536
f 259 1540 1539
f 1539 254 259
f 264 1542 1541
f 1541 259 264
f 257 1543 1542
f 1542 264 257
f 241 1544 1543
f 1543 257 241
f 1495 1547 1546
f 1546 230 1495
f 1402 148 1150
f 147 148 1402
f 1402 1150 1403
f 1403 1472 1402
f 1472 1473 1402
f 1496 1568 1495
f 1495 230 1496
f 1496 230 227
f 1498 1567 1497
f 925 1498 1497
f 1498 925 924
f 1506 1505 919
f 919 204 1506
f 1516 1517 1571
f 1516 193 1517
f 193 205 1517
f 1561 1571 1517
f 1517 1518 1561
f 1517 205 1518
f 205 211 1518
f 1535 1022 1536
f 1536 1584 1535
f 1016 254 1537
f 1562 1536 1537
f 1536 1016 1537
f 1546 1548 1545
f 1545 241 1546
f 241 230 1546
f 1548 1546 1552
