# Normalized SI mesh from arm_description/meshes/objects/Dishes_Mug.dae
v -0.002165 0.006568 0.038000
v 0.001032 0.001032 0.007600
v 0.001032 0.001032 0.038000
v -0.002165 0.006568 0.007600
v -0.002165 0.006568 0.007600
v -0.002165 0.006568 0.038000
v 0.001032 0.001032 0.007600
v 0.001032 0.001032 0.038000
v 0.009765 0.009765 0.007600
v -0.002165 0.006568 0.007600
v -0.002165 0.009765 0.007600
v 0.001032 0.001032 0.007600
v 0.006568 -0.002165 0.007600
v 0.009765 -0.002165 0.007600
v 0.009765 -0.002165 0.007600
v 0.009765 0.009765 0.007600
v 0.006568 -0.002165 0.007600
v 0.001032 0.001032 0.007600
v -0.002165 0.006568 0.007600
v -0.002165 0.009765 0.007600
v 0.006568 -0.002165 0.038000
v 0.006568 -0.002165 0.007600
v 0.006568 -0.002165 0.038000
v 0.006568 -0.002165 0.007600
v -0.002165 0.009765 0.038000
v -0.002165 0.009765 0.007600
v -0.002165 0.009765 0.007600
v -0.002165 0.009765 0.038000
v 0.009765 -0.002165 0.038000
v 0.009765 -0.002165 0.007600
v 0.009765 -0.002165 0.038000
v 0.009765 -0.002165 0.007600
v -0.009506 -0.004132 0.007600
v -0.007539 -0.007539 0.007600
v -0.007539 -0.007539 0.007600
v -0.009506 -0.004132 0.007600
v 0.005176 -0.000198 0.007600
v 0.005176 -0.000198 0.007600
v 0.003209 0.003209 0.007600
v 0.003209 0.003209 0.007600
v -0.002165 -0.002165 0.000000
v -0.002165 -0.002165 0.000000
v -0.002165 -0.002165 0.000000
v -0.002165 -0.002165 0.000000
v -0.002165 -0.002165 0.000000
v -0.002165 -0.002165 0.000000
v -0.002165 -0.002165 0.015200
v -0.002165 -0.002165 0.015200
v -0.002165 -0.002165 0.015200
v -0.002165 -0.002165 0.015200
v -0.002165 -0.002165 0.015200
v -0.002165 -0.002165 0.015200
v -0.004132 -0.009506 0.007600
v -0.004132 -0.009506 0.007600
v -0.000198 0.005176 0.007600
v -0.000198 0.005176 0.007600
v -0.009765 -0.002165 0.007600
v -0.009765 -0.002165 0.007600
v 0.005435 -0.002165 0.007600
v 0.005435 -0.002165 0.007600
v -0.002165 -0.009765 0.007600
v -0.002165 -0.009765 0.007600
v -0.002165 0.005435 0.007600
v -0.002165 0.005435 0.007600
f 1 2 5
f 8 9 10
f 12 13 15
f 17 18 20
f 21 2 8
f 24 25 4
f 27 6 29
f 22 23 32
f 1 2 5
f 8 9 10
f 12 13 15
f 17 18 20
f 21 2 8
f 24 25 4
f 27 6 29
f 22 23 32
f 1 2 4
f 5 4 7
f 2 5 9
f 4 8 10
f 2 9 12
f 8 13 10
f 7 12 12
f 13 16 13
f 10 15 15
f 17 15 16
f 1 2 4
f 5 4 7
f 2 5 9
f 4 8 10
f 2 9 12
f 8 13 10
f 7 12 12
f 13 16 13
f 10 15 15
f 17 15 16
