# Normalized SI mesh from arm_description/meshes/objects/fuze_bottle_visual.dae
v 0.000843 -0.001152 0.000006
v 0.000843 0.002568 0.000006
v 0.005493 -0.003013 0.000006
v 0.004563 0.000708 0.000006
v 0.004563 0.004429 0.000006
v -0.003343 0.000243 0.000006
v -0.003808 -0.003013 0.000006
v 0.000843 -0.004873 0.000006
v 0.008284 0.000708 0.000006
v 0.004873 0.007839 0.000006
v 0.000843 0.006289 0.000006
v -0.002413 0.005824 0.000006
v -0.004738 0.003498 0.000006
v -0.004428 -0.006423 0.000006
v -0.000553 -0.007198 0.000006
v 0.008594 0.004118 0.000006
v -0.000553 0.009544 0.000006
v -0.008459 0.000708 0.000006
v -0.008459 -0.003013 0.000006
v 0.004563 -0.006733 0.000006
v 0.011074 -0.003013 0.000006
v 0.011929 0.007301 0.000008
v 0.007974 0.006599 0.000006
v 0.009296 0.010394 0.000005
v -0.008459 0.004429 0.000006
v -0.013276 -0.004980 0.000752
v 0.000843 -0.010454 0.000006
v 0.009736 -0.010498 0.000041
v 0.008284 -0.006733 0.000006
v 0.012772 -0.006447 0.000046
v 0.012934 -0.000222 0.000006
v 0.011540 0.002104 0.000006
v 0.008405 0.011249 0.000005
v 0.003633 0.010939 0.000006
v 0.001152 0.011559 0.000006
v -0.004554 0.010565 0.000006
v -0.007802 0.011698 0.000007
v -0.007529 0.008149 0.000006
v -0.011250 0.003499 0.000006
v -0.014108 0.001264 0.000046
v -0.013578 0.003869 0.000039
v -0.012179 -0.001152 0.000006
v -0.013719 -0.003415 0.000006
v -0.009389 -0.006268 0.000006
v -0.011870 -0.007781 0.001004
v -0.009644 -0.010471 0.000050
v -0.005979 -0.009214 0.000006
v -0.008309 -0.011479 0.000006
v -0.002424 -0.011377 0.000000
v -0.000240 -0.014196 0.000063
v 0.001200 -0.014353 0.000010
v 0.003958 -0.013791 0.000008
v 0.004563 -0.010454 0.000006
v 0.007546 -0.012078 0.000007
v 0.014203 -0.001950 0.000037
v 0.014345 -0.000229 0.000102
v 0.013701 0.003279 0.000026
v 0.013149 0.004994 0.000010
v 0.003477 0.013619 0.000012
v 0.001765 0.013783 0.000287
v -0.004060 0.013402 0.000017
v -0.005177 0.012811 0.000812
v -0.008970 0.010940 0.000376
v -0.013064 0.005174 0.000013
v -0.013925 -0.001257 0.000940
v -0.010758 -0.009200 0.000057
v 0.002430 -0.014260 0.000006
v 0.006001 -0.013168 0.000085
v 0.010933 -0.009268 0.000006
v 0.012158 -0.007873 0.000012
v 0.013643 -0.004446 0.000064
v -0.008186 0.002624 0.076605
v -0.006104 0.006917 0.059983
v -0.007712 0.004026 0.081032
v 0.001811 0.014221 0.022417
v -0.004070 0.013842 0.037052
v -0.007667 0.012364 0.034297
v -0.000164 0.008006 0.078268
v 0.004395 -0.004845 0.075471
v 0.013614 0.002331 0.031337
v -0.013782 -0.004278 0.012748
v 0.011311 -0.000641 0.050083
v -0.001050 0.007628 0.083689
v 0.002287 0.008125 0.061918
v -0.012592 -0.006409 0.000040
v 0.013821 0.000628 0.039409
v 0.005369 0.012985 0.000011
v -0.006941 -0.012545 0.005275
v -0.010109 -0.010322 0.010829
v -0.007469 -0.007491 0.053416
v -0.007578 -0.000973 0.071271
v -0.008120 -0.011954 0.024639
v -0.011068 0.009065 0.014570
v -0.009889 -0.002148 0.055641
v 0.001650 0.007386 0.068522
v 0.013313 -0.004707 0.008706
v 0.006890 0.012323 0.000019
v 0.013254 0.004509 0.028842
v 0.012218 0.006989 0.019493
v -0.006784 -0.012687 0.015549
v -0.003621 -0.013951 0.015720
v 0.010698 -0.009485 0.008455
v -0.001402 -0.014067 0.037575
v 0.002968 -0.013774 0.032746
v 0.011195 -0.008874 0.033989
v 0.011455 -0.008527 0.030020
v 0.002685 0.014178 0.034203
v 0.003780 -0.005466 0.073742
v 0.001222 -0.006393 0.074127
v 0.006433 -0.001740 0.071345
v 0.011959 -0.007188 0.026737
v 0.013079 -0.002363 0.041922
v -0.007291 0.002894 0.070977
v -0.005971 0.004813 0.083044
v -0.007039 0.012700 0.019144
v -0.005564 0.005598 0.070463
v 0.002685 0.014128 0.014328
v -0.000221 0.013416 0.043450
v -0.013151 -0.005559 0.033285
v 0.000411 0.000269 0.084996
v -0.004290 0.013806 0.026507
v -0.004365 0.006281 0.077094
v -0.001273 0.014155 0.031557
v 0.004847 0.010514 0.050257
v 0.002902 -0.005812 0.080632
v -0.002076 -0.006770 0.080323
v 0.001334 0.007241 0.074916
v 0.004235 0.013690 0.003159
v -0.006227 0.005211 0.067945
v -0.006838 -0.004376 0.079121
v -0.008244 -0.001021 0.076754
v -0.006648 0.004554 0.076001
v -0.003819 0.007294 0.082605
v 0.013313 -0.003843 0.003555
v 0.009330 0.010220 0.032660
v 0.007431 0.012009 0.037058
v 0.006887 -0.002014 0.080575
v -0.010734 0.008999 0.006605
v -0.012615 0.006130 0.000852
v -0.003719 -0.008672 0.056199
v -0.000735 -0.010186 0.053747
v -0.003892 0.006438 0.073759
v -0.007953 0.003722 0.078067
v -0.006515 0.002660 0.084032
v 0.007753 -0.012195 0.023260
v 0.013004 0.004957 0.021756
v 0.014038 0.000818 0.033917
v 0.004013 0.008420 0.055066
v 0.005411 -0.004292 0.078597
v 0.007054 0.000456 0.077838
v -0.010618 0.009528 0.019643
v -0.003263 -0.013997 0.019470
v -0.002089 -0.014215 0.025200
v -0.014040 0.003120 0.019727
v -0.006754 -0.012294 0.030492
v -0.014117 -0.001367 0.024547
v -0.011538 0.008251 0.033151
v 0.005345 0.007474 0.056219
v -0.000709 -0.006097 0.076192
v 0.002668 0.006759 0.071460
v -0.006417 -0.003791 0.083139
v 0.008639 0.011204 0.002876
v 0.009112 -0.011090 0.029767
v 0.011409 -0.006538 0.042917
v 0.009992 -0.007551 0.045494
v 0.009179 0.007306 0.045992
v 0.009960 0.003699 0.049800
v -0.005313 0.006702 0.062974
v 0.002842 0.006044 0.084367
v 0.006300 0.004739 0.077502
v 0.004510 0.006367 0.080049
v 0.004744 0.003880 0.084299
v -0.000196 0.013745 0.000459
v -0.011969 0.007265 0.009098
v -0.008374 0.000886 0.081742
v -0.007470 0.003054 0.083151
v -0.004372 -0.006207 0.081183
v 0.001003 0.014387 0.025464
v 0.012042 -0.000346 0.046405
v 0.004329 -0.005402 0.083120
v -0.003644 -0.013795 0.000471
v -0.014097 -0.002538 0.000576
v 0.002482 -0.006386 0.071553
v 0.001216 -0.014335 0.003760
v 0.014084 0.001904 0.000539
v -0.006764 0.012293 0.000598
v -0.001569 0.013907 0.000008
v -0.005251 -0.013221 0.000033
v -0.007127 -0.012424 0.000780
v -0.009954 -0.009557 0.006408
v -0.011633 0.007758 0.000011
v -0.001404 -0.008815 0.058757
v -0.007222 -0.002107 0.073574
v 0.007284 -0.012541 0.004449
v 0.010429 -0.009539 0.036759
v 0.012515 0.006046 0.037680
v -0.001952 -0.014102 0.000575
v -0.007806 -0.012097 0.020504
v -0.007204 -0.011674 0.007415
v -0.014262 -0.000398 0.000071
v -0.009004 0.010772 0.005482
v -0.007513 0.012028 0.009394
v -0.012888 0.005858 0.015108
v -0.010604 -0.009238 0.039282
v -0.007224 -0.011709 0.041371
v -0.012685 -0.000338 0.047382
v -0.012902 -0.002785 0.044960
v -0.006798 -0.006082 0.057107
v -0.007271 -0.003195 0.066827
v -0.001344 -0.006739 0.072432
v -0.008158 0.007955 0.051974
v -0.007014 0.006853 0.056190
v -0.001436 0.008987 0.060670
v -0.004895 0.007923 0.057281
v 0.002371 0.008044 0.063936
v -0.008025 0.001106 0.068855
v -0.006819 -0.004435 0.076663
v -0.007508 0.001686 0.073616
v -0.003780 0.007562 0.080264
v 0.000318 0.008038 0.081103
v 0.003301 -0.014151 0.000638
v 0.007866 0.011250 0.006579
v 0.010655 0.009212 0.000016
v 0.008557 -0.011688 0.000820
v 0.014223 -0.000305 0.012206
v 0.012052 0.007465 0.012692
v 0.011843 0.007657 0.027138
v 0.013122 0.003960 0.039682
v 0.007079 0.005229 0.058973
v 0.007224 0.002225 0.065226
v 0.004143 0.006145 0.067880
v 0.005648 0.004440 0.068989
v 0.005994 0.002894 0.073188
v 0.006010 0.005730 0.062118
v -0.003129 0.013619 0.000894
v 0.002133 0.013803 0.005787
v 0.006149 0.012402 0.007009
v -0.009889 -0.010445 0.016885
v -0.004021 -0.013783 0.004914
v -0.013094 -0.005995 0.008980
v -0.011863 -0.008113 0.014468
v -0.011447 -0.008580 0.020460
v -0.003999 -0.013861 0.009537
v 0.002164 -0.014289 0.012285
v -0.013856 0.002709 0.000560
v -0.014345 -0.001365 0.016033
v -0.010580 -0.009806 0.025542
v -0.011221 -0.008878 0.029798
v -0.008605 -0.011457 0.033541
v -0.013612 -0.002350 0.041760
v -0.004193 -0.012282 0.044911
v -0.006426 -0.010735 0.046956
v -0.012856 0.006092 0.033751
v -0.013265 0.004944 0.031044
v -0.013976 0.002961 0.036909
v -0.011279 0.009093 0.029725
v -0.007817 0.011878 0.031081
v -0.013037 0.005644 0.039659
v -0.013232 0.001732 0.044342
v -0.005305 -0.004973 0.071721
v -0.011462 0.006973 0.044585
v -0.009397 0.005059 0.054291
v -0.010640 0.009189 0.040745
v -0.012504 0.007194 0.037279
v -0.007330 -0.005113 0.060681
v -0.007486 -0.004031 0.063362
v -0.009039 0.003577 0.056570
v -0.009318 0.001382 0.057664
v -0.005950 -0.004778 0.069117
v -0.003518 0.007269 0.067240
v -0.003128 0.007777 0.064393
v -0.007457 0.000798 0.083937
v 0.012063 -0.007875 0.005363
v -0.013964 -0.000186 0.029660
v -0.007713 0.004093 0.062194
v -0.005200 0.010761 0.049316
v -0.007823 -0.002588 0.080625
v -0.000816 -0.002929 0.084837
v -0.001570 -0.014145 0.029143
v 0.012594 0.003503 0.042674
v 0.010778 0.006534 0.043682
v 0.009841 0.008876 0.042589
v 0.006679 0.000811 0.083680
v 0.004695 0.006294 0.076641
v 0.011608 -0.003553 0.047814
v 0.005435 -0.004999 0.080412
v 0.002083 -0.014240 0.029988
v 0.009733 -0.009949 0.031985
v 0.014123 -0.002063 0.026009
v 0.014271 -0.001039 0.019699
v 0.014096 -0.001552 0.029502
v 0.014028 0.001900 0.023279
v 0.012635 0.005890 0.024153
v 0.013631 -0.002594 0.032165
v 0.013635 0.003318 0.036622
v 0.013705 -0.001969 0.038248
v 0.005733 -0.007705 0.055660
v 0.010311 -0.004032 0.051004
v 0.009885 -0.002115 0.054041
v 0.008867 -0.000014 0.058459
v 0.009194 -0.000289 0.056352
v 0.007919 0.000470 0.063117
v 0.001925 -0.009094 0.056193
v 0.004620 -0.005126 0.070406
v 0.002576 -0.006752 0.067147
v 0.007288 -0.001446 0.065720
v 0.004917 0.007482 0.058836
v 0.007129 0.000503 0.068609
v 0.001266 0.009393 0.056299
v 0.008377 0.003018 0.056750
v 0.006518 0.002346 0.070308
v 0.006709 0.000109 0.072606
v 0.004520 -0.004615 0.084134
v 0.004382 -0.001930 0.084652
v -0.001710 0.013968 0.005640
v 0.012540 0.006038 0.008202
v -0.000879 -0.013984 0.006917
v -0.014049 -0.001630 0.006784
v -0.014245 0.000615 0.009607
v 0.000003 -0.014435 0.018242
v -0.011980 0.007539 0.020580
v -0.005228 0.013209 0.010877
v -0.011000 -0.009193 0.036272
v -0.012142 -0.006872 0.031101
v -0.005913 -0.012879 0.037944
v 0.000588 -0.014206 0.034205
v -0.012612 -0.006343 0.039543
v -0.013854 0.003129 0.028017
v -0.005002 -0.013388 0.034098
v -0.010905 -0.007031 0.045433
v -0.008532 0.011512 0.015033
v -0.004335 -0.013503 0.030116
v -0.009478 0.010966 0.036931
v -0.010839 0.001472 0.053336
v -0.007834 0.010994 0.043271
v -0.004438 0.012837 0.043092
v -0.000836 0.012190 0.048895
v -0.000957 0.012891 0.046561
v -0.002539 0.008965 0.057115
v -0.008864 -0.002459 0.057626
v -0.005927 0.006404 0.080413
v 0.006692 -0.012887 0.010199
v 0.011552 0.008392 0.004587
v 0.013672 -0.001809 0.006954
v 0.011571 -0.008895 0.019702
v 0.007020 -0.012731 0.018851
v 0.014227 -0.000965 0.015692
v 0.013804 -0.003737 0.013061
v 0.008441 0.011515 0.013992
v 0.010551 0.009590 0.014253
v 0.010066 0.010277 0.017653
v 0.007341 0.012274 0.022748
v 0.007081 0.012566 0.017138
v 0.004693 0.013550 0.022003
v 0.010300 0.009405 0.007352
v 0.001215 -0.014393 0.024951
v 0.014203 -0.001815 0.022663
v 0.008066 -0.011751 0.035770
v 0.009037 -0.011015 0.026331
v 0.012550 -0.006665 0.035390
v 0.014023 0.001388 0.004635
v 0.013073 -0.006077 0.016395
v 0.003839 -0.013962 0.015825
v 0.001140 -0.014448 0.010349
v 0.013061 -0.005861 0.011260
v 0.011888 -0.008214 0.023652
v 0.005712 0.013174 0.008818
v 0.006043 0.013066 0.012347
v 0.006479 0.012827 0.019777
v 0.013734 0.003185 0.018939
v 0.013771 0.003204 0.015187
v 0.012986 0.005495 0.016190
v 0.004502 0.005105 0.073593
v -0.003959 0.006259 0.083954
v 0.006622 0.003657 0.079945
v -0.013506 -0.004628 0.021087
v -0.003014 0.013593 0.007735
v -0.013572 0.003530 0.005253
v 0.007557 0.011351 0.041396
v -0.001665 -0.013950 0.032291
v 0.001725 -0.013919 0.038922
v -0.005183 -0.013421 0.024070
v -0.006893 0.012768 0.027154
v -0.011242 0.005203 0.048886
v -0.005370 0.009121 0.054265
v 0.014207 -0.000901 0.035620
v 0.014044 0.001069 0.008963
v 0.005454 0.013089 0.024848
v 0.002337 -0.012187 0.047258
v 0.012790 0.005580 0.034588
v 0.012096 -0.006894 0.040072
v 0.004541 -0.010527 0.048888
v 0.001700 -0.007964 0.062677
v 0.009653 -0.006697 0.049162
v 0.000460 0.009139 0.058038
v -0.000426 0.010882 0.052929
v 0.007277 0.010402 0.044833
v 0.007143 -0.010665 0.043289
v -0.008667 -0.000230 0.079979
v -0.009312 0.011054 0.023420
v -0.010136 0.010328 0.027001
v -0.005068 0.013358 0.033291
v -0.005033 0.013342 0.029829
v 0.006875 0.012405 0.028351
v 0.007364 0.011816 0.030728
v 0.011489 0.008319 0.034935
v 0.010389 0.009380 0.038138
v 0.005900 -0.012618 0.040290
v -0.000838 -0.012775 0.045720
v -0.004049 -0.009644 0.053267
v -0.004444 -0.007784 0.059269
v 0.005164 0.012347 0.043126
v 0.011710 0.006648 0.041739
v -0.007168 0.012278 0.039447
v 0.006017 -0.004799 0.064216
v 0.006946 0.009478 0.048543
v -0.008040 0.004968 0.059240
v -0.001294 0.014350 0.012433
v -0.004874 0.013457 0.014750
v 0.003309 -0.013009 0.042257
v -0.003953 -0.005866 0.074944
v -0.008302 0.000340 0.065024
v 0.002242 -0.004727 0.084736
v 0.002448 0.013879 0.008427
v 0.013282 0.000528 0.042227
v 0.005491 0.005213 0.066181
v 0.005103 0.005560 0.082587
v -0.000709 0.014523 0.018584
v -0.012824 0.006125 0.026429
v -0.008896 -0.000599 0.061326
v -0.001837 0.014470 0.029463
v 0.007355 -0.005425 0.056691
v -0.002755 -0.007960 0.061763
v 0.001347 -0.013085 0.043690
v -0.003285 -0.004093 0.084279
v -0.004894 0.013731 0.023399
v 0.007096 -0.000169 0.081297
v 0.006058 0.003716 0.075848
v 0.002229 0.003637 0.085000
v 0.009814 0.001607 0.053810
v -0.003803 -0.006331 0.079020
v 0.007006 0.002300 0.081898
v 0.006303 -0.000970 0.083560
v -0.013448 0.003535 0.041830
v -0.002434 0.007328 0.070347
v 0.013461 0.004375 0.004828
v 0.001505 0.007857 0.066131
v -0.009166 -0.010438 0.031035
v 0.011753 0.007007 0.031348
v 0.009710 0.010397 0.028249
v 0.006427 -0.000350 0.074686
v 0.009482 0.010704 0.009586
v 0.000703 -0.011446 0.050204
v -0.001710 -0.006200 0.083771
v 0.008363 0.004511 0.054395
v 0.003662 0.013697 0.038602
v -0.000841 -0.007096 0.070078
v -0.011973 -0.001383 0.050194
v -0.008074 -0.009174 0.048365
v 0.003131 -0.008190 0.058070
v 0.011088 -0.009164 0.002119
v -0.002798 -0.011457 0.049252
v -0.001853 -0.007704 0.064247
v -0.003743 -0.006608 0.067200
v -0.003374 -0.006391 0.070161
v -0.006136 0.004693 0.073328
v 0.004079 -0.013695 0.006229
v 0.008609 -0.010909 0.006690
v 0.013565 0.004069 0.011912
v 0.006335 -0.012546 0.032612
v 0.005055 -0.013459 0.035919
v -0.001838 -0.013421 0.041985
v 0.007217 -0.004063 0.061919
v 0.008280 0.002013 0.060410
v 0.006167 -0.002950 0.073724
v -0.010180 0.009788 0.000041
v -0.002684 -0.014222 0.012897
v 0.000762 -0.014523 0.015040
v -0.010202 -0.005167 0.051035
v -0.008977 0.008753 0.047686
v 0.010670 -0.009736 0.011800
v 0.004093 -0.013839 0.022487
v 0.005737 -0.013251 0.028251
v 0.009444 0.010653 0.023621
v 0.007137 -0.012560 0.015870
v 0.014178 0.000876 0.026657
v 0.010980 0.008983 0.022384
v 0.009241 -0.010315 0.040183
v 0.006352 -0.006027 0.059715
v 0.005230 -0.005025 0.067935
v 0.005480 0.001207 0.084661
v -0.000243 -0.007340 0.067064
v 0.009389 0.010851 0.020058
v 0.008276 -0.006067 0.053601
v 0.004040 -0.009845 0.052540
v 0.008074 -0.008746 0.048010
v 0.006294 0.008436 0.052983
v -0.003035 0.013684 0.040819
v 0.003668 0.013361 0.032087
v 0.005577 0.011100 0.047192
v 0.000866 -0.006141 0.084126
v -0.009287 -0.009670 0.043067
f 1 6 2
f 1 7 6
f 3 1 4
f 4 1 2
f 4 2 5
f 2 6 12
f 6 13 12
f 8 7 1
f 3 8 1
f 5 2 11
f 2 12 11
f 15 14 7
f 8 15 7
f 20 8 3
f 9 3 4
f 9 4 16
f 16 4 5
f 16 5 23
f 5 11 10
f 13 18 25
f 6 18 13
f 7 19 6
f 6 19 18
f 20 15 8
f 29 20 3
f 21 3 9
f 23 5 10
f 10 11 34
f 34 11 17
f 11 12 17
f 17 12 36
f 12 13 38
f 13 25 38
f 14 44 7
f 7 44 19
f 14 47 44
f 49 47 15
f 15 47 14
f 27 49 15
f 53 27 20
f 20 27 15
f 21 29 3
f 32 21 9
f 32 9 16
f 32 16 22
f 23 10 24
f 10 34 97
f 34 17 35
f 12 38 36
f 38 25 191
f 18 39 25
f 18 42 39
f 19 42 18
f 19 26 42
f 28 53 29
f 29 53 20
f 30 29 21
f 31 21 32
f 31 32 185
f 58 32 22
f 22 16 23
f 24 10 33
f 33 10 97
f 97 34 87
f 35 17 173
f 173 17 187
f 17 36 187
f 36 38 37
f 25 39 191
f 39 40 41
f 39 42 40
f 26 43 42
f 19 44 26
f 47 46 44
f 50 49 27
f 51 50 27
f 52 51 53
f 53 51 27
f 54 53 28
f 70 29 30
f 21 31 55
f 55 31 56
f 31 185 56
f 185 32 57
f 57 32 58
f 22 23 223
f 24 223 23
f 87 34 59
f 60 59 35
f 35 59 34
f 173 60 35
f 187 36 235
f 36 61 235
f 62 61 36
f 62 36 186
f 36 37 186
f 37 38 63
f 63 38 476
f 38 191 476
f 64 139 39
f 191 39 139
f 39 41 64
f 40 245 41
f 40 42 200
f 200 42 65
f 65 42 182
f 42 43 182
f 44 85 26
f 45 85 44
f 45 44 66
f 46 66 44
f 46 47 48
f 188 189 47
f 48 47 189
f 47 49 188
f 49 181 188
f 181 49 197
f 50 197 49
f 51 52 67
f 67 52 221
f 52 53 68
f 54 68 53
f 54 28 224
f 28 29 69
f 70 69 29
f 30 21 71
f 55 71 21
f 65 318 319
f 276 338 336
f 399 175 74
f 108 79 109
f 435 454 278
f 255 327 250
f 307 395 213
f 130 131 217
f 319 81 246
f 338 276 337
f 291 294 105
f 472 205 325
f 466 142 116
f 88 190 46
f 67 221 51
f 190 88 199
f 242 92 247
f 384 206 458
f 50 184 197
f 221 52 68
f 98 292 293
f 470 104 483
f 389 453 462
f 409 434 389
f 135 405 136
f 383 257 403
f 162 128 222
f 240 45 190
f 343 446 58
f 108 304 475
f 418 377 322
f 405 499 136
f 217 193 421
f 374 144 120
f 119 255 274
f 156 324 274
f 120 423 314
f 161 277 130
f 122 219 78
f 307 213 84
f 129 270 168
f 130 441 177
f 135 450 405
f 72 143 132
f 133 220 219
f 58 22 343
f 444 250 259
f 446 361 185
f 483 359 163
f 392 389 496
f 309 158 148
f 301 310 300
f 437 375 442
f 284 438 373
f 170 438 284
f 79 150 149
f 152 356 153
f 328 274 254
f 321 429 401
f 255 444 258
f 96 365 102
f 106 163 111
f 196 390 406
f 164 285 165
f 168 275 129
f 171 375 170
f 284 373 127
f 240 26 45
f 428 418 419
f 498 118 456
f 178 431 404
f 190 66 46
f 202 201 138
f 421 260 210
f 116 445 270
f 467 184 68
f 194 224 461
f 69 70 461
f 134 55 56
f 455 229 310
f 187 235 173
f 89 238 241
f 376 246 242
f 174 319 203
f 249 448 155
f 333 414 77
f 206 207 458
f 208 90 140
f 266 464 209
f 210 260 465
f 212 214 385
f 339 385 214
f 214 73 213
f 168 213 73
f 73 214 212
f 95 445 160
f 422 209 216
f 51 184 50
f 189 188 239
f 54 224 68
f 222 355 162
f 71 134 30
f 24 162 223
f 244 477 364
f 358 470 288
f 494 394 298
f 232 160 373
f 110 312 451
f 79 451 150
f 137 150 437
f 437 443 137
f 236 424 367
f 236 367 237
f 152 100 101
f 317 239 184
f 26 65 182
f 239 188 181
f 89 241 240
f 92 198 382
f 241 242 81
f 101 477 478
f 101 320 152
f 174 138 139
f 41 245 378
f 201 186 63
f 139 64 41
f 138 93 202
f 315 62 202
f 93 321 151
f 154 429 321
f 321 400 151
f 156 248 324
f 448 249 324
f 323 204 327
f 155 329 249
f 252 205 251
f 330 327 502
f 327 330 250
f 479 458 459
f 429 254 256
f 257 333 77
f 333 257 157
f 211 385 276
f 259 384 261
f 411 208 140
f 411 433 265
f 340 268 94
f 268 340 430
f 309 396 339
f 395 339 213
f 447 271 270
f 421 193 260
f 74 341 143
f 30 134 461
f 33 97 162
f 223 343 22
f 268 430 275
f 114 341 74
f 74 176 114
f 497 455 167
f 171 284 78
f 438 233 373
f 274 328 156
f 377 418 424
f 179 82 285
f 106 291 105
f 358 195 408
f 98 486 292
f 98 293 227
f 146 293 292
f 147 294 80
f 295 386 147
f 449 406 390
f 135 449 450
f 486 98 80
f 391 165 398
f 473 302 306
f 306 490 415
f 306 308 490
f 306 230 308
f 302 234 230
f 79 108 475
f 230 234 426
f 233 312 311
f 160 231 95
f 313 137 443
f 443 314 313
f 442 427 172
f 376 156 154
f 201 202 62
f 128 60 315
f 356 152 320
f 113 466 116
f 429 328 254
f 330 207 250
f 205 252 502
f 253 157 254
f 157 264 333
f 331 115 419
f 488 391 398
f 268 275 417
f 341 133 219
f 399 131 130
f 226 469 316
f 387 344 361
f 355 316 343
f 345 346 362
f 346 145 482
f 452 367 349
f 349 350 452
f 367 368 349
f 351 350 349
f 487 484 227
f 347 371 370
f 288 106 105
f 292 486 357
f 360 105 294
f 105 360 195
f 360 488 195
f 391 360 296
f 237 452 222
f 244 364 342
f 363 244 342
f 102 481 342
f 28 69 461
f 356 320 482
f 478 244 363
f 481 102 365
f 96 348 365
f 387 316 469
f 225 347 348
f 316 355 226
f 350 372 226
f 370 290 347
f 146 370 99
f 292 357 290
f 290 370 292
f 371 225 469
f 370 371 372
f 99 350 351
f 311 312 308
f 131 193 217
f 149 137 286
f 171 83 427
f 314 423 313
f 273 461 134
f 202 331 322
f 174 378 319
f 174 139 378
f 407 379 282
f 222 452 355
f 92 155 247
f 247 248 156
f 471 408 381
f 263 333 264
f 335 276 336
f 339 395 309
f 385 396 276
f 319 318 81
f 317 467 364
f 345 357 289
f 163 359 111
f 449 390 80
f 470 483 163
f 326 381 103
f 397 416 166
f 213 168 271
f 373 160 127
f 328 429 156
f 383 400 401
f 257 402 403
f 403 402 431
f 136 107 456
f 367 424 368
f 499 107 136
f 98 449 80
f 450 388 404
f 140 410 141
f 140 192 411
f 159 210 109
f 391 164 165
f 165 394 496
f 301 432 299
f 280 413 281
f 166 282 397
f 489 460 432
f 215 271 447
f 500 397 412
f 82 299 298
f 474 234 302
f 440 301 299
f 426 234 215
f 267 417 212
f 353 428 369
f 111 359 366
f 115 151 400
f 115 383 436
f 407 282 413
f 121 178 436
f 219 122 341
f 86 425 112
f 165 496 398
f 404 431 405
f 76 402 77
f 413 282 281
f 97 87 128
f 389 434 420
f 336 414 335
f 109 183 108
f 427 375 171
f 287 279 356
f 418 368 424
f 115 436 428
f 321 401 400
f 456 107 76
f 237 367 452
f 123 402 76
f 388 354 75
f 388 75 178
f 142 466 132
f 454 177 126
f 77 414 76
f 419 115 428
f 138 201 476
f 165 285 394
f 180 501 125
f 297 495 494
f 425 86 280
f 109 79 159
f 171 220 83
f 131 72 218
f 220 133 83
f 106 111 291
f 161 435 272
f 491 439 314
f 435 278 272
f 432 300 489
f 166 167 281
f 149 159 79
f 131 399 72
f 431 178 121
f 284 127 78
f 497 124 148
f 150 451 438
f 454 501 278
f 501 423 278
f 439 491 172
f 441 159 126
f 337 396 124
f 128 59 60
f 138 191 139
f 168 270 271
f 466 72 132
f 220 78 219
f 138 476 191
f 63 186 37
f 138 174 93
f 253 255 264
f 259 261 444
f 277 161 175
f 72 399 143
f 130 217 441
f 160 445 127
f 295 147 80
f 275 73 417
f 301 300 432
f 168 73 275
f 443 283 314
f 60 173 315
f 202 377 315
f 444 255 250
f 256 401 429
f 206 384 259
f 263 414 333
f 258 444 261
f 118 336 338
f 441 217 421
f 112 391 296
f 390 196 295
f 228 295 196
f 285 164 112
f 313 180 137
f 180 286 137
f 126 159 125
f 418 117 368
f 446 387 361
f 382 152 153
f 420 398 389
f 382 153 332
f 480 276 335
f 422 129 275
f 399 130 277
f 495 453 392
f 303 141 495
f 416 497 166
f 149 150 137
f 418 428 117
f 115 400 383
f 157 253 264
f 296 360 386
f 399 277 175
f 175 272 176
f 161 177 454
f 123 107 499
f 438 170 150
f 170 375 150
f 451 79 475
f 40 200 245
f 211 212 385
f 262 212 211
f 113 218 466
f 95 270 445
f 467 68 194
f 28 461 224
f 273 102 468
f 461 70 30
f 56 185 361
f 96 134 344
f 358 408 471
f 84 215 234
f 59 128 87
f 48 189 46
f 89 100 238
f 203 246 154
f 151 331 93
f 502 204 205
f 472 325 103
f 459 462 410
f 140 90 410
f 90 459 410
f 462 141 410
f 265 208 411
f 492 464 463
f 269 465 260
f 463 393 492
f 465 269 464
f 464 269 209
f 464 492 457
f 210 183 109
f 339 396 385
f 210 465 457
f 113 216 91
f 218 113 91
f 95 447 270
f 132 143 122
f 88 189 239
f 467 317 184
f 364 467 342
f 224 194 68
f 194 468 467
f 342 468 102
f 134 56 361
f 273 468 461
f 55 134 71
f 364 477 243
f 342 485 363
f 481 485 342
f 371 469 372
f 326 104 471
f 288 105 358
f 470 471 104
f 471 470 358
f 388 450 352
f 449 227 450
f 295 86 386
f 86 228 280
f 310 474 300
f 455 158 229
f 229 158 307
f 215 213 271
f 426 231 232
f 233 232 373
f 451 475 110
f 233 451 312
f 173 235 315
f 89 190 199
f 45 66 190
f 88 239 243
f 198 238 100
f 238 242 241
f 241 81 240
f 242 238 198
f 247 376 242
f 89 199 243
f 41 378 139
f 62 235 61
f 203 93 174
f 151 115 331
f 93 203 321
f 249 323 324
f 329 325 249
f 327 119 323
f 325 205 323
f 502 327 204
f 251 205 472
f 458 330 459
f 462 252 251
f 257 401 256
f 157 257 256
f 263 335 414
f 261 384 480
f 480 211 276
f 90 208 94
f 458 334 384
f 433 266 265
f 463 464 266
f 90 479 459
f 192 393 433
f 465 464 457
f 140 141 303
f 209 91 216
f 209 269 91
f 160 232 231
f 267 212 262
f 211 384 262
f 272 175 161
f 260 91 269
f 114 144 374
f 194 461 468
f 162 24 33
f 96 344 225
f 58 446 57
f 101 478 320
f 356 482 483
f 363 346 482
f 467 468 342
f 359 145 366
f 362 348 347
f 493 352 484
f 365 362 481
f 226 372 469
f 372 350 99
f 487 293 146
f 106 288 163
f 472 103 381
f 381 420 434
f 486 80 291
f 352 450 484
f 227 293 487
f 227 484 450
f 80 390 295
f 386 86 296
f 112 296 86
f 434 409 472
f 488 398 408
f 453 495 141
f 412 456 118
f 397 379 412
f 473 415 393
f 393 489 473
f 196 407 413
f 305 304 183
f 305 457 492
f 308 304 490
f 230 232 308
f 232 311 308
f 447 95 231
f 314 283 491
f 375 427 442
f 172 283 442
f 172 427 169
f 246 203 319
f 243 477 100
f 248 247 448
f 317 364 243
f 88 243 199
f 235 62 315
f 331 419 322
f 419 418 322
f 279 332 153
f 382 332 155
f 356 279 153
f 448 247 155
f 287 104 380
f 330 458 207
f 335 263 261
f 156 429 154
f 408 420 381
f 253 254 255
f 250 207 259
f 337 276 396
f 340 265 430
f 122 143 341
f 427 83 169
f 198 152 382
f 145 345 366
f 344 134 361
f 485 346 363
f 290 345 362
f 349 353 351
f 368 353 349
f 226 452 350
f 353 369 493
f 117 353 368
f 289 111 366
f 145 359 483
f 290 362 347
f 470 163 288
f 357 486 289
f 405 450 404
f 351 353 493
f 294 147 386
f 332 380 329
f 409 389 462
f 460 303 297
f 495 297 303
f 285 298 394
f 285 82 298
f 474 473 300
f 183 304 108
f 234 229 307
f 233 311 232
f 474 302 473
f 306 302 230
f 307 309 395
f 144 176 272
f 457 305 183
f 239 197 184
f 222 128 237
f 343 162 355
f 380 332 279
f 329 155 332
f 334 458 479
f 480 384 211
f 423 120 278
f 323 119 324
f 496 394 495
f 494 432 297
f 397 500 416
f 403 121 383
f 121 403 431
f 354 369 428
f 431 402 123
f 213 215 84
f 313 501 180
f 415 490 305
f 431 499 405
f 354 388 352
f 495 394 494
f 489 300 473
f 436 178 75
f 354 428 75
f 122 142 132
f 121 436 383
f 127 445 142
f 426 215 447
f 447 231 426
f 252 462 459
f 462 453 141
f 289 291 111
f 439 120 314
f 497 167 166
f 89 240 190
f 185 57 446
f 408 195 488
f 336 118 498
f 307 84 234
f 220 171 78
f 124 497 416
f 142 122 127
f 483 287 356
f 123 76 107
f 125 501 126
f 338 124 500
f 82 167 440
f 201 63 476
f 218 72 466
f 407 135 136
f 236 128 315
f 378 65 319
f 480 335 261
f 389 398 496
f 338 500 412
f 263 264 258
f 501 313 423
f 171 170 284
f 282 379 397
f 491 283 172
f 422 275 430
f 125 286 180
f 376 247 156
f 88 46 189
f 221 68 184
f 45 26 85
f 433 411 192
f 86 295 228
f 196 406 407
f 228 196 413
f 81 242 246
f 201 62 186
f 334 479 94
f 209 422 266
f 218 91 193
f 270 129 116
f 306 415 473
f 229 474 310
f 437 150 375
f 128 236 237
f 154 246 376
f 249 325 323
f 258 264 255
f 262 334 267
f 268 334 94
f 260 193 91
f 266 430 265
f 417 267 268
f 176 144 114
f 102 273 96
f 162 97 128
f 244 478 477
f 362 346 481
f 482 145 483
f 96 225 348
f 370 146 292
f 351 487 99
f 291 80 294
f 298 299 494
f 301 440 310
f 243 239 317
f 240 81 318
f 324 119 274
f 327 255 119
f 92 382 155
f 380 279 287
f 103 325 329
f 336 498 414
f 399 74 143
f 83 133 374
f 487 351 493
f 369 354 352
f 347 225 371
f 326 380 104
f 360 391 488
f 407 406 135
f 360 294 386
f 291 289 486
f 420 408 398
f 494 299 432
f 456 412 379
f 379 136 456
f 136 379 407
f 492 393 305
f 497 148 158
f 377 202 322
f 428 353 117
f 93 331 202
f 338 412 118
f 126 177 441
f 343 316 446
f 388 178 404
f 158 455 497
f 280 281 167
f 281 282 166
f 307 158 309
f 236 315 377
f 274 255 254
f 177 161 130
f 392 453 389
f 303 460 192
f 112 425 179
f 167 82 179
f 167 455 440
f 135 406 449
f 83 374 439
f 321 203 154
f 421 210 159
f 226 355 452
f 280 228 413
f 309 148 396
f 272 278 144
f 144 278 120
f 131 218 193
f 501 454 126
f 169 439 172
f 175 176 74
f 179 285 112
f 341 114 133
f 440 299 82
f 124 338 337
f 122 78 127
f 197 239 181
f 26 318 65
f 129 422 216
f 454 435 161
f 442 283 437
f 245 65 378
f 326 103 380
f 381 326 471
f 240 318 26
f 387 446 316
f 164 391 112
f 227 449 98
f 169 83 439
f 440 455 310
f 451 233 438
f 125 149 286
f 374 133 114
f 290 357 345
f 183 210 457
f 43 26 182
f 252 459 502
f 142 445 116
f 89 243 100
f 198 92 242
f 245 200 65
f 256 254 157
f 207 206 259
f 266 433 463
f 262 384 334
f 73 212 417
f 214 213 339
f 129 113 116
f 487 146 99
f 234 474 229
f 426 232 230
f 437 283 443
f 377 424 236
f 51 221 184
f 152 198 100
f 100 477 101
f 481 346 485
f 248 448 324
f 204 323 205
f 472 409 251
f 502 459 330
f 462 251 409
f 421 159 441
f 90 94 479
f 340 208 265
f 334 268 267
f 266 422 430
f 340 94 208
f 129 216 113
f 120 439 374
f 134 96 273
f 320 478 363
f 320 363 482
f 145 346 345
f 348 362 365
f 487 493 484
f 225 387 469
f 99 370 372
f 434 472 381
f 105 195 358
f 460 297 432
f 305 490 304
f 393 415 305
f 308 312 110
f 110 475 304
f 304 308 110
f 380 103 329
f 401 257 383
f 258 261 263
f 369 352 493
f 225 344 387
f 345 289 366
f 495 392 496
f 393 460 489
f 125 159 149
f 343 223 162
f 77 402 257
f 463 433 393
f 75 428 436
f 76 414 498
f 192 140 303
f 425 280 179
f 416 500 124
f 393 192 460
f 483 104 287
f 431 123 499
f 124 396 148
f 280 167 179
f 76 498 456
f 1 6 2
f 1 7 6
f 3 1 4
f 4 1 2
f 4 2 5
f 2 6 12
f 6 13 12
f 8 7 1
f 3 8 1
f 5 2 11
f 2 12 11
f 15 14 7
f 8 15 7
f 20 8 3
f 9 3 4
f 9 4 16
f 16 4 5
f 16 5 23
f 5 11 10
f 13 18 25
f 6 18 13
f 7 19 6
f 6 19 18
f 20 15 8
f 29 20 3
f 21 3 9
f 23 5 10
f 10 11 34
f 34 11 17
f 11 12 17
f 17 12 36
f 12 13 38
f 13 25 38
f 14 44 7
f 7 44 19
f 14 47 44
f 49 47 15
f 15 47 14
f 27 49 15
f 53 27 20
f 20 27 15
f 21 29 3
f 32 21 9
f 32 9 16
f 32 16 22
f 23 10 24
f 10 34 97
f 34 17 35
f 12 38 36
f 38 25 191
f 18 39 25
f 18 42 39
f 19 42 18
f 19 26 42
f 28 53 29
f 29 53 20
f 30 29 21
f 31 21 32
f 31 32 185
f 58 32 22
f 22 16 23
f 24 10 33
f 33 10 97
f 97 34 87
f 35 17 173
f 173 17 187
f 17 36 187
f 36 38 37
f 25 39 191
f 39 40 41
f 39 42 40
f 26 43 42
f 19 44 26
f 47 46 44
f 50 49 27
f 51 50 27
f 52 51 53
f 53 51 27
f 54 53 28
f 70 29 30
f 21 31 55
f 55 31 56
f 31 185 56
f 185 32 57
f 57 32 58
f 22 23 223
f 24 223 23
f 87 34 59
f 60 59 35
f 35 59 34
f 173 60 35
f 187 36 235
f 36 61 235
f 62 61 36
f 62 36 186
f 36 37 186
f 37 38 63
f 63 38 476
f 38 191 476
f 64 139 39
f 191 39 139
f 39 41 64
f 40 245 41
f 40 42 200
f 200 42 65
f 65 42 182
f 42 43 182
f 44 85 26
f 45 85 44
f 45 44 66
f 46 66 44
f 46 47 48
f 188 189 47
f 48 47 189
f 47 49 188
f 49 181 188
f 181 49 197
f 50 197 49
f 51 52 67
f 67 52 221
f 52 53 68
f 54 68 53
f 54 28 224
f 28 29 69
f 70 69 29
f 30 21 71
f 55 71 21
f 65 318 319
f 276 338 336
f 399 175 74
f 108 79 109
f 435 454 278
f 255 327 250
f 307 395 213
f 130 131 217
f 319 81 246
f 338 276 337
f 291 294 105
f 472 205 325
f 466 142 116
f 88 190 46
f 67 221 51
f 190 88 199
f 242 92 247
f 384 206 458
f 50 184 197
f 221 52 68
f 98 292 293
f 470 104 483
f 389 453 462
f 409 434 389
f 135 405 136
f 383 257 403
f 162 128 222
f 240 45 190
f 343 446 58
f 108 304 475
f 418 377 322
f 405 499 136
f 217 193 421
f 374 144 120
f 119 255 274
f 156 324 274
f 120 423 314
f 161 277 130
f 122 219 78
f 307 213 84
f 129 270 168
f 130 441 177
f 135 450 405
f 72 143 132
f 133 220 219
f 58 22 343
f 444 250 259
f 446 361 185
f 483 359 163
f 392 389 496
f 309 158 148
f 301 310 300
f 437 375 442
f 284 438 373
f 170 438 284
f 79 150 149
f 152 356 153
f 328 274 254
f 321 429 401
f 255 444 258
f 96 365 102
f 106 163 111
f 196 390 406
f 164 285 165
f 168 275 129
f 171 375 170
f 284 373 127
f 240 26 45
f 428 418 419
f 498 118 456
f 178 431 404
f 190 66 46
f 202 201 138
f 421 260 210
f 116 445 270
f 467 184 68
f 194 224 461
f 69 70 461
f 134 55 56
f 455 229 310
f 187 235 173
f 89 238 241
f 376 246 242
f 174 319 203
f 249 448 155
f 333 414 77
f 206 207 458
f 208 90 140
f 266 464 209
f 210 260 465
f 212 214 385
f 339 385 214
f 214 73 213
f 168 213 73
f 73 214 212
f 95 445 160
f 422 209 216
f 51 184 50
f 189 188 239
f 54 224 68
f 222 355 162
f 71 134 30
f 24 162 223
f 244 477 364
f 358 470 288
f 494 394 298
f 232 160 373
f 110 312 451
f 79 451 150
f 137 150 437
f 437 443 137
f 236 424 367
f 236 367 237
f 152 100 101
f 317 239 184
f 26 65 182
f 239 188 181
f 89 241 240
f 92 198 382
f 241 242 81
f 101 477 478
f 101 320 152
f 174 138 139
f 41 245 378
f 201 186 63
f 139 64 41
f 138 93 202
f 315 62 202
f 93 321 151
f 154 429 321
f 321 400 151
f 156 248 324
f 448 249 324
f 323 204 327
f 155 329 249
f 252 205 251
f 330 327 502
f 327 330 250
f 479 458 459
f 429 254 256
f 257 333 77
f 333 257 157
f 211 385 276
f 259 384 261
f 411 208 140
f 411 433 265
f 340 268 94
f 268 340 430
f 309 396 339
f 395 339 213
f 447 271 270
f 421 193 260
f 74 341 143
f 30 134 461
f 33 97 162
f 223 343 22
f 268 430 275
f 114 341 74
f 74 176 114
f 497 455 167
f 171 284 78
f 438 233 373
f 274 328 156
f 377 418 424
f 179 82 285
f 106 291 105
f 358 195 408
f 98 486 292
f 98 293 227
f 146 293 292
f 147 294 80
f 295 386 147
f 449 406 390
f 135 449 450
f 486 98 80
f 391 165 398
f 473 302 306
f 306 490 415
f 306 308 490
f 306 230 308
f 302 234 230
f 79 108 475
f 230 234 426
f 233 312 311
f 160 231 95
f 313 137 443
f 443 314 313
f 442 427 172
f 376 156 154
f 201 202 62
f 128 60 315
f 356 152 320
f 113 466 116
f 429 328 254
f 330 207 250
f 205 252 502
f 253 157 254
f 157 264 333
f 331 115 419
f 488 391 398
f 268 275 417
f 341 133 219
f 399 131 130
f 226 469 316
f 387 344 361
f 355 316 343
f 345 346 362
f 346 145 482
f 452 367 349
f 349 350 452
f 367 368 349
f 351 350 349
f 487 484 227
f 347 371 370
f 288 106 105
f 292 486 357
f 360 105 294
f 105 360 195
f 360 488 195
f 391 360 296
f 237 452 222
f 244 364 342
f 363 244 342
f 102 481 342
f 28 69 461
f 356 320 482
f 478 244 363
f 481 102 365
f 96 348 365
f 387 316 469
f 225 347 348
f 316 355 226
f 350 372 226
f 370 290 347
f 146 370 99
f 292 357 290
f 290 370 292
f 371 225 469
f 370 371 372
f 99 350 351
f 311 312 308
f 131 193 217
f 149 137 286
f 171 83 427
f 314 423 313
f 273 461 134
f 202 331 322
f 174 378 319
f 174 139 378
f 407 379 282
f 222 452 355
f 92 155 247
f 247 248 156
f 471 408 381
f 263 333 264
f 335 276 336
f 339 395 309
f 385 396 276
f 319 318 81
f 317 467 364
f 345 357 289
f 163 359 111
f 449 390 80
f 470 483 163
f 326 381 103
f 397 416 166
f 213 168 271
f 373 160 127
f 328 429 156
f 383 400 401
f 257 402 403
f 403 402 431
f 136 107 456
f 367 424 368
f 499 107 136
f 98 449 80
f 450 388 404
f 140 410 141
f 140 192 411
f 159 210 109
f 391 164 165
f 165 394 496
f 301 432 299
f 280 413 281
f 166 282 397
f 489 460 432
f 215 271 447
f 500 397 412
f 82 299 298
f 474 234 302
f 440 301 299
f 426 234 215
f 267 417 212
f 353 428 369
f 111 359 366
f 115 151 400
f 115 383 436
f 407 282 413
f 121 178 436
f 219 122 341
f 86 425 112
f 165 496 398
f 404 431 405
f 76 402 77
f 413 282 281
f 97 87 128
f 389 434 420
f 336 414 335
f 109 183 108
f 427 375 171
f 287 279 356
f 418 368 424
f 115 436 428
f 321 401 400
f 456 107 76
f 237 367 452
f 123 402 76
f 388 354 75
f 388 75 178
f 142 466 132
f 454 177 126
f 77 414 76
f 419 115 428
f 138 201 476
f 165 285 394
f 180 501 125
f 297 495 494
f 425 86 280
f 109 79 159
f 171 220 83
f 131 72 218
f 220 133 83
f 106 111 291
f 161 435 272
f 491 439 314
f 435 278 272
f 432 300 489
f 166 167 281
f 149 159 79
f 131 399 72
f 431 178 121
f 284 127 78
f 497 124 148
f 150 451 438
f 454 501 278
f 501 423 278
f 439 491 172
f 441 159 126
f 337 396 124
f 128 59 60
f 138 191 139
f 168 270 271
f 466 72 132
f 220 78 219
f 138 476 191
f 63 186 37
f 138 174 93
f 253 255 264
f 259 261 444
f 277 161 175
f 72 399 143
f 130 217 441
f 160 445 127
f 295 147 80
f 275 73 417
f 301 300 432
f 168 73 275
f 443 283 314
f 60 173 315
f 202 377 315
f 444 255 250
f 256 401 429
f 206 384 259
f 263 414 333
f 258 444 261
f 118 336 338
f 441 217 421
f 112 391 296
f 390 196 295
f 228 295 196
f 285 164 112
f 313 180 137
f 180 286 137
f 126 159 125
f 418 117 368
f 446 387 361
f 382 152 153
f 420 398 389
f 382 153 332
f 480 276 335
f 422 129 275
f 399 130 277
f 495 453 392
f 303 141 495
f 416 497 166
f 149 150 137
f 418 428 117
f 115 400 383
f 157 253 264
f 296 360 386
f 399 277 175
f 175 272 176
f 161 177 454
f 123 107 499
f 438 170 150
f 170 375 150
f 451 79 475
f 40 200 245
f 211 212 385
f 262 212 211
f 113 218 466
f 95 270 445
f 467 68 194
f 28 461 224
f 273 102 468
f 461 70 30
f 56 185 361
f 96 134 344
f 358 408 471
f 84 215 234
f 59 128 87
f 48 189 46
f 89 100 238
f 203 246 154
f 151 331 93
f 502 204 205
f 472 325 103
f 459 462 410
f 140 90 410
f 90 459 410
f 462 141 410
f 265 208 411
f 492 464 463
f 269 465 260
f 463 393 492
f 465 269 464
f 464 269 209
f 464 492 457
f 210 183 109
f 339 396 385
f 210 465 457
f 113 216 91
f 218 113 91
f 95 447 270
f 132 143 122
f 88 189 239
f 467 317 184
f 364 467 342
f 224 194 68
f 194 468 467
f 342 468 102
f 134 56 361
f 273 468 461
f 55 134 71
f 364 477 243
f 342 485 363
f 481 485 342
f 371 469 372
f 326 104 471
f 288 105 358
f 470 471 104
f 471 470 358
f 388 450 352
f 449 227 450
f 295 86 386
f 86 228 280
f 310 474 300
f 455 158 229
f 229 158 307
f 215 213 271
f 426 231 232
f 233 232 373
f 451 475 110
f 233 451 312
f 173 235 315
f 89 190 199
f 45 66 190
f 88 239 243
f 198 238 100
f 238 242 241
f 241 81 240
f 242 238 198
f 247 376 242
f 89 199 243
f 41 378 139
f 62 235 61
f 203 93 174
f 151 115 331
f 93 203 321
f 249 323 324
f 329 325 249
f 327 119 323
f 325 205 323
f 502 327 204
f 251 205 472
f 458 330 459
f 462 252 251
f 257 401 256
f 157 257 256
f 263 335 414
f 261 384 480
f 480 211 276
f 90 208 94
f 458 334 384
f 433 266 265
f 463 464 266
f 90 479 459
f 192 393 433
f 465 464 457
f 140 141 303
f 209 91 216
f 209 269 91
f 160 232 231
f 267 212 262
f 211 384 262
f 272 175 161
f 260 91 269
f 114 144 374
f 194 461 468
f 162 24 33
f 96 344 225
f 58 446 57
f 101 478 320
f 356 482 483
f 363 346 482
f 467 468 342
f 359 145 366
f 362 348 347
f 493 352 484
f 365 362 481
f 226 372 469
f 372 350 99
f 487 293 146
f 106 288 163
f 472 103 381
f 381 420 434
f 486 80 291
f 352 450 484
f 227 293 487
f 227 484 450
f 80 390 295
f 386 86 296
f 112 296 86
f 434 409 472
f 488 398 408
f 453 495 141
f 412 456 118
f 397 379 412
f 473 415 393
f 393 489 473
f 196 407 413
f 305 304 183
f 305 457 492
f 308 304 490
f 230 232 308
f 232 311 308
f 447 95 231
f 314 283 491
f 375 427 442
f 172 283 442
f 172 427 169
f 246 203 319
f 243 477 100
f 248 247 448
f 317 364 243
f 88 243 199
f 235 62 315
f 331 419 322
f 419 418 322
f 279 332 153
f 382 332 155
f 356 279 153
f 448 247 155
f 287 104 380
f 330 458 207
f 335 263 261
f 156 429 154
f 408 420 381
f 253 254 255
f 250 207 259
f 337 276 396
f 340 265 430
f 122 143 341
f 427 83 169
f 198 152 382
f 145 345 366
f 344 134 361
f 485 346 363
f 290 345 362
f 349 353 351
f 368 353 349
f 226 452 350
f 353 369 493
f 117 353 368
f 289 111 366
f 145 359 483
f 290 362 347
f 470 163 288
f 357 486 289
f 405 450 404
f 351 353 493
f 294 147 386
f 332 380 329
f 409 389 462
f 460 303 297
f 495 297 303
f 285 298 394
f 285 82 298
f 474 473 300
f 183 304 108
f 234 229 307
f 233 311 232
f 474 302 473
f 306 302 230
f 307 309 395
f 144 176 272
f 457 305 183
f 239 197 184
f 222 128 237
f 343 162 355
f 380 332 279
f 329 155 332
f 334 458 479
f 480 384 211
f 423 120 278
f 323 119 324
f 496 394 495
f 494 432 297
f 397 500 416
f 403 121 383
f 121 403 431
f 354 369 428
f 431 402 123
f 213 215 84
f 313 501 180
f 415 490 305
f 431 499 405
f 354 388 352
f 495 394 494
f 489 300 473
f 436 178 75
f 354 428 75
f 122 142 132
f 121 436 383
f 127 445 142
f 426 215 447
f 447 231 426
f 252 462 459
f 462 453 141
f 289 291 111
f 439 120 314
f 497 167 166
f 89 240 190
f 185 57 446
f 408 195 488
f 336 118 498
f 307 84 234
f 220 171 78
f 124 497 416
f 142 122 127
f 483 287 356
f 123 76 107
f 125 501 126
f 338 124 500
f 82 167 440
f 201 63 476
f 218 72 466
f 407 135 136
f 236 128 315
f 378 65 319
f 480 335 261
f 389 398 496
f 338 500 412
f 263 264 258
f 501 313 423
f 171 170 284
f 282 379 397
f 491 283 172
f 422 275 430
f 125 286 180
f 376 247 156
f 88 46 189
f 221 68 184
f 45 26 85
f 433 411 192
f 86 295 228
f 196 406 407
f 228 196 413
f 81 242 246
f 201 62 186
f 334 479 94
f 209 422 266
f 218 91 193
f 270 129 116
f 306 415 473
f 229 474 310
f 437 150 375
f 128 236 237
f 154 246 376
f 249 325 323
f 258 264 255
f 262 334 267
f 268 334 94
f 260 193 91
f 266 430 265
f 417 267 268
f 176 144 114
f 102 273 96
f 162 97 128
f 244 478 477
f 362 346 481
f 482 145 483
f 96 225 348
f 370 146 292
f 351 487 99
f 291 80 294
f 298 299 494
f 301 440 310
f 243 239 317
f 240 81 318
f 324 119 274
f 327 255 119
f 92 382 155
f 380 279 287
f 103 325 329
f 336 498 414
f 399 74 143
f 83 133 374
f 487 351 493
f 369 354 352
f 347 225 371
f 326 380 104
f 360 391 488
f 407 406 135
f 360 294 386
f 291 289 486
f 420 408 398
f 494 299 432
f 456 412 379
f 379 136 456
f 136 379 407
f 492 393 305
f 497 148 158
f 377 202 322
f 428 353 117
f 93 331 202
f 338 412 118
f 126 177 441
f 343 316 446
f 388 178 404
f 158 455 497
f 280 281 167
f 281 282 166
f 307 158 309
f 236 315 377
f 274 255 254
f 177 161 130
f 392 453 389
f 303 460 192
f 112 425 179
f 167 82 179
f 167 455 440
f 135 406 449
f 83 374 439
f 321 203 154
f 421 210 159
f 226 355 452
f 280 228 413
f 309 148 396
f 272 278 144
f 144 278 120
f 131 218 193
f 501 454 126
f 169 439 172
f 175 176 74
f 179 285 112
f 341 114 133
f 440 299 82
f 124 338 337
f 122 78 127
f 197 239 181
f 26 318 65
f 129 422 216
f 454 435 161
f 442 283 437
f 245 65 378
f 326 103 380
f 381 326 471
f 240 318 26
f 387 446 316
f 164 391 112
f 227 449 98
f 169 83 439
f 440 455 310
f 451 233 438
f 125 149 286
f 374 133 114
f 290 357 345
f 183 210 457
f 43 26 182
f 252 459 502
f 142 445 116
f 89 243 100
f 198 92 242
f 245 200 65
f 256 254 157
f 207 206 259
f 266 433 463
f 262 384 334
f 73 212 417
f 214 213 339
f 129 113 116
f 487 146 99
f 234 474 229
f 426 232 230
f 437 283 443
f 377 424 236
f 51 221 184
f 152 198 100
f 100 477 101
f 481 346 485
f 248 448 324
f 204 323 205
f 472 409 251
f 502 459 330
f 462 251 409
f 421 159 441
f 90 94 479
f 340 208 265
f 334 268 267
f 266 422 430
f 340 94 208
f 129 216 113
f 120 439 374
f 134 96 273
f 320 478 363
f 320 363 482
f 145 346 345
f 348 362 365
f 487 493 484
f 225 387 469
f 99 370 372
f 434 472 381
f 105 195 358
f 460 297 432
f 305 490 304
f 393 415 305
f 308 312 110
f 110 475 304
f 304 308 110
f 380 103 329
f 401 257 383
f 258 261 263
f 369 352 493
f 225 344 387
f 345 289 366
f 495 392 496
f 393 460 489
f 125 159 149
f 343 223 162
f 77 402 257
f 463 433 393
f 75 428 436
f 76 414 498
f 192 140 303
f 425 280 179
f 416 500 124
f 393 192 460
f 483 104 287
f 431 123 499
f 124 396 148
f 280 167 179
f 76 498 456
