# Normalized SI mesh from arm_description/meshes/objects/plastic_glass_visual.dae
v 0.009360 0.003041 0.000000
v 0.007962 0.005785 0.000000
v 0.005785 0.007962 0.000000
v 0.003041 0.009360 0.000000
v -0.000000 0.009842 0.000000
v -0.003041 0.009360 0.000000
v -0.005785 0.007962 0.000000
v -0.007962 0.005785 0.000000
v -0.009360 0.003041 0.000000
v -0.009842 0.000000 0.000000
v -0.009360 -0.003041 0.000000
v -0.007962 -0.005785 0.000000
v -0.005785 -0.007962 0.000000
v -0.003041 -0.009360 0.000000
v -0.000000 -0.009842 0.000000
v 0.003041 -0.009360 0.000000
v 0.005785 -0.007962 0.000000
v 0.007962 -0.005785 0.000000
v 0.009360 -0.003041 0.000000
v 0.009842 0.000000 0.000000
v 0.008435 0.002741 0.003216
v 0.007175 0.005213 0.003216
v 0.005213 0.007175 0.003216
v 0.002741 0.008435 0.003216
v -0.000000 0.008869 0.003216
v -0.002741 0.008435 0.003216
v -0.005213 0.007175 0.003216
v -0.007175 0.005213 0.003216
v -0.008435 0.002741 0.003216
v -0.008869 0.000000 0.003216
v -0.008435 -0.002741 0.003216
v -0.007175 -0.005213 0.003216
v -0.005213 -0.007175 0.003216
v -0.002741 -0.008435 0.003216
v -0.000000 -0.008869 0.003216
v 0.002741 -0.008435 0.003216
v 0.005213 -0.007175 0.003216
v 0.007175 -0.005213 0.003216
v 0.008435 -0.002741 0.003216
v 0.008869 0.000000 0.003216
v -0.000000 0.000000 0.003216
v 0.003220 -0.009909 0.000497
v -0.000000 -0.010419 0.000497
v -0.003220 -0.009909 0.000497
v -0.006124 -0.008429 0.000497
v -0.008429 -0.006124 0.000497
v -0.009909 -0.003220 0.000497
v -0.010419 0.000000 0.000497
v -0.009909 0.003220 0.000497
v -0.008429 0.006124 0.000497
v -0.006124 0.008429 0.000497
v -0.003220 0.009909 0.000497
v -0.000000 0.010419 0.000497
v 0.003220 0.009909 0.000497
v 0.006124 0.008429 0.000497
v 0.008429 0.006124 0.000497
v 0.009909 0.003220 0.000497
v 0.010419 0.000000 0.000497
v 0.009909 -0.003220 0.000497
v 0.008429 -0.006124 0.000497
v 0.006124 -0.008429 0.000497
v 0.009072 0.012487 0.055000
v 0.012487 0.009072 0.055000
v 0.014679 0.004770 0.055000
v 0.015434 0.000000 0.055000
v 0.014679 -0.004770 0.055000
v 0.012487 -0.009072 0.055000
v 0.009072 -0.012487 0.055000
v 0.004770 -0.014679 0.055000
v -0.000000 -0.015434 0.055000
v -0.004770 -0.014679 0.055000
v -0.009072 -0.012487 0.055000
v -0.012487 -0.009072 0.055000
v -0.014679 -0.004770 0.055000
v -0.015434 0.000000 0.055000
v -0.014679 0.004770 0.055000
v -0.012487 0.009072 0.055000
v -0.009072 0.012487 0.055000
v -0.004770 0.014679 0.055000
v -0.000000 0.015434 0.055000
v 0.004770 0.014679 0.055000
v 0.007561 -0.005493 0.003345
v 0.005493 -0.007561 0.003345
v 0.002888 -0.008888 0.003345
v -0.000000 -0.009346 0.003345
v -0.002888 -0.008888 0.003345
v -0.005493 -0.007561 0.003345
v -0.007561 -0.005493 0.003345
v -0.008888 -0.002888 0.003345
v -0.009346 0.000000 0.003345
v -0.008888 0.002888 0.003345
v -0.007561 0.005493 0.003345
v -0.005493 0.007561 0.003345
v -0.002888 0.008888 0.003345
v -0.000000 0.009346 0.003345
v 0.002888 0.008888 0.003345
v 0.005493 0.007561 0.003345
v 0.007561 0.005493 0.003345
v 0.008888 0.002888 0.003345
v 0.009346 0.000000 0.003345
v 0.008888 -0.002888 0.003345
v 0.008696 -0.011969 0.055000
v 0.004572 -0.014071 0.055000
v -0.000000 -0.014795 0.055000
v -0.004572 -0.014071 0.055000
v -0.008696 -0.011969 0.055000
v -0.011969 -0.008696 0.055000
v -0.014071 -0.004572 0.055000
v -0.014795 0.000000 0.055000
v -0.014071 0.004572 0.055000
v -0.011969 0.008696 0.055000
v -0.008696 0.011969 0.055000
v -0.004572 0.014071 0.055000
v -0.000000 0.014795 0.055000
v 0.004572 0.014071 0.055000
v 0.008696 0.011969 0.055000
v 0.011969 0.008696 0.055000
v 0.014071 0.004572 0.055000
v 0.014795 0.000000 0.055000
v 0.014071 -0.004572 0.055000
v 0.011969 -0.008696 0.055000
v 0.014609 0.004747 0.054200
v 0.015361 0.000000 0.054200
v 0.014609 -0.004747 0.054200
v 0.012427 -0.009029 0.054200
v 0.009029 -0.012427 0.054200
v 0.004747 -0.014609 0.054200
v -0.000000 -0.015361 0.054200
v -0.004747 -0.014609 0.054200
v -0.009029 -0.012427 0.054200
v -0.012427 -0.009029 0.054200
v -0.014609 -0.004747 0.054200
v -0.015361 0.000000 0.054200
v -0.014609 0.004747 0.054200
v -0.012427 0.009029 0.054200
v -0.009029 0.012427 0.054200
v -0.004747 0.014609 0.054200
v -0.000000 0.015361 0.054200
v 0.004747 0.014609 0.054200
v 0.009029 0.012427 0.054200
v 0.012427 0.009029 0.054200
v 0.014692 0.000000 0.054223
v 0.013973 -0.004540 0.054223
v 0.011886 -0.008636 0.054223
v 0.008636 -0.011886 0.054223
v 0.004540 -0.013973 0.054223
v -0.000000 -0.014692 0.054223
v -0.004540 -0.013973 0.054223
v -0.008636 -0.011886 0.054223
v -0.011886 -0.008636 0.054223
v -0.013973 -0.004540 0.054223
v -0.014692 0.000000 0.054223
v -0.013973 0.004540 0.054223
v -0.011886 0.008636 0.054223
v -0.008636 0.011886 0.054223
v -0.004540 0.013973 0.054223
v -0.000000 0.014692 0.054223
v 0.004540 0.013973 0.054223
v 0.008636 0.011886 0.054223
v 0.011886 0.008636 0.054223
v 0.013973 0.004540 0.054223
v 0.008960 -0.002911 0.004061
v 0.007622 -0.005538 0.004061
v 0.005538 -0.007622 0.004061
v 0.002911 -0.008960 0.004061
v -0.000000 -0.009421 0.004061
v -0.002911 -0.008960 0.004061
v -0.005538 -0.007622 0.004061
v -0.007622 -0.005538 0.004061
v -0.008960 -0.002911 0.004061
v -0.009421 0.000000 0.004061
v -0.008960 0.002911 0.004061
v -0.007622 0.005538 0.004061
v -0.005538 0.007622 0.004061
v -0.002911 0.008960 0.004061
v -0.000000 0.009421 0.004061
v 0.002911 0.008960 0.004061
v 0.005538 0.007622 0.004061
v 0.007622 0.005538 0.004061
v 0.008960 0.002911 0.004061
v 0.009421 0.000000 0.004061
v 0.008580 0.002788 0.000000
v 0.007299 0.005303 0.000000
v -0.000000 0.000000 0.000000
v 0.005303 0.007299 0.000000
v 0.002788 0.008580 0.000000
v -0.000000 0.009022 0.000000
v -0.002788 0.008580 0.000000
v -0.005303 0.007299 0.000000
v -0.007299 0.005303 0.000000
v -0.008580 0.002788 0.000000
v -0.009022 0.000000 0.000000
v -0.008580 -0.002788 0.000000
v -0.007299 -0.005303 0.000000
v -0.005303 -0.007299 0.000000
v -0.002788 -0.008580 0.000000
v -0.000000 -0.009022 0.000000
v 0.002788 -0.008580 0.000000
v 0.005303 -0.007299 0.000000
v 0.007299 -0.005303 0.000000
v 0.008580 -0.002788 0.000000
v 0.009022 0.000000 0.000000
f 1 2 57
f 57 2 56
f 2 3 56
f 56 3 55
f 3 4 55
f 55 4 54
f 4 5 54
f 54 5 53
f 5 6 53
f 53 6 52
f 6 7 52
f 52 7 51
f 7 8 51
f 51 8 50
f 8 9 50
f 50 9 49
f 9 10 49
f 49 10 48
f 10 11 48
f 48 11 47
f 11 12 47
f 47 12 46
f 12 13 46
f 46 13 45
f 13 14 45
f 45 14 44
f 14 15 44
f 44 15 43
f 15 16 43
f 43 16 42
f 16 17 42
f 42 17 61
f 17 18 61
f 61 18 60
f 18 19 60
f 60 19 59
f 19 20 59
f 59 20 58
f 20 1 58
f 58 1 57
f 183 182 184
f 185 183 184
f 186 185 184
f 187 186 184
f 188 187 184
f 189 188 184
f 190 189 184
f 191 190 184
f 192 191 184
f 193 192 184
f 194 193 184
f 195 194 184
f 196 195 184
f 197 196 184
f 198 197 184
f 199 198 184
f 200 199 184
f 201 200 184
f 202 201 184
f 182 202 184
f 21 22 41
f 22 23 41
f 23 24 41
f 24 25 41
f 25 26 41
f 26 27 41
f 27 28 41
f 28 29 41
f 29 30 41
f 30 31 41
f 31 32 41
f 32 33 41
f 33 34 41
f 34 35 41
f 35 36 41
f 36 37 41
f 37 38 41
f 38 39 41
f 39 40 41
f 40 21 41
f 43 42 128
f 128 42 127
f 44 43 129
f 129 43 128
f 45 44 130
f 130 44 129
f 46 45 131
f 131 45 130
f 47 46 132
f 132 46 131
f 48 47 133
f 133 47 132
f 49 48 134
f 134 48 133
f 50 49 135
f 135 49 134
f 51 50 136
f 136 50 135
f 52 51 137
f 137 51 136
f 53 52 138
f 138 52 137
f 54 53 139
f 139 53 138
f 55 54 140
f 140 54 139
f 56 55 141
f 141 55 140
f 57 56 122
f 122 56 141
f 58 57 123
f 123 57 122
f 59 58 124
f 124 58 123
f 60 59 125
f 125 59 124
f 61 60 126
f 126 60 125
f 42 61 127
f 127 61 126
f 63 62 117
f 117 62 116
f 64 63 118
f 118 63 117
f 65 64 119
f 119 64 118
f 66 65 120
f 120 65 119
f 67 66 121
f 121 66 120
f 68 67 102
f 102 67 121
f 69 68 103
f 103 68 102
f 70 69 104
f 104 69 103
f 71 70 105
f 105 70 104
f 72 71 106
f 106 71 105
f 73 72 107
f 107 72 106
f 74 73 108
f 108 73 107
f 75 74 109
f 109 74 108
f 76 75 110
f 110 75 109
f 77 76 111
f 111 76 110
f 78 77 112
f 112 77 111
f 79 78 113
f 113 78 112
f 80 79 114
f 114 79 113
f 81 80 115
f 115 80 114
f 62 81 116
f 116 81 115
f 83 82 37
f 37 82 38
f 84 83 36
f 36 83 37
f 85 84 35
f 35 84 36
f 86 85 34
f 34 85 35
f 87 86 33
f 33 86 34
f 88 87 32
f 32 87 33
f 89 88 31
f 31 88 32
f 90 89 30
f 30 89 31
f 91 90 29
f 29 90 30
f 92 91 28
f 28 91 29
f 93 92 27
f 27 92 28
f 94 93 26
f 26 93 27
f 95 94 25
f 25 94 26
f 96 95 24
f 24 95 25
f 97 96 23
f 23 96 24
f 98 97 22
f 22 97 23
f 99 98 21
f 21 98 22
f 100 99 40
f 40 99 21
f 101 100 39
f 39 100 40
f 82 101 38
f 38 101 39
f 103 102 146
f 146 102 145
f 104 103 147
f 147 103 146
f 105 104 148
f 148 104 147
f 106 105 149
f 149 105 148
f 107 106 150
f 150 106 149
f 108 107 151
f 151 107 150
f 109 108 152
f 152 108 151
f 110 109 153
f 153 109 152
f 111 110 154
f 154 110 153
f 112 111 155
f 155 111 154
f 113 112 156
f 156 112 155
f 114 113 157
f 157 113 156
f 115 114 158
f 158 114 157
f 116 115 159
f 159 115 158
f 117 116 160
f 160 116 159
f 118 117 161
f 161 117 160
f 119 118 142
f 142 118 161
f 120 119 143
f 143 119 142
f 121 120 144
f 144 120 143
f 102 121 145
f 145 121 144
f 123 122 65
f 65 122 64
f 124 123 66
f 66 123 65
f 125 124 67
f 67 124 66
f 126 125 68
f 68 125 67
f 127 126 69
f 69 126 68
f 128 127 70
f 70 127 69
f 129 128 71
f 71 128 70
f 130 129 72
f 72 129 71
f 131 130 73
f 73 130 72
f 132 131 74
f 74 131 73
f 133 132 75
f 75 132 74
f 134 133 76
f 76 133 75
f 135 134 77
f 77 134 76
f 136 135 78
f 78 135 77
f 137 136 79
f 79 136 78
f 138 137 80
f 80 137 79
f 139 138 81
f 81 138 80
f 140 139 62
f 62 139 81
f 141 140 63
f 63 140 62
f 122 141 64
f 64 141 63
f 143 142 162
f 162 142 181
f 144 143 163
f 163 143 162
f 145 144 164
f 164 144 163
f 146 145 165
f 165 145 164
f 147 146 166
f 166 146 165
f 148 147 167
f 167 147 166
f 149 148 168
f 168 148 167
f 150 149 169
f 169 149 168
f 151 150 170
f 170 150 169
f 152 151 171
f 171 151 170
f 153 152 172
f 172 152 171
f 154 153 173
f 173 153 172
f 155 154 174
f 174 154 173
f 156 155 175
f 175 155 174
f 157 156 176
f 176 156 175
f 158 157 177
f 177 157 176
f 159 158 178
f 178 158 177
f 160 159 179
f 179 159 178
f 161 160 180
f 180 160 179
f 142 161 181
f 181 161 180
f 163 162 82
f 82 162 101
f 164 163 83
f 83 163 82
f 165 164 84
f 84 164 83
f 166 165 85
f 85 165 84
f 167 166 86
f 86 166 85
f 168 167 87
f 87 167 86
f 169 168 88
f 88 168 87
f 170 169 89
f 89 169 88
f 171 170 90
f 90 170 89
f 172 171 91
f 91 171 90
f 173 172 92
f 92 172 91
f 174 173 93
f 93 173 92
f 175 174 94
f 94 174 93
f 176 175 95
f 95 175 94
f 177 176 96
f 96 176 95
f 178 177 97
f 97 177 96
f 179 178 98
f 98 178 97
f 180 179 99
f 99 179 98
f 181 180 100
f 100 180 99
f 162 181 101
f 101 181 100
f 2 1 182
f 182 183 2
f 3 2 183
f 183 185 3
f 4 3 185
f 185 186 4
f 5 4 186
f 186 187 5
f 6 5 187
f 187 188 6
f 7 6 188
f 188 189 7
f 8 7 189
f 189 190 8
f 9 8 190
f 190 191 9
f 10 9 191
f 191 192 10
f 11 10 192
f 192 193 11
f 12 11 193
f 193 194 12
f 13 12 194
f 194 195 13
f 14 13 195
f 195 196 14
f 15 14 196
f 196 197 15
f 16 15 197
f 197 198 16
f 17 16 198
f 198 199 17
f 18 17 199
f 199 200 18
f 19 18 200
f 200 201 19
f 20 19 201
f 201 202 20
f 1 20 202
f 202 182 1
