# Normalized SI mesh from arm_description/meshes/objects/plastic_bowl_visual.dae
v 0.011770 0.003824 0.001500
v 0.010012 0.007274 0.001500
v 0.007274 0.010012 0.001500
v 0.003824 0.011770 0.001500
v -0.000000 0.012375 0.001500
v -0.003824 0.011770 0.001500
v -0.007274 0.010012 0.001500
v -0.010012 0.007274 0.001500
v -0.011770 0.003824 0.001500
v -0.012375 0.000000 0.001500
v -0.011770 -0.003824 0.001500
v -0.010012 -0.007274 0.001500
v -0.007274 -0.010012 0.001500
v -0.003824 -0.011770 0.001500
v -0.000000 -0.012375 0.001500
v 0.003824 -0.011770 0.001500
v 0.007274 -0.010012 0.001500
v 0.010012 -0.007274 0.001500
v 0.011770 -0.003824 0.001500
v 0.012375 0.000000 0.001500
v 0.011321 0.003678 0.004823
v 0.009631 0.006997 0.004823
v 0.006997 0.009631 0.004823
v 0.003678 0.011321 0.004823
v -0.000000 0.011904 0.004823
v -0.003678 0.011321 0.004823
v -0.006997 0.009631 0.004823
v -0.009631 0.006997 0.004823
v -0.011321 0.003678 0.004823
v -0.011904 0.000000 0.004823
v -0.011321 -0.003678 0.004823
v -0.009631 -0.006997 0.004823
v -0.006997 -0.009631 0.004823
v -0.003678 -0.011321 0.004823
v -0.000000 -0.011904 0.004823
v 0.003678 -0.011321 0.004823
v 0.006997 -0.009631 0.004823
v 0.009631 -0.006997 0.004823
v 0.011321 -0.003678 0.004823
v 0.011904 0.000000 0.004823
v 0.000000 -0.000000 0.001500
v 0.000000 0.000000 0.003774
v 0.019040 0.026206 0.019000
v 0.026206 0.019040 0.019000
v 0.030807 0.010010 0.019000
v 0.032392 0.000000 0.019000
v 0.030807 -0.010010 0.019000
v 0.026206 -0.019040 0.019000
v 0.019040 -0.026206 0.019000
v 0.010010 -0.030807 0.019000
v -0.000000 -0.032392 0.019000
v -0.010010 -0.030807 0.019000
v -0.019040 -0.026206 0.019000
v -0.026206 -0.019040 0.019000
v -0.030807 -0.010010 0.019000
v -0.032392 0.000000 0.019000
v -0.030807 0.010010 0.019000
v -0.026206 0.019040 0.019000
v -0.019040 0.026206 0.019000
v -0.010010 0.030807 0.019000
v -0.000000 0.032392 0.019000
v 0.010010 0.030807 0.019000
v 0.014401 0.000000 -0.000000
v 0.013695 -0.004450 -0.000000
v 0.011650 -0.008464 -0.000000
v 0.008464 -0.011650 -0.000000
v 0.004450 -0.013695 -0.000000
v -0.000000 -0.014401 -0.000000
v -0.004450 -0.013695 -0.000000
v -0.008464 -0.011650 -0.000000
v -0.011650 -0.008464 -0.000000
v -0.013695 -0.004450 -0.000000
v -0.014401 0.000000 -0.000000
v -0.013695 0.004450 -0.000000
v -0.011650 0.008464 -0.000000
v -0.008464 0.011650 -0.000000
v -0.004450 0.013695 -0.000000
v -0.000000 0.014401 -0.000000
v 0.004450 0.013695 -0.000000
v 0.008464 0.011650 -0.000000
v 0.011650 0.008464 -0.000000
v 0.013695 0.004450 -0.000000
v 0.015317 0.000000 0.000000
v 0.014568 -0.004733 0.000000
v 0.012392 -0.009003 0.000000
v 0.009003 -0.012392 0.000000
v 0.004733 -0.014568 0.000000
v -0.000000 -0.015317 0.000000
v -0.004733 -0.014568 0.000000
v -0.009003 -0.012392 0.000000
v -0.012392 -0.009003 0.000000
v -0.014568 -0.004733 0.000000
v -0.015317 0.000000 0.000000
v -0.014568 0.004733 0.000000
v -0.012392 0.009003 0.000000
v -0.009003 0.012392 0.000000
v -0.004733 0.014568 0.000000
v -0.000000 0.015317 0.000000
v 0.004733 0.014568 0.000000
v 0.009003 0.012392 0.000000
v 0.012392 0.009003 0.000000
v 0.014568 0.004733 0.000000
v 0.016293 0.000000 0.004655
v 0.015495 -0.005034 0.004655
v 0.013181 -0.009576 0.004655
v 0.009576 -0.013181 0.004655
v 0.005034 -0.015495 0.004655
v -0.000000 -0.016293 0.004655
v -0.005034 -0.015495 0.004655
v -0.009576 -0.013181 0.004655
v -0.013181 -0.009576 0.004655
v -0.015495 -0.005034 0.004655
v -0.016293 0.000000 0.004655
v -0.015495 0.005034 0.004655
v -0.013181 0.009576 0.004655
v -0.009576 0.013181 0.004655
v -0.005034 0.015495 0.004655
v -0.000000 0.016293 0.004655
v 0.005034 0.015495 0.004655
v 0.009576 0.013181 0.004655
v 0.013181 0.009576 0.004655
v 0.015495 0.005034 0.004655
v 0.034788 0.025275 0.037000
v 0.040896 0.013288 0.037000
v 0.043000 0.000000 0.037000
v 0.040896 -0.013288 0.037000
v 0.034787 -0.025275 0.037000
v 0.025275 -0.034787 0.037000
v 0.013288 -0.040896 0.037000
v -0.000000 -0.043000 0.037000
v -0.013288 -0.040896 0.037000
v -0.025275 -0.034787 0.037000
v -0.034787 -0.025275 0.037000
v -0.040896 -0.013288 0.037000
v -0.043000 0.000000 0.037000
v -0.040896 0.013288 0.037000
v -0.034787 0.025275 0.037000
v -0.025275 0.034787 0.037000
v -0.013288 0.040896 0.037000
v -0.000000 0.043000 0.037000
v 0.013288 0.040896 0.037000
v 0.025275 0.034788 0.037000
v 0.040896 0.013288 0.038000
v 0.043000 0.000000 0.038000
v 0.040896 -0.013288 0.038000
v 0.034787 -0.025275 0.038000
v 0.025275 -0.034787 0.038000
v 0.013288 -0.040896 0.038000
v -0.000000 -0.043000 0.038000
v -0.013288 -0.040896 0.038000
v -0.025275 -0.034787 0.038000
v -0.034787 -0.025275 0.038000
v -0.040896 -0.013288 0.038000
v -0.043000 0.000000 0.038000
v -0.040896 0.013288 0.038000
v -0.034787 0.025275 0.038000
v -0.025275 0.034787 0.038000
v -0.013288 0.040896 0.038000
v -0.000000 0.043000 0.038000
v 0.013288 0.040896 0.038000
v 0.025275 0.034788 0.038000
v 0.034788 0.025275 0.038000
v 0.041997 0.000000 0.038000
v 0.039941 -0.012977 0.038000
v 0.033976 -0.024685 0.038000
v 0.024685 -0.033976 0.038000
v 0.012977 -0.039941 0.038000
v -0.000000 -0.041997 0.038000
v -0.012977 -0.039941 0.038000
v -0.024685 -0.033976 0.038000
v -0.033976 -0.024685 0.038000
v -0.039941 -0.012977 0.038000
v -0.041997 0.000000 0.038000
v -0.039941 0.012977 0.038000
v -0.033976 0.024685 0.038000
v -0.024685 0.033976 0.038000
v -0.012977 0.039941 0.038000
v -0.000000 0.041997 0.038000
v 0.012977 0.039941 0.038000
v 0.024685 0.033976 0.038000
v 0.033976 0.024685 0.038000
v 0.039941 0.012977 0.038000
v 0.024624 -0.017891 0.019805
v 0.017891 -0.024624 0.019805
v 0.009406 -0.028948 0.019805
v -0.000000 -0.030437 0.019805
v -0.009406 -0.028948 0.019805
v -0.017891 -0.024624 0.019805
v -0.024624 -0.017891 0.019805
v -0.028948 -0.009406 0.019805
v -0.030437 0.000000 0.019805
v -0.028948 0.009406 0.019805
v -0.024624 0.017891 0.019805
v -0.017891 0.024624 0.019805
v -0.009406 0.028948 0.019805
v -0.000000 0.030437 0.019805
v 0.009406 0.028948 0.019805
v 0.017891 0.024624 0.019805
v 0.024624 0.017891 0.019805
v 0.028948 0.009406 0.019805
v 0.030437 0.000000 0.019805
v 0.028948 -0.009406 0.019805
v 0.023411 0.032222 0.029481
v 0.032222 0.023411 0.029481
v 0.037880 0.012308 0.029481
v 0.039829 0.000000 0.029481
v 0.037880 -0.012308 0.029481
v 0.032222 -0.023411 0.029481
v 0.023411 -0.032222 0.029481
v 0.012308 -0.037880 0.029481
v -0.000000 -0.039829 0.029481
v -0.012308 -0.037880 0.029481
v -0.023411 -0.032222 0.029481
v -0.032222 -0.023411 0.029481
v -0.037880 -0.012308 0.029481
v -0.039829 0.000000 0.029481
v -0.037880 0.012308 0.029481
v -0.032222 0.023411 0.029481
v -0.023411 0.032222 0.029481
v -0.012308 0.037880 0.029481
v -0.000000 0.039829 0.029481
v 0.012308 0.037880 0.029481
v 0.038275 0.000000 0.029964
v 0.036402 -0.011827 0.029964
v 0.030965 -0.022498 0.029964
v 0.022498 -0.030965 0.029964
v 0.011827 -0.036402 0.029964
v -0.000000 -0.038275 0.029964
v -0.011827 -0.036402 0.029964
v -0.022498 -0.030965 0.029964
v -0.030965 -0.022498 0.029964
v -0.036402 -0.011827 0.029964
v -0.038275 0.000000 0.029964
v -0.036402 0.011827 0.029964
v -0.030965 0.022498 0.029964
v -0.022498 0.030965 0.029964
v -0.011828 0.036402 0.029964
v -0.000000 0.038275 0.029964
v 0.011828 0.036402 0.029964
v 0.022498 0.030965 0.029964
v 0.030965 0.022498 0.029964
v 0.036402 0.011828 0.029964
v -0.022819 -0.007415 0.010717
v -0.023994 0.000000 0.010717
v -0.022819 0.007415 0.010717
v -0.019411 0.014103 0.010717
v -0.014103 0.019411 0.010717
v -0.007415 0.022819 0.010717
v -0.000000 0.023994 0.010717
v 0.007415 0.022819 0.010717
v 0.014103 0.019411 0.010717
v 0.019411 0.014103 0.010717
v 0.022819 0.007415 0.010717
v 0.023994 0.000000 0.010717
v 0.022819 -0.007415 0.010717
v 0.019411 -0.014103 0.010717
v 0.014103 -0.019411 0.010717
v 0.007415 -0.022819 0.010717
v -0.000000 -0.023994 0.010717
v -0.007415 -0.022819 0.010717
v -0.014103 -0.019411 0.010717
v -0.019411 -0.014103 0.010717
v 0.020379 -0.006621 0.011643
v 0.017336 -0.012595 0.011643
v 0.012595 -0.017336 0.011643
v 0.006621 -0.020379 0.011643
v -0.000000 -0.021428 0.011643
v -0.006621 -0.020379 0.011643
v -0.012595 -0.017336 0.011643
v -0.017336 -0.012595 0.011643
v -0.020379 -0.006621 0.011643
v -0.021428 0.000000 0.011643
v -0.020379 0.006621 0.011643
v -0.017336 0.012595 0.011643
v -0.012595 0.017336 0.011643
v -0.006621 0.020379 0.011643
v -0.000000 0.021428 0.011643
v 0.006621 0.020379 0.011643
v 0.012595 0.017336 0.011643
v 0.017336 0.012595 0.011643
v 0.020379 0.006621 0.011643
v 0.021428 0.000000 0.011643
v -0.010121 0.013931 0.005757
v -0.005321 0.016376 0.005757
v -0.000000 0.017219 0.005757
v 0.005321 0.016376 0.005757
v 0.010121 0.013931 0.005757
v 0.013931 0.010121 0.005757
v 0.016376 0.005321 0.005757
v 0.017219 0.000000 0.005757
v 0.016376 -0.005321 0.005757
v 0.013931 -0.010121 0.005757
v 0.010121 -0.013931 0.005757
v 0.005321 -0.016376 0.005757
v -0.000000 -0.017219 0.005757
v -0.005321 -0.016376 0.005757
v -0.010121 -0.013931 0.005757
v -0.013931 -0.010121 0.005757
v -0.016376 -0.005321 0.005757
v -0.017219 0.000000 0.005757
v -0.016376 0.005321 0.005757
v -0.013931 0.010121 0.005757
v 0.012693 0.004124 0.001332
v 0.013347 0.000000 0.001332
v 0.012693 -0.004124 0.001332
v 0.010797 -0.007845 0.001332
v 0.007845 -0.010797 0.001332
v 0.004124 -0.012693 0.001332
v -0.000000 -0.013347 0.001332
v -0.004124 -0.012693 0.001332
v -0.007845 -0.010797 0.001332
v -0.010797 -0.007845 0.001332
v -0.012693 -0.004124 0.001332
v -0.013347 0.000000 0.001332
v -0.012693 0.004124 0.001332
v -0.010797 0.007845 0.001332
v -0.007845 0.010797 0.001332
v -0.004124 0.012693 0.001332
v -0.000000 0.013347 0.001332
v 0.004124 0.012693 0.001332
v 0.007845 0.010797 0.001332
v 0.010797 0.007845 0.001332
v 0.039705 -0.012901 0.037000
v 0.033775 -0.024539 0.037000
v 0.024539 -0.033775 0.037000
v 0.012901 -0.039705 0.037000
v -0.000000 -0.041749 0.037000
v -0.012901 -0.039705 0.037000
v -0.024539 -0.033775 0.037000
v -0.033775 -0.024539 0.037000
v -0.039705 -0.012901 0.037000
v -0.041749 0.000000 0.037000
v -0.039705 0.012901 0.037000
v -0.033775 0.024539 0.037000
v -0.024539 0.033775 0.037000
v -0.012901 0.039705 0.037000
v -0.000000 0.041749 0.037000
v 0.012901 0.039705 0.037000
v 0.024539 0.033775 0.037000
v 0.033775 0.024539 0.037000
v 0.039705 0.012901 0.037000
v 0.041749 0.000000 0.037000
v 0.009078 0.012495 0.000611
v 0.012495 0.009078 0.000611
v 0.014689 0.004773 0.000611
v 0.015445 0.000000 0.000611
v 0.014689 -0.004773 0.000611
v 0.012495 -0.009078 0.000611
v 0.009078 -0.012495 0.000611
v 0.004773 -0.014689 0.000611
v -0.000000 -0.015445 0.000611
v -0.004773 -0.014689 0.000611
v -0.009078 -0.012495 0.000611
v -0.012495 -0.009078 0.000611
v -0.014689 -0.004773 0.000611
v -0.015445 0.000000 0.000611
v -0.014689 0.004773 0.000611
v -0.012495 0.009078 0.000611
v -0.009078 0.012495 0.000611
v -0.004773 0.014689 0.000611
v -0.000000 0.015445 0.000611
v 0.004773 0.014689 0.000611
f 1 2 303
f 303 2 322
f 2 3 322
f 322 3 321
f 3 4 321
f 321 4 320
f 4 5 320
f 320 5 319
f 5 6 319
f 319 6 318
f 6 7 318
f 318 7 317
f 7 8 317
f 317 8 316
f 8 9 316
f 316 9 315
f 9 10 315
f 315 10 314
f 10 11 314
f 314 11 313
f 11 12 313
f 313 12 312
f 12 13 312
f 312 13 311
f 13 14 311
f 311 14 310
f 14 15 310
f 310 15 309
f 15 16 309
f 309 16 308
f 16 17 308
f 308 17 307
f 17 18 307
f 307 18 306
f 18 19 306
f 306 19 305
f 19 20 305
f 305 20 304
f 20 1 304
f 304 1 303
f 2 1 41
f 3 2 41
f 4 3 41
f 5 4 41
f 6 5 41
f 7 6 41
f 8 7 41
f 9 8 41
f 10 9 41
f 11 10 41
f 12 11 41
f 13 12 41
f 14 13 41
f 15 14 41
f 16 15 41
f 17 16 41
f 18 17 41
f 19 18 41
f 20 19 41
f 1 20 41
f 21 22 42
f 22 23 42
f 23 24 42
f 24 25 42
f 25 26 42
f 26 27 42
f 27 28 42
f 28 29 42
f 29 30 42
f 30 31 42
f 31 32 42
f 32 33 42
f 33 34 42
f 34 35 42
f 35 36 42
f 36 37 42
f 37 38 42
f 38 39 42
f 39 40 42
f 40 21 42
f 44 43 204
f 204 43 203
f 45 44 205
f 205 44 204
f 46 45 206
f 206 45 205
f 47 46 207
f 207 46 206
f 48 47 208
f 208 47 207
f 49 48 209
f 209 48 208
f 50 49 210
f 210 49 209
f 51 50 211
f 211 50 210
f 52 51 212
f 212 51 211
f 53 52 213
f 213 52 212
f 54 53 214
f 214 53 213
f 55 54 215
f 215 54 214
f 56 55 216
f 216 55 215
f 57 56 217
f 217 56 216
f 58 57 218
f 218 57 217
f 59 58 219
f 219 58 218
f 60 59 220
f 220 59 219
f 61 60 221
f 221 60 220
f 62 61 222
f 222 61 221
f 43 62 203
f 203 62 222
f 64 63 84
f 84 63 83
f 65 64 85
f 85 64 84
f 66 65 86
f 86 65 85
f 67 66 87
f 87 66 86
f 68 67 88
f 88 67 87
f 69 68 89
f 89 68 88
f 70 69 90
f 90 69 89
f 71 70 91
f 91 70 90
f 72 71 92
f 92 71 91
f 73 72 93
f 93 72 92
f 74 73 94
f 94 73 93
f 75 74 95
f 95 74 94
f 76 75 96
f 96 75 95
f 77 76 97
f 97 76 96
f 78 77 98
f 98 77 97
f 79 78 99
f 99 78 98
f 80 79 100
f 100 79 99
f 81 80 101
f 101 80 100
f 82 81 102
f 102 81 101
f 63 82 83
f 83 82 102
f 84 83 347
f 347 83 346
f 85 84 348
f 348 84 347
f 86 85 349
f 349 85 348
f 87 86 350
f 350 86 349
f 88 87 351
f 351 87 350
f 89 88 352
f 352 88 351
f 90 89 353
f 353 89 352
f 91 90 354
f 354 90 353
f 92 91 355
f 355 91 354
f 93 92 356
f 356 92 355
f 94 93 357
f 357 93 356
f 95 94 358
f 358 94 357
f 96 95 359
f 359 95 358
f 97 96 360
f 360 96 359
f 98 97 361
f 361 97 360
f 99 98 362
f 362 98 361
f 100 99 343
f 343 99 362
f 101 100 344
f 344 100 343
f 102 101 345
f 345 101 344
f 83 102 346
f 346 102 345
f 104 103 291
f 291 103 290
f 105 104 292
f 292 104 291
f 106 105 293
f 293 105 292
f 107 106 294
f 294 106 293
f 108 107 295
f 295 107 294
f 109 108 296
f 296 108 295
f 110 109 297
f 297 109 296
f 111 110 298
f 298 110 297
f 112 111 299
f 299 111 298
f 113 112 300
f 300 112 299
f 114 113 301
f 301 113 300
f 115 114 302
f 302 114 301
f 116 115 283
f 283 115 302
f 117 116 284
f 284 116 283
f 118 117 285
f 285 117 284
f 119 118 286
f 286 118 285
f 120 119 287
f 287 119 286
f 121 120 288
f 288 120 287
f 122 121 289
f 289 121 288
f 103 122 290
f 290 122 289
f 124 123 143
f 143 123 162
f 125 124 144
f 144 124 143
f 126 125 145
f 145 125 144
f 127 126 146
f 146 126 145
f 128 127 147
f 147 127 146
f 129 128 148
f 148 128 147
f 130 129 149
f 149 129 148
f 131 130 150
f 150 130 149
f 132 131 151
f 151 131 150
f 133 132 152
f 152 132 151
f 134 133 153
f 153 133 152
f 135 134 154
f 154 134 153
f 136 135 155
f 155 135 154
f 137 136 156
f 156 136 155
f 138 137 157
f 157 137 156
f 139 138 158
f 158 138 157
f 140 139 159
f 159 139 158
f 141 140 160
f 160 140 159
f 142 141 161
f 161 141 160
f 123 142 162
f 162 142 161
f 144 143 163
f 163 143 182
f 145 144 164
f 164 144 163
f 146 145 165
f 165 145 164
f 147 146 166
f 166 146 165
f 148 147 167
f 167 147 166
f 149 148 168
f 168 148 167
f 150 149 169
f 169 149 168
f 151 150 170
f 170 150 169
f 152 151 171
f 171 151 170
f 153 152 172
f 172 152 171
f 154 153 173
f 173 153 172
f 155 154 174
f 174 154 173
f 156 155 175
f 175 155 174
f 157 156 176
f 176 156 175
f 158 157 177
f 177 157 176
f 159 158 178
f 178 158 177
f 160 159 179
f 179 159 178
f 161 160 180
f 180 160 179
f 162 161 181
f 181 161 180
f 143 162 182
f 182 162 181
f 164 163 323
f 323 163 342
f 165 164 324
f 324 164 323
f 166 165 325
f 325 165 324
f 167 166 326
f 326 166 325
f 168 167 327
f 327 167 326
f 169 168 328
f 328 168 327
f 170 169 329
f 329 169 328
f 171 170 330
f 330 170 329
f 172 171 331
f 331 171 330
f 173 172 332
f 332 172 331
f 174 173 333
f 333 173 332
f 175 174 334
f 334 174 333
f 176 175 335
f 335 175 334
f 177 176 336
f 336 176 335
f 178 177 337
f 337 177 336
f 179 178 338
f 338 178 337
f 180 179 339
f 339 179 338
f 181 180 340
f 340 180 339
f 182 181 341
f 341 181 340
f 163 182 342
f 342 182 341
f 184 183 265
f 265 183 264
f 185 184 266
f 266 184 265
f 186 185 267
f 267 185 266
f 187 186 268
f 268 186 267
f 188 187 269
f 269 187 268
f 189 188 270
f 270 188 269
f 190 189 271
f 271 189 270
f 191 190 272
f 272 190 271
f 192 191 273
f 273 191 272
f 193 192 274
f 274 192 273
f 194 193 275
f 275 193 274
f 195 194 276
f 276 194 275
f 196 195 277
f 277 195 276
f 197 196 278
f 278 196 277
f 198 197 279
f 279 197 278
f 199 198 280
f 280 198 279
f 200 199 281
f 281 199 280
f 201 200 282
f 282 200 281
f 202 201 263
f 263 201 282
f 183 202 264
f 264 202 263
f 204 203 123
f 123 203 142
f 205 204 124
f 124 204 123
f 206 205 125
f 125 205 124
f 207 206 126
f 126 206 125
f 208 207 127
f 127 207 126
f 209 208 128
f 128 208 127
f 210 209 129
f 129 209 128
f 211 210 130
f 130 210 129
f 212 211 131
f 131 211 130
f 213 212 132
f 132 212 131
f 214 213 133
f 133 213 132
f 215 214 134
f 134 214 133
f 216 215 135
f 135 215 134
f 217 216 136
f 136 216 135
f 218 217 137
f 137 217 136
f 219 218 138
f 138 218 137
f 220 219 139
f 139 219 138
f 221 220 140
f 140 220 139
f 222 221 141
f 141 221 140
f 203 222 142
f 142 222 141
f 224 223 202
f 202 223 201
f 225 224 183
f 183 224 202
f 226 225 184
f 184 225 183
f 227 226 185
f 185 226 184
f 228 227 186
f 186 227 185
f 229 228 187
f 187 228 186
f 230 229 188
f 188 229 187
f 231 230 189
f 189 230 188
f 232 231 190
f 190 231 189
f 233 232 191
f 191 232 190
f 234 233 192
f 192 233 191
f 235 234 193
f 193 234 192
f 236 235 194
f 194 235 193
f 237 236 195
f 195 236 194
f 238 237 196
f 196 237 195
f 239 238 197
f 197 238 196
f 240 239 198
f 198 239 197
f 241 240 199
f 199 240 198
f 242 241 200
f 200 241 199
f 223 242 201
f 201 242 200
f 244 243 56
f 56 243 55
f 245 244 57
f 57 244 56
f 246 245 58
f 58 245 57
f 247 246 59
f 59 246 58
f 248 247 60
f 60 247 59
f 249 248 61
f 61 248 60
f 250 249 62
f 62 249 61
f 251 250 43
f 43 250 62
f 252 251 44
f 44 251 43
f 253 252 45
f 45 252 44
f 254 253 46
f 46 253 45
f 255 254 47
f 47 254 46
f 256 255 48
f 48 255 47
f 257 256 49
f 49 256 48
f 258 257 50
f 50 257 49
f 259 258 51
f 51 258 50
f 260 259 52
f 52 259 51
f 261 260 53
f 53 260 52
f 262 261 54
f 54 261 53
f 243 262 55
f 55 262 54
f 264 263 38
f 38 263 39
f 265 264 37
f 37 264 38
f 266 265 36
f 36 265 37
f 267 266 35
f 35 266 36
f 268 267 34
f 34 267 35
f 269 268 33
f 33 268 34
f 270 269 32
f 32 269 33
f 271 270 31
f 31 270 32
f 272 271 30
f 30 271 31
f 273 272 29
f 29 272 30
f 274 273 28
f 28 273 29
f 275 274 27
f 27 274 28
f 276 275 26
f 26 275 27
f 277 276 25
f 25 276 26
f 278 277 24
f 24 277 25
f 279 278 23
f 23 278 24
f 280 279 22
f 22 279 23
f 281 280 21
f 21 280 22
f 282 281 40
f 40 281 21
f 263 282 39
f 39 282 40
f 284 283 248
f 248 283 247
f 285 284 249
f 249 284 248
f 286 285 250
f 250 285 249
f 287 286 251
f 251 286 250
f 288 287 252
f 252 287 251
f 289 288 253
f 253 288 252
f 290 289 254
f 254 289 253
f 291 290 255
f 255 290 254
f 292 291 256
f 256 291 255
f 293 292 257
f 257 292 256
f 294 293 258
f 258 293 257
f 295 294 259
f 259 294 258
f 296 295 260
f 260 295 259
f 297 296 261
f 261 296 260
f 298 297 262
f 262 297 261
f 299 298 243
f 243 298 262
f 300 299 244
f 244 299 243
f 301 300 245
f 245 300 244
f 302 301 246
f 246 301 245
f 283 302 247
f 247 302 246
f 304 303 63
f 63 303 82
f 305 304 64
f 64 304 63
f 306 305 65
f 65 305 64
f 307 306 66
f 66 306 65
f 308 307 67
f 67 307 66
f 309 308 68
f 68 308 67
f 310 309 69
f 69 309 68
f 311 310 70
f 70 310 69
f 312 311 71
f 71 311 70
f 313 312 72
f 72 312 71
f 314 313 73
f 73 313 72
f 315 314 74
f 74 314 73
f 316 315 75
f 75 315 74
f 317 316 76
f 76 316 75
f 318 317 77
f 77 317 76
f 319 318 78
f 78 318 77
f 320 319 79
f 79 319 78
f 321 320 80
f 80 320 79
f 322 321 81
f 81 321 80
f 303 322 82
f 82 322 81
f 324 323 225
f 225 323 224
f 325 324 226
f 226 324 225
f 326 325 227
f 227 325 226
f 327 326 228
f 228 326 227
f 328 327 229
f 229 327 228
f 329 328 230
f 230 328 229
f 330 329 231
f 231 329 230
f 331 330 232
f 232 330 231
f 332 331 233
f 233 331 232
f 333 332 234
f 234 332 233
f 334 333 235
f 235 333 234
f 335 334 236
f 236 334 235
f 336 335 237
f 237 335 236
f 337 336 238
f 238 336 237
f 338 337 239
f 239 337 238
f 339 338 240
f 240 338 239
f 340 339 241
f 241 339 240
f 341 340 242
f 242 340 241
f 342 341 223
f 223 341 242
f 323 342 224
f 224 342 223
f 344 343 121
f 121 343 120
f 345 344 122
f 122 344 121
f 346 345 103
f 103 345 122
f 347 346 104
f 104 346 103
f 348 347 105
f 105 347 104
f 349 348 106
f 106 348 105
f 350 349 107
f 107 349 106
f 351 350 108
f 108 350 107
f 352 351 109
f 109 351 108
f 353 352 110
f 110 352 109
f 354 353 111
f 111 353 110
f 355 354 112
f 112 354 111
f 356 355 113
f 113 355 112
f 357 356 114
f 114 356 113
f 358 357 115
f 115 357 114
f 359 358 116
f 116 358 115
f 360 359 117
f 117 359 116
f 361 360 118
f 118 360 117
f 362 361 119
f 119 361 118
f 343 362 120
f 120 362 119
