# Generated Servo CAD Mesh
mtllib sg90_servo.mtl
o sg90_body
usemtl SG90Blue
v -0.011400 -0.006100 -0.011500
v 0.011400 -0.006100 -0.011500
v 0.011400 0.006100 -0.011500
v -0.011400 0.006100 -0.011500
v -0.011400 -0.006100 0.011500
v 0.011400 -0.006100 0.011500
v 0.011400 0.006100 0.011500
v -0.011400 0.006100 0.011500
f 1 2 3 4
f 5 8 7 6
f 1 5 6 2
f 2 6 7 3
f 3 7 8 4
f 4 8 5 1
o sg90_tabs
usemtl SG90Blue
v -0.016000 -0.006100 0.004250
v 0.016000 -0.006100 0.004250
v 0.016000 0.006100 0.004250
v -0.016000 0.006100 0.004250
v -0.016000 -0.006100 0.005750
v 0.016000 -0.006100 0.005750
v 0.016000 0.006100 0.005750
v -0.016000 0.006100 0.005750
f 9 10 11 12
f 13 16 15 14
f 9 13 14 10
f 10 14 15 11
f 11 15 16 12
f 12 16 13 9
o sg90_gear_tower
usemtl SG90Blue
v 0.009000 0.000000 0.011500
v 0.008696 0.001531 0.011500
v 0.007828 0.002828 0.011500
v 0.006531 0.003696 0.011500
v 0.005000 0.004000 0.011500
v 0.003469 0.003696 0.011500
v 0.002172 0.002828 0.011500
v 0.001304 0.001531 0.011500
v 0.001000 0.000000 0.011500
v 0.001304 -0.001531 0.011500
v 0.002172 -0.002828 0.011500
v 0.003469 -0.003696 0.011500
v 0.005000 -0.004000 0.011500
v 0.006531 -0.003696 0.011500
v 0.007828 -0.002828 0.011500
v 0.008696 -0.001531 0.011500
v 0.009000 0.000000 0.015500
v 0.008696 0.001531 0.015500
v 0.007828 0.002828 0.015500
v 0.006531 0.003696 0.015500
v 0.005000 0.004000 0.015500
v 0.003469 0.003696 0.015500
v 0.002172 0.002828 0.015500
v 0.001304 0.001531 0.015500
v 0.001000 0.000000 0.015500
v 0.001304 -0.001531 0.015500
v 0.002172 -0.002828 0.015500
v 0.003469 -0.003696 0.015500
v 0.005000 -0.004000 0.015500
v 0.006531 -0.003696 0.015500
v 0.007828 -0.002828 0.015500
v 0.008696 -0.001531 0.015500
v 0.005000 0.000000 0.011500
v 0.005000 0.000000 0.015500
f 17 18 34 33
f 49 18 17
f 50 33 34
f 18 19 35 34
f 49 19 18
f 50 34 35
f 19 20 36 35
f 49 20 19
f 50 35 36
f 20 21 37 36
f 49 21 20
f 50 36 37
f 21 22 38 37
f 49 22 21
f 50 37 38
f 22 23 39 38
f 49 23 22
f 50 38 39
f 23 24 40 39
f 49 24 23
f 50 39 40
f 24 25 41 40
f 49 25 24
f 50 40 41
f 25 26 42 41
f 49 26 25
f 50 41 42
f 26 27 43 42
f 49 27 26
f 50 42 43
f 27 28 44 43
f 49 28 27
f 50 43 44
f 28 29 45 44
f 49 29 28
f 50 44 45
f 29 30 46 45
f 49 30 29
f 50 45 46
f 30 31 47 46
f 49 31 30
f 50 46 47
f 31 32 48 47
f 49 32 31
f 50 47 48
f 32 17 33 48
f 49 17 32
f 50 48 33
o sg90_horn
usemtl NylonWhite
v 0.011000 0.000000 0.015250
v 0.010543 0.002296 0.015250
v 0.009243 0.004243 0.015250
v 0.007296 0.005543 0.015250
v 0.005000 0.006000 0.015250
v 0.002704 0.005543 0.015250
v 0.000757 0.004243 0.015250
v -0.000543 0.002296 0.015250
v -0.001000 0.000000 0.015250
v -0.000543 -0.002296 0.015250
v 0.000757 -0.004243 0.015250
v 0.002704 -0.005543 0.015250
v 0.005000 -0.006000 0.015250
v 0.007296 -0.005543 0.015250
v 0.009243 -0.004243 0.015250
v 0.010543 -0.002296 0.015250
v 0.011000 0.000000 0.017750
v 0.010543 0.002296 0.017750
v 0.009243 0.004243 0.017750
v 0.007296 0.005543 0.017750
v 0.005000 0.006000 0.017750
v 0.002704 0.005543 0.017750
v 0.000757 0.004243 0.017750
v -0.000543 0.002296 0.017750
v -0.001000 0.000000 0.017750
v -0.000543 -0.002296 0.017750
v 0.000757 -0.004243 0.017750
v 0.002704 -0.005543 0.017750
v 0.005000 -0.006000 0.017750
v 0.007296 -0.005543 0.017750
v 0.009243 -0.004243 0.017750
v 0.010543 -0.002296 0.017750
v 0.005000 0.000000 0.015250
v 0.005000 0.000000 0.017750
f 51 52 68 67
f 83 52 51
f 84 67 68
f 52 53 69 68
f 83 53 52
f 84 68 69
f 53 54 70 69
f 83 54 53
f 84 69 70
f 54 55 71 70
f 83 55 54
f 84 70 71
f 55 56 72 71
f 83 56 55
f 84 71 72
f 56 57 73 72
f 83 57 56
f 84 72 73
f 57 58 74 73
f 83 58 57
f 84 73 74
f 58 59 75 74
f 83 59 58
f 84 74 75
f 59 60 76 75
f 83 60 59
f 84 75 76
f 60 61 77 76
f 83 61 60
f 84 76 77
f 61 62 78 77
f 83 62 61
f 84 77 78
f 62 63 79 78
f 83 63 62
f 84 78 79
f 63 64 80 79
f 83 64 63
f 84 79 80
f 64 65 81 80
f 83 65 64
f 84 80 81
f 65 66 82 81
f 83 66 65
f 84 81 82
f 66 51 67 82
f 83 51 66
f 84 82 67
